%TF.GenerationSoftware,KiCad,Pcbnew,9.0.6*%
%TF.CreationDate,2026-04-07T16:33:38+02:00*%
%TF.ProjectId,mushroom_rocket,6d757368-726f-46f6-9d5f-726f636b6574,rev?*%
%TF.SameCoordinates,Original*%
%TF.FileFunction,Profile,NP*%
%FSLAX46Y46*%
G04 Gerber Fmt 4.6, Leading zero omitted, Abs format (unit mm)*
G04 Created by KiCad (PCBNEW 9.0.6) date 2026-04-07 16:33:38*
%MOMM*%
%LPD*%
G01*
G04 APERTURE LIST*
%TA.AperFunction,Profile*%
%ADD10C,1.000000*%
%TD*%
G04 APERTURE END LIST*
D10*
%TO.C,ART1*%
X157915000Y-48070000D02*
X158661000Y-48086000D01*
X159401000Y-48115000D01*
X160133000Y-48157000D01*
X160856000Y-48211000D01*
X161567000Y-48276000D01*
X161643000Y-48284000D01*
X161833000Y-48307000D01*
X162034000Y-48333000D01*
X162243000Y-48364000D01*
X162461000Y-48399000D01*
X162686000Y-48437000D01*
X162918000Y-48479000D01*
X163157000Y-48523000D01*
X163400000Y-48571000D01*
X163649000Y-48621000D01*
X163901000Y-48673000D01*
X164157000Y-48728000D01*
X164416000Y-48785000D01*
X164676000Y-48843000D01*
X164938000Y-48903000D01*
X165200000Y-48963000D01*
X165462000Y-49025000D01*
X165723000Y-49088000D01*
X165982000Y-49151000D01*
X166239000Y-49214000D01*
X166493000Y-49277000D01*
X166744000Y-49340000D01*
X166990000Y-49403000D01*
X167231000Y-49465000D01*
X167466000Y-49525000D01*
X167694000Y-49585000D01*
X167916000Y-49643000D01*
X168129000Y-49700000D01*
X168334000Y-49754000D01*
X168529000Y-49807000D01*
X168714000Y-49857000D01*
X168889000Y-49904000D01*
X169052000Y-49949000D01*
X169202000Y-49990000D01*
X169340000Y-50028000D01*
X169465000Y-50063000D01*
X169575000Y-50094000D01*
X169670000Y-50120000D01*
X169749000Y-50142000D01*
X169812000Y-50160000D01*
X169858000Y-50173000D01*
X169886000Y-50181000D01*
X169896000Y-50184000D01*
X169898000Y-50185000D01*
X169915000Y-50193000D01*
X169949000Y-50208000D01*
X170000000Y-50231000D01*
X170066000Y-50261000D01*
X170147000Y-50298000D01*
X170242000Y-50341000D01*
X170350000Y-50390000D01*
X170471000Y-50445000D01*
X170603000Y-50506000D01*
X170746000Y-50571000D01*
X170898000Y-50642000D01*
X171060000Y-50717000D01*
X171231000Y-50796000D01*
X171409000Y-50879000D01*
X171594000Y-50966000D01*
X171785000Y-51056000D01*
X171981000Y-51148000D01*
X172181000Y-51244000D01*
X172386000Y-51341000D01*
X172593000Y-51441000D01*
X172802000Y-51542000D01*
X173013000Y-51645000D01*
X173224000Y-51749000D01*
X173435000Y-51853000D01*
X173645000Y-51958000D01*
X173853000Y-52062000D01*
X174059000Y-52167000D01*
X174261000Y-52270000D01*
X174459000Y-52373000D01*
X174652000Y-52475000D01*
X174839000Y-52575000D01*
X175019000Y-52673000D01*
X175192000Y-52770000D01*
X175209000Y-52779000D01*
X175613000Y-53011000D01*
X176023000Y-53256000D01*
X176437000Y-53513000D01*
X176854000Y-53779000D01*
X177271000Y-54053000D01*
X177687000Y-54334000D01*
X178099000Y-54620000D01*
X178506000Y-54909000D01*
X178907000Y-55199000D01*
X179299000Y-55489000D01*
X179680000Y-55777000D01*
X180048000Y-56061000D01*
X180402000Y-56340000D01*
X180741000Y-56612000D01*
X181181000Y-56978000D01*
X181719000Y-57446000D01*
X182243000Y-57928000D01*
X182754000Y-58421000D01*
X183253000Y-58926000D01*
X183741000Y-59443000D01*
X184219000Y-59971000D01*
X184687000Y-60511000D01*
X184827000Y-60676000D01*
X185309000Y-61263000D01*
X185775000Y-61858000D01*
X186225000Y-62462000D01*
X186661000Y-63076000D01*
X187083000Y-63703000D01*
X187492000Y-64343000D01*
X187888000Y-64999000D01*
X188115000Y-65394000D01*
X188366000Y-65854000D01*
X188613000Y-66330000D01*
X188854000Y-66818000D01*
X189090000Y-67315000D01*
X189320000Y-67820000D01*
X189544000Y-68330000D01*
X189761000Y-68843000D01*
X189972000Y-69355000D01*
X190175000Y-69865000D01*
X190371000Y-70369000D01*
X190559000Y-70867000D01*
X190638000Y-71084000D01*
X190789000Y-71523000D01*
X190932000Y-71972000D01*
X191067000Y-72431000D01*
X191195000Y-72895000D01*
X191315000Y-73363000D01*
X191428000Y-73832000D01*
X191534000Y-74299000D01*
X191633000Y-74762000D01*
X191726000Y-75219000D01*
X191812000Y-75667000D01*
X191891000Y-76103000D01*
X191965000Y-76525000D01*
X192032000Y-76930000D01*
X192058000Y-77087000D01*
X192109000Y-77399000D01*
X192161000Y-77717000D01*
X192213000Y-78040000D01*
X192263000Y-78366000D01*
X192312000Y-78694000D01*
X192357000Y-79022000D01*
X192398000Y-79350000D01*
X192433000Y-79676000D01*
X192463000Y-79998000D01*
X192486000Y-80316000D01*
X192500000Y-80627000D01*
X192505000Y-80931000D01*
X192500000Y-81226000D01*
X192485000Y-81511000D01*
X192457000Y-81784000D01*
X192416000Y-82044000D01*
X192362000Y-82301000D01*
X192274000Y-82641000D01*
X192170000Y-82970000D01*
X192051000Y-83292000D01*
X191915000Y-83604000D01*
X191765000Y-83910000D01*
X191599000Y-84208000D01*
X191420000Y-84500000D01*
X191226000Y-84786000D01*
X191019000Y-85066000D01*
X190799000Y-85342000D01*
X190567000Y-85614000D01*
X190478000Y-85712000D01*
X190243000Y-85963000D01*
X189990000Y-86216000D01*
X189722000Y-86470000D01*
X189441000Y-86724000D01*
X189149000Y-86976000D01*
X188847000Y-87225000D01*
X188538000Y-87469000D01*
X188222000Y-87707000D01*
X187903000Y-87938000D01*
X187581000Y-88159000D01*
X187259000Y-88371000D01*
X186939000Y-88571000D01*
X186849000Y-88624000D01*
X186444000Y-88857000D01*
X186022000Y-89083000D01*
X185587000Y-89301000D01*
X185140000Y-89510000D01*
X184684000Y-89712000D01*
X184222000Y-89904000D01*
X183755000Y-90087000D01*
X183285000Y-90260000D01*
X182816000Y-90423000D01*
X182349000Y-90576000D01*
X182327000Y-90583000D01*
X182157000Y-90634000D01*
X181968000Y-90687000D01*
X181763000Y-90742000D01*
X181542000Y-90798000D01*
X181306000Y-90856000D01*
X181059000Y-90914000D01*
X180800000Y-90974000D01*
X180532000Y-91034000D01*
X180255000Y-91095000D01*
X179971000Y-91156000D01*
X179682000Y-91217000D01*
X179388000Y-91279000D01*
X179092000Y-91340000D01*
X178795000Y-91401000D01*
X178498000Y-91461000D01*
X178202000Y-91521000D01*
X177910000Y-91580000D01*
X177622000Y-91638000D01*
X177340000Y-91694000D01*
X177065000Y-91749000D01*
X176799000Y-91803000D01*
X176543000Y-91855000D01*
X176299000Y-91904000D01*
X176067000Y-91952000D01*
X175850000Y-91997000D01*
X175851000Y-92181000D01*
X175852000Y-92403000D01*
X175851000Y-92624000D01*
X175850000Y-92838000D01*
X175847000Y-93043000D01*
X175843000Y-93236000D01*
X175838000Y-93412000D01*
X175825000Y-93709000D01*
X175789000Y-94374000D01*
X175741000Y-95048000D01*
X175681000Y-95723000D01*
X175608000Y-96394000D01*
X175603000Y-96439000D01*
X175595000Y-96508000D01*
X175586000Y-96591000D01*
X175576000Y-96687000D01*
X175565000Y-96793000D01*
X175553000Y-96909000D01*
X175540000Y-97034000D01*
X175526000Y-97166000D01*
X175512000Y-97303000D01*
X175498000Y-97445000D01*
X175483000Y-97590000D01*
X175468000Y-97736000D01*
X175453000Y-97883000D01*
X175438000Y-98029000D01*
X175424000Y-98172000D01*
X175410000Y-98312000D01*
X175396000Y-98446000D01*
X175383000Y-98574000D01*
X175371000Y-98695000D01*
X175360000Y-98806000D01*
X175350000Y-98907000D01*
X175341000Y-98996000D01*
X175333000Y-99072000D01*
X175327000Y-99133000D01*
X175323000Y-99178000D01*
X175320000Y-99207000D01*
X175319000Y-99216000D01*
X177643000Y-100228000D01*
X177650000Y-100232000D01*
X177673000Y-100245000D01*
X177711000Y-100267000D01*
X177764000Y-100298000D01*
X177829000Y-100336000D01*
X177906000Y-100381000D01*
X177994000Y-100434000D01*
X178092000Y-100492000D01*
X178197000Y-100556000D01*
X178311000Y-100625000D01*
X178430000Y-100699000D01*
X178554000Y-100776000D01*
X178682000Y-100857000D01*
X178813000Y-100941000D01*
X178945000Y-101028000D01*
X179078000Y-101116000D01*
X179211000Y-101205000D01*
X179341000Y-101296000D01*
X179468000Y-101386000D01*
X179592000Y-101476000D01*
X179710000Y-101566000D01*
X179821000Y-101654000D01*
X179926000Y-101740000D01*
X180021000Y-101823000D01*
X180087000Y-101883000D01*
X180329000Y-102113000D01*
X180575000Y-102360000D01*
X180821000Y-102621000D01*
X181066000Y-102894000D01*
X181310000Y-103177000D01*
X181549000Y-103467000D01*
X181783000Y-103762000D01*
X182010000Y-104059000D01*
X182229000Y-104357000D01*
X182356000Y-104538000D01*
X182491000Y-104740000D01*
X182619000Y-104940000D01*
X182739000Y-105139000D01*
X182853000Y-105335000D01*
X182960000Y-105527000D01*
X183060000Y-105714000D01*
X183153000Y-105896000D01*
X183239000Y-106071000D01*
X183319000Y-106239000D01*
X183392000Y-106399000D01*
X183458000Y-106549000D01*
X183518000Y-106690000D01*
X183571000Y-106819000D01*
X183618000Y-106937000D01*
X183658000Y-107042000D01*
X183692000Y-107133000D01*
X183720000Y-107210000D01*
X183741000Y-107271000D01*
X183757000Y-107316000D01*
X183766000Y-107343000D01*
X183769000Y-107353000D01*
X183770000Y-107354000D01*
X183772000Y-107358000D01*
X183776000Y-107364000D01*
X183781000Y-107375000D01*
X183788000Y-107391000D01*
X183797000Y-107411000D01*
X183808000Y-107437000D01*
X183821000Y-107470000D01*
X183836000Y-107510000D01*
X183854000Y-107558000D01*
X183873000Y-107615000D01*
X183895000Y-107680000D01*
X183919000Y-107755000D01*
X183946000Y-107841000D01*
X183975000Y-107938000D01*
X184007000Y-108047000D01*
X184042000Y-108168000D01*
X184079000Y-108302000D01*
X184119000Y-108450000D01*
X184163000Y-108612000D01*
X184209000Y-108789000D01*
X184259000Y-108983000D01*
X184312000Y-109192000D01*
X184368000Y-109419000D01*
X184428000Y-109663000D01*
X184491000Y-109925000D01*
X184557000Y-110207000D01*
X184590000Y-110396000D01*
X184658000Y-110821000D01*
X184724000Y-111261000D01*
X184786000Y-111716000D01*
X184844000Y-112181000D01*
X184898000Y-112654000D01*
X184948000Y-113134000D01*
X184993000Y-113617000D01*
X185035000Y-114100000D01*
X185071000Y-114582000D01*
X185102000Y-115059000D01*
X185129000Y-115530000D01*
X185158000Y-116214000D01*
X185181000Y-117144000D01*
X185186000Y-118075000D01*
X185174000Y-119006000D01*
X185145000Y-119937000D01*
X185101000Y-120866000D01*
X185099000Y-120906000D01*
X185088000Y-121104000D01*
X185079000Y-121294000D01*
X185071000Y-121478000D01*
X185063000Y-121656000D01*
X185056000Y-121830000D01*
X185049000Y-122001000D01*
X185043000Y-122169000D01*
X185037000Y-122335000D01*
X185031000Y-122502000D01*
X185024000Y-122669000D01*
X185017000Y-122838000D01*
X185009000Y-123009000D01*
X185001000Y-123185000D01*
X184991000Y-123366000D01*
X184980000Y-123552000D01*
X184968000Y-123746000D01*
X184954000Y-123948000D01*
X184938000Y-124159000D01*
X184921000Y-124380000D01*
X184901000Y-124613000D01*
X184879000Y-124858000D01*
X184854000Y-125116000D01*
X184827000Y-125388000D01*
X184797000Y-125676000D01*
X184764000Y-125981000D01*
X184727000Y-126303000D01*
X184687000Y-126644000D01*
X184672000Y-126773000D01*
X184643000Y-127027000D01*
X184615000Y-127268000D01*
X184586000Y-127498000D01*
X184556000Y-127720000D01*
X184523000Y-127934000D01*
X184486000Y-128141000D01*
X184443000Y-128343000D01*
X184392000Y-128542000D01*
X184333000Y-128739000D01*
X184263000Y-128934000D01*
X184182000Y-129130000D01*
X184088000Y-129328000D01*
X183980000Y-129530000D01*
X183856000Y-129735000D01*
X183715000Y-129947000D01*
X183662000Y-130000000D01*
X183549000Y-130101000D01*
X183438000Y-130187000D01*
X183326000Y-130260000D01*
X183212000Y-130321000D01*
X183093000Y-130371000D01*
X182968000Y-130412000D01*
X182834000Y-130444000D01*
X182690000Y-130470000D01*
X182534000Y-130491000D01*
X182363000Y-130507000D01*
X182176000Y-130520000D01*
X181972000Y-130532000D01*
X181925000Y-130534000D01*
X181798000Y-130524000D01*
X181675000Y-130498000D01*
X181555000Y-130455000D01*
X181438000Y-130399000D01*
X181324000Y-130330000D01*
X181213000Y-130251000D01*
X181104000Y-130163000D01*
X180999000Y-130067000D01*
X180896000Y-129966000D01*
X180863000Y-129932000D01*
X180713000Y-129763000D01*
X180570000Y-129577000D01*
X180432000Y-129376000D01*
X180299000Y-129162000D01*
X180172000Y-128937000D01*
X180050000Y-128703000D01*
X179933000Y-128462000D01*
X179820000Y-128215000D01*
X179712000Y-127965000D01*
X179608000Y-127714000D01*
X179508000Y-127462000D01*
X179412000Y-127213000D01*
X179319000Y-126968000D01*
X179230000Y-126729000D01*
X179144000Y-126498000D01*
X179061000Y-126276000D01*
X178980000Y-126066000D01*
X178969000Y-126045000D01*
X178869000Y-125854000D01*
X178765000Y-125661000D01*
X178660000Y-125467000D01*
X178553000Y-125273000D01*
X178445000Y-125080000D01*
X178337000Y-124888000D01*
X178229000Y-124699000D01*
X178122000Y-124512000D01*
X178016000Y-124329000D01*
X177911000Y-124151000D01*
X177809000Y-123977000D01*
X177709000Y-123810000D01*
X177613000Y-123649000D01*
X177521000Y-123495000D01*
X177433000Y-123349000D01*
X177349000Y-123213000D01*
X177272000Y-123085000D01*
X177200000Y-122968000D01*
X177134000Y-122863000D01*
X177076000Y-122768000D01*
X177025000Y-122687000D01*
X176982000Y-122618000D01*
X176948000Y-122563000D01*
X176923000Y-122524000D01*
X176908000Y-122499000D01*
X176902000Y-122491000D01*
X176901000Y-122489000D01*
X176890000Y-122475000D01*
X176866000Y-122447000D01*
X176832000Y-122405000D01*
X176787000Y-122351000D01*
X176732000Y-122285000D01*
X176669000Y-122208000D01*
X176597000Y-122122000D01*
X176517000Y-122026000D01*
X176431000Y-121922000D01*
X176338000Y-121811000D01*
X176239000Y-121693000D01*
X176135000Y-121569000D01*
X176027000Y-121441000D01*
X175916000Y-121309000D01*
X175801000Y-121173000D01*
X175684000Y-121035000D01*
X175565000Y-120896000D01*
X175446000Y-120757000D01*
X175326000Y-120617000D01*
X175207000Y-120479000D01*
X175177000Y-120445000D01*
X175081000Y-120342000D01*
X174975000Y-120237000D01*
X174862000Y-120130000D01*
X174741000Y-120024000D01*
X174614000Y-119916000D01*
X174482000Y-119809000D01*
X174346000Y-119703000D01*
X174208000Y-119598000D01*
X174067000Y-119494000D01*
X173926000Y-119392000D01*
X173785000Y-119293000D01*
X173646000Y-119197000D01*
X173509000Y-119105000D01*
X173376000Y-119016000D01*
X173247000Y-118932000D01*
X173123000Y-118853000D01*
X173007000Y-118779000D01*
X172898000Y-118710000D01*
X172798000Y-118648000D01*
X172708000Y-118593000D01*
X172629000Y-118545000D01*
X172562000Y-118505000D01*
X172508000Y-118473000D01*
X172468000Y-118449000D01*
X172443000Y-118435000D01*
X172435000Y-118430000D01*
X172433000Y-118429000D01*
X172420000Y-118419000D01*
X172391000Y-118399000D01*
X172349000Y-118369000D01*
X172294000Y-118332000D01*
X172228000Y-118287000D01*
X172151000Y-118237000D01*
X172065000Y-118182000D01*
X171970000Y-118123000D01*
X171868000Y-118062000D01*
X171760000Y-117999000D01*
X171647000Y-117937000D01*
X171529000Y-117875000D01*
X171408000Y-117815000D01*
X171285000Y-117758000D01*
X171161000Y-117706000D01*
X171037000Y-117658000D01*
X170914000Y-117618000D01*
X170793000Y-117584000D01*
X170675000Y-117560000D01*
X170561000Y-117545000D01*
X170453000Y-117541000D01*
X170350000Y-117550000D01*
X170255000Y-117571000D01*
X170168000Y-117607000D01*
X170104000Y-117645000D01*
X170019000Y-117709000D01*
X169944000Y-117784000D01*
X169877000Y-117869000D01*
X169815000Y-117963000D01*
X169759000Y-118068000D01*
X169705000Y-118181000D01*
X169652000Y-118304000D01*
X169600000Y-118434000D01*
X169546000Y-118573000D01*
X169489000Y-118720000D01*
X169428000Y-118874000D01*
X169361000Y-119035000D01*
X169286000Y-119203000D01*
X169202000Y-119378000D01*
X169107000Y-119558000D01*
X169001000Y-119744000D01*
X168880000Y-119935000D01*
X168745000Y-120132000D01*
X168593000Y-120332000D01*
X168424000Y-120538000D01*
X168354000Y-120617000D01*
X168207000Y-120772000D01*
X168065000Y-120910000D01*
X167927000Y-121031000D01*
X167794000Y-121136000D01*
X167665000Y-121227000D01*
X167540000Y-121305000D01*
X167419000Y-121371000D01*
X167303000Y-121426000D01*
X167190000Y-121472000D01*
X167083000Y-121509000D01*
X166979000Y-121538000D01*
X166880000Y-121562000D01*
X166785000Y-121580000D01*
X166694000Y-121595000D01*
X166608000Y-121607000D01*
X166526000Y-121617000D01*
X166448000Y-121628000D01*
X166375000Y-121639000D01*
X166306000Y-121652000D01*
X166241000Y-121668000D01*
X166181000Y-121688000D01*
X166125000Y-121714000D01*
X166073000Y-121747000D01*
X166026000Y-121788000D01*
X165983000Y-121837000D01*
X165944000Y-121897000D01*
X165911000Y-121969000D01*
X165887000Y-122059000D01*
X165874000Y-122156000D01*
X165872000Y-122261000D01*
X165880000Y-122372000D01*
X165896000Y-122488000D01*
X165920000Y-122607000D01*
X165950000Y-122729000D01*
X165986000Y-122851000D01*
X166026000Y-122974000D01*
X166070000Y-123095000D01*
X166116000Y-123213000D01*
X166163000Y-123328000D01*
X166211000Y-123437000D01*
X166258000Y-123540000D01*
X166303000Y-123636000D01*
X166346000Y-123723000D01*
X166385000Y-123800000D01*
X166419000Y-123866000D01*
X166447000Y-123919000D01*
X166469000Y-123958000D01*
X166483000Y-123983000D01*
X166487000Y-123992000D01*
X166499000Y-124024000D01*
X166537000Y-124131000D01*
X166577000Y-124246000D01*
X166618000Y-124368000D01*
X166659000Y-124495000D01*
X166699000Y-124626000D01*
X166736000Y-124759000D01*
X166770000Y-124895000D01*
X166799000Y-125030000D01*
X166822000Y-125165000D01*
X166839000Y-125297000D01*
X166847000Y-125427000D01*
X166846000Y-125552000D01*
X166834000Y-125671000D01*
X166811000Y-125783000D01*
X166775000Y-125887000D01*
X166726000Y-125982000D01*
X166661000Y-126066000D01*
X166639000Y-126089000D01*
X166567000Y-126149000D01*
X166492000Y-126194000D01*
X166414000Y-126225000D01*
X166334000Y-126245000D01*
X166253000Y-126255000D01*
X166172000Y-126257000D01*
X166092000Y-126254000D01*
X166012000Y-126246000D01*
X165935000Y-126237000D01*
X165860000Y-126228000D01*
X165788000Y-126222000D01*
X165721000Y-126219000D01*
X165658000Y-126222000D01*
X165602000Y-126233000D01*
X165551000Y-126254000D01*
X165507000Y-126287000D01*
X165472000Y-126334000D01*
X165445000Y-126396000D01*
X165431000Y-126448000D01*
X165420000Y-126521000D01*
X165419000Y-126596000D01*
X165426000Y-126673000D01*
X165440000Y-126754000D01*
X165460000Y-126839000D01*
X165485000Y-126930000D01*
X165515000Y-127027000D01*
X165547000Y-127131000D01*
X165581000Y-127244000D01*
X165615000Y-127366000D01*
X165650000Y-127498000D01*
X165683000Y-127642000D01*
X165714000Y-127797000D01*
X165741000Y-127966000D01*
X165764000Y-128148000D01*
X165781000Y-128346000D01*
X165791000Y-128560000D01*
X165794000Y-128791000D01*
X165791000Y-129013000D01*
X165781000Y-129324000D01*
X165764000Y-129623000D01*
X165742000Y-129910000D01*
X165714000Y-130184000D01*
X165683000Y-130445000D01*
X165648000Y-130692000D01*
X165610000Y-130926000D01*
X165570000Y-131146000D01*
X165528000Y-131352000D01*
X165486000Y-131543000D01*
X165444000Y-131719000D01*
X165402000Y-131880000D01*
X165362000Y-132025000D01*
X165324000Y-132155000D01*
X165288000Y-132268000D01*
X165257000Y-132364000D01*
X165229000Y-132444000D01*
X165206000Y-132507000D01*
X165189000Y-132552000D01*
X165178000Y-132579000D01*
X165175000Y-132588000D01*
X165170000Y-132600000D01*
X165157000Y-132629000D01*
X165137000Y-132676000D01*
X165109000Y-132739000D01*
X165073000Y-132819000D01*
X165030000Y-132916000D01*
X164980000Y-133027000D01*
X164922000Y-133155000D01*
X164858000Y-133296000D01*
X164786000Y-133453000D01*
X164707000Y-133623000D01*
X164621000Y-133806000D01*
X164528000Y-134003000D01*
X164429000Y-134212000D01*
X164323000Y-134434000D01*
X164211000Y-134666000D01*
X164092000Y-134911000D01*
X163966000Y-135166000D01*
X163835000Y-135431000D01*
X163697000Y-135706000D01*
X163553000Y-135991000D01*
X163439000Y-136212000D01*
X163265000Y-136549000D01*
X163093000Y-136875000D01*
X162924000Y-137189000D01*
X162760000Y-137491000D01*
X162599000Y-137782000D01*
X162442000Y-138060000D01*
X162290000Y-138326000D01*
X162143000Y-138580000D01*
X162002000Y-138820000D01*
X161866000Y-139048000D01*
X161737000Y-139263000D01*
X161614000Y-139464000D01*
X161498000Y-139652000D01*
X161389000Y-139826000D01*
X161288000Y-139986000D01*
X161194000Y-140131000D01*
X161109000Y-140262000D01*
X161033000Y-140379000D01*
X160965000Y-140481000D01*
X160907000Y-140567000D01*
X160859000Y-140639000D01*
X160821000Y-140695000D01*
X160793000Y-140735000D01*
X160776000Y-140759000D01*
X160771000Y-140767000D01*
X160769000Y-140769000D01*
X160759000Y-140786000D01*
X160739000Y-140818000D01*
X160710000Y-140863000D01*
X160670000Y-140922000D01*
X160621000Y-140991000D01*
X160563000Y-141070000D01*
X160496000Y-141158000D01*
X160419000Y-141253000D01*
X160333000Y-141353000D01*
X160238000Y-141458000D01*
X160134000Y-141566000D01*
X160022000Y-141676000D01*
X159901000Y-141786000D01*
X159771000Y-141895000D01*
X159633000Y-142002000D01*
X159487000Y-142105000D01*
X159332000Y-142203000D01*
X159170000Y-142294000D01*
X159000000Y-142378000D01*
X158821000Y-142452000D01*
X158636000Y-142516000D01*
X158442000Y-142568000D01*
X158308000Y-142558000D01*
X158088000Y-142531000D01*
X157881000Y-142492000D01*
X157688000Y-142442000D01*
X157507000Y-142383000D01*
X157339000Y-142315000D01*
X157182000Y-142240000D01*
X157037000Y-142159000D01*
X156902000Y-142073000D01*
X156778000Y-141984000D01*
X156663000Y-141892000D01*
X156558000Y-141798000D01*
X156461000Y-141704000D01*
X156372000Y-141611000D01*
X156291000Y-141520000D01*
X156217000Y-141433000D01*
X156150000Y-141349000D01*
X156088000Y-141271000D01*
X156033000Y-141200000D01*
X156030000Y-141197000D01*
X156015000Y-141181000D01*
X155988000Y-141151000D01*
X155948000Y-141107000D01*
X155897000Y-141049000D01*
X155834000Y-140978000D01*
X155762000Y-140893000D01*
X155679000Y-140796000D01*
X155588000Y-140685000D01*
X155488000Y-140561000D01*
X155380000Y-140425000D01*
X155265000Y-140277000D01*
X155144000Y-140117000D01*
X155016000Y-139945000D01*
X154883000Y-139761000D01*
X154745000Y-139566000D01*
X154603000Y-139359000D01*
X154458000Y-139141000D01*
X154309000Y-138913000D01*
X154158000Y-138674000D01*
X154006000Y-138425000D01*
X153852000Y-138165000D01*
X153698000Y-137896000D01*
X153543000Y-137616000D01*
X153390000Y-137327000D01*
X153238000Y-137029000D01*
X153222000Y-136997000D01*
X153066000Y-136680000D01*
X152906000Y-136346000D01*
X152744000Y-135998000D01*
X152581000Y-135637000D01*
X152418000Y-135265000D01*
X152257000Y-134884000D01*
X152099000Y-134496000D01*
X151945000Y-134102000D01*
X151797000Y-133704000D01*
X151657000Y-133304000D01*
X151525000Y-132904000D01*
X151404000Y-132506000D01*
X151293000Y-132111000D01*
X151196000Y-131721000D01*
X151113000Y-131338000D01*
X151045000Y-130964000D01*
X151034000Y-130891000D01*
X151010000Y-130664000D01*
X150999000Y-130434000D01*
X150998000Y-130203000D01*
X151008000Y-129971000D01*
X151026000Y-129739000D01*
X151051000Y-129507000D01*
X151081000Y-129276000D01*
X151114000Y-129047000D01*
X151150000Y-128821000D01*
X151187000Y-128599000D01*
X151222000Y-128381000D01*
X151256000Y-128168000D01*
X151285000Y-127961000D01*
X151309000Y-127760000D01*
X151326000Y-127567000D01*
X151334000Y-127381000D01*
X151332000Y-127205000D01*
X151319000Y-127038000D01*
X151293000Y-126881000D01*
X151252000Y-126736000D01*
X151221000Y-126659000D01*
X151182000Y-126592000D01*
X151138000Y-126533000D01*
X151088000Y-126482000D01*
X151034000Y-126438000D01*
X150976000Y-126400000D01*
X150915000Y-126367000D01*
X150851000Y-126337000D01*
X150786000Y-126311000D01*
X150718000Y-126287000D01*
X150650000Y-126264000D01*
X150582000Y-126241000D01*
X150514000Y-126216000D01*
X150447000Y-126190000D01*
X150382000Y-126161000D01*
X150320000Y-126127000D01*
X150260000Y-126089000D01*
X150204000Y-126044000D01*
X150152000Y-125993000D01*
X150105000Y-125933000D01*
X150063000Y-125864000D01*
X150027000Y-125785000D01*
X149998000Y-125696000D01*
X149977000Y-125594000D01*
X149963000Y-125479000D01*
X149958000Y-125350000D01*
X149962000Y-125206000D01*
X149976000Y-125046000D01*
X149976000Y-125039000D01*
X149976000Y-125026000D01*
X149978000Y-125005000D01*
X149981000Y-124978000D01*
X149986000Y-124942000D01*
X149993000Y-124898000D01*
X150003000Y-124844000D01*
X150016000Y-124781000D01*
X150033000Y-124707000D01*
X150053000Y-124622000D01*
X150077000Y-124526000D01*
X150107000Y-124417000D01*
X150141000Y-124294000D01*
X150180000Y-124158000D01*
X150225000Y-124008000D01*
X150277000Y-123842000D01*
X150335000Y-123661000D01*
X150400000Y-123464000D01*
X150472000Y-123249000D01*
X150552000Y-123017000D01*
X150581000Y-122940000D01*
X150627000Y-122824000D01*
X150676000Y-122714000D01*
X150724000Y-122609000D01*
X150771000Y-122509000D01*
X150813000Y-122415000D01*
X150850000Y-122325000D01*
X150878000Y-122240000D01*
X150897000Y-122160000D01*
X150904000Y-122085000D01*
X150897000Y-122014000D01*
X150875000Y-121948000D01*
X150835000Y-121886000D01*
X150800000Y-121852000D01*
X150744000Y-121816000D01*
X150675000Y-121781000D01*
X150594000Y-121749000D01*
X150503000Y-121719000D01*
X150404000Y-121691000D01*
X150299000Y-121665000D01*
X150190000Y-121642000D01*
X150079000Y-121620000D01*
X149969000Y-121601000D01*
X149860000Y-121583000D01*
X149755000Y-121567000D01*
X149656000Y-121553000D01*
X149565000Y-121541000D01*
X149484000Y-121531000D01*
X149415000Y-121522000D01*
X149360000Y-121515000D01*
X149322000Y-121509000D01*
X149301000Y-121505000D01*
X149222000Y-121482000D01*
X149125000Y-121452000D01*
X149037000Y-121424000D01*
X148959000Y-121396000D01*
X148888000Y-121367000D01*
X148824000Y-121337000D01*
X148765000Y-121304000D01*
X148710000Y-121268000D01*
X148659000Y-121228000D01*
X148609000Y-121182000D01*
X148561000Y-121131000D01*
X148512000Y-121072000D01*
X148461000Y-121006000D01*
X148408000Y-120930000D01*
X148351000Y-120845000D01*
X148288000Y-120750000D01*
X148220000Y-120642000D01*
X148145000Y-120523000D01*
X148061000Y-120390000D01*
X147967000Y-120243000D01*
X147863000Y-120080000D01*
X147748000Y-119924000D01*
X147638000Y-119756000D01*
X147540000Y-119588000D01*
X147454000Y-119423000D01*
X147378000Y-119260000D01*
X147310000Y-119101000D01*
X147250000Y-118944000D01*
X147196000Y-118792000D01*
X147146000Y-118645000D01*
X147099000Y-118503000D01*
X147054000Y-118367000D01*
X147008000Y-118238000D01*
X146962000Y-118115000D01*
X146913000Y-118001000D01*
X146860000Y-117894000D01*
X146802000Y-117796000D01*
X146737000Y-117708000D01*
X146663000Y-117630000D01*
X146580000Y-117562000D01*
X146486000Y-117506000D01*
X146380000Y-117461000D01*
X146259000Y-117429000D01*
X146194000Y-117419000D01*
X146086000Y-117419000D01*
X145969000Y-117433000D01*
X145844000Y-117462000D01*
X145711000Y-117504000D01*
X145571000Y-117558000D01*
X145425000Y-117623000D01*
X145275000Y-117698000D01*
X145119000Y-117782000D01*
X144961000Y-117874000D01*
X144800000Y-117973000D01*
X144637000Y-118078000D01*
X144473000Y-118187000D01*
X144309000Y-118301000D01*
X144145000Y-118417000D01*
X143984000Y-118536000D01*
X143824000Y-118655000D01*
X143668000Y-118773000D01*
X143516000Y-118891000D01*
X143369000Y-119006000D01*
X143228000Y-119117000D01*
X143093000Y-119225000D01*
X142966000Y-119327000D01*
X142847000Y-119422000D01*
X142737000Y-119510000D01*
X142637000Y-119590000D01*
X142548000Y-119660000D01*
X142470000Y-119719000D01*
X142366000Y-119799000D01*
X142242000Y-119898000D01*
X142116000Y-120004000D01*
X141987000Y-120116000D01*
X141857000Y-120232000D01*
X141726000Y-120351000D01*
X141595000Y-120474000D01*
X141464000Y-120598000D01*
X141335000Y-120724000D01*
X141207000Y-120850000D01*
X141082000Y-120975000D01*
X140960000Y-121098000D01*
X140842000Y-121219000D01*
X140729000Y-121337000D01*
X140621000Y-121450000D01*
X140519000Y-121558000D01*
X140423000Y-121660000D01*
X140334000Y-121756000D01*
X140254000Y-121843000D01*
X140182000Y-121921000D01*
X140119000Y-121990000D01*
X140066000Y-122048000D01*
X140024000Y-122095000D01*
X139993000Y-122130000D01*
X139974000Y-122151000D01*
X139968000Y-122159000D01*
X139963000Y-122164000D01*
X139947000Y-122185000D01*
X139921000Y-122220000D01*
X139884000Y-122268000D01*
X139838000Y-122330000D01*
X139783000Y-122403000D01*
X139720000Y-122487000D01*
X139650000Y-122581000D01*
X139573000Y-122685000D01*
X139491000Y-122798000D01*
X139403000Y-122918000D01*
X139311000Y-123045000D01*
X139215000Y-123178000D01*
X139116000Y-123317000D01*
X139015000Y-123460000D01*
X138912000Y-123607000D01*
X138808000Y-123756000D01*
X138704000Y-123908000D01*
X138601000Y-124061000D01*
X138499000Y-124214000D01*
X138399000Y-124367000D01*
X138302000Y-124518000D01*
X138208000Y-124668000D01*
X138118000Y-124815000D01*
X138033000Y-124957000D01*
X137960000Y-125080000D01*
X137888000Y-125197000D01*
X137820000Y-125307000D01*
X137754000Y-125412000D01*
X137690000Y-125514000D01*
X137626000Y-125615000D01*
X137563000Y-125717000D01*
X137499000Y-125822000D01*
X137434000Y-125932000D01*
X137368000Y-126050000D01*
X137299000Y-126176000D01*
X137227000Y-126314000D01*
X137152000Y-126465000D01*
X137072000Y-126631000D01*
X136988000Y-126814000D01*
X136979000Y-126832000D01*
X136931000Y-126937000D01*
X136884000Y-127039000D01*
X136838000Y-127139000D01*
X136791000Y-127240000D01*
X136744000Y-127342000D01*
X136695000Y-127446000D01*
X136644000Y-127555000D01*
X136591000Y-127670000D01*
X136535000Y-127792000D01*
X136476000Y-127923000D01*
X136412000Y-128063000D01*
X136343000Y-128215000D01*
X136269000Y-128380000D01*
X136190000Y-128558000D01*
X136103000Y-128753000D01*
X136010000Y-128965000D01*
X135949000Y-129105000D01*
X135872000Y-129285000D01*
X135801000Y-129453000D01*
X135734000Y-129609000D01*
X135670000Y-129754000D01*
X135608000Y-129889000D01*
X135547000Y-130014000D01*
X135486000Y-130128000D01*
X135424000Y-130233000D01*
X135359000Y-130330000D01*
X135290000Y-130418000D01*
X135217000Y-130497000D01*
X135138000Y-130569000D01*
X135051000Y-130634000D01*
X134956000Y-130692000D01*
X134852000Y-130744000D01*
X134737000Y-130790000D01*
X134611000Y-130830000D01*
X134471000Y-130865000D01*
X134318000Y-130895000D01*
X134149000Y-130921000D01*
X133964000Y-130943000D01*
X133761000Y-130962000D01*
X133540000Y-130978000D01*
X133532000Y-130976000D01*
X133380000Y-130946000D01*
X133241000Y-130920000D01*
X133115000Y-130897000D01*
X132999000Y-130875000D01*
X132892000Y-130854000D01*
X132794000Y-130832000D01*
X132703000Y-130807000D01*
X132617000Y-130779000D01*
X132535000Y-130745000D01*
X132457000Y-130706000D01*
X132380000Y-130659000D01*
X132304000Y-130603000D01*
X132226000Y-130537000D01*
X132146000Y-130459000D01*
X132063000Y-130369000D01*
X131975000Y-130264000D01*
X131881000Y-130145000D01*
X131779000Y-130008000D01*
X131737000Y-129942000D01*
X131688000Y-129850000D01*
X131640000Y-129741000D01*
X131592000Y-129616000D01*
X131544000Y-129478000D01*
X131496000Y-129327000D01*
X131449000Y-129164000D01*
X131403000Y-128992000D01*
X131357000Y-128812000D01*
X131312000Y-128625000D01*
X131268000Y-128433000D01*
X131226000Y-128237000D01*
X131184000Y-128039000D01*
X131144000Y-127840000D01*
X131106000Y-127641000D01*
X131069000Y-127445000D01*
X131033000Y-127252000D01*
X131000000Y-127064000D01*
X130969000Y-126883000D01*
X130940000Y-126710000D01*
X130913000Y-126546000D01*
X130888000Y-126393000D01*
X130866000Y-126252000D01*
X130847000Y-126126000D01*
X130830000Y-126014000D01*
X130817000Y-125920000D01*
X130806000Y-125844000D01*
X130763000Y-125530000D01*
X130700000Y-125082000D01*
X130633000Y-124619000D01*
X130565000Y-124146000D01*
X130499000Y-123664000D01*
X130436000Y-123176000D01*
X130379000Y-122686000D01*
X130330000Y-122196000D01*
X130291000Y-121709000D01*
X130263000Y-121228000D01*
X130249000Y-120867000D01*
X130232000Y-120418000D01*
X130219000Y-119953000D01*
X130208000Y-119475000D01*
X130200000Y-118986000D01*
X130197000Y-118489000D01*
X130199000Y-117986000D01*
X130206000Y-117479000D01*
X130220000Y-116970000D01*
X130241000Y-116463000D01*
X130269000Y-115959000D01*
X130305000Y-115461000D01*
X130351000Y-114971000D01*
X130381000Y-114699000D01*
X130423000Y-114350000D01*
X130472000Y-113986000D01*
X130527000Y-113609000D01*
X130589000Y-113219000D01*
X130656000Y-112818000D01*
X130728000Y-112409000D01*
X130806000Y-111992000D01*
X130888000Y-111571000D01*
X130976000Y-111145000D01*
X131068000Y-110718000D01*
X131164000Y-110291000D01*
X131264000Y-109865000D01*
X131369000Y-109442000D01*
X131477000Y-109025000D01*
X131588000Y-108614000D01*
X131702000Y-108211000D01*
X131819000Y-107819000D01*
X131939000Y-107438000D01*
X132062000Y-107072000D01*
X132186000Y-106720000D01*
X132313000Y-106386000D01*
X132381000Y-106217000D01*
X132523000Y-105903000D01*
X132682000Y-105591000D01*
X132856000Y-105280000D01*
X133045000Y-104973000D01*
X133246000Y-104670000D01*
X133459000Y-104371000D01*
X133682000Y-104077000D01*
X133914000Y-103789000D01*
X134154000Y-103507000D01*
X134400000Y-103232000D01*
X134650000Y-102964000D01*
X134905000Y-102705000D01*
X135161000Y-102454000D01*
X135418000Y-102213000D01*
X135676000Y-101982000D01*
X135931000Y-101761000D01*
X136183000Y-101552000D01*
X136431000Y-101355000D01*
X136674000Y-101171000D01*
X136909000Y-101000000D01*
X137136000Y-100842000D01*
X137353000Y-100700000D01*
X137560000Y-100572000D01*
X137617000Y-100538000D01*
X137771000Y-100450000D01*
X137930000Y-100363000D01*
X138093000Y-100278000D01*
X138260000Y-100194000D01*
X138429000Y-100112000D01*
X138599000Y-100031000D01*
X138769000Y-99953000D01*
X138937000Y-99878000D01*
X139104000Y-99805000D01*
X139268000Y-99735000D01*
X139427000Y-99669000D01*
X139581000Y-99606000D01*
X139729000Y-99546000D01*
X139870000Y-99491000D01*
X140002000Y-99440000D01*
X140125000Y-99393000D01*
X140237000Y-99351000D01*
X140337000Y-99313000D01*
X140425000Y-99281000D01*
X140500000Y-99254000D01*
X140559000Y-99232000D01*
X140603000Y-99217000D01*
X140631000Y-99207000D01*
X140640000Y-99204000D01*
X140640000Y-99202000D01*
X140638000Y-99183000D01*
X140636000Y-99146000D01*
X140632000Y-99091000D01*
X140627000Y-99021000D01*
X140621000Y-98935000D01*
X140614000Y-98836000D01*
X140607000Y-98725000D01*
X140598000Y-98602000D01*
X140589000Y-98468000D01*
X140579000Y-98326000D01*
X140568000Y-98175000D01*
X140557000Y-98017000D01*
X140546000Y-97854000D01*
X140534000Y-97686000D01*
X140522000Y-97514000D01*
X140510000Y-97340000D01*
X140497000Y-97165000D01*
X140485000Y-96989000D01*
X140472000Y-96815000D01*
X140460000Y-96642000D01*
X140448000Y-96473000D01*
X140436000Y-96309000D01*
X140424000Y-96149000D01*
X140413000Y-95997000D01*
X140402000Y-95852000D01*
X140391000Y-95717000D01*
X140382000Y-95591000D01*
X140373000Y-95476000D01*
X140365000Y-95374000D01*
X140357000Y-95286000D01*
X140354000Y-95250000D01*
X140346000Y-95153000D01*
X140338000Y-95045000D01*
X140329000Y-94926000D01*
X140320000Y-94798000D01*
X140310000Y-94662000D01*
X140300000Y-94519000D01*
X140290000Y-94371000D01*
X140279000Y-94219000D01*
X140269000Y-94063000D01*
X140258000Y-93907000D01*
X140248000Y-93750000D01*
X140237000Y-93594000D01*
X140227000Y-93440000D01*
X140217000Y-93289000D01*
X140208000Y-93144000D01*
X140199000Y-93004000D01*
X140190000Y-92872000D01*
X140182000Y-92748000D01*
X140175000Y-92634000D01*
X140169000Y-92531000D01*
X140163000Y-92441000D01*
X140158000Y-92364000D01*
X140154000Y-92302000D01*
X140151000Y-92256000D01*
X140149000Y-92227000D01*
X140149000Y-92218000D01*
X140149000Y-92217000D01*
X140139000Y-92216000D01*
X140110000Y-92210000D01*
X140063000Y-92200000D01*
X139999000Y-92187000D01*
X139919000Y-92171000D01*
X139822000Y-92151000D01*
X139711000Y-92128000D01*
X139585000Y-92102000D01*
X139446000Y-92073000D01*
X139294000Y-92041000D01*
X139130000Y-92006000D01*
X138954000Y-91969000D01*
X138768000Y-91929000D01*
X138573000Y-91887000D01*
X138368000Y-91843000D01*
X138155000Y-91797000D01*
X137935000Y-91748000D01*
X137708000Y-91698000D01*
X137475000Y-91646000D01*
X137237000Y-91592000D01*
X136995000Y-91537000D01*
X136748000Y-91481000D01*
X136499000Y-91423000D01*
X136248000Y-91364000D01*
X135995000Y-91305000D01*
X135742000Y-91244000D01*
X135489000Y-91182000D01*
X135236000Y-91120000D01*
X134986000Y-91058000D01*
X134737000Y-90994000D01*
X134492000Y-90931000D01*
X134251000Y-90868000D01*
X134015000Y-90804000D01*
X133784000Y-90741000D01*
X133559000Y-90677000D01*
X133341000Y-90615000D01*
X133130000Y-90552000D01*
X132929000Y-90490000D01*
X132736000Y-90429000D01*
X132554000Y-90369000D01*
X132382000Y-90309000D01*
X132221000Y-90251000D01*
X132073000Y-90194000D01*
X131938000Y-90138000D01*
X131741000Y-90053000D01*
X131111000Y-89774000D01*
X130484000Y-89485000D01*
X129863000Y-89184000D01*
X129248000Y-88872000D01*
X128640000Y-88545000D01*
X128041000Y-88205000D01*
X127452000Y-87848000D01*
X127213000Y-87697000D01*
X126912000Y-87501000D01*
X126614000Y-87299000D01*
X126321000Y-87090000D01*
X126033000Y-86873000D01*
X125752000Y-86647000D01*
X125479000Y-86413000D01*
X125216000Y-86168000D01*
X124965000Y-85913000D01*
X124726000Y-85647000D01*
X124501000Y-85369000D01*
X124372000Y-85195000D01*
X124162000Y-84885000D01*
X123968000Y-84566000D01*
X123790000Y-84237000D01*
X123627000Y-83900000D01*
X123480000Y-83557000D01*
X123347000Y-83207000D01*
X123230000Y-82852000D01*
X123127000Y-82493000D01*
X123038000Y-82130000D01*
X122964000Y-81766000D01*
X122950000Y-81690000D01*
X122885000Y-81271000D01*
X122839000Y-80849000D01*
X122811000Y-80426000D01*
X122802000Y-80002000D01*
X122813000Y-79578000D01*
X122843000Y-79155000D01*
X122886000Y-78731000D01*
X122952000Y-78160000D01*
X123030000Y-77577000D01*
X123120000Y-76985000D01*
X123221000Y-76385000D01*
X123334000Y-75781000D01*
X123460000Y-75175000D01*
X123598000Y-74570000D01*
X123748000Y-73968000D01*
X123910000Y-73371000D01*
X124086000Y-72782000D01*
X124274000Y-72205000D01*
X124278000Y-72193000D01*
X124458000Y-71682000D01*
X124653000Y-71161000D01*
X124861000Y-70633000D01*
X125081000Y-70099000D01*
X125312000Y-69561000D01*
X125553000Y-69022000D01*
X125802000Y-68484000D01*
X126058000Y-67948000D01*
X126321000Y-67419000D01*
X126589000Y-66896000D01*
X126860000Y-66383000D01*
X127134000Y-65882000D01*
X127410000Y-65395000D01*
X127685000Y-64924000D01*
X127846000Y-64656000D01*
X128252000Y-64007000D01*
X128673000Y-63366000D01*
X129110000Y-62735000D01*
X129561000Y-62114000D01*
X130028000Y-61503000D01*
X130509000Y-60905000D01*
X131005000Y-60318000D01*
X131515000Y-59745000D01*
X132039000Y-59185000D01*
X132540000Y-58675000D01*
X133075000Y-58154000D01*
X133627000Y-57641000D01*
X134194000Y-57137000D01*
X134775000Y-56642000D01*
X135368000Y-56158000D01*
X135973000Y-55686000D01*
X136586000Y-55228000D01*
X137208000Y-54784000D01*
X137837000Y-54356000D01*
X137878000Y-54329000D01*
X138314000Y-54040000D01*
X138763000Y-53747000D01*
X139222000Y-53450000D01*
X139692000Y-53152000D01*
X140170000Y-52855000D01*
X140656000Y-52559000D01*
X141148000Y-52267000D01*
X141646000Y-51980000D01*
X142147000Y-51701000D01*
X142652000Y-51431000D01*
X143159000Y-51172000D01*
X143666000Y-50925000D01*
X144173000Y-50693000D01*
X144679000Y-50477000D01*
X145181000Y-50278000D01*
X145714000Y-50083000D01*
X146439000Y-49834000D01*
X147174000Y-49600000D01*
X147920000Y-49381000D01*
X148672000Y-49178000D01*
X149432000Y-48990000D01*
X150195000Y-48820000D01*
X150962000Y-48665000D01*
X151730000Y-48528000D01*
X152497000Y-48409000D01*
X153262000Y-48307000D01*
X153447000Y-48285000D01*
X154181000Y-48209000D01*
X154921000Y-48150000D01*
X155667000Y-48107000D01*
X156416000Y-48080000D01*
X157166000Y-48068000D01*
X157915000Y-48070000D01*
%TD*%
M02*
