%TF.GenerationSoftware,KiCad,Pcbnew,9.0.6*%
%TF.CreationDate,2026-04-07T16:33:37+02:00*%
%TF.ProjectId,mushroom_rocket,6d757368-726f-46f6-9d5f-726f636b6574,rev?*%
%TF.SameCoordinates,Original*%
%TF.FileFunction,Copper,L2,Bot*%
%TF.FilePolarity,Positive*%
%FSLAX46Y46*%
G04 Gerber Fmt 4.6, Leading zero omitted, Abs format (unit mm)*
G04 Created by KiCad (PCBNEW 9.0.6) date 2026-04-07 16:33:37*
%MOMM*%
%LPD*%
G01*
G04 APERTURE LIST*
G04 Aperture macros list*
%AMRoundRect*
0 Rectangle with rounded corners*
0 $1 Rounding radius*
0 $2 $3 $4 $5 $6 $7 $8 $9 X,Y pos of 4 corners*
0 Add a 4 corners polygon primitive as box body*
4,1,4,$2,$3,$4,$5,$6,$7,$8,$9,$2,$3,0*
0 Add four circle primitives for the rounded corners*
1,1,$1+$1,$2,$3*
1,1,$1+$1,$4,$5*
1,1,$1+$1,$6,$7*
1,1,$1+$1,$8,$9*
0 Add four rect primitives between the rounded corners*
20,1,$1+$1,$2,$3,$4,$5,0*
20,1,$1+$1,$4,$5,$6,$7,0*
20,1,$1+$1,$6,$7,$8,$9,0*
20,1,$1+$1,$8,$9,$2,$3,0*%
%AMRotRect*
0 Rectangle, with rotation*
0 The origin of the aperture is its center*
0 $1 length*
0 $2 width*
0 $3 Rotation angle, in degrees counterclockwise*
0 Add horizontal line*
21,1,$1,$2,0,0,$3*%
G04 Aperture macros list end*
%TA.AperFunction,NonConductor*%
%ADD10C,0.200000*%
%TD*%
%TA.AperFunction,Conductor*%
%ADD11C,2.000000*%
%TD*%
%TA.AperFunction,Conductor*%
%ADD12C,0.200000*%
%TD*%
%TA.AperFunction,SMDPad,CuDef*%
%ADD13R,1.524000X4.000000*%
%TD*%
%TA.AperFunction,SMDPad,CuDef*%
%ADD14R,1.524000X5.000000*%
%TD*%
%TA.AperFunction,SMDPad,CuDef*%
%ADD15R,5.000000X3.600000*%
%TD*%
%TA.AperFunction,SMDPad,CuDef*%
%ADD16RotRect,1.524000X4.000000X170.000000*%
%TD*%
%TA.AperFunction,SMDPad,CuDef*%
%ADD17RotRect,1.524000X5.000000X170.000000*%
%TD*%
%TA.AperFunction,SMDPad,CuDef*%
%ADD18RoundRect,0.500000X-1.500000X-0.500000X1.500000X-0.500000X1.500000X0.500000X-1.500000X0.500000X0*%
%TD*%
%TA.AperFunction,SMDPad,CuDef*%
%ADD19RotRect,1.524000X4.000000X190.000000*%
%TD*%
%TA.AperFunction,SMDPad,CuDef*%
%ADD20RotRect,1.524000X5.000000X190.000000*%
%TD*%
%TA.AperFunction,ViaPad*%
%ADD21C,0.600000*%
%TD*%
%TA.AperFunction,Conductor*%
%ADD22C,1.000000*%
%TD*%
G04 APERTURE END LIST*
D10*
X167528868Y-67774691D02*
G75*
G02*
X161204312Y-67774691I-3162278J0D01*
G01*
X161204312Y-67774691D02*
G75*
G02*
X167528868Y-67774691I3162278J0D01*
G01*
D11*
%TO.N,+3V0*%
X173000000Y-97000000D02*
X173000000Y-108000000D01*
D12*
%TO.N,GND*%
X175000000Y-75000000D02*
X176258153Y-75213162D01*
D11*
%TO.N,+3V0*%
X169500000Y-97000000D02*
X173000000Y-97000000D01*
D10*
X136308898Y-71030807D02*
G75*
G02*
X129905774Y-71030807I-3201562J0D01*
G01*
X129905774Y-71030807D02*
G75*
G02*
X136308898Y-71030807I3201562J0D01*
G01*
D11*
X169500000Y-89000000D02*
X169500000Y-97000000D01*
D10*
X150339354Y-62184925D02*
G75*
G02*
X140905372Y-62184925I-4716991J0D01*
G01*
X140905372Y-62184925D02*
G75*
G02*
X150339354Y-62184925I4716991J0D01*
G01*
X182875353Y-66625589D02*
G75*
G02*
X177875353Y-66625589I-2500000J0D01*
G01*
X177875353Y-66625589D02*
G75*
G02*
X182875353Y-66625589I2500000J0D01*
G01*
X173271685Y-58901779D02*
G75*
G02*
X167684977Y-58901779I-2793354J0D01*
G01*
X167684977Y-58901779D02*
G75*
G02*
X173271685Y-58901779I2793354J0D01*
G01*
%TD*%
D13*
%TO.P,D3,1,K*%
%TO.N,GND*%
X158040000Y-68000000D03*
D14*
%TO.P,D3,2,A*%
%TO.N,VCC*%
X155500000Y-68500000D03*
%TD*%
D15*
%TO.P,BT1,1,+*%
%TO.N,+3V0*%
X173500000Y-108000000D03*
%TO.P,BT1,2,-*%
%TO.N,GND*%
X144200000Y-108000000D03*
%TD*%
D13*
%TO.P,D1,1,K*%
%TO.N,GND*%
X159500000Y-122000000D03*
D14*
%TO.P,D1,2,A*%
%TO.N,VCC*%
X156960000Y-122500000D03*
%TD*%
D16*
%TO.P,D4,1,K*%
%TO.N,GND*%
X174290215Y-69612879D03*
D17*
%TO.P,D4,2,A*%
%TO.N,VCC*%
X171701979Y-69664217D03*
%TD*%
D18*
%TO.P,SW1,1*%
%TO.N,VCC*%
X147500000Y-89000000D03*
%TO.P,SW1,2*%
%TO.N,+3V0*%
X169500000Y-89000000D03*
%TD*%
D19*
%TO.P,D2,1,K*%
%TO.N,GND*%
X141500000Y-69765583D03*
D20*
%TO.P,D2,2,A*%
%TO.N,VCC*%
X139085413Y-70699053D03*
%TD*%
D21*
%TO.N,GND*%
X175094496Y-75028683D03*
X174500000Y-91000000D03*
X162500000Y-83000000D03*
X160975000Y-83000000D03*
X190000000Y-80000000D03*
X176270529Y-75229470D03*
%TO.N,VCC*%
X152000000Y-73500000D03*
X125000000Y-80500000D03*
X156500000Y-83000000D03*
X141500000Y-91000000D03*
X157500000Y-83000000D03*
X153500000Y-73500000D03*
X154132000Y-82996670D03*
%TD*%
D22*
%TO.N,GND*%
X174500000Y-91000000D02*
X173500000Y-91000000D01*
D11*
X162000000Y-95500000D02*
X162000000Y-84000000D01*
D22*
X190000000Y-80000000D02*
X190000000Y-77500000D01*
D11*
X144200000Y-108000000D02*
X159000000Y-108000000D01*
D12*
X161500000Y-83000000D02*
X162500000Y-83000000D01*
D11*
X159000000Y-108000000D02*
X159500000Y-108500000D01*
X159500000Y-108500000D02*
X159500000Y-122000000D01*
X159000000Y-98500000D02*
X162000000Y-95500000D01*
X159000000Y-108000000D02*
X159000000Y-98500000D01*
%TO.N,VCC*%
X147500000Y-89000000D02*
X157000000Y-89000000D01*
D22*
X125000000Y-80500000D02*
X125000000Y-77500000D01*
X153000000Y-69000000D02*
X153000000Y-72000000D01*
D12*
X152000000Y-73500000D02*
X153500000Y-73500000D01*
X157500000Y-83000000D02*
X156500000Y-83000000D01*
D11*
X156960000Y-114040000D02*
X157000000Y-114000000D01*
D12*
X152000000Y-73500000D02*
X152000000Y-72500000D01*
D22*
X153000000Y-72500000D02*
X153000000Y-73000000D01*
X171701979Y-69664217D02*
X169366196Y-72000000D01*
D11*
X157000000Y-114000000D02*
X138000000Y-114000000D01*
D22*
X169366196Y-72000000D02*
X153000000Y-72000000D01*
X139085413Y-72585413D02*
X140000000Y-73500000D01*
D11*
X157000000Y-84000000D02*
X157000000Y-89000000D01*
D22*
X143000000Y-72500000D02*
X152000000Y-72500000D01*
X153500000Y-68500000D02*
X153000000Y-69000000D01*
X140000000Y-73500000D02*
X142000000Y-73500000D01*
D11*
X140000000Y-104000000D02*
X147500000Y-96500000D01*
D22*
X152000000Y-72500000D02*
X153000000Y-72500000D01*
D11*
X138000000Y-104000000D02*
X140000000Y-104000000D01*
D12*
X152000000Y-73500000D02*
X153000000Y-72500000D01*
D11*
X156960000Y-122500000D02*
X156960000Y-114040000D01*
D12*
X147500000Y-91000000D02*
X147500000Y-90301000D01*
D11*
X147500000Y-96500000D02*
X147500000Y-89000000D01*
D22*
X142000000Y-73500000D02*
X143000000Y-72500000D01*
D11*
X138000000Y-114000000D02*
X138000000Y-104000000D01*
D22*
X139085413Y-70699053D02*
X139085413Y-72585413D01*
D11*
X141500000Y-91000000D02*
X147500000Y-91000000D01*
D22*
X153000000Y-72000000D02*
X153000000Y-72500000D01*
X155500000Y-68500000D02*
X153500000Y-68500000D01*
%TD*%
%TA.AperFunction,Conductor*%
%TO.N,GND*%
G36*
X157907843Y-48570482D02*
G01*
X157910167Y-48570510D01*
X158644781Y-48586266D01*
X158646820Y-48586327D01*
X159375737Y-48614893D01*
X159377974Y-48615001D01*
X160099045Y-48656374D01*
X160100954Y-48656500D01*
X160813638Y-48709730D01*
X160815583Y-48709892D01*
X161517154Y-48774029D01*
X161518782Y-48774188D01*
X161585897Y-48781254D01*
X161587671Y-48781455D01*
X161770418Y-48803576D01*
X161771051Y-48803656D01*
X161964090Y-48828626D01*
X161966278Y-48828930D01*
X162165881Y-48858536D01*
X162167317Y-48858758D01*
X162379270Y-48892787D01*
X162380022Y-48892911D01*
X162599060Y-48929903D01*
X162600323Y-48930124D01*
X162828211Y-48971381D01*
X163062495Y-49014512D01*
X163064055Y-49014811D01*
X163302215Y-49061855D01*
X163549079Y-49111425D01*
X163549186Y-49111447D01*
X163797435Y-49162674D01*
X163798239Y-49162842D01*
X164050706Y-49217084D01*
X164307604Y-49273621D01*
X164565353Y-49331118D01*
X164565891Y-49331239D01*
X164890503Y-49405579D01*
X165086090Y-49450369D01*
X165086876Y-49450552D01*
X165345657Y-49511791D01*
X165604868Y-49574359D01*
X165605063Y-49574471D01*
X165605078Y-49574410D01*
X165862877Y-49637117D01*
X166119266Y-49699968D01*
X166371913Y-49762632D01*
X166620683Y-49825072D01*
X166620904Y-49825128D01*
X166865694Y-49887818D01*
X167034703Y-49931297D01*
X167036637Y-49931931D01*
X167043339Y-49933642D01*
X167043341Y-49933643D01*
X167106703Y-49949820D01*
X167170115Y-49966134D01*
X167170579Y-49966129D01*
X167340217Y-50009440D01*
X167340574Y-50009533D01*
X167495121Y-50050203D01*
X167497016Y-50050835D01*
X167503732Y-50052589D01*
X167503733Y-50052590D01*
X167566976Y-50069113D01*
X167630349Y-50085790D01*
X167630801Y-50085787D01*
X167787793Y-50126804D01*
X167788224Y-50126917D01*
X167928318Y-50164407D01*
X167932452Y-50165800D01*
X168000251Y-50183658D01*
X168000724Y-50183783D01*
X168063268Y-50200521D01*
X168063269Y-50200520D01*
X168068639Y-50201958D01*
X168072888Y-50202792D01*
X168204336Y-50237417D01*
X168205102Y-50237622D01*
X168326332Y-50270572D01*
X168327845Y-50271092D01*
X168334804Y-50272972D01*
X168334805Y-50272973D01*
X168397930Y-50290033D01*
X168398088Y-50290130D01*
X168398102Y-50290080D01*
X168414752Y-50294605D01*
X168461314Y-50307261D01*
X168461316Y-50307261D01*
X168468245Y-50309144D01*
X168469799Y-50309457D01*
X168512007Y-50320864D01*
X168513706Y-50321444D01*
X168584034Y-50340332D01*
X168584180Y-50340371D01*
X168647025Y-50357356D01*
X168647026Y-50357356D01*
X168653904Y-50359215D01*
X168655635Y-50359561D01*
X168702409Y-50372123D01*
X168757229Y-50386846D01*
X168757815Y-50387005D01*
X168847605Y-50411795D01*
X168850307Y-50412730D01*
X168856475Y-50414416D01*
X168856477Y-50414417D01*
X168919596Y-50431669D01*
X168982324Y-50448987D01*
X168982970Y-50448991D01*
X169069645Y-50472682D01*
X169206095Y-50510256D01*
X169329654Y-50544852D01*
X169368343Y-50555755D01*
X169376115Y-50558474D01*
X169379323Y-50559352D01*
X169379325Y-50559353D01*
X169440765Y-50576168D01*
X169441379Y-50576338D01*
X169502660Y-50593609D01*
X169502662Y-50593609D01*
X169505874Y-50594514D01*
X169513940Y-50596194D01*
X169536790Y-50602447D01*
X169536982Y-50602500D01*
X169603147Y-50620926D01*
X169605310Y-50621690D01*
X169612475Y-50623714D01*
X169612477Y-50623716D01*
X169675131Y-50641422D01*
X169702698Y-50649298D01*
X169724076Y-50657614D01*
X169733105Y-50662129D01*
X169733112Y-50662130D01*
X169739440Y-50664318D01*
X169751738Y-50669320D01*
X169761511Y-50673919D01*
X169765571Y-50675215D01*
X169778848Y-50680308D01*
X169793541Y-50686934D01*
X169793877Y-50687086D01*
X169858468Y-50716446D01*
X169858676Y-50716541D01*
X169871875Y-50722570D01*
X169875257Y-50724384D01*
X169880586Y-50726796D01*
X169939840Y-50753616D01*
X169998981Y-50780631D01*
X169999845Y-50780775D01*
X170007894Y-50784419D01*
X170007895Y-50784419D01*
X170035636Y-50796976D01*
X170035737Y-50797022D01*
X170142647Y-50845527D01*
X170142727Y-50845563D01*
X170262046Y-50899799D01*
X170262751Y-50900122D01*
X170326132Y-50929411D01*
X170332182Y-50932679D01*
X170335905Y-50934371D01*
X170335906Y-50934372D01*
X170394257Y-50960895D01*
X170394692Y-50961095D01*
X170395967Y-50961684D01*
X170456570Y-50989690D01*
X170462985Y-50992135D01*
X170536001Y-51025324D01*
X170537082Y-51025823D01*
X170627268Y-51067949D01*
X170627933Y-51068504D01*
X170686875Y-51095792D01*
X170687021Y-51095860D01*
X170687039Y-51095869D01*
X170751200Y-51125839D01*
X170754736Y-51127209D01*
X170782580Y-51140100D01*
X170783372Y-51140531D01*
X170790274Y-51143719D01*
X170790276Y-51143721D01*
X170849795Y-51171218D01*
X170849872Y-51171285D01*
X170849884Y-51171260D01*
X170916511Y-51202105D01*
X170917354Y-51202429D01*
X171020446Y-51250057D01*
X171196752Y-51332267D01*
X171350851Y-51404735D01*
X171380089Y-51418485D01*
X171380174Y-51418525D01*
X171504763Y-51477232D01*
X171506233Y-51478045D01*
X171571778Y-51508810D01*
X171571903Y-51508868D01*
X171631266Y-51536841D01*
X171631268Y-51536841D01*
X171637738Y-51539890D01*
X171639280Y-51540495D01*
X171765860Y-51599910D01*
X171766805Y-51600357D01*
X171906293Y-51667312D01*
X171907372Y-51668228D01*
X171965582Y-51695771D01*
X172023821Y-51723726D01*
X172023822Y-51723726D01*
X172027897Y-51725682D01*
X172033594Y-51727952D01*
X172169747Y-51792376D01*
X172170394Y-51792685D01*
X172378912Y-51893419D01*
X172583212Y-51992148D01*
X172583653Y-51992363D01*
X172792521Y-52094321D01*
X172934500Y-52164301D01*
X172934506Y-52164305D01*
X172943624Y-52168799D01*
X173212234Y-52301194D01*
X173212616Y-52301384D01*
X173493015Y-52441584D01*
X173493018Y-52441585D01*
X173627064Y-52508608D01*
X173627826Y-52508993D01*
X173832147Y-52613138D01*
X173832146Y-52613139D01*
X173832160Y-52613143D01*
X173989415Y-52693328D01*
X174031366Y-52714719D01*
X174032253Y-52715175D01*
X174226314Y-52816127D01*
X174226793Y-52816378D01*
X174315488Y-52863253D01*
X174416781Y-52916786D01*
X174417315Y-52917070D01*
X174601068Y-53015333D01*
X174601685Y-53015666D01*
X174776291Y-53110730D01*
X174777512Y-53111403D01*
X174882767Y-53170419D01*
X174893955Y-53177503D01*
X174899590Y-53181508D01*
X174951185Y-53208822D01*
X174953813Y-53210254D01*
X175000647Y-53236514D01*
X175001741Y-53237135D01*
X175359137Y-53442372D01*
X175360833Y-53443365D01*
X175720387Y-53658221D01*
X175761730Y-53682926D01*
X175763522Y-53684018D01*
X176169719Y-53936174D01*
X176171006Y-53936983D01*
X176581266Y-54198684D01*
X176582673Y-54199595D01*
X176992887Y-54469136D01*
X176994203Y-54470013D01*
X177403552Y-54746521D01*
X177404853Y-54747412D01*
X177810810Y-55029216D01*
X177811891Y-55029975D01*
X178043782Y-55194634D01*
X178175517Y-55288176D01*
X178214001Y-55315502D01*
X178214841Y-55316103D01*
X178611016Y-55602615D01*
X178612077Y-55603391D01*
X178998806Y-55889492D01*
X178999643Y-55890117D01*
X179375706Y-56174385D01*
X179376691Y-56175138D01*
X179739655Y-56455251D01*
X179740652Y-56456028D01*
X180090106Y-56731446D01*
X180090951Y-56732119D01*
X180423456Y-56998907D01*
X180425152Y-57000292D01*
X180855646Y-57358384D01*
X180857732Y-57360159D01*
X181383976Y-57817933D01*
X181386540Y-57820227D01*
X181792410Y-58193566D01*
X181898676Y-58291314D01*
X181900821Y-58293335D01*
X182382825Y-58758359D01*
X182401114Y-58776003D01*
X182403211Y-58778074D01*
X182768113Y-59147365D01*
X182891957Y-59272698D01*
X182893927Y-59274738D01*
X183372571Y-59781825D01*
X183374323Y-59783720D01*
X183704171Y-60148071D01*
X183843458Y-60301927D01*
X183845224Y-60303922D01*
X184306611Y-60836292D01*
X184307457Y-60837278D01*
X184442118Y-60995986D01*
X184443399Y-60997521D01*
X184917609Y-61575036D01*
X184919358Y-61577215D01*
X185106604Y-61816295D01*
X185376327Y-62160684D01*
X185378141Y-62163058D01*
X185819402Y-62755328D01*
X185821068Y-62757619D01*
X186128791Y-63190973D01*
X186248399Y-63359411D01*
X186250150Y-63361944D01*
X186515764Y-63756588D01*
X186663632Y-63976287D01*
X186665244Y-63978745D01*
X186729228Y-64078867D01*
X187065976Y-64605808D01*
X187067647Y-64608498D01*
X187456035Y-65251890D01*
X187457389Y-65254188D01*
X187677610Y-65637390D01*
X187678949Y-65639781D01*
X187923532Y-66088019D01*
X187924746Y-66090300D01*
X187962426Y-66162914D01*
X188159025Y-66541785D01*
X188165869Y-66554973D01*
X188166974Y-66557155D01*
X188197614Y-66619198D01*
X188403114Y-67035317D01*
X188403946Y-67037035D01*
X188635737Y-67525169D01*
X188636571Y-67526962D01*
X188862775Y-68023628D01*
X188863460Y-68025159D01*
X189084043Y-68527379D01*
X189084714Y-68528936D01*
X189298886Y-69035249D01*
X189299329Y-69036310D01*
X189507823Y-69542230D01*
X189508386Y-69543619D01*
X189709020Y-70047676D01*
X189709379Y-70048590D01*
X189903427Y-70547567D01*
X189903868Y-70548717D01*
X190089459Y-71040337D01*
X190089969Y-71041712D01*
X190165799Y-71250005D01*
X190166537Y-71252092D01*
X190313384Y-71679017D01*
X190314279Y-71681719D01*
X190452982Y-72117228D01*
X190453791Y-72119869D01*
X190585349Y-72567164D01*
X190585923Y-72569178D01*
X190711016Y-73022642D01*
X190711595Y-73024818D01*
X190829054Y-73482906D01*
X190829490Y-73484660D01*
X190940456Y-73945221D01*
X190940830Y-73946819D01*
X191045052Y-74405989D01*
X191045387Y-74407508D01*
X191142941Y-74863744D01*
X191143150Y-74864745D01*
X191197706Y-75132830D01*
X191234837Y-75315291D01*
X191235104Y-75316641D01*
X191319867Y-75758194D01*
X191320103Y-75759463D01*
X191398199Y-76190468D01*
X191398322Y-76191159D01*
X191471497Y-76608460D01*
X191471698Y-76609638D01*
X191526156Y-76938818D01*
X191526474Y-76940743D01*
X191527464Y-76946722D01*
X191527460Y-76946765D01*
X191537271Y-77006008D01*
X191537940Y-77010053D01*
X191538238Y-77011849D01*
X191538241Y-77011868D01*
X191550249Y-77084451D01*
X191550289Y-77084622D01*
X191564173Y-77168462D01*
X191604428Y-77414728D01*
X191604427Y-77414742D01*
X191613958Y-77473028D01*
X191613959Y-77473034D01*
X191626773Y-77551423D01*
X191626786Y-77551482D01*
X191666927Y-77796954D01*
X191686717Y-77919882D01*
X191718500Y-78117303D01*
X191718643Y-78118214D01*
X191768131Y-78440879D01*
X191768203Y-78441356D01*
X191816443Y-78764276D01*
X191816653Y-78765742D01*
X191860637Y-79086332D01*
X191860830Y-79087807D01*
X191900689Y-79406684D01*
X191900938Y-79408827D01*
X191934890Y-79725061D01*
X191935064Y-79726795D01*
X191964056Y-80037972D01*
X191964268Y-80040530D01*
X191986189Y-80343620D01*
X191986387Y-80346989D01*
X191999605Y-80640612D01*
X191999713Y-80644149D01*
X192004395Y-80928820D01*
X192004394Y-80932961D01*
X191999759Y-81206381D01*
X191999606Y-81210796D01*
X191986006Y-81469219D01*
X191985530Y-81475354D01*
X191960837Y-81716103D01*
X191959970Y-81722766D01*
X191924073Y-81950402D01*
X191922937Y-81956585D01*
X191875156Y-82183987D01*
X191873850Y-82189559D01*
X191793606Y-82499592D01*
X191791795Y-82505897D01*
X191697276Y-82804904D01*
X191695354Y-82810513D01*
X191587715Y-83101773D01*
X191585074Y-83108338D01*
X191461768Y-83391216D01*
X191459440Y-83396247D01*
X191322806Y-83674980D01*
X191319791Y-83680743D01*
X191168093Y-83953068D01*
X191165483Y-83957531D01*
X191000821Y-84226142D01*
X191000000Y-84227414D01*
X191000000Y-81500000D01*
X190500000Y-80000000D01*
X190499999Y-79999999D01*
X190499998Y-79999998D01*
X187000000Y-78000000D01*
X182000002Y-76000000D01*
X182000003Y-76000000D01*
X173609512Y-75012883D01*
X173545231Y-74985500D01*
X173505960Y-74927712D01*
X173500000Y-74889732D01*
X173500000Y-72159886D01*
X173512208Y-72118310D01*
X174102295Y-72118310D01*
X174653619Y-72215524D01*
X174653628Y-72215525D01*
X174713369Y-72219559D01*
X174713370Y-72219559D01*
X174854769Y-72193468D01*
X174983077Y-72128602D01*
X174983080Y-72128600D01*
X175087919Y-72030214D01*
X175160796Y-71906270D01*
X175177442Y-71848736D01*
X175177443Y-71848730D01*
X175489630Y-70078224D01*
X174493003Y-69902492D01*
X174102295Y-72118310D01*
X173512208Y-72118310D01*
X173519685Y-72092847D01*
X173572489Y-72047092D01*
X173583843Y-72042569D01*
X173603839Y-72035724D01*
X173609892Y-72031486D01*
X174044013Y-69569467D01*
X174070790Y-69417607D01*
X174072116Y-69410088D01*
X174579828Y-69410088D01*
X175576454Y-69585820D01*
X175888642Y-67815317D01*
X175888643Y-67815306D01*
X175892679Y-67755553D01*
X175866589Y-67614156D01*
X175801723Y-67485847D01*
X175801721Y-67485844D01*
X175703332Y-67381003D01*
X175579394Y-67308131D01*
X175521861Y-67291485D01*
X174970536Y-67194271D01*
X174579828Y-69410088D01*
X174072116Y-69410088D01*
X174478133Y-67107446D01*
X173926813Y-67010234D01*
X173926801Y-67010232D01*
X173867060Y-67006198D01*
X173867059Y-67006198D01*
X173725660Y-67032289D01*
X173597352Y-67097155D01*
X173597348Y-67097157D01*
X173535011Y-67155658D01*
X173472656Y-67187180D01*
X173403157Y-67179986D01*
X173348581Y-67136360D01*
X173339503Y-67121198D01*
X173300724Y-67044491D01*
X173247805Y-66988101D01*
X173202237Y-66939543D01*
X173078175Y-66866599D01*
X173078165Y-66866594D01*
X173020593Y-66849937D01*
X173020583Y-66849934D01*
X171433588Y-66570106D01*
X171433587Y-66570106D01*
X171425453Y-66568671D01*
X171425444Y-66568670D01*
X171425442Y-66568670D01*
X171385563Y-66565976D01*
X171365626Y-66564629D01*
X171365625Y-66564629D01*
X171365624Y-66564629D01*
X171294857Y-66577686D01*
X171224089Y-66590744D01*
X171095652Y-66655673D01*
X171095647Y-66655677D01*
X170990701Y-66754164D01*
X170990701Y-66754165D01*
X170917758Y-66878225D01*
X170917753Y-66878235D01*
X170901096Y-66935807D01*
X170901093Y-66935817D01*
X170455976Y-69460201D01*
X170424949Y-69522804D01*
X170365002Y-69558695D01*
X170336315Y-69562645D01*
X167860596Y-69611670D01*
X167793180Y-69593316D01*
X167746389Y-69541429D01*
X167735078Y-69472480D01*
X167748783Y-69429241D01*
X167772203Y-69385426D01*
X167913684Y-69043862D01*
X168021004Y-68690074D01*
X168021006Y-68690064D01*
X168021009Y-68690053D01*
X168063900Y-68474419D01*
X168093130Y-68327471D01*
X168129368Y-67959544D01*
X168129368Y-67589838D01*
X168093130Y-67221911D01*
X168057839Y-67044491D01*
X168021009Y-66859328D01*
X168021006Y-66859317D01*
X168021005Y-66859314D01*
X168021004Y-66859308D01*
X167913684Y-66505520D01*
X167911959Y-66501356D01*
X167891293Y-66451464D01*
X177274853Y-66451464D01*
X177274853Y-66799713D01*
X177313842Y-67145747D01*
X177313844Y-67145759D01*
X177391335Y-67485273D01*
X177391338Y-67485281D01*
X177506352Y-67813971D01*
X177657445Y-68127719D01*
X177842724Y-68422588D01*
X177842725Y-68422590D01*
X178059840Y-68694845D01*
X178306096Y-68941101D01*
X178578351Y-69158216D01*
X178578354Y-69158217D01*
X178578356Y-69158219D01*
X178873220Y-69343495D01*
X179186974Y-69494591D01*
X179381462Y-69562645D01*
X179515660Y-69609603D01*
X179515668Y-69609606D01*
X179515671Y-69609606D01*
X179515672Y-69609607D01*
X179855182Y-69687098D01*
X180201229Y-69726088D01*
X180201230Y-69726089D01*
X180201233Y-69726089D01*
X180549476Y-69726089D01*
X180549476Y-69726088D01*
X180895524Y-69687098D01*
X181235034Y-69609607D01*
X181563732Y-69494591D01*
X181877486Y-69343495D01*
X182172350Y-69158219D01*
X182278219Y-69073792D01*
X182444609Y-68941101D01*
X182444611Y-68941098D01*
X182444616Y-68941095D01*
X182690859Y-68694852D01*
X182694670Y-68690074D01*
X182907980Y-68422590D01*
X182907981Y-68422588D01*
X182907983Y-68422586D01*
X183093259Y-68127722D01*
X183244355Y-67813968D01*
X183359371Y-67485270D01*
X183436862Y-67145760D01*
X183475853Y-66799709D01*
X183475853Y-66451469D01*
X183436862Y-66105418D01*
X183359371Y-65765908D01*
X183356573Y-65757913D01*
X183314401Y-65637390D01*
X183244355Y-65437210D01*
X183093259Y-65123456D01*
X182907983Y-64828592D01*
X182907981Y-64828589D01*
X182907980Y-64828587D01*
X182690865Y-64556332D01*
X182444609Y-64310076D01*
X182172354Y-64092961D01*
X182172352Y-64092960D01*
X181877483Y-63907681D01*
X181563735Y-63756588D01*
X181235045Y-63641574D01*
X181235037Y-63641571D01*
X180929036Y-63571729D01*
X180895524Y-63564080D01*
X180895520Y-63564079D01*
X180895511Y-63564078D01*
X180549477Y-63525089D01*
X180549473Y-63525089D01*
X180201233Y-63525089D01*
X180201228Y-63525089D01*
X179855194Y-63564078D01*
X179855182Y-63564080D01*
X179515668Y-63641571D01*
X179515660Y-63641574D01*
X179186970Y-63756588D01*
X178873222Y-63907681D01*
X178578353Y-64092960D01*
X178578351Y-64092961D01*
X178306096Y-64310076D01*
X178059840Y-64556332D01*
X177842725Y-64828587D01*
X177842724Y-64828589D01*
X177657445Y-65123458D01*
X177506352Y-65437206D01*
X177391338Y-65765896D01*
X177391335Y-65765904D01*
X177313844Y-66105418D01*
X177313842Y-66105430D01*
X177274853Y-66451464D01*
X167891293Y-66451464D01*
X167813260Y-66263076D01*
X167772203Y-66163956D01*
X167718000Y-66062550D01*
X167597927Y-65837908D01*
X167597916Y-65837890D01*
X167469196Y-65645247D01*
X167392527Y-65530503D01*
X167157987Y-65244716D01*
X167157986Y-65244715D01*
X167157982Y-65244710D01*
X166896570Y-64983298D01*
X166610783Y-64748758D01*
X166610782Y-64748757D01*
X166610778Y-64748754D01*
X166450747Y-64641825D01*
X166303390Y-64543364D01*
X166303372Y-64543353D01*
X165977332Y-64369081D01*
X165977327Y-64369079D01*
X165635766Y-64227598D01*
X165281963Y-64120274D01*
X165281952Y-64120271D01*
X164919376Y-64048152D01*
X164919359Y-64048149D01*
X164641131Y-64020746D01*
X164551443Y-64011913D01*
X164181737Y-64011913D01*
X164098788Y-64020082D01*
X163813820Y-64048149D01*
X163813803Y-64048152D01*
X163451227Y-64120271D01*
X163451216Y-64120274D01*
X163097413Y-64227598D01*
X162755852Y-64369079D01*
X162755847Y-64369081D01*
X162429807Y-64543353D01*
X162429789Y-64543364D01*
X162122410Y-64748748D01*
X162122396Y-64748758D01*
X161836609Y-64983298D01*
X161575197Y-65244710D01*
X161340657Y-65530497D01*
X161340647Y-65530511D01*
X161135263Y-65837890D01*
X161135252Y-65837908D01*
X160960980Y-66163948D01*
X160960978Y-66163953D01*
X160819497Y-66505514D01*
X160712173Y-66859317D01*
X160712170Y-66859328D01*
X160640051Y-67221904D01*
X160640048Y-67221921D01*
X160616518Y-67460835D01*
X160603812Y-67589838D01*
X160603812Y-67631051D01*
X160603812Y-67959544D01*
X160605858Y-67980315D01*
X160640048Y-68327460D01*
X160640051Y-68327477D01*
X160712170Y-68690053D01*
X160712173Y-68690064D01*
X160819497Y-69043867D01*
X160960978Y-69385428D01*
X160960980Y-69385433D01*
X161057534Y-69566072D01*
X161071776Y-69634475D01*
X161046776Y-69699718D01*
X160990471Y-69741089D01*
X160950631Y-69748501D01*
X159428455Y-69778643D01*
X159361039Y-69760289D01*
X159314248Y-69708401D01*
X159302000Y-69654667D01*
X159302000Y-68250000D01*
X158164000Y-68250000D01*
X158096961Y-68230315D01*
X158051206Y-68177511D01*
X158040000Y-68126000D01*
X158040000Y-68000000D01*
X157914000Y-68000000D01*
X157846961Y-67980315D01*
X157801206Y-67927511D01*
X157790000Y-67876000D01*
X157790000Y-67750000D01*
X158290000Y-67750000D01*
X159302000Y-67750000D01*
X159302000Y-65952172D01*
X159301999Y-65952155D01*
X159295598Y-65892627D01*
X159295596Y-65892620D01*
X159245354Y-65757913D01*
X159245350Y-65757906D01*
X159159190Y-65642812D01*
X159159187Y-65642809D01*
X159044093Y-65556649D01*
X159044086Y-65556645D01*
X158909379Y-65506403D01*
X158909372Y-65506401D01*
X158849844Y-65500000D01*
X158290000Y-65500000D01*
X158290000Y-67750000D01*
X157790000Y-67750000D01*
X157790000Y-65500000D01*
X157230155Y-65500000D01*
X157170627Y-65506401D01*
X157170620Y-65506403D01*
X157035913Y-65556645D01*
X157035906Y-65556649D01*
X156920812Y-65642809D01*
X156869578Y-65711249D01*
X156813644Y-65753119D01*
X156743952Y-65758103D01*
X156682630Y-65724617D01*
X156671046Y-65711248D01*
X156619547Y-65642455D01*
X156619544Y-65642452D01*
X156504335Y-65556206D01*
X156504328Y-65556202D01*
X156369482Y-65505908D01*
X156369483Y-65505908D01*
X156309883Y-65499501D01*
X156309881Y-65499500D01*
X156309873Y-65499500D01*
X156309864Y-65499500D01*
X154690129Y-65499500D01*
X154690123Y-65499501D01*
X154630516Y-65505908D01*
X154495671Y-65556202D01*
X154495664Y-65556206D01*
X154380455Y-65642452D01*
X154380452Y-65642455D01*
X154294206Y-65757664D01*
X154294202Y-65757671D01*
X154243908Y-65892517D01*
X154237501Y-65952116D01*
X154237500Y-65952135D01*
X154237500Y-67375500D01*
X154217815Y-67442539D01*
X154165011Y-67488294D01*
X154113500Y-67499500D01*
X153401458Y-67499500D01*
X153352945Y-67509150D01*
X153352941Y-67509150D01*
X153349412Y-67509853D01*
X153208164Y-67537949D01*
X153158789Y-67558401D01*
X153150852Y-67561688D01*
X153150846Y-67561690D01*
X153026092Y-67613364D01*
X153026079Y-67613371D01*
X152862219Y-67722859D01*
X152824608Y-67760471D01*
X152722861Y-67862218D01*
X152722858Y-67862221D01*
X152362221Y-68222858D01*
X152362218Y-68222861D01*
X152314032Y-68271047D01*
X152222859Y-68362219D01*
X152113371Y-68526079D01*
X152113366Y-68526088D01*
X152071262Y-68627739D01*
X152037950Y-68708159D01*
X152037947Y-68708170D01*
X152024140Y-68777586D01*
X152024140Y-68777587D01*
X151999500Y-68901456D01*
X151999500Y-69804181D01*
X151979815Y-69871220D01*
X151927011Y-69916975D01*
X151877955Y-69928157D01*
X142947822Y-70104993D01*
X142880406Y-70086639D01*
X142833615Y-70034752D01*
X142823251Y-70002549D01*
X142786238Y-69792640D01*
X141665527Y-69990252D01*
X141596088Y-69982508D01*
X141541859Y-69938451D01*
X141521879Y-69889668D01*
X141499999Y-69765582D01*
X141375913Y-69787462D01*
X141306474Y-69779718D01*
X141252245Y-69735661D01*
X141232265Y-69686878D01*
X140819677Y-67346975D01*
X140268353Y-67444189D01*
X140210820Y-67460835D01*
X140086882Y-67533707D01*
X139988493Y-67638548D01*
X139988492Y-67638549D01*
X139949921Y-67714844D01*
X139902107Y-67765791D01*
X139834339Y-67782800D01*
X139768133Y-67760471D01*
X139754404Y-67749317D01*
X139691744Y-67690513D01*
X139691739Y-67690509D01*
X139563302Y-67625580D01*
X139421763Y-67599464D01*
X139361961Y-67603502D01*
X139361948Y-67603504D01*
X137766824Y-67884768D01*
X137766817Y-67884770D01*
X137709218Y-67901434D01*
X137709217Y-67901434D01*
X137585154Y-67974379D01*
X137486669Y-68079324D01*
X137486667Y-68079328D01*
X137421736Y-68207764D01*
X137421735Y-68207767D01*
X137421735Y-68207768D01*
X137398756Y-68332308D01*
X137395620Y-68349303D01*
X137399660Y-68409120D01*
X137399661Y-68409130D01*
X137691800Y-70065933D01*
X137684056Y-70135372D01*
X137639999Y-70189601D01*
X137573618Y-70211403D01*
X137572139Y-70211441D01*
X136927665Y-70224203D01*
X136860249Y-70205849D01*
X136813458Y-70153962D01*
X136803592Y-70124414D01*
X136799906Y-70105880D01*
X136799904Y-70105874D01*
X136799903Y-70105867D01*
X136691462Y-69748386D01*
X136689283Y-69743126D01*
X136599200Y-69525647D01*
X136548504Y-69403256D01*
X136538977Y-69385433D01*
X136372412Y-69073810D01*
X136372411Y-69073808D01*
X136372406Y-69073799D01*
X136164864Y-68763190D01*
X135927875Y-68474419D01*
X135927874Y-68474418D01*
X135927870Y-68474413D01*
X135663729Y-68210272D01*
X135374958Y-67973283D01*
X135374957Y-67973282D01*
X135374953Y-67973279D01*
X135064344Y-67765737D01*
X135064339Y-67765734D01*
X135064332Y-67765730D01*
X134734894Y-67589642D01*
X134734889Y-67589640D01*
X134389762Y-67446682D01*
X134032266Y-67338237D01*
X134032255Y-67338234D01*
X133665886Y-67265360D01*
X133612986Y-67260150D01*
X141312080Y-67260150D01*
X141702788Y-69475967D01*
X142699415Y-69300236D01*
X142387228Y-67529731D01*
X142387227Y-67529725D01*
X142370581Y-67472191D01*
X142297704Y-67348247D01*
X142192865Y-67249861D01*
X142192862Y-67249859D01*
X142064554Y-67184993D01*
X142064555Y-67184993D01*
X141923155Y-67158902D01*
X141923154Y-67158902D01*
X141863413Y-67162936D01*
X141863401Y-67162938D01*
X141312080Y-67260150D01*
X133612986Y-67260150D01*
X133369435Y-67236163D01*
X133294119Y-67228745D01*
X132920553Y-67228745D01*
X132845237Y-67236163D01*
X132548785Y-67265360D01*
X132182416Y-67338234D01*
X132182405Y-67338237D01*
X131824909Y-67446682D01*
X131479782Y-67589640D01*
X131479777Y-67589642D01*
X131150339Y-67765730D01*
X131150321Y-67765741D01*
X130839727Y-67973273D01*
X130839713Y-67973283D01*
X130550942Y-68210272D01*
X130286801Y-68474413D01*
X130049812Y-68763184D01*
X130049802Y-68763198D01*
X129842270Y-69073792D01*
X129842259Y-69073810D01*
X129666171Y-69403248D01*
X129666169Y-69403253D01*
X129523211Y-69748380D01*
X129414766Y-70105876D01*
X129414763Y-70105888D01*
X129380883Y-70276219D01*
X129348498Y-70338130D01*
X129287783Y-70372704D01*
X129261721Y-70376004D01*
X125666815Y-70447190D01*
X125599399Y-70428836D01*
X125552608Y-70376948D01*
X125541297Y-70308000D01*
X125550419Y-70274291D01*
X125559061Y-70254164D01*
X125770085Y-69762689D01*
X125770803Y-69761051D01*
X125771144Y-69760289D01*
X126008282Y-69229927D01*
X126008920Y-69228526D01*
X126080526Y-69073810D01*
X126254679Y-68697526D01*
X126255208Y-68696400D01*
X126507503Y-68168158D01*
X126508300Y-68166521D01*
X126767531Y-67645103D01*
X126768192Y-67643796D01*
X126770881Y-67638549D01*
X127032701Y-67127609D01*
X127033259Y-67126537D01*
X127300457Y-66620731D01*
X127301282Y-66619198D01*
X127306799Y-66609111D01*
X127570875Y-66126255D01*
X127571719Y-66124740D01*
X127843483Y-65645214D01*
X127844261Y-65643864D01*
X128115350Y-65179562D01*
X128115932Y-65178579D01*
X128272143Y-64918550D01*
X128273299Y-64916666D01*
X128328400Y-64828587D01*
X128672672Y-64278258D01*
X128674144Y-64275964D01*
X128705911Y-64227597D01*
X129087158Y-63647123D01*
X129088782Y-63644715D01*
X129517527Y-63025635D01*
X129519034Y-63023510D01*
X129961507Y-62414250D01*
X129963220Y-62411952D01*
X130314193Y-61952754D01*
X140304872Y-61952754D01*
X140304872Y-62417095D01*
X140345341Y-62879660D01*
X140425971Y-63336931D01*
X140425974Y-63336944D01*
X140546146Y-63785438D01*
X140546149Y-63785448D01*
X140546150Y-63785449D01*
X140658075Y-64092960D01*
X140704967Y-64221792D01*
X140901187Y-64642590D01*
X140901200Y-64642614D01*
X141006381Y-64824792D01*
X141097894Y-64983298D01*
X141133359Y-65044724D01*
X141133368Y-65044739D01*
X141399699Y-65425098D01*
X141615014Y-65681700D01*
X141698162Y-65780792D01*
X142026496Y-66109126D01*
X142091840Y-66163956D01*
X142382189Y-66407588D01*
X142382195Y-66407592D01*
X142382196Y-66407593D01*
X142762555Y-66673924D01*
X143096278Y-66866599D01*
X143164673Y-66906087D01*
X143164697Y-66906100D01*
X143585495Y-67102320D01*
X143585500Y-67102321D01*
X143585509Y-67102326D01*
X144021839Y-67261138D01*
X144021845Y-67261139D01*
X144021849Y-67261141D01*
X144135096Y-67291485D01*
X144470351Y-67381316D01*
X144927630Y-67461947D01*
X145390194Y-67502415D01*
X145390195Y-67502416D01*
X145390196Y-67502416D01*
X145854531Y-67502416D01*
X145854531Y-67502415D01*
X146317096Y-67461947D01*
X146774375Y-67381316D01*
X147202843Y-67266508D01*
X147222876Y-67261141D01*
X147222876Y-67261140D01*
X147222887Y-67261138D01*
X147659217Y-67102326D01*
X147670306Y-67097155D01*
X148080028Y-66906100D01*
X148080036Y-66906095D01*
X148080046Y-66906091D01*
X148482171Y-66673924D01*
X148862530Y-66407593D01*
X149218230Y-66109126D01*
X149546564Y-65780792D01*
X149845031Y-65425092D01*
X150111362Y-65044733D01*
X150343529Y-64642608D01*
X150343533Y-64642598D01*
X150343538Y-64642590D01*
X150539758Y-64221792D01*
X150539758Y-64221791D01*
X150539764Y-64221779D01*
X150698576Y-63785449D01*
X150818754Y-63336937D01*
X150899385Y-62879658D01*
X150939854Y-62417092D01*
X150939854Y-61952758D01*
X150899385Y-61490192D01*
X150818754Y-61032913D01*
X150715798Y-60648673D01*
X150698579Y-60584411D01*
X150698577Y-60584407D01*
X150698576Y-60584401D01*
X150539764Y-60148071D01*
X150539759Y-60148062D01*
X150539758Y-60148057D01*
X150343538Y-59727259D01*
X150343525Y-59727235D01*
X150318531Y-59683945D01*
X150111362Y-59325117D01*
X149845031Y-58944758D01*
X149845030Y-58944757D01*
X149845026Y-58944751D01*
X149603973Y-58657476D01*
X149546564Y-58589058D01*
X149218230Y-58260724D01*
X149042166Y-58112989D01*
X148862536Y-57962261D01*
X148482177Y-57695930D01*
X148482174Y-57695928D01*
X148482171Y-57695926D01*
X148253099Y-57563671D01*
X148080052Y-57463762D01*
X148080028Y-57463749D01*
X147659230Y-57267529D01*
X147659219Y-57267525D01*
X147659217Y-57267524D01*
X147222887Y-57108712D01*
X147222886Y-57108711D01*
X147222876Y-57108708D01*
X146774382Y-56988536D01*
X146774385Y-56988536D01*
X146774375Y-56988534D01*
X146709816Y-56977150D01*
X146317098Y-56907903D01*
X145854533Y-56867434D01*
X145854530Y-56867434D01*
X145390196Y-56867434D01*
X145390192Y-56867434D01*
X144927627Y-56907903D01*
X144470356Y-56988533D01*
X144470353Y-56988533D01*
X144470351Y-56988534D01*
X144470346Y-56988535D01*
X144470343Y-56988536D01*
X144021849Y-57108708D01*
X143585495Y-57267529D01*
X143164697Y-57463749D01*
X143164673Y-57463762D01*
X142762563Y-57695921D01*
X142762548Y-57695930D01*
X142382189Y-57962261D01*
X142026493Y-58260726D01*
X141698164Y-58589055D01*
X141399699Y-58944751D01*
X141133368Y-59325110D01*
X141133359Y-59325125D01*
X140901200Y-59727235D01*
X140901187Y-59727259D01*
X140704967Y-60148057D01*
X140546146Y-60584411D01*
X140425974Y-61032905D01*
X140425971Y-61032918D01*
X140345341Y-61490189D01*
X140304872Y-61952754D01*
X130314193Y-61952754D01*
X130420982Y-61813036D01*
X130422809Y-61810708D01*
X130894257Y-61224583D01*
X130896146Y-61222292D01*
X131382168Y-60647099D01*
X131384177Y-60644783D01*
X131883676Y-60083581D01*
X131885746Y-60081313D01*
X131892589Y-60074000D01*
X132399327Y-59532447D01*
X132401349Y-59530339D01*
X132892250Y-59030619D01*
X132894063Y-59028814D01*
X133418989Y-58517625D01*
X133421011Y-58515701D01*
X133962666Y-58012316D01*
X133964658Y-58010506D01*
X134521676Y-57515377D01*
X134523484Y-57513804D01*
X135094599Y-57027225D01*
X135096592Y-57025564D01*
X135679203Y-56550043D01*
X135681193Y-56548454D01*
X136275838Y-56084534D01*
X136277768Y-56083060D01*
X136568059Y-55866171D01*
X152986000Y-55866171D01*
X152986000Y-56239829D01*
X152991953Y-56300273D01*
X153022623Y-56611678D01*
X153022625Y-56611691D01*
X153081546Y-56907903D01*
X153095523Y-56978168D01*
X153110153Y-57026396D01*
X153203990Y-57335738D01*
X153346984Y-57680955D01*
X153346986Y-57680960D01*
X153523118Y-58010478D01*
X153523135Y-58010506D01*
X153730705Y-58321158D01*
X153730722Y-58321181D01*
X153967769Y-58610023D01*
X154231976Y-58874230D01*
X154231981Y-58874234D01*
X154231982Y-58874235D01*
X154520824Y-59111282D01*
X154520831Y-59111287D01*
X154520841Y-59111294D01*
X154831493Y-59318864D01*
X154831498Y-59318867D01*
X154831510Y-59318875D01*
X154831519Y-59318879D01*
X154831521Y-59318881D01*
X155161039Y-59495013D01*
X155161041Y-59495013D01*
X155161047Y-59495017D01*
X155506263Y-59638010D01*
X155863832Y-59746477D01*
X156230311Y-59819375D01*
X156602171Y-59856000D01*
X156602174Y-59856000D01*
X156975826Y-59856000D01*
X156975829Y-59856000D01*
X157347689Y-59819375D01*
X157714168Y-59746477D01*
X158071737Y-59638010D01*
X158416953Y-59495017D01*
X158746490Y-59318875D01*
X159057176Y-59111282D01*
X159346018Y-58874235D01*
X159453769Y-58766484D01*
X159485203Y-58735050D01*
X167084477Y-58735050D01*
X167084477Y-58758359D01*
X167084477Y-59068508D01*
X167091007Y-59134806D01*
X167117160Y-59400350D01*
X167117163Y-59400367D01*
X167182210Y-59727392D01*
X167182213Y-59727403D01*
X167279014Y-60046514D01*
X167406624Y-60354591D01*
X167406626Y-60354596D01*
X167563808Y-60648661D01*
X167563825Y-60648689D01*
X167749061Y-60925916D01*
X167749078Y-60925939D01*
X167960622Y-61183706D01*
X168196403Y-61419487D01*
X168196408Y-61419491D01*
X168196409Y-61419492D01*
X168454176Y-61631036D01*
X168454183Y-61631041D01*
X168454193Y-61631048D01*
X168731420Y-61816284D01*
X168731425Y-61816287D01*
X168731437Y-61816295D01*
X168731446Y-61816299D01*
X168731448Y-61816301D01*
X169025513Y-61973483D01*
X169025515Y-61973483D01*
X169025521Y-61973487D01*
X169333597Y-62101096D01*
X169652697Y-62197894D01*
X169652703Y-62197895D01*
X169652706Y-62197896D01*
X169652717Y-62197899D01*
X169857791Y-62238689D01*
X169979749Y-62262948D01*
X170311602Y-62295633D01*
X170311605Y-62295633D01*
X170645057Y-62295633D01*
X170645060Y-62295633D01*
X170976913Y-62262948D01*
X171138791Y-62230748D01*
X171303944Y-62197899D01*
X171303955Y-62197896D01*
X171303955Y-62197895D01*
X171303965Y-62197894D01*
X171623065Y-62101096D01*
X171931141Y-61973487D01*
X172225225Y-61816295D01*
X172502486Y-61631036D01*
X172760253Y-61419492D01*
X172996044Y-61183701D01*
X173207588Y-60925934D01*
X173392847Y-60648673D01*
X173550039Y-60354589D01*
X173677648Y-60046513D01*
X173774446Y-59727413D01*
X173774448Y-59727403D01*
X173774451Y-59727392D01*
X173813436Y-59531395D01*
X173839500Y-59400361D01*
X173872185Y-59068508D01*
X173872185Y-58735050D01*
X173839500Y-58403197D01*
X173811161Y-58260724D01*
X173774451Y-58076165D01*
X173774448Y-58076154D01*
X173774447Y-58076151D01*
X173774446Y-58076145D01*
X173677648Y-57757045D01*
X173550039Y-57448969D01*
X173502082Y-57359249D01*
X173392853Y-57154896D01*
X173392851Y-57154894D01*
X173392847Y-57154885D01*
X173367849Y-57117472D01*
X173207600Y-56877641D01*
X173207593Y-56877631D01*
X173207588Y-56877624D01*
X172996044Y-56619857D01*
X172996043Y-56619856D01*
X172996039Y-56619851D01*
X172760258Y-56384070D01*
X172502491Y-56172526D01*
X172502468Y-56172509D01*
X172225241Y-55987273D01*
X172225213Y-55987256D01*
X171931148Y-55830074D01*
X171931143Y-55830072D01*
X171867999Y-55803917D01*
X171686149Y-55728592D01*
X171623066Y-55702462D01*
X171303955Y-55605661D01*
X171303944Y-55605658D01*
X170976919Y-55540611D01*
X170976902Y-55540608D01*
X170725954Y-55515892D01*
X170645060Y-55507925D01*
X170311602Y-55507925D01*
X170236787Y-55515293D01*
X169979759Y-55540608D01*
X169979742Y-55540611D01*
X169652717Y-55605658D01*
X169652706Y-55605661D01*
X169333595Y-55702462D01*
X169025518Y-55830072D01*
X169025513Y-55830074D01*
X168731448Y-55987256D01*
X168731420Y-55987273D01*
X168454193Y-56172509D01*
X168454170Y-56172526D01*
X168196403Y-56384070D01*
X167960622Y-56619851D01*
X167749078Y-56877618D01*
X167749061Y-56877641D01*
X167563825Y-57154868D01*
X167563808Y-57154896D01*
X167406626Y-57448961D01*
X167406624Y-57448966D01*
X167279014Y-57757043D01*
X167182213Y-58076154D01*
X167182210Y-58076165D01*
X167117163Y-58403190D01*
X167117160Y-58403207D01*
X167098856Y-58589055D01*
X167084477Y-58735050D01*
X159485203Y-58735050D01*
X159575929Y-58644325D01*
X159610230Y-58610023D01*
X159610235Y-58610018D01*
X159847282Y-58321176D01*
X160054875Y-58010490D01*
X160231017Y-57680953D01*
X160374010Y-57335737D01*
X160482477Y-56978168D01*
X160555375Y-56611689D01*
X160592000Y-56239829D01*
X160592000Y-55866171D01*
X160555375Y-55494311D01*
X160482477Y-55127832D01*
X160374010Y-54770263D01*
X160231017Y-54425047D01*
X160223830Y-54411602D01*
X160054881Y-54095521D01*
X160054879Y-54095519D01*
X160054875Y-54095510D01*
X160054864Y-54095493D01*
X159847294Y-53784841D01*
X159847287Y-53784831D01*
X159847282Y-53784824D01*
X159610235Y-53495982D01*
X159610234Y-53495981D01*
X159610230Y-53495976D01*
X159346023Y-53231769D01*
X159057181Y-52994722D01*
X159057158Y-52994705D01*
X158746506Y-52787135D01*
X158746478Y-52787118D01*
X158416960Y-52610986D01*
X158416955Y-52610984D01*
X158071738Y-52467990D01*
X157760043Y-52373439D01*
X157714168Y-52359523D01*
X157714165Y-52359522D01*
X157714164Y-52359522D01*
X157347691Y-52286625D01*
X157347678Y-52286623D01*
X157066474Y-52258927D01*
X156975829Y-52250000D01*
X156602171Y-52250000D01*
X156518337Y-52258256D01*
X156230321Y-52286623D01*
X156230308Y-52286625D01*
X155863835Y-52359522D01*
X155506261Y-52467990D01*
X155161044Y-52610984D01*
X155161039Y-52610986D01*
X154831521Y-52787118D01*
X154831493Y-52787135D01*
X154520841Y-52994705D01*
X154520818Y-52994722D01*
X154231976Y-53231769D01*
X153967769Y-53495976D01*
X153730722Y-53784818D01*
X153730705Y-53784841D01*
X153523135Y-54095493D01*
X153523118Y-54095521D01*
X153346986Y-54425039D01*
X153346984Y-54425044D01*
X153203990Y-54770261D01*
X153095522Y-55127835D01*
X153022625Y-55494308D01*
X153022623Y-55494321D01*
X152995791Y-55766757D01*
X152986000Y-55866171D01*
X136568059Y-55866171D01*
X136880187Y-55632967D01*
X136882198Y-55631498D01*
X137493094Y-55195424D01*
X137495305Y-55193882D01*
X138105554Y-54778640D01*
X138106480Y-54778019D01*
X138153913Y-54746579D01*
X138208302Y-54710763D01*
X138208303Y-54710761D01*
X138213426Y-54707388D01*
X138216087Y-54705367D01*
X138588818Y-54458303D01*
X138589418Y-54457909D01*
X139035682Y-54166697D01*
X139491610Y-53871684D01*
X139492266Y-53871264D01*
X139957771Y-53576112D01*
X139958461Y-53575680D01*
X140431936Y-53281492D01*
X140432676Y-53281037D01*
X140913417Y-52988241D01*
X140914341Y-52987685D01*
X141400068Y-52699406D01*
X141401277Y-52698699D01*
X141892055Y-52415861D01*
X141893407Y-52415096D01*
X142385904Y-52140831D01*
X142387605Y-52139903D01*
X142882874Y-51875105D01*
X142884845Y-51874075D01*
X143381541Y-51620339D01*
X143383440Y-51619392D01*
X143878485Y-51378216D01*
X143881043Y-51377008D01*
X144373980Y-51151443D01*
X144376890Y-51150157D01*
X144399440Y-51140531D01*
X144868062Y-50940486D01*
X144870966Y-50939292D01*
X145357759Y-50746320D01*
X145360733Y-50745187D01*
X145880220Y-50555131D01*
X145882377Y-50554366D01*
X146594914Y-50309646D01*
X146597551Y-50308775D01*
X147319106Y-50079056D01*
X147321743Y-50078248D01*
X148054476Y-49863142D01*
X148057002Y-49862430D01*
X148796087Y-49662916D01*
X148798617Y-49662263D01*
X148828136Y-49654961D01*
X149545199Y-49477583D01*
X149547871Y-49476955D01*
X150297872Y-49309851D01*
X150300141Y-49309369D01*
X151054216Y-49156981D01*
X151056884Y-49156474D01*
X151811003Y-49021950D01*
X151813629Y-49021512D01*
X152567148Y-48904604D01*
X152569765Y-48904227D01*
X153323844Y-48803682D01*
X153325442Y-48803481D01*
X153501357Y-48782562D01*
X153503148Y-48782361D01*
X154225213Y-48707596D01*
X154228108Y-48707331D01*
X154953974Y-48649459D01*
X154956638Y-48649275D01*
X155689166Y-48607052D01*
X155691671Y-48606934D01*
X156427857Y-48580396D01*
X156430210Y-48580335D01*
X157168171Y-48568528D01*
X157170483Y-48568513D01*
X157907843Y-48570482D01*
G37*
%TD.AperFunction*%
%TD*%
%TA.AperFunction,Conductor*%
%TO.N,GND*%
G36*
X184468599Y-123712754D02*
G01*
X184468539Y-123713672D01*
X184454840Y-123911335D01*
X184454782Y-123912137D01*
X184442366Y-124075894D01*
X184438991Y-124120399D01*
X184438140Y-124131461D01*
X184422191Y-124338795D01*
X184422102Y-124339889D01*
X184402417Y-124569209D01*
X184402374Y-124569694D01*
X184380711Y-124810939D01*
X184380630Y-124811808D01*
X184355894Y-125067097D01*
X184355866Y-125067387D01*
X184329099Y-125337033D01*
X184329038Y-125337631D01*
X184299334Y-125622794D01*
X184299282Y-125623286D01*
X184266611Y-125925245D01*
X184266519Y-125926061D01*
X184229869Y-126245014D01*
X184229836Y-126245305D01*
X184200035Y-126499362D01*
X184197555Y-126520500D01*
X184197460Y-126520741D01*
X184189870Y-126586015D01*
X184189870Y-126586016D01*
X184189870Y-126586019D01*
X184183251Y-126642438D01*
X184182992Y-126643858D01*
X184174790Y-126715694D01*
X184174761Y-126715948D01*
X184166468Y-126787264D01*
X184166352Y-126789591D01*
X184145831Y-126969343D01*
X184145802Y-126969588D01*
X184118195Y-127207208D01*
X184118050Y-127208410D01*
X184089784Y-127432584D01*
X184089641Y-127433678D01*
X184060783Y-127647227D01*
X184060451Y-127649519D01*
X184029478Y-127850373D01*
X184028992Y-127853293D01*
X183995114Y-128042831D01*
X183994334Y-128046816D01*
X183956136Y-128226254D01*
X183954980Y-128231187D01*
X183910278Y-128405609D01*
X183908947Y-128410400D01*
X183858347Y-128579354D01*
X183856268Y-128585673D01*
X183796910Y-128751027D01*
X183794801Y-128756492D01*
X183725571Y-128924010D01*
X183722989Y-128929830D01*
X183642262Y-129099873D01*
X183639600Y-129105151D01*
X183633025Y-129117451D01*
X183546428Y-129279418D01*
X183543176Y-129285129D01*
X183434688Y-129464486D01*
X183431838Y-129468979D01*
X183333274Y-129617174D01*
X183312661Y-129640955D01*
X183231808Y-129713221D01*
X183225119Y-129718790D01*
X183151597Y-129775753D01*
X183143360Y-129781614D01*
X183075303Y-129825972D01*
X183066098Y-129831420D01*
X183001641Y-129865911D01*
X182991171Y-129870899D01*
X182922396Y-129899796D01*
X182913009Y-129903301D01*
X182836523Y-129928388D01*
X182826680Y-129931173D01*
X182734695Y-129953140D01*
X182727925Y-129954558D01*
X182614836Y-129974977D01*
X182609347Y-129975841D01*
X182479783Y-129993283D01*
X182474791Y-129993853D01*
X182323773Y-130007983D01*
X182320821Y-130008223D01*
X182144689Y-130020468D01*
X182143371Y-130020553D01*
X181947667Y-130032065D01*
X181945657Y-130032167D01*
X181941545Y-130032342D01*
X181926540Y-130032071D01*
X181877730Y-130028228D01*
X181861819Y-130025930D01*
X181820045Y-130017100D01*
X181803871Y-130012516D01*
X181753927Y-129994619D01*
X181742243Y-129989744D01*
X181681669Y-129960752D01*
X181671005Y-129954991D01*
X181602995Y-129913827D01*
X181595311Y-129908777D01*
X181518641Y-129854210D01*
X181512649Y-129849665D01*
X181436220Y-129787961D01*
X181433330Y-129785627D01*
X181427555Y-129780665D01*
X181424291Y-129777681D01*
X181344792Y-129704995D01*
X181341651Y-129702021D01*
X181251914Y-129614026D01*
X181249752Y-129611853D01*
X181231839Y-129593397D01*
X181228080Y-129589347D01*
X181101934Y-129447222D01*
X181096368Y-129440488D01*
X181077408Y-129415827D01*
X180977024Y-129285258D01*
X180973109Y-129279872D01*
X180972797Y-129279418D01*
X180852661Y-129104437D01*
X180849576Y-129099715D01*
X180731037Y-128908984D01*
X180728380Y-128904500D01*
X180612968Y-128700028D01*
X180611001Y-128696404D01*
X180601424Y-128678035D01*
X180497919Y-128479513D01*
X180496361Y-128476417D01*
X180386347Y-128249804D01*
X180385173Y-128247314D01*
X180277860Y-128012745D01*
X180276804Y-128010369D01*
X180271952Y-127999138D01*
X180173284Y-127770737D01*
X180172582Y-127769077D01*
X180170253Y-127763457D01*
X180072171Y-127526739D01*
X180071485Y-127525047D01*
X180071457Y-127524976D01*
X179974305Y-127280152D01*
X179973949Y-127279243D01*
X179879487Y-127034231D01*
X179787528Y-126791976D01*
X179787300Y-126791368D01*
X179786681Y-126789707D01*
X179699043Y-126554360D01*
X179638860Y-126392707D01*
X179638415Y-126391224D01*
X179635881Y-126384446D01*
X179635881Y-126384445D01*
X179613009Y-126323271D01*
X179607424Y-126308268D01*
X179587547Y-126254875D01*
X179586903Y-126253445D01*
X179551959Y-126159979D01*
X179551680Y-126157361D01*
X179528900Y-126098301D01*
X179506731Y-126039006D01*
X179506728Y-126039002D01*
X179506119Y-126037372D01*
X179501483Y-126027223D01*
X179460267Y-125920365D01*
X179453933Y-125892134D01*
X179436656Y-125859151D01*
X179423255Y-125824407D01*
X179411613Y-125808437D01*
X179401971Y-125792926D01*
X179341559Y-125677538D01*
X179340860Y-125674583D01*
X179311004Y-125619177D01*
X179310668Y-125618536D01*
X179310668Y-125618534D01*
X179281436Y-125562702D01*
X179274701Y-125551808D01*
X179240663Y-125488641D01*
X179239801Y-125486761D01*
X179226413Y-125462026D01*
X179205264Y-125422950D01*
X179174345Y-125365571D01*
X179174025Y-125365231D01*
X179135218Y-125293532D01*
X179131580Y-125285695D01*
X179130082Y-125282980D01*
X179130082Y-125282977D01*
X179099503Y-125227534D01*
X179099033Y-125226673D01*
X179067327Y-125168095D01*
X179062681Y-125160773D01*
X179026858Y-125095822D01*
X179023974Y-125089723D01*
X178990685Y-125030233D01*
X178990315Y-125029567D01*
X178957431Y-124969944D01*
X178953766Y-124964258D01*
X178937598Y-124935366D01*
X178917845Y-124900066D01*
X178916778Y-124897833D01*
X178913528Y-124892056D01*
X178913528Y-124892054D01*
X178884634Y-124840688D01*
X178881490Y-124835098D01*
X178881354Y-124834856D01*
X178849590Y-124778091D01*
X178849589Y-124778090D01*
X178846357Y-124772314D01*
X178845002Y-124770230D01*
X178815574Y-124717914D01*
X178809346Y-124706842D01*
X178806131Y-124700190D01*
X178772596Y-124641504D01*
X178772182Y-124640774D01*
X178739064Y-124581895D01*
X178734991Y-124575696D01*
X178700330Y-124515040D01*
X178700046Y-124514454D01*
X178663295Y-124450227D01*
X178663258Y-124450163D01*
X178651543Y-124429661D01*
X178630864Y-124393472D01*
X178630861Y-124393469D01*
X178627034Y-124386771D01*
X178626674Y-124386226D01*
X178606212Y-124350466D01*
X178593040Y-124327445D01*
X178590469Y-124322214D01*
X178555923Y-124262574D01*
X178555907Y-124262547D01*
X178555794Y-124262351D01*
X178523688Y-124206241D01*
X178523686Y-124206239D01*
X178521363Y-124202179D01*
X178518126Y-124197323D01*
X178486011Y-124141878D01*
X178482142Y-124134136D01*
X178480565Y-124131464D01*
X178480565Y-124131461D01*
X178448210Y-124076612D01*
X178447864Y-124076020D01*
X178416065Y-124021121D01*
X178416062Y-124021118D01*
X178414510Y-124018438D01*
X178409664Y-124011268D01*
X178342627Y-123897625D01*
X178342455Y-123897332D01*
X178327613Y-123872013D01*
X184473369Y-123635638D01*
X184468599Y-123712754D01*
G37*
%TD.AperFunction*%
%TD*%
%TA.AperFunction,Conductor*%
%TO.N,VCC*%
G36*
X155750000Y-71500000D02*
G01*
X156309828Y-71500000D01*
X156309844Y-71499999D01*
X156369372Y-71493598D01*
X156369379Y-71493596D01*
X156504086Y-71443354D01*
X156504093Y-71443350D01*
X156619187Y-71357190D01*
X156619190Y-71357187D01*
X156705350Y-71242093D01*
X156705354Y-71242086D01*
X156755596Y-71107379D01*
X156755598Y-71107372D01*
X156761999Y-71047844D01*
X156762000Y-71047827D01*
X156762000Y-70486649D01*
X156781685Y-70419610D01*
X156834489Y-70373855D01*
X156903647Y-70363911D01*
X156960309Y-70387382D01*
X157021993Y-70433558D01*
X157035668Y-70443795D01*
X157035671Y-70443797D01*
X157170517Y-70494091D01*
X157170516Y-70494091D01*
X157177444Y-70494835D01*
X157230127Y-70500500D01*
X158849872Y-70500499D01*
X158909483Y-70494091D01*
X159044331Y-70443796D01*
X159159546Y-70357546D01*
X159190433Y-70316285D01*
X159246364Y-70274415D01*
X159304910Y-70267533D01*
X159438463Y-70284044D01*
X160960639Y-70253902D01*
X161043090Y-70245473D01*
X161082930Y-70238061D01*
X161162894Y-70216274D01*
X161289785Y-70148448D01*
X161293131Y-70145989D01*
X161358806Y-70122152D01*
X161426945Y-70137606D01*
X161462413Y-70167244D01*
X161575197Y-70304671D01*
X161836609Y-70566083D01*
X161836614Y-70566087D01*
X161836615Y-70566088D01*
X162122402Y-70800628D01*
X162238256Y-70878039D01*
X162429789Y-71006017D01*
X162429795Y-71006020D01*
X162429803Y-71006026D01*
X162429807Y-71006028D01*
X162755847Y-71180300D01*
X162755849Y-71180300D01*
X162755855Y-71180304D01*
X162964022Y-71266530D01*
X163097413Y-71321783D01*
X163097417Y-71321784D01*
X163097419Y-71321785D01*
X163451207Y-71429105D01*
X163451213Y-71429106D01*
X163451216Y-71429107D01*
X163451227Y-71429110D01*
X163678593Y-71474334D01*
X163813810Y-71501231D01*
X164181737Y-71537469D01*
X164181740Y-71537469D01*
X164551440Y-71537469D01*
X164551443Y-71537469D01*
X164919370Y-71501231D01*
X165098847Y-71465530D01*
X165281952Y-71429110D01*
X165281963Y-71429107D01*
X165281963Y-71429106D01*
X165281973Y-71429105D01*
X165635761Y-71321785D01*
X165977325Y-71180304D01*
X166303377Y-71006026D01*
X166610778Y-70800628D01*
X166896565Y-70566088D01*
X167157987Y-70304666D01*
X167366708Y-70050338D01*
X167424454Y-70011005D01*
X167494298Y-70009134D01*
X167527523Y-70023382D01*
X167528353Y-70023892D01*
X167528356Y-70023895D01*
X167660391Y-70081063D01*
X167727807Y-70099417D01*
X167727811Y-70099418D01*
X167870604Y-70117071D01*
X170198560Y-70070972D01*
X170265976Y-70089326D01*
X170312767Y-70141214D01*
X170324078Y-70210162D01*
X170323131Y-70216480D01*
X170016727Y-71954182D01*
X170016726Y-71954193D01*
X170012690Y-72013946D01*
X170038780Y-72155342D01*
X170103644Y-72283649D01*
X170103648Y-72283656D01*
X170202035Y-72388496D01*
X170325973Y-72461368D01*
X170383515Y-72478016D01*
X170383519Y-72478017D01*
X170934832Y-72575227D01*
X171434244Y-69742921D01*
X171465271Y-69680318D01*
X171525218Y-69644427D01*
X171577892Y-69642337D01*
X171826064Y-69686096D01*
X171888667Y-69717122D01*
X171924558Y-69777069D01*
X171926648Y-69829744D01*
X171427235Y-72662051D01*
X171978550Y-72759263D01*
X171978558Y-72759264D01*
X172038311Y-72763300D01*
X172179709Y-72737210D01*
X172315933Y-72668343D01*
X172317001Y-72670456D01*
X172371068Y-72652216D01*
X172438837Y-72669218D01*
X172486656Y-72720161D01*
X172500000Y-72776118D01*
X172500000Y-74368919D01*
X172480315Y-74435958D01*
X172427511Y-74481713D01*
X172369122Y-74492728D01*
X154500001Y-73500000D01*
X154499996Y-73500000D01*
X146999993Y-74000000D01*
X146999986Y-74000001D01*
X139500013Y-74999998D01*
X139499987Y-75000002D01*
X130500001Y-76999998D01*
X130499999Y-77000000D01*
X124999999Y-80500000D01*
X124500000Y-83499999D01*
X124500000Y-83500000D01*
X124017336Y-83540221D01*
X123945164Y-83371819D01*
X123943225Y-83367020D01*
X123892486Y-83233497D01*
X123819823Y-83042280D01*
X123817982Y-83037089D01*
X123709142Y-82706845D01*
X123707742Y-82702301D01*
X123611438Y-82366640D01*
X123610209Y-82362020D01*
X123527054Y-82022858D01*
X123525989Y-82018105D01*
X123455605Y-81671890D01*
X123455192Y-81669761D01*
X123443804Y-81607938D01*
X123443237Y-81604599D01*
X123381752Y-81208252D01*
X123381022Y-81202725D01*
X123337985Y-80807912D01*
X123337528Y-80802679D01*
X123324882Y-80611634D01*
X123311332Y-80406935D01*
X123311090Y-80401378D01*
X123310919Y-80393310D01*
X123302698Y-80006061D01*
X123302711Y-80000296D01*
X123312968Y-79604945D01*
X123313234Y-79599467D01*
X123341579Y-79199793D01*
X123341890Y-79196189D01*
X123383509Y-78785792D01*
X123383673Y-78784276D01*
X123448561Y-78222904D01*
X123448807Y-78220926D01*
X123525356Y-77648769D01*
X123525646Y-77646748D01*
X123614081Y-77065046D01*
X123614351Y-77063352D01*
X123713624Y-76473612D01*
X123714016Y-76471415D01*
X123731854Y-76376069D01*
X123824818Y-75879165D01*
X123825277Y-75876839D01*
X123948798Y-75282754D01*
X123949303Y-75280443D01*
X123971356Y-75183762D01*
X124084592Y-74687327D01*
X124085156Y-74684968D01*
X124091429Y-74659795D01*
X124232085Y-74095287D01*
X124232728Y-74092820D01*
X124233945Y-74088335D01*
X124390970Y-73509668D01*
X124391786Y-73506805D01*
X124563367Y-72932593D01*
X124564237Y-72929804D01*
X124749307Y-72361799D01*
X124749414Y-72361475D01*
X124751164Y-72356222D01*
X124751820Y-72354311D01*
X124928074Y-71853945D01*
X124928854Y-71851799D01*
X125119900Y-71341362D01*
X125120584Y-71339582D01*
X125266371Y-70969507D01*
X125309256Y-70914352D01*
X125375155Y-70891135D01*
X125431006Y-70901167D01*
X125466610Y-70916583D01*
X125534026Y-70934937D01*
X125534030Y-70934938D01*
X125676823Y-70952591D01*
X129178821Y-70883244D01*
X129246235Y-70901598D01*
X129293026Y-70953486D01*
X129305274Y-71007220D01*
X129305274Y-71217590D01*
X129313727Y-71303417D01*
X129341889Y-71589357D01*
X129414763Y-71955726D01*
X129414766Y-71955737D01*
X129523211Y-72313233D01*
X129666169Y-72658360D01*
X129666171Y-72658365D01*
X129842259Y-72987803D01*
X129842270Y-72987821D01*
X130049802Y-73298415D01*
X130049812Y-73298429D01*
X130286801Y-73587200D01*
X130550942Y-73851341D01*
X130550947Y-73851345D01*
X130550948Y-73851346D01*
X130839719Y-74088335D01*
X131150328Y-74295877D01*
X131150337Y-74295882D01*
X131150339Y-74295883D01*
X131479777Y-74471971D01*
X131479779Y-74471971D01*
X131479785Y-74471975D01*
X131690126Y-74559101D01*
X131824909Y-74614931D01*
X131824913Y-74614932D01*
X131824915Y-74614933D01*
X132182396Y-74723374D01*
X132182402Y-74723375D01*
X132182405Y-74723376D01*
X132182416Y-74723379D01*
X132548785Y-74796253D01*
X132920553Y-74832869D01*
X132920556Y-74832869D01*
X133294116Y-74832869D01*
X133294119Y-74832869D01*
X133665887Y-74796253D01*
X133737208Y-74782066D01*
X134032255Y-74723379D01*
X134032266Y-74723376D01*
X134032266Y-74723375D01*
X134032276Y-74723374D01*
X134389757Y-74614933D01*
X134734887Y-74471975D01*
X135064344Y-74295877D01*
X135374953Y-74088335D01*
X135663724Y-73851346D01*
X135927875Y-73587195D01*
X136164864Y-73298424D01*
X136372406Y-72987815D01*
X136548504Y-72658358D01*
X136691462Y-72313228D01*
X136799903Y-71955747D01*
X136799905Y-71955737D01*
X136799908Y-71955726D01*
X136866104Y-71622931D01*
X136872782Y-71589358D01*
X136909398Y-71217590D01*
X136909398Y-71164398D01*
X137885996Y-71164398D01*
X138285011Y-73427320D01*
X138301656Y-73484850D01*
X138374531Y-73608792D01*
X138479370Y-73707178D01*
X138479374Y-73707180D01*
X138607682Y-73772046D01*
X138607681Y-73772046D01*
X138749080Y-73798136D01*
X138808833Y-73794100D01*
X138808841Y-73794099D01*
X139360155Y-73696887D01*
X138882623Y-70988666D01*
X137885996Y-71164398D01*
X136909398Y-71164398D01*
X136909398Y-70851732D01*
X136929083Y-70784693D01*
X136981887Y-70738938D01*
X137030937Y-70727757D01*
X137582147Y-70716842D01*
X137585123Y-70716774D01*
X137585145Y-70716773D01*
X137585164Y-70716773D01*
X137585236Y-70716771D01*
X137586602Y-70716736D01*
X137589659Y-70716648D01*
X137731353Y-70691663D01*
X137773620Y-70677781D01*
X137790782Y-70673473D01*
X138658154Y-70520532D01*
X139025566Y-70511571D01*
X139043553Y-70526184D01*
X139063533Y-70574967D01*
X139085412Y-70699052D01*
X139209498Y-70677173D01*
X139278938Y-70684917D01*
X139333167Y-70728973D01*
X139353147Y-70777757D01*
X139852559Y-73610063D01*
X140403872Y-73512853D01*
X140403876Y-73512852D01*
X140461418Y-73496204D01*
X140585356Y-73423332D01*
X140683743Y-73318492D01*
X140683747Y-73318485D01*
X140748611Y-73190178D01*
X140774701Y-73048782D01*
X140770665Y-72989029D01*
X140770664Y-72989021D01*
X140673218Y-72436378D01*
X140680962Y-72366938D01*
X140725018Y-72312709D01*
X140791400Y-72290907D01*
X140851278Y-72304182D01*
X140935288Y-72346652D01*
X141076821Y-72372767D01*
X141076823Y-72372766D01*
X141076825Y-72372767D01*
X141136627Y-72368729D01*
X141136629Y-72368728D01*
X141136638Y-72368728D01*
X142595645Y-72111464D01*
X142731764Y-72087463D01*
X142731764Y-72087462D01*
X142731775Y-72087461D01*
X142789368Y-72070799D01*
X142913434Y-71997852D01*
X143011921Y-71892905D01*
X143076854Y-71764464D01*
X143102969Y-71622931D01*
X143098929Y-71563113D01*
X142956183Y-70753563D01*
X142963927Y-70684125D01*
X143007983Y-70629896D01*
X143074365Y-70608094D01*
X143075662Y-70608060D01*
X151887963Y-70433558D01*
X151990299Y-70421015D01*
X152039355Y-70409833D01*
X152137004Y-70376794D01*
X152258043Y-70299006D01*
X152310847Y-70253251D01*
X152405067Y-70144517D01*
X152464838Y-70013640D01*
X152484523Y-69946601D01*
X152484524Y-69946597D01*
X152505000Y-69804181D01*
X152505000Y-69485623D01*
X152524685Y-69418584D01*
X152577489Y-69372829D01*
X152618276Y-69362088D01*
X154103286Y-69233275D01*
X154171774Y-69247092D01*
X154221921Y-69295745D01*
X154238000Y-69356811D01*
X154238000Y-71047844D01*
X154244401Y-71107372D01*
X154244403Y-71107379D01*
X154294645Y-71242086D01*
X154294649Y-71242093D01*
X154380809Y-71357187D01*
X154380812Y-71357190D01*
X154495906Y-71443350D01*
X154495913Y-71443354D01*
X154630620Y-71493596D01*
X154630627Y-71493598D01*
X154690155Y-71499999D01*
X154690172Y-71500000D01*
X155250000Y-71500000D01*
X155250000Y-69133806D01*
X155750000Y-69090435D01*
X155750000Y-71500000D01*
G37*
%TD.AperFunction*%
%TD*%
%TA.AperFunction,Conductor*%
%TO.N,GND*%
G36*
X164512040Y-83002408D02*
G01*
X169490168Y-83998033D01*
X169509385Y-84003519D01*
X173448741Y-85480777D01*
X173504600Y-85522748D01*
X173520332Y-85550830D01*
X174397718Y-87744296D01*
X174491131Y-87977827D01*
X174500000Y-88023879D01*
X174500000Y-90999999D01*
X174500000Y-91000000D01*
X183000000Y-89000000D01*
X188500000Y-86000000D01*
X191000000Y-83000000D01*
X191000000Y-84227414D01*
X190997723Y-84230944D01*
X190818913Y-84494552D01*
X190816009Y-84498651D01*
X190730399Y-84614453D01*
X190623304Y-84759316D01*
X190620559Y-84762892D01*
X190414075Y-85021935D01*
X190411453Y-85025113D01*
X190192489Y-85281829D01*
X190189958Y-85284705D01*
X190159745Y-85317974D01*
X190110719Y-85371958D01*
X190109443Y-85373342D01*
X189884643Y-85613447D01*
X189881805Y-85616379D01*
X189642022Y-85856162D01*
X189639640Y-85858481D01*
X189383062Y-86101658D01*
X189380913Y-86103647D01*
X189110697Y-86347898D01*
X189108562Y-86349784D01*
X188827327Y-86592493D01*
X188825195Y-86594292D01*
X188533663Y-86834661D01*
X188531626Y-86836304D01*
X188233439Y-87071766D01*
X188231193Y-87073498D01*
X187925599Y-87303660D01*
X187923726Y-87305044D01*
X187615840Y-87527996D01*
X187613282Y-87529800D01*
X187302698Y-87742965D01*
X187300717Y-87744296D01*
X186989960Y-87948894D01*
X186987492Y-87950478D01*
X186680713Y-88142214D01*
X186677916Y-88143911D01*
X186597754Y-88191118D01*
X186596666Y-88191751D01*
X186202646Y-88418434D01*
X186199352Y-88420263D01*
X185793191Y-88637781D01*
X185790206Y-88639328D01*
X185370360Y-88849733D01*
X185367325Y-88851203D01*
X184933770Y-89053918D01*
X184931472Y-89054964D01*
X184487861Y-89251475D01*
X184485225Y-89252606D01*
X184035860Y-89439356D01*
X184033514Y-89440303D01*
X183578436Y-89618631D01*
X183576028Y-89619546D01*
X183117476Y-89788333D01*
X183115351Y-89789094D01*
X182656944Y-89948413D01*
X182654842Y-89949122D01*
X182195672Y-90099555D01*
X182194666Y-90099880D01*
X182180166Y-90104494D01*
X182178240Y-90105089D01*
X182032239Y-90148890D01*
X182018589Y-90152985D01*
X182016440Y-90153608D01*
X181836330Y-90204116D01*
X181834980Y-90204486D01*
X181637473Y-90257476D01*
X181635799Y-90257913D01*
X181421338Y-90312256D01*
X181420474Y-90312472D01*
X181189638Y-90369203D01*
X181188391Y-90369502D01*
X180945647Y-90426503D01*
X180945284Y-90426588D01*
X180689323Y-90485883D01*
X180688430Y-90486086D01*
X180423378Y-90545427D01*
X180422955Y-90545521D01*
X180149103Y-90605828D01*
X180148475Y-90605965D01*
X179867060Y-90666409D01*
X179866629Y-90666501D01*
X179576921Y-90727651D01*
X179576899Y-90727655D01*
X179286345Y-90788928D01*
X179285787Y-90789045D01*
X178991463Y-90849701D01*
X178991381Y-90849718D01*
X178695459Y-90910496D01*
X178695067Y-90910575D01*
X178471350Y-90955771D01*
X178470641Y-90955867D01*
X178398761Y-90970437D01*
X178398683Y-90970452D01*
X178326864Y-90984960D01*
X178326150Y-90985154D01*
X178102614Y-91030465D01*
X178102538Y-91030481D01*
X177810696Y-91089449D01*
X177810619Y-91089464D01*
X177524085Y-91147170D01*
X177523756Y-91147236D01*
X177315004Y-91188690D01*
X177313488Y-91188890D01*
X177242413Y-91203105D01*
X177242249Y-91203138D01*
X177170922Y-91217302D01*
X177169437Y-91217699D01*
X177039257Y-91243736D01*
X177030732Y-91245440D01*
X177030001Y-91245396D01*
X176966138Y-91258360D01*
X176896205Y-91272346D01*
X176893092Y-91273188D01*
X176771211Y-91297931D01*
X176763969Y-91299400D01*
X176763944Y-91299400D01*
X176708798Y-91310601D01*
X176704779Y-91311417D01*
X176702485Y-91311883D01*
X176702475Y-91311885D01*
X176627801Y-91327045D01*
X176627666Y-91327080D01*
X176444111Y-91364365D01*
X176443840Y-91364420D01*
X176272721Y-91398783D01*
X176266366Y-91399651D01*
X176199350Y-91413516D01*
X176198645Y-91413659D01*
X176131606Y-91427122D01*
X176125404Y-91428815D01*
X176037891Y-91446921D01*
X176030003Y-91448552D01*
X176029891Y-91448547D01*
X175967040Y-91461579D01*
X175966125Y-91461769D01*
X175966073Y-91461780D01*
X175893728Y-91476748D01*
X175893215Y-91476888D01*
X175809428Y-91494264D01*
X175809427Y-91494264D01*
X175797304Y-91496778D01*
X175781389Y-91496865D01*
X175732991Y-91510115D01*
X175729177Y-91510906D01*
X175729176Y-91510905D01*
X175692015Y-91518613D01*
X175683853Y-91520306D01*
X175683851Y-91520306D01*
X175683850Y-91520307D01*
X175683848Y-91520307D01*
X175680686Y-91521899D01*
X175657701Y-91530728D01*
X175654282Y-91531665D01*
X175654281Y-91531665D01*
X175654279Y-91531666D01*
X175614309Y-91555032D01*
X175610946Y-91556997D01*
X175566136Y-91579551D01*
X175554256Y-91590140D01*
X175543576Y-91596384D01*
X175543575Y-91596386D01*
X175540514Y-91598175D01*
X175507960Y-91631085D01*
X175502320Y-91636439D01*
X175467765Y-91667243D01*
X175467760Y-91667249D01*
X175465822Y-91670199D01*
X175465823Y-91670200D01*
X175459025Y-91680555D01*
X175447836Y-91691867D01*
X175422994Y-91735437D01*
X175420854Y-91738699D01*
X175420850Y-91738707D01*
X175395441Y-91777412D01*
X175395440Y-91777414D01*
X175394331Y-91780769D01*
X175394332Y-91780770D01*
X175390626Y-91791987D01*
X175390448Y-91792525D01*
X175382565Y-91806352D01*
X175369846Y-91854871D01*
X175368623Y-91858573D01*
X175368623Y-91858574D01*
X175354096Y-91902543D01*
X175354095Y-91902545D01*
X175353893Y-91906079D01*
X175353183Y-91918435D01*
X175349149Y-91933829D01*
X175349420Y-91983997D01*
X175349197Y-91987899D01*
X175346546Y-92034104D01*
X175346546Y-92034108D01*
X175347266Y-92037578D01*
X175349845Y-92062072D01*
X175350506Y-92183643D01*
X175350506Y-92183760D01*
X175350507Y-92183760D01*
X175351491Y-92402405D01*
X175351491Y-92403523D01*
X175350520Y-92618481D01*
X175350520Y-92618501D01*
X175349519Y-92832540D01*
X175349507Y-92833775D01*
X175346577Y-93033952D01*
X175346563Y-93034707D01*
X175342656Y-93223198D01*
X175342633Y-93224149D01*
X175337837Y-93392996D01*
X175337768Y-93394897D01*
X175325119Y-93683880D01*
X175325057Y-93685161D01*
X175289518Y-94341631D01*
X175289386Y-94343736D01*
X175242152Y-95006989D01*
X175241978Y-95009160D01*
X175183015Y-95672494D01*
X175182775Y-95674926D01*
X175127203Y-96185742D01*
X175110669Y-96337728D01*
X175110497Y-96339305D01*
X175110465Y-96339589D01*
X175106329Y-96376808D01*
X175104934Y-96384716D01*
X175097666Y-96451731D01*
X175097564Y-96452641D01*
X175096087Y-96465381D01*
X175095575Y-96468285D01*
X175094075Y-96482668D01*
X175093920Y-96484076D01*
X175089837Y-96519303D01*
X175089525Y-96526348D01*
X175088322Y-96537899D01*
X175088274Y-96538349D01*
X175087962Y-96541237D01*
X175080735Y-96607887D01*
X175080552Y-96612408D01*
X175078205Y-96635031D01*
X175078199Y-96635087D01*
X175074692Y-96668734D01*
X175074693Y-96668735D01*
X175073943Y-96675939D01*
X175073937Y-96675957D01*
X175073135Y-96683701D01*
X175073135Y-96683702D01*
X175070570Y-96708331D01*
X175070560Y-96708597D01*
X175067188Y-96741194D01*
X175067184Y-96741233D01*
X175059553Y-96814768D01*
X175059540Y-96815126D01*
X175055226Y-96856826D01*
X175055219Y-96856893D01*
X175042266Y-96981439D01*
X175042239Y-96981689D01*
X175036073Y-97039829D01*
X175035359Y-97044007D01*
X175028218Y-97113889D01*
X175028169Y-97114360D01*
X175021086Y-97181141D01*
X175021049Y-97181494D01*
X175020608Y-97185654D01*
X175020587Y-97186213D01*
X175014026Y-97252757D01*
X175013982Y-97253194D01*
X175006810Y-97323382D01*
X175006672Y-97327341D01*
X175000059Y-97394424D01*
X174999999Y-97395019D01*
X174992768Y-97464917D01*
X174992635Y-97465704D01*
X174987706Y-97513678D01*
X174985143Y-97538631D01*
X174978377Y-97604041D01*
X174977553Y-97612005D01*
X174970134Y-97684706D01*
X174970126Y-97684789D01*
X174962606Y-97757988D01*
X174962577Y-97758771D01*
X174955178Y-97831280D01*
X174955170Y-97831366D01*
X174947658Y-97904477D01*
X174946787Y-97909698D01*
X174940042Y-97978587D01*
X174939983Y-97979175D01*
X174932878Y-98048337D01*
X174932694Y-98053630D01*
X174925975Y-98122274D01*
X174925950Y-98122533D01*
X174912117Y-98260853D01*
X174912061Y-98261400D01*
X174905879Y-98320565D01*
X174905342Y-98323735D01*
X174900853Y-98367935D01*
X174898145Y-98394597D01*
X174891362Y-98459527D01*
X174891383Y-98459663D01*
X174890625Y-98467304D01*
X174890608Y-98467471D01*
X174884981Y-98524219D01*
X174884951Y-98524512D01*
X174877745Y-98595462D01*
X174877655Y-98598052D01*
X174874695Y-98627933D01*
X174874693Y-98627948D01*
X174869111Y-98684225D01*
X174869104Y-98684270D01*
X174867950Y-98695944D01*
X174867653Y-98698947D01*
X174866440Y-98711176D01*
X174866440Y-98711178D01*
X174865635Y-98719297D01*
X174865634Y-98719326D01*
X174862300Y-98753007D01*
X174862299Y-98753019D01*
X174854710Y-98829598D01*
X174854707Y-98829672D01*
X174852507Y-98851905D01*
X174851992Y-98857110D01*
X174847474Y-98901787D01*
X174843162Y-98944424D01*
X174843105Y-98944969D01*
X174842956Y-98946380D01*
X174841717Y-98953734D01*
X174836110Y-99010742D01*
X174836043Y-99011412D01*
X174835046Y-99021010D01*
X174834300Y-99023053D01*
X174831120Y-99058819D01*
X174831025Y-99059735D01*
X174831022Y-99059739D01*
X174831007Y-99059904D01*
X174827961Y-99088846D01*
X174827691Y-99096324D01*
X174821985Y-99154355D01*
X174821208Y-99160616D01*
X174814262Y-99206915D01*
X174814117Y-99215038D01*
X174813805Y-99215032D01*
X174813809Y-99218101D01*
X174814121Y-99218095D01*
X174814285Y-99226220D01*
X174822408Y-99279562D01*
X174822765Y-99281909D01*
X174829110Y-99337861D01*
X174832664Y-99346900D01*
X174833749Y-99354018D01*
X174834127Y-99356501D01*
X174855781Y-99405924D01*
X174855781Y-99405925D01*
X174856736Y-99408105D01*
X174877343Y-99460502D01*
X174883112Y-99468307D01*
X174887008Y-99477200D01*
X174887011Y-99477204D01*
X174887012Y-99477207D01*
X174922200Y-99521191D01*
X174955674Y-99566480D01*
X174963271Y-99572530D01*
X174969338Y-99580113D01*
X175012816Y-99612098D01*
X175012815Y-99612098D01*
X175014730Y-99613507D01*
X175058765Y-99648573D01*
X175067664Y-99652448D01*
X175075491Y-99658206D01*
X175125773Y-99677850D01*
X175130103Y-99679637D01*
X177412117Y-100673355D01*
X177424120Y-100679376D01*
X177431319Y-100683490D01*
X177442112Y-100689658D01*
X177442717Y-100690006D01*
X177454572Y-100696869D01*
X177456528Y-100698002D01*
X177512649Y-100730811D01*
X177512793Y-100730908D01*
X177519573Y-100734870D01*
X177519574Y-100734871D01*
X177539113Y-100746290D01*
X177539144Y-100746323D01*
X177539150Y-100746312D01*
X177568183Y-100763293D01*
X177568185Y-100763293D01*
X177575343Y-100767480D01*
X177575536Y-100767576D01*
X177575884Y-100767779D01*
X177576061Y-100767883D01*
X177640817Y-100805740D01*
X177640956Y-100805808D01*
X177649980Y-100811082D01*
X177651326Y-100811881D01*
X177672691Y-100824750D01*
X177679606Y-100829517D01*
X177737010Y-100863491D01*
X177737829Y-100863980D01*
X177794998Y-100898411D01*
X177802478Y-100902236D01*
X177833631Y-100920673D01*
X177834962Y-100921474D01*
X177873458Y-100944938D01*
X177876306Y-100946934D01*
X177881468Y-100950058D01*
X177881469Y-100950059D01*
X177936930Y-100983627D01*
X177937200Y-100983922D01*
X177937259Y-100983827D01*
X177964476Y-101000416D01*
X177992772Y-101017663D01*
X177997957Y-101020823D01*
X178001023Y-101022420D01*
X178048722Y-101051291D01*
X178049938Y-101052038D01*
X178102807Y-101084914D01*
X178103389Y-101085331D01*
X178109990Y-101089430D01*
X178109992Y-101089432D01*
X178166131Y-101124292D01*
X178221655Y-101158820D01*
X178221809Y-101158866D01*
X178228929Y-101163287D01*
X178287671Y-101199764D01*
X178288565Y-101200324D01*
X178412669Y-101278859D01*
X178413293Y-101279257D01*
X178539526Y-101360199D01*
X178540787Y-101361018D01*
X178669127Y-101445606D01*
X178800669Y-101532641D01*
X178800847Y-101532759D01*
X178927244Y-101617340D01*
X178929334Y-101618771D01*
X178991073Y-101661989D01*
X179052520Y-101705002D01*
X179052928Y-101705289D01*
X179175861Y-101792406D01*
X179176782Y-101793068D01*
X179235517Y-101835698D01*
X179292025Y-101876712D01*
X179294359Y-101878448D01*
X179401885Y-101960459D01*
X179403598Y-101961792D01*
X179407754Y-101965086D01*
X179506170Y-102043111D01*
X179507706Y-102044349D01*
X179601167Y-102120897D01*
X179604139Y-102123411D01*
X179687118Y-102195907D01*
X179688879Y-102197477D01*
X179745245Y-102248720D01*
X179747184Y-102250523D01*
X179978017Y-102469910D01*
X179980390Y-102472227D01*
X180173149Y-102665770D01*
X180214283Y-102707071D01*
X180216659Y-102709524D01*
X180451560Y-102958746D01*
X180453582Y-102960944D01*
X180582272Y-103104341D01*
X180689341Y-103223647D01*
X180690968Y-103225497D01*
X180715113Y-103253501D01*
X180858375Y-103419661D01*
X180926404Y-103498562D01*
X180928182Y-103500671D01*
X181159036Y-103780787D01*
X181160493Y-103782589D01*
X181387390Y-104068635D01*
X181388761Y-104070396D01*
X181608761Y-104358237D01*
X181610162Y-104360105D01*
X181821659Y-104647896D01*
X181823219Y-104650069D01*
X181942208Y-104819650D01*
X181943793Y-104821964D01*
X182071455Y-105012984D01*
X182072768Y-105014992D01*
X182192957Y-105202787D01*
X182194703Y-105205598D01*
X182307847Y-105393230D01*
X182308847Y-105394918D01*
X182417490Y-105581708D01*
X182418617Y-105583688D01*
X182467697Y-105671756D01*
X182514759Y-105756204D01*
X182520147Y-105765871D01*
X182521179Y-105767761D01*
X182615900Y-105944891D01*
X182616972Y-105946942D01*
X182705084Y-106119375D01*
X182705953Y-106121108D01*
X182788106Y-106288279D01*
X182788773Y-106289657D01*
X182864925Y-106449576D01*
X182865783Y-106451417D01*
X182934922Y-106602955D01*
X182935608Y-106604487D01*
X182998339Y-106747059D01*
X182998939Y-106748445D01*
X183055917Y-106882342D01*
X183056515Y-106883771D01*
X183106778Y-107006108D01*
X183107279Y-107007348D01*
X183151287Y-107117836D01*
X183151966Y-107119578D01*
X183189616Y-107218412D01*
X183189896Y-107219155D01*
X183222149Y-107305479D01*
X183222527Y-107306503D01*
X183243469Y-107364095D01*
X183245849Y-107372375D01*
X183268373Y-107435725D01*
X183268785Y-107436903D01*
X183284180Y-107481624D01*
X183288415Y-107497123D01*
X183292871Y-107518900D01*
X183293115Y-107519606D01*
X183298387Y-107531977D01*
X183300058Y-107536671D01*
X183302608Y-107546186D01*
X183304792Y-107549968D01*
X183307560Y-107557744D01*
X183308541Y-107559927D01*
X183308542Y-107559930D01*
X183308648Y-107560102D01*
X183315043Y-107573696D01*
X183315422Y-107573510D01*
X183319009Y-107580802D01*
X183329612Y-107596707D01*
X183340044Y-107615795D01*
X183343696Y-107624144D01*
X183345459Y-107628387D01*
X183353432Y-107648625D01*
X183354167Y-107650538D01*
X183373874Y-107703092D01*
X183373875Y-107703094D01*
X183378819Y-107716279D01*
X183380168Y-107720061D01*
X183398542Y-107774347D01*
X183419021Y-107835782D01*
X183419022Y-107835783D01*
X183421571Y-107843430D01*
X183422684Y-107846208D01*
X183441842Y-107906076D01*
X183442001Y-107906576D01*
X183460585Y-107965768D01*
X183467198Y-107986833D01*
X183467695Y-107988457D01*
X183495026Y-108079876D01*
X183495200Y-108080464D01*
X183526412Y-108186777D01*
X183526551Y-108187251D01*
X183560154Y-108303419D01*
X183560527Y-108304739D01*
X183573204Y-108350649D01*
X183596106Y-108433595D01*
X183596283Y-108434245D01*
X183616562Y-108509279D01*
X183616842Y-108510659D01*
X183635919Y-108580894D01*
X183635959Y-108581043D01*
X183654927Y-108651227D01*
X183655379Y-108652544D01*
X183679111Y-108739923D01*
X183679459Y-108741235D01*
X183724467Y-108914421D01*
X183724530Y-108914662D01*
X183774098Y-109106982D01*
X183826380Y-109313150D01*
X183826524Y-109313725D01*
X183868016Y-109481920D01*
X183881949Y-109538396D01*
X183881960Y-109538489D01*
X183881971Y-109538487D01*
X183941603Y-109780988D01*
X183941753Y-109781608D01*
X184003940Y-110040227D01*
X184004114Y-110040959D01*
X184065608Y-110303707D01*
X184067023Y-110310637D01*
X184096188Y-110477671D01*
X184096479Y-110479408D01*
X184163318Y-110897156D01*
X184163503Y-110898353D01*
X184228400Y-111331000D01*
X184228637Y-111332652D01*
X184289607Y-111780089D01*
X184289789Y-111781483D01*
X184346947Y-112239737D01*
X184347100Y-112241020D01*
X184400383Y-112707738D01*
X184400516Y-112708956D01*
X184449851Y-113182579D01*
X184449983Y-113183923D01*
X184494462Y-113661333D01*
X184494531Y-113662094D01*
X184536045Y-114139502D01*
X184536167Y-114141008D01*
X184571666Y-114616281D01*
X184571749Y-114617475D01*
X184602393Y-115089007D01*
X184602451Y-115089952D01*
X184629053Y-115554016D01*
X184629145Y-115555860D01*
X184657716Y-116229742D01*
X184657789Y-116231929D01*
X184680502Y-117150324D01*
X184680538Y-117152724D01*
X184685475Y-118071973D01*
X184685467Y-118074237D01*
X184673614Y-118993868D01*
X184673564Y-118996131D01*
X184644897Y-119916408D01*
X184644818Y-119918413D01*
X184601093Y-120841604D01*
X184601077Y-120841930D01*
X184599209Y-120879289D01*
X184599173Y-120879976D01*
X184592354Y-121002710D01*
X184591317Y-121011551D01*
X184588176Y-121077853D01*
X184588147Y-121078449D01*
X184584616Y-121142028D01*
X184585040Y-121144055D01*
X184584575Y-121153880D01*
X184584575Y-121153881D01*
X184582551Y-121196608D01*
X184582075Y-121200894D01*
X184579035Y-121270829D01*
X184579013Y-121271308D01*
X184575680Y-121341683D01*
X184575766Y-121345987D01*
X184572437Y-121422561D01*
X184570991Y-121455810D01*
X184570889Y-121458087D01*
X184566315Y-121559843D01*
X184565756Y-121565009D01*
X184565553Y-121570040D01*
X184565553Y-121570042D01*
X184563935Y-121610261D01*
X184562961Y-121634455D01*
X184562936Y-121635034D01*
X184559820Y-121704368D01*
X184559939Y-121709571D01*
X184559792Y-121713234D01*
X184555936Y-121809117D01*
X184555927Y-121809331D01*
X184555923Y-121809421D01*
X184551933Y-121906860D01*
X184551338Y-121912587D01*
X184548874Y-121981573D01*
X184548849Y-121982216D01*
X184546031Y-122051074D01*
X184546186Y-122056823D01*
X184542838Y-122150611D01*
X184542836Y-122150667D01*
X184539494Y-122243107D01*
X184539470Y-122243348D01*
X184536885Y-122315313D01*
X184536884Y-122315339D01*
X184534162Y-122390653D01*
X184534169Y-122390891D01*
X184530887Y-122482227D01*
X184530858Y-122482967D01*
X184527207Y-122570080D01*
X184526693Y-122582330D01*
X184526656Y-122582451D01*
X184523954Y-122647706D01*
X184523943Y-122647963D01*
X184523940Y-122648025D01*
X184520856Y-122721586D01*
X184520869Y-122722144D01*
X184517000Y-122815544D01*
X184516971Y-122816207D01*
X184512498Y-122911821D01*
X184512112Y-122920073D01*
X184512110Y-122920125D01*
X184512008Y-122920449D01*
X184509034Y-122985883D01*
X184506464Y-123040842D01*
X184505632Y-123058624D01*
X184505660Y-123060089D01*
X184501153Y-123159252D01*
X184501092Y-123160462D01*
X184498401Y-123209176D01*
X184491732Y-123329891D01*
X184491340Y-123336984D01*
X184491313Y-123337465D01*
X184480408Y-123521848D01*
X184480387Y-123522182D01*
X184473368Y-123635639D01*
X178327613Y-123872014D01*
X178294623Y-123815737D01*
X178278006Y-123787390D01*
X178273442Y-123778392D01*
X178272253Y-123776407D01*
X178272253Y-123776405D01*
X178239854Y-123722300D01*
X178239329Y-123721412D01*
X178206294Y-123665058D01*
X178200579Y-123656709D01*
X178195351Y-123647979D01*
X178138411Y-123552888D01*
X178080779Y-123456234D01*
X178080347Y-123455389D01*
X178042468Y-123391983D01*
X178042414Y-123391893D01*
X178005269Y-123329597D01*
X178004745Y-123328837D01*
X177988510Y-123301660D01*
X177986526Y-123297804D01*
X177983671Y-123293068D01*
X177983671Y-123293066D01*
X177950236Y-123237595D01*
X177916874Y-123181749D01*
X177914044Y-123177011D01*
X177911551Y-123173413D01*
X177910434Y-123171560D01*
X177899641Y-123153652D01*
X177894216Y-123143294D01*
X177893451Y-123142055D01*
X177893450Y-123142052D01*
X177860593Y-123088855D01*
X177859914Y-123087743D01*
X177827641Y-123034198D01*
X177827639Y-123034196D01*
X177826887Y-123032948D01*
X177820155Y-123023384D01*
X177776710Y-122953044D01*
X177776022Y-122951914D01*
X177738822Y-122890075D01*
X177733783Y-122880423D01*
X177721004Y-122859657D01*
X177699828Y-122825246D01*
X177699298Y-122824373D01*
X177666913Y-122770539D01*
X177666912Y-122770538D01*
X177664135Y-122765921D01*
X177663321Y-122764772D01*
X177658890Y-122757705D01*
X177658807Y-122757435D01*
X177625273Y-122704085D01*
X177624728Y-122703209D01*
X177591721Y-122649572D01*
X177591719Y-122649570D01*
X177590572Y-122647706D01*
X177584570Y-122639330D01*
X177573463Y-122621661D01*
X177559905Y-122600092D01*
X177559103Y-122598798D01*
X177541509Y-122569979D01*
X177534681Y-122557162D01*
X177534648Y-122557091D01*
X177534647Y-122557087D01*
X177526518Y-122544177D01*
X177501866Y-122505023D01*
X177500964Y-122503568D01*
X177468840Y-122450952D01*
X177468765Y-122450859D01*
X177460337Y-122439065D01*
X177449328Y-122421580D01*
X177449024Y-122421095D01*
X177446429Y-122416931D01*
X177412518Y-122362516D01*
X177405521Y-122349651D01*
X177404921Y-122348374D01*
X177404920Y-122348370D01*
X177404917Y-122348365D01*
X177372108Y-122297183D01*
X177371028Y-122295468D01*
X177361222Y-122279606D01*
X177351619Y-122260591D01*
X177347936Y-122251416D01*
X177347935Y-122251414D01*
X177347125Y-122250334D01*
X177342783Y-122244163D01*
X177336673Y-122234892D01*
X177335262Y-122231592D01*
X177330525Y-122225563D01*
X177327683Y-122221251D01*
X177327003Y-122219030D01*
X177320309Y-122208466D01*
X177319193Y-122206234D01*
X177317013Y-122203776D01*
X177303455Y-122185295D01*
X177303274Y-122184993D01*
X177291943Y-122174037D01*
X177283960Y-122165557D01*
X177283220Y-122164693D01*
X177278199Y-122158430D01*
X177262870Y-122137991D01*
X177261727Y-122136823D01*
X177252857Y-122126713D01*
X177242845Y-122113969D01*
X177237326Y-122108576D01*
X177228739Y-122099281D01*
X177225874Y-122095843D01*
X177219224Y-122087863D01*
X177218319Y-122086760D01*
X177179552Y-122038872D01*
X177179551Y-122038871D01*
X177179286Y-122038620D01*
X177169398Y-122028071D01*
X177130867Y-121981834D01*
X177127518Y-121977815D01*
X177127514Y-121977810D01*
X177118250Y-121966694D01*
X177117595Y-121965901D01*
X177117298Y-121965538D01*
X177102963Y-121948018D01*
X177095855Y-121938182D01*
X177078360Y-121917286D01*
X177054542Y-121888836D01*
X177014640Y-121840067D01*
X177012308Y-121838390D01*
X177011660Y-121837616D01*
X177005528Y-121830291D01*
X177005527Y-121830290D01*
X176981180Y-121801209D01*
X176980998Y-121800991D01*
X176978494Y-121797986D01*
X176902221Y-121706459D01*
X176901954Y-121706137D01*
X176863681Y-121659853D01*
X176859526Y-121654138D01*
X176856631Y-121650683D01*
X176829498Y-121618298D01*
X176815857Y-121602016D01*
X176815809Y-121601958D01*
X176815508Y-121601598D01*
X176774717Y-121552270D01*
X176773517Y-121551416D01*
X176767546Y-121544281D01*
X176721836Y-121489798D01*
X176721783Y-121489735D01*
X176674414Y-121433198D01*
X176673887Y-121432647D01*
X176623283Y-121372331D01*
X176623270Y-121372316D01*
X176619790Y-121368167D01*
X176560337Y-121297280D01*
X176560019Y-121296603D01*
X176518112Y-121246935D01*
X176476136Y-121196887D01*
X176476135Y-121196886D01*
X176472192Y-121192185D01*
X176469911Y-121189807D01*
X176409948Y-121118740D01*
X176409815Y-121118582D01*
X176346605Y-121043413D01*
X176346605Y-121043412D01*
X176341020Y-121036771D01*
X176340727Y-121036147D01*
X176298723Y-120986473D01*
X176256656Y-120936447D01*
X176256653Y-120936445D01*
X176252611Y-120931638D01*
X176250496Y-120929438D01*
X176230967Y-120906344D01*
X176230108Y-120905182D01*
X176225371Y-120899595D01*
X176225371Y-120899594D01*
X176183211Y-120849866D01*
X176140636Y-120799517D01*
X176140634Y-120799515D01*
X176135954Y-120793981D01*
X176134936Y-120792927D01*
X176113458Y-120767593D01*
X176110282Y-120763331D01*
X176065204Y-120710675D01*
X176064818Y-120710223D01*
X176019933Y-120657282D01*
X176016226Y-120653467D01*
X176011678Y-120648155D01*
X175902349Y-120520450D01*
X175894276Y-120511020D01*
X175894276Y-120511019D01*
X175894274Y-120511017D01*
X175874335Y-120487727D01*
X175873942Y-120487202D01*
X175825669Y-120430883D01*
X175825621Y-120430827D01*
X175801696Y-120402881D01*
X175783349Y-120381450D01*
X175783348Y-120381449D01*
X175778290Y-120375541D01*
X175777819Y-120375059D01*
X175754055Y-120347333D01*
X175752068Y-120344690D01*
X175731298Y-120320604D01*
X175705531Y-120290722D01*
X175663126Y-120241250D01*
X175663125Y-120241249D01*
X175659141Y-120236601D01*
X175656815Y-120234228D01*
X175637110Y-120211377D01*
X175634087Y-120207871D01*
X175626674Y-120198157D01*
X175622929Y-120193913D01*
X175600973Y-120169029D01*
X175593420Y-120158116D01*
X175592776Y-120158576D01*
X175588058Y-120151958D01*
X175560464Y-120122352D01*
X175559232Y-120121011D01*
X175558249Y-120119925D01*
X175543006Y-120102248D01*
X175541044Y-120100914D01*
X175534643Y-120093840D01*
X175534531Y-120093609D01*
X175533604Y-120092677D01*
X175508696Y-120064447D01*
X175503325Y-120059766D01*
X175485814Y-120038598D01*
X175485018Y-120039216D01*
X175480038Y-120032789D01*
X175448924Y-120001969D01*
X175442069Y-119995178D01*
X175438655Y-119991659D01*
X175411561Y-119962590D01*
X175402205Y-119952551D01*
X175395936Y-119947381D01*
X175396092Y-119947191D01*
X175383785Y-119937445D01*
X175379639Y-119933337D01*
X175370640Y-119923400D01*
X175366975Y-119918885D01*
X175366973Y-119918883D01*
X175366972Y-119918881D01*
X175324237Y-119878415D01*
X175322266Y-119876505D01*
X175280413Y-119835048D01*
X175275768Y-119831518D01*
X175265530Y-119822825D01*
X175256917Y-119814669D01*
X175246949Y-119802860D01*
X175246728Y-119803055D01*
X175241363Y-119796944D01*
X175200900Y-119761497D01*
X175197352Y-119758266D01*
X175158284Y-119721273D01*
X175151702Y-119716502D01*
X175151874Y-119716264D01*
X175139192Y-119707440D01*
X175126145Y-119696011D01*
X175115875Y-119685901D01*
X175115430Y-119685409D01*
X175068731Y-119645697D01*
X175067350Y-119644505D01*
X175021241Y-119604112D01*
X175021238Y-119604109D01*
X175021232Y-119604106D01*
X175020681Y-119603738D01*
X175009186Y-119595060D01*
X174994492Y-119582564D01*
X174984841Y-119573420D01*
X174980358Y-119568691D01*
X174980356Y-119568689D01*
X174980355Y-119568688D01*
X174934881Y-119531826D01*
X174932638Y-119529963D01*
X174888036Y-119492034D01*
X174882555Y-119488491D01*
X174871793Y-119480685D01*
X174854381Y-119466571D01*
X174844125Y-119457262D01*
X174841645Y-119454744D01*
X174794388Y-119417911D01*
X174792534Y-119416438D01*
X174745981Y-119378702D01*
X174742973Y-119376857D01*
X174731585Y-119368963D01*
X174711710Y-119353472D01*
X174702334Y-119345220D01*
X174651969Y-119306897D01*
X174650895Y-119306071D01*
X174601708Y-119267735D01*
X174601705Y-119267734D01*
X174600882Y-119267092D01*
X174590502Y-119260130D01*
X174569615Y-119244237D01*
X174558709Y-119234893D01*
X174558123Y-119234329D01*
X174548722Y-119227395D01*
X174508797Y-119197946D01*
X174507419Y-119196915D01*
X174458625Y-119159789D01*
X174458624Y-119159788D01*
X174457918Y-119159385D01*
X174445882Y-119151541D01*
X174423342Y-119134916D01*
X174415639Y-119128476D01*
X174362663Y-119090153D01*
X174361736Y-119089476D01*
X174309180Y-119050711D01*
X174300706Y-119045334D01*
X174278958Y-119029601D01*
X174267748Y-119020448D01*
X174267531Y-119020248D01*
X174217172Y-118984889D01*
X174215750Y-118983875D01*
X174165968Y-118947862D01*
X174165687Y-118947711D01*
X174153392Y-118940108D01*
X174136579Y-118928304D01*
X174132891Y-118925714D01*
X174126301Y-118920452D01*
X174071408Y-118882541D01*
X174070762Y-118882092D01*
X174018676Y-118845521D01*
X174018674Y-118845520D01*
X174016039Y-118843670D01*
X174008808Y-118839307D01*
X173990970Y-118826987D01*
X173979973Y-118818393D01*
X173928368Y-118783738D01*
X173927031Y-118782827D01*
X173875966Y-118747559D01*
X173863951Y-118740481D01*
X173849405Y-118730713D01*
X173847962Y-118729602D01*
X173842112Y-118725687D01*
X173842111Y-118725686D01*
X173787689Y-118689267D01*
X173787557Y-118689110D01*
X173787526Y-118689158D01*
X173727517Y-118648861D01*
X173725936Y-118647944D01*
X173715488Y-118640953D01*
X173704798Y-118632844D01*
X173696815Y-118627646D01*
X173652352Y-118598693D01*
X173651057Y-118597838D01*
X173599131Y-118563090D01*
X173587461Y-118556438D01*
X173581782Y-118552740D01*
X173573152Y-118546346D01*
X173518549Y-118511557D01*
X173517516Y-118510892D01*
X173463250Y-118475557D01*
X173453857Y-118470342D01*
X173453852Y-118470340D01*
X173392517Y-118431264D01*
X173392491Y-118431234D01*
X173392454Y-118431224D01*
X173380602Y-118423663D01*
X173338407Y-118396745D01*
X173335272Y-118394452D01*
X173275671Y-118356722D01*
X173275309Y-118356492D01*
X173251039Y-118341010D01*
X173226227Y-118325182D01*
X173220754Y-118321217D01*
X173192178Y-118303500D01*
X173164190Y-118286147D01*
X173163304Y-118285592D01*
X173106559Y-118249670D01*
X173102186Y-118247333D01*
X173060733Y-118222000D01*
X173060054Y-118221582D01*
X173001991Y-118185583D01*
X172997003Y-118182954D01*
X172980085Y-118172675D01*
X172968525Y-118165651D01*
X172968548Y-118165612D01*
X172968255Y-118165486D01*
X172951238Y-118155087D01*
X172945083Y-118150795D01*
X172887548Y-118116445D01*
X172886783Y-118115985D01*
X172880805Y-118112353D01*
X172878703Y-118110896D01*
X172867317Y-118104148D01*
X172866151Y-118103449D01*
X172855698Y-118097098D01*
X172832577Y-118083050D01*
X172832575Y-118083049D01*
X172829877Y-118081410D01*
X172822816Y-118077778D01*
X172817878Y-118074852D01*
X172787278Y-118056583D01*
X172777035Y-118048714D01*
X172776548Y-118049367D01*
X172770040Y-118044508D01*
X172770037Y-118044506D01*
X172739915Y-118027638D01*
X172733480Y-118023773D01*
X172725415Y-118018590D01*
X172717766Y-118011807D01*
X172704664Y-118005256D01*
X172699051Y-118001649D01*
X172697791Y-118000195D01*
X172690480Y-117995615D01*
X172683812Y-117990486D01*
X172672933Y-117982117D01*
X172665902Y-117978046D01*
X172666052Y-117977786D01*
X172656526Y-117972666D01*
X172635641Y-117958616D01*
X172632782Y-117956634D01*
X172586293Y-117923428D01*
X172580504Y-117920345D01*
X172558262Y-117905190D01*
X172555838Y-117903120D01*
X172506459Y-117871055D01*
X172504138Y-117869511D01*
X172455508Y-117836354D01*
X172451567Y-117834365D01*
X172440649Y-117828139D01*
X172422395Y-117816464D01*
X172421745Y-117816045D01*
X172394422Y-117798303D01*
X172386378Y-117792423D01*
X172332582Y-117759013D01*
X172331251Y-117758175D01*
X172290811Y-117732312D01*
X172285334Y-117728407D01*
X172231345Y-117696119D01*
X172229570Y-117695037D01*
X172176354Y-117661987D01*
X172169571Y-117658486D01*
X172163826Y-117655135D01*
X172123195Y-117631433D01*
X172122032Y-117630746D01*
X172069872Y-117599552D01*
X172060194Y-117593131D01*
X172058524Y-117591907D01*
X172058521Y-117591904D01*
X172007933Y-117564148D01*
X172006404Y-117563294D01*
X172005681Y-117562884D01*
X171955271Y-117533478D01*
X171952506Y-117532723D01*
X171943346Y-117527528D01*
X171942948Y-117527117D01*
X171884784Y-117496556D01*
X171882814Y-117495498D01*
X171822864Y-117462606D01*
X171823001Y-117462356D01*
X171814435Y-117457884D01*
X171787426Y-117444491D01*
X171757917Y-117429858D01*
X171755362Y-117428554D01*
X171722708Y-117411397D01*
X171703466Y-117401287D01*
X171703465Y-117401286D01*
X171703460Y-117401284D01*
X171703386Y-117401257D01*
X171679865Y-117389635D01*
X171678228Y-117388597D01*
X171625902Y-117364348D01*
X171622956Y-117362935D01*
X171612267Y-117357635D01*
X171571314Y-117337328D01*
X171571309Y-117337327D01*
X171569151Y-117336589D01*
X171547102Y-117324711D01*
X171546341Y-117326017D01*
X171539328Y-117321926D01*
X171511701Y-117310341D01*
X171489091Y-117300859D01*
X171488132Y-117300452D01*
X171486557Y-117299774D01*
X171435656Y-117276186D01*
X171429081Y-117275042D01*
X171415685Y-117269278D01*
X171412692Y-117266798D01*
X171405228Y-117264184D01*
X171403128Y-117263036D01*
X171349752Y-117242374D01*
X171346564Y-117241089D01*
X171293792Y-117218960D01*
X171288566Y-117217535D01*
X171261928Y-117205601D01*
X171261779Y-117205914D01*
X171254441Y-117202411D01*
X171208092Y-117187339D01*
X171207305Y-117187081D01*
X171204492Y-117186145D01*
X171156229Y-117167463D01*
X171144520Y-117166198D01*
X171131908Y-117162004D01*
X171123649Y-117156272D01*
X171121060Y-117155409D01*
X171120299Y-117157187D01*
X171112827Y-117153985D01*
X171061564Y-117139581D01*
X171056761Y-117138125D01*
X171006128Y-117121659D01*
X170998127Y-117120174D01*
X170998189Y-117119838D01*
X170984299Y-117117575D01*
X170972791Y-117114385D01*
X170957324Y-117106675D01*
X170910951Y-117097242D01*
X170906779Y-117096086D01*
X170906737Y-117096060D01*
X170906361Y-117095969D01*
X170864956Y-117084335D01*
X170864959Y-117084335D01*
X170858092Y-117084252D01*
X170834869Y-117081768D01*
X170833649Y-117081520D01*
X170810951Y-117074580D01*
X170809471Y-117073967D01*
X170805622Y-117072373D01*
X170805621Y-117072372D01*
X170805619Y-117072372D01*
X170761906Y-117066620D01*
X170761906Y-117066619D01*
X170757601Y-117066052D01*
X170710184Y-117056409D01*
X170692519Y-117057489D01*
X170680703Y-117055935D01*
X170680699Y-117055935D01*
X170678432Y-117055636D01*
X170658091Y-117051200D01*
X170645371Y-117047282D01*
X170608820Y-117045927D01*
X170597241Y-117044953D01*
X170560965Y-117040181D01*
X170560964Y-117040181D01*
X170557525Y-117040634D01*
X170547760Y-117041920D01*
X170526984Y-117042896D01*
X170514534Y-117042435D01*
X170497579Y-117040634D01*
X170475071Y-117036663D01*
X170448109Y-117039019D01*
X170432730Y-117039405D01*
X170405682Y-117038403D01*
X170405677Y-117038404D01*
X170383400Y-117043497D01*
X170366557Y-117046145D01*
X170347360Y-117047822D01*
X170331090Y-117048171D01*
X170306310Y-117047075D01*
X170281775Y-117052497D01*
X170265817Y-117054947D01*
X170240790Y-117057134D01*
X170217473Y-117065617D01*
X170201847Y-117070165D01*
X170173511Y-117076429D01*
X170162892Y-117078296D01*
X170124521Y-117083334D01*
X170124508Y-117083338D01*
X170114188Y-117087607D01*
X170114189Y-117087608D01*
X170104146Y-117091763D01*
X170082632Y-117096520D01*
X170043517Y-117116850D01*
X170038523Y-117118917D01*
X170038516Y-117118921D01*
X170010814Y-117130384D01*
X169996960Y-117135179D01*
X169969134Y-117143001D01*
X169951054Y-117153735D01*
X169950103Y-117154294D01*
X169942882Y-117158494D01*
X169915748Y-117169723D01*
X169891131Y-117188597D01*
X169884295Y-117192574D01*
X169880296Y-117193557D01*
X169868361Y-117200374D01*
X169855592Y-117205528D01*
X169855582Y-117205534D01*
X169830302Y-117224567D01*
X169819031Y-117232123D01*
X169791826Y-117248277D01*
X169791815Y-117248285D01*
X169779055Y-117261360D01*
X169764905Y-117273807D01*
X169748360Y-117286265D01*
X169735772Y-117294593D01*
X169711687Y-117308498D01*
X169711684Y-117308500D01*
X169696055Y-117324129D01*
X169682970Y-117335500D01*
X169665307Y-117348800D01*
X169665305Y-117348802D01*
X169648168Y-117370718D01*
X169638169Y-117382015D01*
X169621925Y-117398259D01*
X169608450Y-117409924D01*
X169591720Y-117422420D01*
X169591715Y-117422424D01*
X169573741Y-117445226D01*
X169564047Y-117456136D01*
X169543502Y-117476682D01*
X169543501Y-117476684D01*
X169533056Y-117494774D01*
X169523052Y-117509533D01*
X169520132Y-117513238D01*
X169518295Y-117515569D01*
X169503237Y-117531532D01*
X169495478Y-117538419D01*
X169495474Y-117538423D01*
X169473711Y-117571416D01*
X169470822Y-117575794D01*
X169443139Y-117610917D01*
X169434700Y-117630560D01*
X169428632Y-117639760D01*
X169428629Y-117639766D01*
X169426262Y-117643355D01*
X169413338Y-117659758D01*
X169404391Y-117669329D01*
X169404388Y-117669334D01*
X169387078Y-117701789D01*
X169386939Y-117702048D01*
X169384270Y-117707022D01*
X169360916Y-117742432D01*
X169353787Y-117763847D01*
X169348761Y-117773219D01*
X169342639Y-117779432D01*
X169339312Y-117785320D01*
X169340255Y-117785933D01*
X169335827Y-117792740D01*
X169313359Y-117839754D01*
X169312494Y-117841526D01*
X169311694Y-117843132D01*
X169286374Y-117890611D01*
X169284890Y-117896999D01*
X169278409Y-117910025D01*
X169276323Y-117912275D01*
X169273894Y-117918295D01*
X169271431Y-117922424D01*
X169250165Y-117971776D01*
X169248170Y-117976168D01*
X169225002Y-118024650D01*
X169222487Y-118032373D01*
X169221945Y-118032196D01*
X169218758Y-118042840D01*
X169214209Y-118053676D01*
X169211769Y-118056940D01*
X169189981Y-118111406D01*
X169189555Y-118112423D01*
X169189532Y-118112450D01*
X169189095Y-118113503D01*
X169166281Y-118166452D01*
X169165092Y-118170651D01*
X169159799Y-118183581D01*
X169160271Y-118183765D01*
X169134610Y-118249819D01*
X169134157Y-118250968D01*
X169110100Y-118311111D01*
X169106806Y-118321385D01*
X169106210Y-118322918D01*
X169105917Y-118323550D01*
X169103176Y-118330618D01*
X169103175Y-118330620D01*
X169079253Y-118392314D01*
X169052875Y-118460211D01*
X169052662Y-118460885D01*
X169023100Y-118537123D01*
X169022772Y-118537958D01*
X168964661Y-118684663D01*
X168963859Y-118686640D01*
X168901970Y-118835359D01*
X168900716Y-118838265D01*
X168832507Y-118991056D01*
X168831067Y-118994167D01*
X168755930Y-119150702D01*
X168753805Y-119154921D01*
X168669074Y-119315463D01*
X168667143Y-119318981D01*
X168573387Y-119483497D01*
X168570403Y-119488461D01*
X168463229Y-119657636D01*
X168460767Y-119661371D01*
X168340804Y-119836429D01*
X168337241Y-119841364D01*
X168201551Y-120019904D01*
X168198694Y-120023522D01*
X168044581Y-120211377D01*
X168041521Y-120214965D01*
X167986412Y-120277158D01*
X167983577Y-120280251D01*
X167852607Y-120418348D01*
X167849055Y-120421944D01*
X167727664Y-120539916D01*
X167722994Y-120544227D01*
X167609128Y-120644066D01*
X167604214Y-120648155D01*
X167497104Y-120732716D01*
X167491745Y-120736717D01*
X167390888Y-120807863D01*
X167385055Y-120811736D01*
X167290559Y-120870701D01*
X167284293Y-120874361D01*
X167194862Y-120923142D01*
X167188610Y-120926326D01*
X167104422Y-120966244D01*
X167098047Y-120969050D01*
X167016802Y-121002122D01*
X167010575Y-121004464D01*
X166937436Y-121029755D01*
X166930219Y-121032007D01*
X166854842Y-121053026D01*
X166850748Y-121054093D01*
X166777411Y-121071871D01*
X166771282Y-121073193D01*
X166699188Y-121086853D01*
X166696273Y-121087370D01*
X166630951Y-121098138D01*
X166626972Y-121098794D01*
X166620232Y-121099905D01*
X166617199Y-121100366D01*
X166544176Y-121110555D01*
X166542044Y-121110834D01*
X166538500Y-121111266D01*
X166524648Y-121112172D01*
X166521352Y-121112202D01*
X166461955Y-121120578D01*
X166459652Y-121120881D01*
X166446671Y-121122464D01*
X166441511Y-121122826D01*
X166433892Y-121123974D01*
X166430445Y-121124444D01*
X166399998Y-121128157D01*
X166397516Y-121128797D01*
X166385070Y-121131331D01*
X166376354Y-121132645D01*
X166375261Y-121132804D01*
X166371487Y-121133337D01*
X166368777Y-121133719D01*
X166355180Y-121134158D01*
X166355200Y-121134504D01*
X166347084Y-121134953D01*
X166293614Y-121145027D01*
X166289138Y-121145786D01*
X166268829Y-121148847D01*
X166255035Y-121149739D01*
X166250354Y-121150258D01*
X166250353Y-121150258D01*
X166250351Y-121150258D01*
X166250346Y-121150259D01*
X166241440Y-121152451D01*
X166241426Y-121152455D01*
X166235953Y-121153801D01*
X166235268Y-121153905D01*
X166234921Y-121154054D01*
X166231364Y-121154930D01*
X166231362Y-121154929D01*
X166203086Y-121161891D01*
X166196403Y-121163342D01*
X166178251Y-121166762D01*
X166163018Y-121169632D01*
X166157885Y-121170599D01*
X166147862Y-121171840D01*
X166145236Y-121172347D01*
X166106559Y-121185239D01*
X166100557Y-121187072D01*
X166098743Y-121187575D01*
X166057389Y-121197756D01*
X166052564Y-121200411D01*
X166039649Y-121204001D01*
X166037479Y-121203969D01*
X166036863Y-121204141D01*
X166029995Y-121206294D01*
X166002237Y-121219182D01*
X165989237Y-121224347D01*
X165966067Y-121232071D01*
X165960217Y-121234021D01*
X165960210Y-121234024D01*
X165954260Y-121237952D01*
X165941134Y-121245508D01*
X165932361Y-121249867D01*
X165912454Y-121256107D01*
X165885900Y-121272957D01*
X165880102Y-121275839D01*
X165879573Y-121275932D01*
X165877139Y-121277263D01*
X165854475Y-121287786D01*
X165854467Y-121287791D01*
X165840185Y-121299734D01*
X165828242Y-121308561D01*
X165821939Y-121312659D01*
X165793641Y-121326523D01*
X165773199Y-121344354D01*
X165765867Y-121349122D01*
X165765598Y-121349202D01*
X165764719Y-121349859D01*
X165749192Y-121359714D01*
X165749182Y-121359722D01*
X165732329Y-121378049D01*
X165709915Y-121397236D01*
X165693274Y-121408347D01*
X165693269Y-121408351D01*
X165677277Y-121426574D01*
X165676489Y-121427463D01*
X165671368Y-121433185D01*
X165647333Y-121454154D01*
X165631417Y-121477836D01*
X165625688Y-121484240D01*
X165623031Y-121485888D01*
X165616217Y-121493738D01*
X165599271Y-121508984D01*
X165599269Y-121508986D01*
X165587885Y-121526499D01*
X165585590Y-121529905D01*
X165581652Y-121535544D01*
X165563350Y-121556401D01*
X165554332Y-121574669D01*
X165548960Y-121582364D01*
X165547973Y-121583154D01*
X165545674Y-121586851D01*
X165543500Y-121589683D01*
X165536835Y-121601228D01*
X165524966Y-121618298D01*
X165516466Y-121628564D01*
X165508116Y-121646781D01*
X165504560Y-121653923D01*
X165502137Y-121658419D01*
X165488449Y-121679480D01*
X165484875Y-121690461D01*
X165479581Y-121700288D01*
X165478931Y-121700945D01*
X165477809Y-121703464D01*
X165477611Y-121703805D01*
X165477608Y-121703813D01*
X165476957Y-121706243D01*
X165474926Y-121713825D01*
X165474375Y-121715880D01*
X165462064Y-121745652D01*
X165444375Y-121776375D01*
X165441039Y-121788886D01*
X165433956Y-121808587D01*
X165428559Y-121820362D01*
X165428559Y-121820364D01*
X165422400Y-121856686D01*
X165422382Y-121856790D01*
X165419940Y-121868010D01*
X165414230Y-121889421D01*
X165408870Y-121905181D01*
X165399689Y-121927204D01*
X165399687Y-121927210D01*
X165396224Y-121953050D01*
X165396223Y-121953049D01*
X165395171Y-121960894D01*
X165386422Y-121993707D01*
X165386459Y-122025902D01*
X165385351Y-122034178D01*
X165385351Y-122034182D01*
X165384069Y-122043747D01*
X165380311Y-122061641D01*
X165374846Y-122080586D01*
X165374846Y-122080588D01*
X165374269Y-122110790D01*
X165373195Y-122124882D01*
X165369183Y-122154824D01*
X165369183Y-122154826D01*
X165371710Y-122174376D01*
X165372711Y-122192624D01*
X165372609Y-122198004D01*
X165370403Y-122219053D01*
X165368058Y-122231253D01*
X165368058Y-122231255D01*
X165368058Y-122231257D01*
X165369511Y-122251416D01*
X165370750Y-122268618D01*
X165370787Y-122269154D01*
X165371150Y-122274528D01*
X165370336Y-122317348D01*
X165375444Y-122337976D01*
X165376180Y-122348844D01*
X165374533Y-122356274D01*
X165375501Y-122372632D01*
X165375191Y-122375102D01*
X165375191Y-122375116D01*
X165381415Y-122420241D01*
X165381565Y-122421361D01*
X165382007Y-122424797D01*
X165385532Y-122473700D01*
X165389929Y-122486384D01*
X165391563Y-122499083D01*
X165390245Y-122507370D01*
X165391189Y-122514294D01*
X165391799Y-122514253D01*
X165392351Y-122522357D01*
X165401551Y-122567977D01*
X165401881Y-122569674D01*
X165402432Y-122572619D01*
X165409197Y-122621661D01*
X165413541Y-122631968D01*
X165415990Y-122645052D01*
X165415053Y-122654336D01*
X165415124Y-122654704D01*
X165417351Y-122654458D01*
X165418243Y-122662527D01*
X165430841Y-122713756D01*
X165431281Y-122715608D01*
X165431650Y-122717217D01*
X165442405Y-122770540D01*
X165445183Y-122776137D01*
X165448389Y-122790093D01*
X165448062Y-122795544D01*
X165448795Y-122799623D01*
X165450051Y-122799426D01*
X165451314Y-122807453D01*
X165465913Y-122856929D01*
X165467395Y-122862411D01*
X165479712Y-122912497D01*
X165482668Y-122920073D01*
X165482273Y-122920226D01*
X165486290Y-122929676D01*
X165489492Y-122939987D01*
X165489658Y-122943123D01*
X165507633Y-122998397D01*
X165507877Y-122999183D01*
X165507877Y-122999223D01*
X165508387Y-123000866D01*
X165524902Y-123056832D01*
X165532218Y-123079069D01*
X165533112Y-123083110D01*
X165533115Y-123083118D01*
X165548915Y-123126569D01*
X165551967Y-123134960D01*
X165552533Y-123136553D01*
X165552972Y-123137814D01*
X165570414Y-123191447D01*
X165573079Y-123195550D01*
X165577241Y-123207498D01*
X165577324Y-123209176D01*
X165601075Y-123270104D01*
X165602069Y-123272743D01*
X165612585Y-123301660D01*
X165622927Y-123330099D01*
X165624993Y-123334558D01*
X165650790Y-123397678D01*
X165651537Y-123399551D01*
X165675282Y-123460460D01*
X165678104Y-123468758D01*
X165701576Y-123522059D01*
X165702875Y-123525120D01*
X165724628Y-123578345D01*
X165725443Y-123579772D01*
X165730570Y-123589780D01*
X165739660Y-123609699D01*
X165753957Y-123641031D01*
X165754592Y-123642448D01*
X165780713Y-123701764D01*
X165783539Y-123707037D01*
X165803465Y-123749544D01*
X165804000Y-123750701D01*
X165820243Y-123786299D01*
X165824809Y-123797791D01*
X165825116Y-123798694D01*
X165851456Y-123851987D01*
X165852549Y-123854257D01*
X165877785Y-123908092D01*
X165877787Y-123908094D01*
X165878860Y-123909771D01*
X165885035Y-123920581D01*
X165898137Y-123946449D01*
X165898681Y-123947536D01*
X165906216Y-123962782D01*
X165907950Y-123966859D01*
X165914426Y-123979433D01*
X165915351Y-123981265D01*
X165927627Y-124006101D01*
X165931882Y-124013317D01*
X165939059Y-124027249D01*
X165939446Y-124028006D01*
X165940810Y-124030699D01*
X165944890Y-124040035D01*
X165960095Y-124068815D01*
X165960972Y-124070506D01*
X165961119Y-124070795D01*
X165968278Y-124084929D01*
X165968353Y-124085013D01*
X165972043Y-124092264D01*
X165972470Y-124094548D01*
X165976552Y-124102181D01*
X165978698Y-124107511D01*
X165997233Y-124140369D01*
X165999463Y-124144503D01*
X166005045Y-124155339D01*
X166010841Y-124164872D01*
X166028182Y-124197695D01*
X166035393Y-124214121D01*
X166064646Y-124296492D01*
X166064913Y-124297253D01*
X166103227Y-124407403D01*
X166103650Y-124408640D01*
X166142390Y-124523918D01*
X166142853Y-124525322D01*
X166157067Y-124569349D01*
X166180259Y-124641190D01*
X166181158Y-124643973D01*
X166181750Y-124645857D01*
X166218045Y-124764722D01*
X166218913Y-124767700D01*
X166251604Y-124885211D01*
X166252439Y-124888371D01*
X166281915Y-125006277D01*
X166282851Y-125010308D01*
X166306849Y-125122022D01*
X166307854Y-125127239D01*
X166326477Y-125236545D01*
X166327222Y-125241533D01*
X166339940Y-125340290D01*
X166340722Y-125348512D01*
X166346111Y-125436087D01*
X166346341Y-125444695D01*
X166345746Y-125519096D01*
X166345124Y-125530545D01*
X166339224Y-125589056D01*
X166337315Y-125601559D01*
X166328951Y-125642287D01*
X166324665Y-125657903D01*
X166319746Y-125672114D01*
X166279215Y-125729027D01*
X166214350Y-125754993D01*
X166205628Y-125755516D01*
X166179065Y-125756172D01*
X166171355Y-125756123D01*
X166130171Y-125754578D01*
X166122481Y-125754050D01*
X166066953Y-125748497D01*
X166064898Y-125748274D01*
X165994000Y-125739988D01*
X165993607Y-125739941D01*
X165989827Y-125739487D01*
X165975253Y-125736041D01*
X165975170Y-125736427D01*
X165967229Y-125734701D01*
X165912865Y-125730170D01*
X165908388Y-125729715D01*
X165892373Y-125727793D01*
X165884270Y-125726042D01*
X165884213Y-125726368D01*
X165876215Y-125724948D01*
X165876214Y-125724948D01*
X165868780Y-125724614D01*
X165864154Y-125724406D01*
X165854210Y-125723214D01*
X165850230Y-125723783D01*
X165838615Y-125723264D01*
X165838614Y-125723263D01*
X165822373Y-125722537D01*
X165817617Y-125722233D01*
X165784155Y-125719444D01*
X165768106Y-125717040D01*
X165763011Y-125715932D01*
X165763009Y-125715932D01*
X165725997Y-125717693D01*
X165722878Y-125717802D01*
X165718705Y-125717895D01*
X165677562Y-125716054D01*
X165663620Y-125719128D01*
X165651512Y-125719399D01*
X165648348Y-125718546D01*
X165640338Y-125719145D01*
X165626192Y-125718184D01*
X165626187Y-125718185D01*
X165606456Y-125722060D01*
X165588465Y-125724243D01*
X165568386Y-125725199D01*
X165568375Y-125725201D01*
X165554532Y-125729626D01*
X165540507Y-125734109D01*
X165539981Y-125734277D01*
X165526171Y-125737830D01*
X165525551Y-125737952D01*
X165517540Y-125739257D01*
X165472366Y-125745108D01*
X165472362Y-125745109D01*
X165468393Y-125746743D01*
X165468394Y-125746744D01*
X165457085Y-125751400D01*
X165440875Y-125754585D01*
X165396359Y-125776404D01*
X165392625Y-125777942D01*
X165392623Y-125777942D01*
X165362920Y-125790173D01*
X165361900Y-125790588D01*
X165303409Y-125814067D01*
X165300919Y-125815468D01*
X165300918Y-125815468D01*
X165299626Y-125816195D01*
X165265312Y-125842411D01*
X165253582Y-125850354D01*
X165248323Y-125853492D01*
X165202861Y-125889427D01*
X165200371Y-125891344D01*
X165153986Y-125926135D01*
X165149379Y-125930640D01*
X165144934Y-125935216D01*
X165133879Y-125950062D01*
X165078050Y-125992073D01*
X165034426Y-126000000D01*
X158625485Y-126000000D01*
X158558446Y-125980315D01*
X158512691Y-125927511D01*
X158501494Y-125874524D01*
X158505725Y-125519096D01*
X158516453Y-124617889D01*
X158536934Y-124551092D01*
X158590279Y-124505968D01*
X158653701Y-124496079D01*
X158690158Y-124499999D01*
X158690172Y-124500000D01*
X159250000Y-124500000D01*
X159750000Y-124500000D01*
X160309828Y-124500000D01*
X160309844Y-124499999D01*
X160369372Y-124493598D01*
X160369379Y-124493596D01*
X160504086Y-124443354D01*
X160504093Y-124443350D01*
X160619187Y-124357190D01*
X160619190Y-124357187D01*
X160705350Y-124242093D01*
X160705354Y-124242086D01*
X160755596Y-124107379D01*
X160755598Y-124107372D01*
X160761999Y-124047844D01*
X160762000Y-124047827D01*
X160762000Y-122250000D01*
X159750000Y-122250000D01*
X159750000Y-124500000D01*
X159250000Y-124500000D01*
X159250000Y-121750000D01*
X159750000Y-121750000D01*
X160762000Y-121750000D01*
X160762000Y-119952172D01*
X160761999Y-119952155D01*
X160755598Y-119892627D01*
X160755596Y-119892620D01*
X160705354Y-119757913D01*
X160705350Y-119757906D01*
X160619190Y-119642812D01*
X160619187Y-119642809D01*
X160504093Y-119556649D01*
X160504086Y-119556645D01*
X160369379Y-119506403D01*
X160369372Y-119506401D01*
X160309844Y-119500000D01*
X159750000Y-119500000D01*
X159750000Y-121750000D01*
X159250000Y-121750000D01*
X159250000Y-119500000D01*
X158702865Y-119500000D01*
X158635826Y-119480315D01*
X158590071Y-119427511D01*
X158578874Y-119374527D01*
X158947119Y-88441966D01*
X166999500Y-88441966D01*
X166999500Y-89558028D01*
X166999501Y-89558034D01*
X167010113Y-89677415D01*
X167066089Y-89873045D01*
X167066090Y-89873048D01*
X167066091Y-89873049D01*
X167160302Y-90053407D01*
X167160304Y-90053409D01*
X167288890Y-90211109D01*
X167347417Y-90258831D01*
X167446593Y-90339698D01*
X167626951Y-90433909D01*
X167822582Y-90489886D01*
X167886482Y-90495567D01*
X167951512Y-90521109D01*
X167992412Y-90577757D01*
X167999500Y-90619079D01*
X167999500Y-97118097D01*
X168036446Y-97351368D01*
X168109433Y-97575996D01*
X168216657Y-97786433D01*
X168355483Y-97977510D01*
X168522490Y-98144517D01*
X168713567Y-98283343D01*
X168792841Y-98323735D01*
X168924003Y-98390566D01*
X168924005Y-98390566D01*
X168924008Y-98390568D01*
X169037263Y-98427367D01*
X169148631Y-98463553D01*
X169381903Y-98500500D01*
X169381908Y-98500500D01*
X169618092Y-98500500D01*
X171375500Y-98500500D01*
X171442539Y-98520185D01*
X171488294Y-98572989D01*
X171499500Y-98624500D01*
X171499500Y-105575500D01*
X171479815Y-105642539D01*
X171427011Y-105688294D01*
X171375500Y-105699500D01*
X170952129Y-105699500D01*
X170952123Y-105699501D01*
X170892516Y-105705908D01*
X170757671Y-105756202D01*
X170757664Y-105756206D01*
X170642455Y-105842452D01*
X170642452Y-105842455D01*
X170556206Y-105957664D01*
X170556202Y-105957671D01*
X170505908Y-106092517D01*
X170500102Y-106146526D01*
X170499501Y-106152123D01*
X170499500Y-106152135D01*
X170499500Y-109847870D01*
X170499501Y-109847876D01*
X170505908Y-109907483D01*
X170556202Y-110042328D01*
X170556206Y-110042335D01*
X170642452Y-110157544D01*
X170642455Y-110157547D01*
X170757664Y-110243793D01*
X170757671Y-110243797D01*
X170892517Y-110294091D01*
X170892516Y-110294091D01*
X170899444Y-110294835D01*
X170952127Y-110300500D01*
X176047872Y-110300499D01*
X176107483Y-110294091D01*
X176242331Y-110243796D01*
X176357546Y-110157546D01*
X176443796Y-110042331D01*
X176494091Y-109907483D01*
X176500500Y-109847873D01*
X176500499Y-106152128D01*
X176494091Y-106092517D01*
X176489932Y-106081367D01*
X176443797Y-105957671D01*
X176443793Y-105957664D01*
X176357547Y-105842455D01*
X176357544Y-105842452D01*
X176242335Y-105756206D01*
X176242328Y-105756202D01*
X176107482Y-105705908D01*
X176107483Y-105705908D01*
X176047883Y-105699501D01*
X176047881Y-105699500D01*
X176047873Y-105699500D01*
X176047865Y-105699500D01*
X174624500Y-105699500D01*
X174557461Y-105679815D01*
X174511706Y-105627011D01*
X174500500Y-105575500D01*
X174500500Y-96881902D01*
X174463553Y-96648631D01*
X174416146Y-96502730D01*
X174390568Y-96424008D01*
X174390566Y-96424005D01*
X174390566Y-96424003D01*
X174313204Y-96272173D01*
X174283343Y-96213567D01*
X174144517Y-96022490D01*
X173977510Y-95855483D01*
X173786433Y-95716657D01*
X173776559Y-95711626D01*
X173575996Y-95609433D01*
X173351368Y-95536446D01*
X173118097Y-95499500D01*
X173118092Y-95499500D01*
X171124500Y-95499500D01*
X171057461Y-95479815D01*
X171011706Y-95427011D01*
X171000500Y-95375500D01*
X171000500Y-90619079D01*
X171020185Y-90552040D01*
X171072989Y-90506285D01*
X171113518Y-90495566D01*
X171177418Y-90489886D01*
X171373049Y-90433909D01*
X171553407Y-90339698D01*
X171711109Y-90211109D01*
X171839698Y-90053407D01*
X171933909Y-89873049D01*
X171989886Y-89677418D01*
X172000500Y-89558037D01*
X172000499Y-88441964D01*
X171989886Y-88322582D01*
X171933909Y-88126951D01*
X171839698Y-87946593D01*
X171740200Y-87824568D01*
X171711109Y-87788890D01*
X171553409Y-87660304D01*
X171553410Y-87660304D01*
X171553407Y-87660302D01*
X171373049Y-87566091D01*
X171373048Y-87566090D01*
X171373045Y-87566089D01*
X171253455Y-87531871D01*
X171177418Y-87510114D01*
X171177415Y-87510113D01*
X171177413Y-87510113D01*
X171104631Y-87503642D01*
X171058037Y-87499500D01*
X169618094Y-87499500D01*
X169618092Y-87499500D01*
X169381908Y-87499500D01*
X169381904Y-87499500D01*
X167941971Y-87499500D01*
X167941965Y-87499500D01*
X167941964Y-87499501D01*
X167930316Y-87500536D01*
X167822584Y-87510113D01*
X167626954Y-87566089D01*
X167543979Y-87609432D01*
X167446593Y-87660302D01*
X167446591Y-87660303D01*
X167446590Y-87660304D01*
X167288890Y-87788890D01*
X167160304Y-87946590D01*
X167160302Y-87946593D01*
X167143987Y-87977827D01*
X167066089Y-88126954D01*
X167010114Y-88322583D01*
X167010113Y-88322586D01*
X167004829Y-88382022D01*
X167000710Y-88428360D01*
X166999500Y-88441966D01*
X158947119Y-88441966D01*
X158999221Y-84065409D01*
X159019702Y-83998611D01*
X159054426Y-83963715D01*
X160468761Y-83020826D01*
X160535460Y-83000018D01*
X160537544Y-83000000D01*
X164487722Y-83000000D01*
X164512040Y-83002408D01*
G37*
%TD.AperFunction*%
%TD*%
%TA.AperFunction,Conductor*%
%TO.N,VCC*%
G36*
X157943039Y-83019685D02*
G01*
X157988794Y-83072489D01*
X158000000Y-83124000D01*
X158000000Y-97326609D01*
X157980315Y-97393648D01*
X157963682Y-97414289D01*
X157855486Y-97522486D01*
X157855484Y-97522488D01*
X157716657Y-97713565D01*
X157622889Y-97897597D01*
X157609433Y-97924003D01*
X157536446Y-98148631D01*
X157499500Y-98381902D01*
X157499500Y-106375500D01*
X157479815Y-106442539D01*
X157427011Y-106488294D01*
X157375500Y-106499500D01*
X147324499Y-106499500D01*
X147257460Y-106479815D01*
X147211705Y-106427011D01*
X147200499Y-106375500D01*
X147200499Y-106152129D01*
X147200498Y-106152123D01*
X147200497Y-106152116D01*
X147194091Y-106092517D01*
X147189932Y-106081367D01*
X147143797Y-105957671D01*
X147143793Y-105957664D01*
X147057547Y-105842455D01*
X147057544Y-105842452D01*
X146942335Y-105756206D01*
X146942328Y-105756202D01*
X146807482Y-105705908D01*
X146807483Y-105705908D01*
X146747883Y-105699501D01*
X146747881Y-105699500D01*
X146747873Y-105699500D01*
X146747864Y-105699500D01*
X141652129Y-105699500D01*
X141652123Y-105699501D01*
X141592516Y-105705908D01*
X141457671Y-105756202D01*
X141457664Y-105756206D01*
X141342455Y-105842452D01*
X141342452Y-105842455D01*
X141256206Y-105957664D01*
X141256202Y-105957671D01*
X141205908Y-106092517D01*
X141200102Y-106146526D01*
X141199501Y-106152123D01*
X141199500Y-106152135D01*
X141199500Y-109847870D01*
X141199501Y-109847876D01*
X141205908Y-109907483D01*
X141256202Y-110042328D01*
X141256206Y-110042335D01*
X141342452Y-110157544D01*
X141342455Y-110157547D01*
X141457664Y-110243793D01*
X141457671Y-110243797D01*
X141592517Y-110294091D01*
X141592516Y-110294091D01*
X141599444Y-110294835D01*
X141652127Y-110300500D01*
X146747872Y-110300499D01*
X146807483Y-110294091D01*
X146942331Y-110243796D01*
X147057546Y-110157546D01*
X147143796Y-110042331D01*
X147194091Y-109907483D01*
X147200500Y-109847873D01*
X147200500Y-109624500D01*
X147220185Y-109557461D01*
X147272989Y-109511706D01*
X147324500Y-109500500D01*
X157875500Y-109500500D01*
X157942539Y-109520185D01*
X157988294Y-109572989D01*
X157999500Y-109624500D01*
X157999500Y-119391260D01*
X157979815Y-119458299D01*
X157927011Y-119504054D01*
X157857853Y-119513998D01*
X157832175Y-119507445D01*
X157829383Y-119506404D01*
X157829372Y-119506401D01*
X157769844Y-119500000D01*
X157210000Y-119500000D01*
X157210000Y-125500000D01*
X157769828Y-125500000D01*
X157769844Y-125499999D01*
X157829372Y-125493598D01*
X157829378Y-125493596D01*
X157832660Y-125492373D01*
X157835385Y-125492177D01*
X157836930Y-125491813D01*
X157836989Y-125492063D01*
X157902351Y-125487384D01*
X157963676Y-125520866D01*
X157997165Y-125582187D01*
X158000000Y-125608552D01*
X158000000Y-125876000D01*
X157980315Y-125943039D01*
X157927511Y-125988794D01*
X157876000Y-126000000D01*
X151319869Y-126000000D01*
X151305612Y-125996390D01*
X151293982Y-125997268D01*
X151260866Y-125985062D01*
X151237260Y-125972291D01*
X151228310Y-125966952D01*
X151214310Y-125957780D01*
X151195171Y-125945241D01*
X151195169Y-125945240D01*
X151195167Y-125945239D01*
X151191380Y-125943413D01*
X151186049Y-125941295D01*
X151143699Y-125921443D01*
X151137331Y-125918232D01*
X151128619Y-125913519D01*
X151107124Y-125901891D01*
X151105196Y-125900657D01*
X151105145Y-125900749D01*
X151098063Y-125896771D01*
X151098060Y-125896769D01*
X151096509Y-125896148D01*
X151095192Y-125895436D01*
X151094041Y-125895161D01*
X151091989Y-125894340D01*
X151085628Y-125891795D01*
X151085621Y-125891793D01*
X151077615Y-125888591D01*
X151053655Y-125879007D01*
X151047083Y-125876155D01*
X151017054Y-125862079D01*
X151013208Y-125860194D01*
X151011762Y-125859454D01*
X151009238Y-125858414D01*
X151003767Y-125855850D01*
X150999342Y-125854445D01*
X150987070Y-125851207D01*
X150964716Y-125843317D01*
X150959949Y-125841524D01*
X150945703Y-125835826D01*
X150910702Y-125821826D01*
X150910699Y-125821825D01*
X150910695Y-125821824D01*
X150902826Y-125819818D01*
X150902866Y-125819660D01*
X150889358Y-125816604D01*
X150882255Y-125814202D01*
X150880747Y-125813681D01*
X150844924Y-125801038D01*
X150822204Y-125793019D01*
X150808669Y-125789312D01*
X150750080Y-125769496D01*
X150747020Y-125768416D01*
X150691955Y-125748171D01*
X150689884Y-125747389D01*
X150642468Y-125728989D01*
X150636811Y-125726631D01*
X150617390Y-125717966D01*
X150609313Y-125714362D01*
X150600217Y-125709848D01*
X150577888Y-125697603D01*
X150571171Y-125693639D01*
X150557464Y-125684959D01*
X150546131Y-125676856D01*
X150541561Y-125673184D01*
X150532409Y-125665053D01*
X150532080Y-125664730D01*
X150513005Y-125640697D01*
X150509900Y-125635595D01*
X150502991Y-125622556D01*
X150497028Y-125609470D01*
X150491972Y-125596482D01*
X150491605Y-125595357D01*
X150484713Y-125574203D01*
X150481160Y-125560795D01*
X150472373Y-125518111D01*
X150470739Y-125508114D01*
X150469929Y-125501462D01*
X150465060Y-125461461D01*
X150462943Y-125444073D01*
X150462127Y-125433892D01*
X150461703Y-125422950D01*
X150458927Y-125351351D01*
X150458883Y-125343144D01*
X150461790Y-125238459D01*
X150462214Y-125231109D01*
X150462569Y-125227059D01*
X150469832Y-125144048D01*
X150473587Y-125122762D01*
X150476500Y-125111892D01*
X150476500Y-125073273D01*
X150476972Y-125062463D01*
X150478251Y-125047844D01*
X155698000Y-125047844D01*
X155704401Y-125107372D01*
X155704403Y-125107379D01*
X155754645Y-125242086D01*
X155754649Y-125242093D01*
X155840809Y-125357187D01*
X155840812Y-125357190D01*
X155955906Y-125443350D01*
X155955913Y-125443354D01*
X156090620Y-125493596D01*
X156090627Y-125493598D01*
X156150155Y-125499999D01*
X156150172Y-125500000D01*
X156710000Y-125500000D01*
X156710000Y-122750000D01*
X155698000Y-122750000D01*
X155698000Y-125047844D01*
X150478251Y-125047844D01*
X150480679Y-125020102D01*
X150481744Y-125011449D01*
X150486058Y-124984337D01*
X150486557Y-124981439D01*
X150493987Y-124941318D01*
X150494453Y-124938941D01*
X150495456Y-124934084D01*
X150504768Y-124888950D01*
X150505337Y-124886340D01*
X150520519Y-124820255D01*
X150539237Y-124740702D01*
X150539578Y-124739300D01*
X150560787Y-124654467D01*
X150561515Y-124651697D01*
X150589493Y-124550044D01*
X150589529Y-124549912D01*
X150613983Y-124461446D01*
X150622640Y-124430125D01*
X150622895Y-124429218D01*
X150660109Y-124299446D01*
X150660446Y-124298300D01*
X150703323Y-124155377D01*
X150703698Y-124154154D01*
X150754058Y-123993391D01*
X150754220Y-123992881D01*
X150810831Y-123816216D01*
X150811160Y-123815203D01*
X150874902Y-123622015D01*
X150945754Y-123410439D01*
X150946034Y-123409614D01*
X151022318Y-123188392D01*
X151023455Y-123185240D01*
X151047501Y-123121396D01*
X151048193Y-123119605D01*
X151087480Y-123020533D01*
X151089467Y-123015814D01*
X151131949Y-122920445D01*
X151132444Y-122919346D01*
X151149590Y-122881841D01*
X151177867Y-122819984D01*
X151178396Y-122818846D01*
X151183751Y-122807452D01*
X151192635Y-122788548D01*
X151199221Y-122776358D01*
X151201072Y-122773344D01*
X151201081Y-122773334D01*
X151225551Y-122718565D01*
X151226471Y-122716557D01*
X151248935Y-122668762D01*
X151250854Y-122666249D01*
X151272338Y-122613987D01*
X151273791Y-122610600D01*
X151276862Y-122603727D01*
X151296665Y-122559405D01*
X151303008Y-122547802D01*
X151304757Y-122544174D01*
X151311943Y-122522357D01*
X151318358Y-122502880D01*
X151319719Y-122498973D01*
X151320533Y-122496755D01*
X151337962Y-122454363D01*
X151338970Y-122446538D01*
X151343770Y-122433467D01*
X151347454Y-122428491D01*
X151347712Y-122427692D01*
X151346834Y-122427358D01*
X151349726Y-122419767D01*
X151349726Y-122419764D01*
X151349729Y-122419760D01*
X151358819Y-122381481D01*
X151361679Y-122371372D01*
X151373988Y-122334009D01*
X151374323Y-122328075D01*
X151377180Y-122307710D01*
X151378993Y-122299690D01*
X151389211Y-122272118D01*
X151392007Y-122242145D01*
X151393779Y-122234313D01*
X151393903Y-122234090D01*
X151394081Y-122233009D01*
X151397236Y-122219727D01*
X151399180Y-122211543D01*
X151398383Y-122183706D01*
X151398868Y-122168643D01*
X151400289Y-122153415D01*
X151401406Y-122144761D01*
X151402913Y-122135629D01*
X151408550Y-122101467D01*
X151406797Y-122083688D01*
X151408457Y-122065904D01*
X151400354Y-122018340D01*
X151396258Y-121976787D01*
X151395883Y-121972054D01*
X151395242Y-121961378D01*
X151392653Y-121918239D01*
X151392650Y-121918232D01*
X151391110Y-121910258D01*
X151391417Y-121910198D01*
X151390771Y-121907170D01*
X151390468Y-121907241D01*
X151388620Y-121899322D01*
X151388620Y-121899319D01*
X151369610Y-121848829D01*
X151368038Y-121844396D01*
X151350813Y-121792722D01*
X151350499Y-121791761D01*
X151331290Y-121732034D01*
X151331288Y-121732032D01*
X151331230Y-121731849D01*
X151330435Y-121730214D01*
X151330425Y-121730194D01*
X151328982Y-121727227D01*
X151328979Y-121727217D01*
X151294387Y-121674826D01*
X151293824Y-121673963D01*
X151261462Y-121623800D01*
X151259185Y-121620131D01*
X151231004Y-121572914D01*
X151225962Y-121566537D01*
X151226320Y-121566253D01*
X151225457Y-121565198D01*
X151225108Y-121565495D01*
X151219846Y-121559296D01*
X151195462Y-121537208D01*
X151179061Y-121522351D01*
X151175969Y-121519451D01*
X151162665Y-121506527D01*
X151157321Y-121501002D01*
X151153211Y-121496480D01*
X151126076Y-121466622D01*
X151126075Y-121466621D01*
X151123240Y-121464799D01*
X151123071Y-121464690D01*
X151112724Y-121458014D01*
X151101478Y-121447089D01*
X151059288Y-121423538D01*
X151055952Y-121421386D01*
X151054221Y-121419381D01*
X151040375Y-121409493D01*
X151039100Y-121408349D01*
X151029178Y-121399448D01*
X151029174Y-121399446D01*
X151029173Y-121399445D01*
X150998812Y-121384044D01*
X150995457Y-121382278D01*
X150991572Y-121380155D01*
X150959222Y-121359359D01*
X150945435Y-121354949D01*
X150935040Y-121349270D01*
X150931296Y-121345524D01*
X150927368Y-121343510D01*
X150927282Y-121343666D01*
X150922622Y-121341077D01*
X150920643Y-121340062D01*
X150920185Y-121339723D01*
X150920181Y-121339720D01*
X150920179Y-121339719D01*
X150920174Y-121339716D01*
X150885975Y-121326205D01*
X150881846Y-121324487D01*
X150878602Y-121323068D01*
X150842650Y-121304832D01*
X150831578Y-121302499D01*
X150819907Y-121297394D01*
X150818913Y-121296560D01*
X150815737Y-121295478D01*
X150813282Y-121294294D01*
X150767854Y-121279317D01*
X150761121Y-121276879D01*
X150716614Y-121259297D01*
X150714929Y-121258875D01*
X150711068Y-121257842D01*
X150702969Y-121255533D01*
X150702617Y-121255324D01*
X150651830Y-121240959D01*
X150651813Y-121240948D01*
X150647010Y-121239479D01*
X150629180Y-121233601D01*
X150597018Y-121222998D01*
X150590841Y-121221649D01*
X150534254Y-121207637D01*
X150530336Y-121206598D01*
X150476808Y-121191459D01*
X150476805Y-121191458D01*
X150470385Y-121189643D01*
X150412957Y-121177524D01*
X150408771Y-121176564D01*
X150355340Y-121163335D01*
X150355339Y-121163335D01*
X150355335Y-121163334D01*
X150347264Y-121162428D01*
X150347335Y-121161790D01*
X150336713Y-121160842D01*
X150291019Y-121151785D01*
X150289527Y-121151479D01*
X150241945Y-121141439D01*
X150230676Y-121138503D01*
X150229120Y-121138018D01*
X150229119Y-121138018D01*
X150229117Y-121138017D01*
X150229115Y-121138017D01*
X150171717Y-121128102D01*
X150168749Y-121127552D01*
X150134402Y-121120745D01*
X150111663Y-121116238D01*
X150107391Y-121115961D01*
X150095221Y-121114565D01*
X150052831Y-121107565D01*
X150051927Y-121107412D01*
X150010715Y-121100293D01*
X150002959Y-121098506D01*
X149939206Y-121088790D01*
X149937686Y-121088549D01*
X149897519Y-121081916D01*
X149894457Y-121081240D01*
X149888698Y-121080426D01*
X149885867Y-121079992D01*
X149873576Y-121077962D01*
X149867592Y-121077441D01*
X149828302Y-121071885D01*
X149827135Y-121071714D01*
X149794873Y-121066798D01*
X149790786Y-121065941D01*
X149780586Y-121064595D01*
X149778139Y-121064247D01*
X149762151Y-121061812D01*
X149755853Y-121061333D01*
X149724281Y-121057169D01*
X149723132Y-121057012D01*
X149700589Y-121053824D01*
X149695531Y-121052815D01*
X149680183Y-121050919D01*
X149678028Y-121050634D01*
X149657710Y-121047761D01*
X149650983Y-121047315D01*
X149628935Y-121044593D01*
X149627918Y-121044463D01*
X149557062Y-121035120D01*
X149557116Y-121034705D01*
X149551727Y-121034006D01*
X149551620Y-121034851D01*
X149543556Y-121033824D01*
X149543555Y-121033824D01*
X149478875Y-121025592D01*
X149470509Y-121024500D01*
X149426770Y-121018795D01*
X149424016Y-121018405D01*
X149423866Y-121018382D01*
X149407996Y-121014870D01*
X149366863Y-121002894D01*
X149364888Y-121002301D01*
X149275337Y-120974604D01*
X149274380Y-120974304D01*
X149199641Y-120950524D01*
X149195339Y-120949068D01*
X149140779Y-120929481D01*
X149135792Y-120927568D01*
X149091870Y-120909629D01*
X149086125Y-120907112D01*
X149056681Y-120893310D01*
X149048780Y-120889255D01*
X149043513Y-120886309D01*
X149028289Y-120877794D01*
X149020922Y-120873330D01*
X149006473Y-120863873D01*
X148997850Y-120857686D01*
X148987206Y-120849337D01*
X148979785Y-120843030D01*
X148964400Y-120828877D01*
X148958052Y-120822600D01*
X148938744Y-120802084D01*
X148933651Y-120796326D01*
X148904050Y-120760684D01*
X148901323Y-120757280D01*
X148866373Y-120712051D01*
X148862792Y-120707175D01*
X148821775Y-120648358D01*
X148820513Y-120646511D01*
X148767527Y-120567497D01*
X148767172Y-120566966D01*
X148709150Y-120479470D01*
X148707596Y-120477064D01*
X148682979Y-120437966D01*
X148682739Y-120437523D01*
X148642847Y-120374229D01*
X148642818Y-120374182D01*
X148621327Y-120340050D01*
X148608431Y-120319567D01*
X148608428Y-120319565D01*
X148607764Y-120318509D01*
X148607474Y-120317973D01*
X148603353Y-120311448D01*
X148603353Y-120311447D01*
X148573840Y-120264718D01*
X148568383Y-120256077D01*
X148568321Y-120255979D01*
X148556054Y-120236517D01*
X148533288Y-120200394D01*
X148533286Y-120200392D01*
X148529326Y-120194109D01*
X148528695Y-120193239D01*
X148527888Y-120191961D01*
X148523537Y-120185073D01*
X148520575Y-120179657D01*
X148483537Y-120121738D01*
X148483287Y-120121345D01*
X148448981Y-120067026D01*
X148448980Y-120067025D01*
X148446588Y-120063237D01*
X148442939Y-120058249D01*
X148441709Y-120056326D01*
X148388735Y-119973483D01*
X148375127Y-119952155D01*
X155698000Y-119952155D01*
X155698000Y-122250000D01*
X156710000Y-122250000D01*
X156710000Y-119500000D01*
X156150155Y-119500000D01*
X156090627Y-119506401D01*
X156090620Y-119506403D01*
X155955913Y-119556645D01*
X155955906Y-119556649D01*
X155840812Y-119642809D01*
X155840809Y-119642812D01*
X155754649Y-119757906D01*
X155754645Y-119757913D01*
X155704403Y-119892620D01*
X155704401Y-119892627D01*
X155698000Y-119952155D01*
X148375127Y-119952155D01*
X148370477Y-119944867D01*
X148317696Y-119862141D01*
X148306778Y-119840684D01*
X148304964Y-119836054D01*
X148278336Y-119799934D01*
X148273623Y-119793066D01*
X148249497Y-119755251D01*
X148249491Y-119755243D01*
X148245813Y-119751878D01*
X148229720Y-119733985D01*
X148161151Y-119640968D01*
X148157235Y-119635335D01*
X148065560Y-119495322D01*
X148062192Y-119489877D01*
X148061955Y-119489471D01*
X147979802Y-119348638D01*
X147976956Y-119343478D01*
X147904204Y-119203895D01*
X147901780Y-119198983D01*
X147835866Y-119057614D01*
X147834239Y-119053974D01*
X147833070Y-119051240D01*
X147774956Y-118915355D01*
X147773179Y-118910966D01*
X147720129Y-118772150D01*
X147719157Y-118769511D01*
X147669024Y-118628399D01*
X147668494Y-118626874D01*
X147659675Y-118600947D01*
X147620613Y-118486101D01*
X147620306Y-118485185D01*
X147617213Y-118475840D01*
X147573590Y-118344041D01*
X147552350Y-118279851D01*
X147548843Y-118266955D01*
X147547556Y-118260967D01*
X147547556Y-118260959D01*
X147527803Y-118205566D01*
X147526919Y-118202994D01*
X147508465Y-118147220D01*
X147508461Y-118147214D01*
X147508164Y-118146599D01*
X147503331Y-118135184D01*
X147500042Y-118126189D01*
X147499870Y-118124397D01*
X147478316Y-118066766D01*
X147478152Y-118066315D01*
X147478151Y-118066304D01*
X147477815Y-118065383D01*
X147474804Y-118056940D01*
X147465246Y-118030133D01*
X147454563Y-118000174D01*
X147455591Y-117999807D01*
X147451012Y-117985447D01*
X147450052Y-117985718D01*
X147447844Y-117977896D01*
X147447844Y-117977894D01*
X147427669Y-117930956D01*
X147427216Y-117929885D01*
X147426341Y-117927786D01*
X147407708Y-117877963D01*
X147402574Y-117870768D01*
X147397191Y-117857852D01*
X147396179Y-117848638D01*
X147394666Y-117845145D01*
X147393370Y-117845588D01*
X147390743Y-117837897D01*
X147390743Y-117837893D01*
X147368975Y-117793949D01*
X147366168Y-117787874D01*
X147346806Y-117742825D01*
X147344438Y-117738848D01*
X147334204Y-117722759D01*
X147328822Y-117712042D01*
X147324279Y-117695790D01*
X147300383Y-117655417D01*
X147298475Y-117651616D01*
X147298461Y-117651540D01*
X147298179Y-117651020D01*
X147279249Y-117612802D01*
X147277590Y-117610917D01*
X147274465Y-117607365D01*
X147260846Y-117588611D01*
X147258222Y-117584178D01*
X147249521Y-117566366D01*
X147243734Y-117551637D01*
X147233973Y-117538422D01*
X147219729Y-117519138D01*
X147199158Y-117484380D01*
X147180746Y-117466361D01*
X147180052Y-117465422D01*
X147174841Y-117458366D01*
X147174839Y-117458364D01*
X147165388Y-117445568D01*
X147156152Y-117431053D01*
X147145446Y-117411329D01*
X147134673Y-117399974D01*
X147126538Y-117391399D01*
X147116757Y-117379730D01*
X147114975Y-117377318D01*
X147100437Y-117357635D01*
X147100435Y-117357633D01*
X147100433Y-117357631D01*
X147082878Y-117343643D01*
X147070194Y-117332009D01*
X147055467Y-117316485D01*
X147044695Y-117303455D01*
X147031163Y-117284604D01*
X147031156Y-117284597D01*
X147010497Y-117267671D01*
X146999128Y-117257100D01*
X146980743Y-117237722D01*
X146980742Y-117237721D01*
X146960946Y-117225586D01*
X146947171Y-117215790D01*
X146924445Y-117197172D01*
X146914154Y-117187724D01*
X146892768Y-117165744D01*
X146876229Y-117155891D01*
X146876229Y-117155890D01*
X146868267Y-117151147D01*
X146846219Y-117133084D01*
X146811906Y-117117571D01*
X146805897Y-117113991D01*
X146775997Y-117096178D01*
X146763114Y-117087359D01*
X146742236Y-117071046D01*
X146742234Y-117071045D01*
X146720676Y-117061892D01*
X146705675Y-117054284D01*
X146685557Y-117042299D01*
X146685549Y-117042295D01*
X146660041Y-117035084D01*
X146645323Y-117029903D01*
X146636505Y-117026160D01*
X146609776Y-117014812D01*
X146596588Y-117008263D01*
X146595963Y-117007905D01*
X146579776Y-116998629D01*
X146571670Y-116993984D01*
X146571668Y-116993983D01*
X146571666Y-116993982D01*
X146551188Y-116988566D01*
X146534437Y-116982828D01*
X146514929Y-116974546D01*
X146486477Y-116970546D01*
X146472039Y-116967633D01*
X146434124Y-116957606D01*
X146415895Y-116951229D01*
X146400235Y-116944340D01*
X146400234Y-116944339D01*
X146367811Y-116939351D01*
X146366005Y-116939059D01*
X146360426Y-116938116D01*
X146323262Y-116928288D01*
X146302666Y-116928354D01*
X146292206Y-116926587D01*
X146289388Y-116925215D01*
X146280777Y-116924096D01*
X146259892Y-116918500D01*
X146259891Y-116918500D01*
X146241755Y-116918500D01*
X146222900Y-116917058D01*
X146204979Y-116914301D01*
X146173394Y-116917762D01*
X146159888Y-116918500D01*
X146130636Y-116918500D01*
X146113000Y-116917239D01*
X146091961Y-116914216D01*
X146063496Y-116917622D01*
X146056158Y-116918500D01*
X146020108Y-116918500D01*
X145991020Y-116926293D01*
X145982216Y-116927347D01*
X145982215Y-116927346D01*
X145982215Y-116927347D01*
X145957031Y-116930360D01*
X145938113Y-116931167D01*
X145920075Y-116930557D01*
X145920074Y-116930557D01*
X145889035Y-116937758D01*
X145875749Y-116940087D01*
X145844113Y-116943873D01*
X145844110Y-116943873D01*
X145844110Y-116943874D01*
X145840801Y-116945198D01*
X145827345Y-116950586D01*
X145809282Y-116956260D01*
X145786975Y-116961435D01*
X145764428Y-116964522D01*
X145756118Y-116964889D01*
X145716494Y-116977401D01*
X145707183Y-116979947D01*
X145666706Y-116989338D01*
X145666694Y-116989342D01*
X145659359Y-116993253D01*
X145638376Y-117002070D01*
X145619900Y-117007905D01*
X145595721Y-117012961D01*
X145592361Y-117013320D01*
X145549025Y-117030034D01*
X145541748Y-117032583D01*
X145497452Y-117046572D01*
X145497448Y-117046574D01*
X145494594Y-117048394D01*
X145472558Y-117059528D01*
X145452604Y-117067225D01*
X145428683Y-117073655D01*
X145427630Y-117073967D01*
X145381906Y-117094323D01*
X145379012Y-117095611D01*
X145329407Y-117114745D01*
X145319005Y-117122327D01*
X145307005Y-117127670D01*
X145283587Y-117138096D01*
X145267768Y-117143170D01*
X145267785Y-117143217D01*
X145260103Y-117145871D01*
X145213673Y-117169086D01*
X145213672Y-117169085D01*
X145211156Y-117170342D01*
X145161241Y-117192566D01*
X145152407Y-117199717D01*
X145140324Y-117205760D01*
X145116111Y-117217867D01*
X145103090Y-117222590D01*
X145103322Y-117223200D01*
X145095728Y-117226084D01*
X145046044Y-117252837D01*
X145042714Y-117254566D01*
X144992230Y-117279809D01*
X144985503Y-117284357D01*
X144985139Y-117283819D01*
X144973786Y-117291745D01*
X144944791Y-117307358D01*
X144931389Y-117312708D01*
X144931590Y-117313187D01*
X144924095Y-117316324D01*
X144876151Y-117344240D01*
X144872548Y-117346258D01*
X144823698Y-117372562D01*
X144817105Y-117377318D01*
X144816801Y-117376897D01*
X144805245Y-117385526D01*
X144772999Y-117404303D01*
X144761219Y-117410344D01*
X144754970Y-117413137D01*
X144705214Y-117443732D01*
X144702662Y-117445259D01*
X144652211Y-117474636D01*
X144646781Y-117478834D01*
X144635892Y-117486358D01*
X144600633Y-117508039D01*
X144588659Y-117514525D01*
X144584353Y-117516559D01*
X144534468Y-117548692D01*
X144532274Y-117550072D01*
X144481705Y-117581168D01*
X144478000Y-117584178D01*
X144466980Y-117592165D01*
X144427806Y-117617400D01*
X144415245Y-117624494D01*
X144414840Y-117624692D01*
X144363638Y-117658722D01*
X144362154Y-117659693D01*
X144310563Y-117692926D01*
X144310222Y-117693216D01*
X144298697Y-117701883D01*
X144257358Y-117729359D01*
X144245605Y-117736271D01*
X144241435Y-117738423D01*
X144192673Y-117772318D01*
X144190539Y-117773768D01*
X144141077Y-117806643D01*
X144137541Y-117809729D01*
X144126803Y-117818105D01*
X144083790Y-117848005D01*
X144076193Y-117852623D01*
X144022045Y-117890921D01*
X144021221Y-117891498D01*
X143966800Y-117929329D01*
X143959868Y-117934899D01*
X143916163Y-117965812D01*
X143904633Y-117973052D01*
X143900496Y-117975342D01*
X143852737Y-118010643D01*
X143850640Y-118012160D01*
X143802179Y-118046437D01*
X143798723Y-118049635D01*
X143788227Y-118058324D01*
X143745876Y-118089626D01*
X143743093Y-118091421D01*
X143686217Y-118133722D01*
X143685922Y-118133940D01*
X143628607Y-118176303D01*
X143626053Y-118178469D01*
X143584396Y-118209451D01*
X143577015Y-118214267D01*
X143570618Y-118219106D01*
X143523980Y-118254381D01*
X143523281Y-118254905D01*
X143470035Y-118294508D01*
X143463329Y-118300258D01*
X143424737Y-118329449D01*
X143413572Y-118336901D01*
X143364150Y-118375266D01*
X143362921Y-118376208D01*
X143313065Y-118413920D01*
X143302967Y-118422764D01*
X143267366Y-118450401D01*
X143263943Y-118452726D01*
X143208477Y-118496116D01*
X143208118Y-118496396D01*
X143152588Y-118539507D01*
X143149501Y-118542254D01*
X143118739Y-118566319D01*
X143115945Y-118568232D01*
X143087612Y-118590536D01*
X143060109Y-118612188D01*
X143003949Y-118656123D01*
X143001421Y-118658387D01*
X142976278Y-118678181D01*
X142969256Y-118683041D01*
X142917336Y-118724578D01*
X142916577Y-118725181D01*
X142864141Y-118766460D01*
X142857819Y-118772191D01*
X142838024Y-118788027D01*
X142836271Y-118789253D01*
X142830966Y-118793514D01*
X142779867Y-118834553D01*
X142723607Y-118879561D01*
X142722022Y-118881010D01*
X142653277Y-118936223D01*
X142652990Y-118936452D01*
X142592431Y-118984796D01*
X142591503Y-118985444D01*
X142534913Y-119030717D01*
X142534814Y-119030796D01*
X142477474Y-119076570D01*
X142476621Y-119077348D01*
X142476617Y-119077352D01*
X142465175Y-119086504D01*
X142453733Y-119095659D01*
X142453731Y-119095661D01*
X142326328Y-119197583D01*
X142325524Y-119198221D01*
X142243223Y-119262952D01*
X142241368Y-119264382D01*
X142226792Y-119275407D01*
X142219450Y-119280284D01*
X142217068Y-119282115D01*
X142217068Y-119282116D01*
X142166791Y-119320789D01*
X142166056Y-119321350D01*
X142114403Y-119360421D01*
X142106159Y-119366004D01*
X142058133Y-119404346D01*
X142056376Y-119405723D01*
X142008613Y-119442465D01*
X142006591Y-119444492D01*
X141996189Y-119453802D01*
X141987561Y-119460691D01*
X141976958Y-119468280D01*
X141970219Y-119472585D01*
X141925922Y-119509850D01*
X141923466Y-119511863D01*
X141878231Y-119547978D01*
X141872678Y-119553749D01*
X141863161Y-119562649D01*
X141850103Y-119573634D01*
X141838675Y-119582175D01*
X141837630Y-119582865D01*
X141791537Y-119622884D01*
X141790072Y-119624136D01*
X141743375Y-119663422D01*
X141742538Y-119664338D01*
X141732312Y-119674304D01*
X141714416Y-119689841D01*
X141702956Y-119698669D01*
X141656956Y-119739714D01*
X141655697Y-119740822D01*
X141609100Y-119781281D01*
X141598884Y-119791533D01*
X141589890Y-119799559D01*
X141578702Y-119809542D01*
X141571123Y-119815516D01*
X141522480Y-119859702D01*
X141521667Y-119860434D01*
X141472706Y-119904124D01*
X141465971Y-119911036D01*
X141443938Y-119931050D01*
X141432941Y-119939949D01*
X141431449Y-119941021D01*
X141387195Y-119982572D01*
X141385697Y-119983956D01*
X141340692Y-120024839D01*
X141339511Y-120026235D01*
X141329759Y-120036500D01*
X141306201Y-120058619D01*
X141302734Y-120061484D01*
X141251762Y-120109732D01*
X141251400Y-120110073D01*
X141200402Y-120157958D01*
X141197356Y-120161230D01*
X141173363Y-120183941D01*
X141162454Y-120193138D01*
X141161416Y-120193914D01*
X141117781Y-120236534D01*
X141116382Y-120237878D01*
X141072083Y-120279811D01*
X141071249Y-120280838D01*
X141061637Y-120291372D01*
X141038066Y-120314395D01*
X141034788Y-120317214D01*
X140984715Y-120366504D01*
X140984374Y-120366838D01*
X140934192Y-120415854D01*
X140931303Y-120419083D01*
X140908378Y-120441650D01*
X140901895Y-120447291D01*
X140854812Y-120494373D01*
X140854122Y-120495057D01*
X140806699Y-120541740D01*
X140801020Y-120548164D01*
X140780262Y-120568922D01*
X140776865Y-120571915D01*
X140727529Y-120621654D01*
X140727174Y-120622010D01*
X140677669Y-120671515D01*
X140674683Y-120674934D01*
X140656503Y-120693262D01*
X140649622Y-120699399D01*
X140603510Y-120746683D01*
X140602777Y-120747428D01*
X140556287Y-120794300D01*
X140550271Y-120801275D01*
X140535069Y-120816863D01*
X140527773Y-120823487D01*
X140482430Y-120870834D01*
X140481653Y-120871637D01*
X140435981Y-120918473D01*
X140429605Y-120925998D01*
X140418568Y-120937523D01*
X140417751Y-120938274D01*
X140367746Y-120990594D01*
X140367664Y-120990680D01*
X140316795Y-121043800D01*
X140316092Y-121044638D01*
X140310094Y-121050913D01*
X140305301Y-121055340D01*
X140258372Y-121105028D01*
X140257868Y-121105558D01*
X140210688Y-121154922D01*
X140206485Y-121159967D01*
X140205829Y-121160661D01*
X140204425Y-121161968D01*
X140155154Y-121214317D01*
X140155009Y-121214471D01*
X140108137Y-121264101D01*
X140103524Y-121268426D01*
X140057551Y-121318013D01*
X140057275Y-121318310D01*
X140056905Y-121318705D01*
X140013376Y-121364958D01*
X140012879Y-121365879D01*
X140010291Y-121368652D01*
X140010183Y-121368722D01*
X140007207Y-121371957D01*
X140007114Y-121372058D01*
X139966415Y-121416319D01*
X139966074Y-121416688D01*
X139918495Y-121468009D01*
X139915653Y-121471521D01*
X139894668Y-121494343D01*
X139892781Y-121496396D01*
X139886219Y-121503532D01*
X139886055Y-121503710D01*
X139864230Y-121527353D01*
X139859887Y-121531504D01*
X139813578Y-121582222D01*
X139813126Y-121582715D01*
X139766447Y-121633286D01*
X139762687Y-121637960D01*
X139750716Y-121651073D01*
X139750670Y-121651124D01*
X139746157Y-121656062D01*
X139737573Y-121664394D01*
X139699952Y-121706495D01*
X139699281Y-121707240D01*
X139693720Y-121713361D01*
X139693021Y-121713825D01*
X139682000Y-121726266D01*
X139681440Y-121726883D01*
X139681434Y-121726886D01*
X139681190Y-121727158D01*
X139651181Y-121759998D01*
X139643772Y-121769362D01*
X139637377Y-121776519D01*
X139621482Y-121791433D01*
X139613135Y-121797985D01*
X139613128Y-121797992D01*
X139612441Y-121798909D01*
X139610878Y-121800949D01*
X139605656Y-121807615D01*
X139604820Y-121808263D01*
X139592991Y-121823787D01*
X139592467Y-121824457D01*
X139592168Y-121824670D01*
X139583891Y-121834293D01*
X139580859Y-121837420D01*
X139575147Y-121844036D01*
X139562504Y-121856680D01*
X139562503Y-121856681D01*
X139549478Y-121879239D01*
X139540726Y-121892385D01*
X139529351Y-121907314D01*
X139522355Y-121915452D01*
X139485473Y-121965162D01*
X139484101Y-121966977D01*
X139447368Y-122014631D01*
X139445832Y-122017279D01*
X139438159Y-122028933D01*
X139437465Y-122029868D01*
X139436934Y-122030578D01*
X139427686Y-122042853D01*
X139426093Y-122044707D01*
X139396858Y-122083688D01*
X139382780Y-122102459D01*
X139367108Y-122123260D01*
X139363313Y-122128297D01*
X139361581Y-122130320D01*
X139343979Y-122153955D01*
X139343707Y-122154318D01*
X139339827Y-122159487D01*
X139339557Y-122159894D01*
X139319358Y-122187020D01*
X139319103Y-122187362D01*
X139276192Y-122244575D01*
X139275206Y-122246096D01*
X139248106Y-122282699D01*
X139247901Y-122282975D01*
X139213434Y-122329259D01*
X139208474Y-122335157D01*
X139169668Y-122388633D01*
X139168968Y-122389588D01*
X139130257Y-122441874D01*
X139124690Y-122450614D01*
X139086849Y-122502760D01*
X139086484Y-122503260D01*
X139042988Y-122562574D01*
X139038873Y-122567507D01*
X138998691Y-122622976D01*
X138998691Y-122622977D01*
X138998462Y-122623291D01*
X138960428Y-122675158D01*
X138959890Y-122676536D01*
X138954441Y-122684059D01*
X138954439Y-122684062D01*
X138948996Y-122691575D01*
X138947786Y-122693039D01*
X138905795Y-122751213D01*
X138905672Y-122751382D01*
X138862970Y-122810330D01*
X138861933Y-122811980D01*
X138859095Y-122815912D01*
X138856121Y-122820033D01*
X138852311Y-122825311D01*
X138847896Y-122830689D01*
X138808474Y-122886038D01*
X138808019Y-122886674D01*
X138768241Y-122941783D01*
X138764576Y-122947672D01*
X138751136Y-122966543D01*
X138748379Y-122969937D01*
X138745201Y-122974436D01*
X138745200Y-122974437D01*
X138728907Y-122997503D01*
X138707828Y-123027347D01*
X138707548Y-123027741D01*
X138666910Y-123084799D01*
X138664616Y-123088528D01*
X138648752Y-123110989D01*
X138646141Y-123114229D01*
X138605763Y-123171853D01*
X138605499Y-123172228D01*
X138564927Y-123229673D01*
X138562753Y-123233237D01*
X138544498Y-123259291D01*
X138543233Y-123260869D01*
X138501929Y-123320045D01*
X138501802Y-123320226D01*
X138460359Y-123379373D01*
X138459303Y-123381114D01*
X138439724Y-123409166D01*
X138433445Y-123417090D01*
X138396576Y-123470972D01*
X138395923Y-123471917D01*
X138358557Y-123525452D01*
X138353368Y-123534122D01*
X138332526Y-123564585D01*
X138327469Y-123571079D01*
X138290102Y-123626585D01*
X138289578Y-123627357D01*
X138251843Y-123682507D01*
X138247684Y-123689592D01*
X138227000Y-123720316D01*
X138223949Y-123724284D01*
X138185393Y-123782118D01*
X138185085Y-123782579D01*
X138146136Y-123840438D01*
X138143633Y-123844761D01*
X138123390Y-123875124D01*
X138117428Y-123882986D01*
X138116099Y-123885018D01*
X138116098Y-123885020D01*
X138095988Y-123915786D01*
X138081600Y-123937799D01*
X138080982Y-123938734D01*
X138044661Y-123993218D01*
X138039769Y-124001801D01*
X138020334Y-124031535D01*
X138015186Y-124038446D01*
X137979196Y-124094470D01*
X137978666Y-124095288D01*
X137942297Y-124150934D01*
X137938094Y-124158456D01*
X137920663Y-124185590D01*
X137913559Y-124195316D01*
X137879739Y-124249282D01*
X137878999Y-124250449D01*
X137858488Y-124282381D01*
X137844600Y-124304001D01*
X137838828Y-124314565D01*
X137822972Y-124339868D01*
X137816437Y-124349022D01*
X137782836Y-124403902D01*
X137782158Y-124404998D01*
X137747999Y-124459506D01*
X137742719Y-124469425D01*
X137729568Y-124490904D01*
X137723392Y-124499746D01*
X137690160Y-124555262D01*
X137689521Y-124556317D01*
X137655736Y-124611500D01*
X137650754Y-124621094D01*
X137641465Y-124636612D01*
X137639091Y-124640060D01*
X137603173Y-124700578D01*
X137602938Y-124700974D01*
X137566822Y-124761310D01*
X137564930Y-124765015D01*
X137532117Y-124820303D01*
X137531093Y-124821997D01*
X137463657Y-124931582D01*
X137462117Y-124934084D01*
X137461985Y-124934298D01*
X137395466Y-125041902D01*
X137394975Y-125042689D01*
X137369591Y-125083073D01*
X137369061Y-125083806D01*
X137365066Y-125090174D01*
X137330352Y-125145500D01*
X137291247Y-125207710D01*
X137290817Y-125208505D01*
X137266817Y-125246755D01*
X137266523Y-125247221D01*
X137242611Y-125284957D01*
X137235380Y-125294992D01*
X137202102Y-125348869D01*
X137201843Y-125349287D01*
X137201528Y-125349791D01*
X137167962Y-125402765D01*
X137167512Y-125404203D01*
X137162723Y-125412059D01*
X137162642Y-125412190D01*
X137136640Y-125454853D01*
X137136255Y-125455479D01*
X137107853Y-125501462D01*
X137102632Y-125508951D01*
X137070262Y-125563729D01*
X137069392Y-125565180D01*
X137034723Y-125622061D01*
X137029850Y-125629274D01*
X137000786Y-125681237D01*
X136999320Y-125683787D01*
X136969586Y-125734105D01*
X136969272Y-125734844D01*
X136963959Y-125745787D01*
X136930305Y-125807240D01*
X136929769Y-125808209D01*
X136899983Y-125861465D01*
X136895054Y-125870277D01*
X136894687Y-125870072D01*
X136887058Y-125884192D01*
X136885742Y-125886066D01*
X136858184Y-125938887D01*
X136857009Y-125941085D01*
X136828362Y-125993398D01*
X136826841Y-125997319D01*
X136821171Y-126009829D01*
X136817341Y-126017168D01*
X136810328Y-126028964D01*
X136808060Y-126032338D01*
X136781509Y-126085794D01*
X136780392Y-126087988D01*
X136752784Y-126140905D01*
X136751396Y-126144709D01*
X136745971Y-126157345D01*
X136736476Y-126176461D01*
X136730120Y-126187551D01*
X136702733Y-126244378D01*
X136702085Y-126245702D01*
X136674039Y-126302167D01*
X136669187Y-126313984D01*
X136653095Y-126347375D01*
X136646378Y-126359523D01*
X136644623Y-126362314D01*
X136619593Y-126416842D01*
X136618606Y-126418939D01*
X136592520Y-126473072D01*
X136591486Y-126476211D01*
X136586411Y-126489128D01*
X136557727Y-126551620D01*
X136552032Y-126562171D01*
X136528337Y-126614002D01*
X136526473Y-126617897D01*
X136501871Y-126667101D01*
X136499219Y-126674778D01*
X136498791Y-126674630D01*
X136494224Y-126688623D01*
X136487903Y-126702452D01*
X136476092Y-126728288D01*
X136476074Y-126728328D01*
X136460379Y-126762389D01*
X136460029Y-126763035D01*
X136429177Y-126830104D01*
X136429146Y-126830169D01*
X136429145Y-126830174D01*
X136428745Y-126831040D01*
X136427887Y-126832903D01*
X136401861Y-126889388D01*
X136401834Y-126889539D01*
X136398416Y-126896971D01*
X136398414Y-126896979D01*
X136383770Y-126928814D01*
X136383614Y-126929150D01*
X136381608Y-126933463D01*
X136368357Y-126961938D01*
X136366356Y-126965609D01*
X136336959Y-127029406D01*
X136336766Y-127029824D01*
X136307048Y-127093687D01*
X136305549Y-127097571D01*
X136290554Y-127130112D01*
X136290111Y-127131064D01*
X136273712Y-127165873D01*
X136272274Y-127168478D01*
X136242040Y-127233094D01*
X136241900Y-127233391D01*
X136221212Y-127277301D01*
X136219167Y-127281033D01*
X136190202Y-127343877D01*
X136189903Y-127344520D01*
X136160685Y-127406969D01*
X136158870Y-127411667D01*
X136150897Y-127429036D01*
X136136323Y-127460787D01*
X136136322Y-127460790D01*
X136110378Y-127517082D01*
X136107401Y-127522626D01*
X136079545Y-127584474D01*
X136079180Y-127585277D01*
X136051162Y-127646318D01*
X136048399Y-127653629D01*
X136020396Y-127715807D01*
X136020107Y-127716443D01*
X135987502Y-127787764D01*
X135986104Y-127790369D01*
X135956490Y-127855604D01*
X135956281Y-127856062D01*
X135929413Y-127914839D01*
X135929302Y-127915494D01*
X135925735Y-127923352D01*
X135917743Y-127940959D01*
X135915390Y-127945379D01*
X135886895Y-128008911D01*
X135886896Y-128008912D01*
X135886803Y-128009118D01*
X135860022Y-128068117D01*
X135859832Y-128069257D01*
X135856138Y-128077494D01*
X135842521Y-128107856D01*
X135840503Y-128111686D01*
X135831139Y-128132786D01*
X135811996Y-128175917D01*
X135811921Y-128176086D01*
X135783093Y-128240364D01*
X135781596Y-128244411D01*
X135732929Y-128354069D01*
X135732831Y-128354291D01*
X135675953Y-128481775D01*
X135672124Y-128490355D01*
X135671133Y-128491595D01*
X135645361Y-128550340D01*
X135645162Y-128550788D01*
X135645097Y-128550936D01*
X135617409Y-128612997D01*
X135615052Y-128619432D01*
X135581319Y-128696327D01*
X135577875Y-128704176D01*
X135577483Y-128704671D01*
X135551601Y-128764070D01*
X135551466Y-128764380D01*
X135551344Y-128764660D01*
X135522591Y-128830204D01*
X135521646Y-128832819D01*
X135519590Y-128837536D01*
X135516247Y-128844070D01*
X135489618Y-128906313D01*
X135489619Y-128906314D01*
X135489423Y-128906773D01*
X135463843Y-128965485D01*
X135463590Y-128967163D01*
X135459856Y-128975894D01*
X135459854Y-128975895D01*
X135459855Y-128975895D01*
X135440852Y-129020319D01*
X135438677Y-129024627D01*
X135411533Y-129088854D01*
X135411322Y-129089349D01*
X135383869Y-129153525D01*
X135382264Y-129158110D01*
X135340717Y-129256419D01*
X135340435Y-129257081D01*
X135275363Y-129408595D01*
X135274867Y-129409733D01*
X135213970Y-129547702D01*
X135213226Y-129549353D01*
X135156226Y-129673467D01*
X135154996Y-129676064D01*
X135102307Y-129784031D01*
X135100208Y-129788136D01*
X135050899Y-129880289D01*
X135048354Y-129884815D01*
X135002074Y-129963191D01*
X134998310Y-129969169D01*
X134956192Y-130032023D01*
X134950762Y-130039507D01*
X134911746Y-130089267D01*
X134905236Y-130096911D01*
X134867602Y-130137638D01*
X134860057Y-130145131D01*
X134823352Y-130178583D01*
X134814044Y-130186271D01*
X134774861Y-130215546D01*
X134765257Y-130222045D01*
X134717714Y-130251071D01*
X134708555Y-130256145D01*
X134651404Y-130284721D01*
X134642001Y-130288943D01*
X134572313Y-130316818D01*
X134563781Y-130319874D01*
X134478161Y-130347055D01*
X134470716Y-130349166D01*
X134365161Y-130375555D01*
X134358945Y-130376940D01*
X134234245Y-130401391D01*
X134229241Y-130402266D01*
X134083461Y-130424693D01*
X134079249Y-130425267D01*
X133912656Y-130445078D01*
X133909568Y-130445406D01*
X133720882Y-130463066D01*
X133718281Y-130463282D01*
X133589116Y-130472633D01*
X133556160Y-130470612D01*
X133549130Y-130469225D01*
X133538728Y-130466510D01*
X133475003Y-130454589D01*
X133474492Y-130454492D01*
X133474102Y-130454417D01*
X133412268Y-130442214D01*
X133410845Y-130442309D01*
X133402251Y-130440664D01*
X133332208Y-130427878D01*
X133331751Y-130427793D01*
X133302006Y-130422230D01*
X133263108Y-130414954D01*
X133258295Y-130414386D01*
X133206782Y-130404983D01*
X133206186Y-130404871D01*
X133163958Y-130396863D01*
X133094412Y-130383673D01*
X133093637Y-130383524D01*
X132996645Y-130364488D01*
X132993366Y-130363798D01*
X132918036Y-130346888D01*
X132912360Y-130345472D01*
X132863944Y-130332171D01*
X132849627Y-130328238D01*
X132844088Y-130326576D01*
X132795210Y-130310662D01*
X132786104Y-130307298D01*
X132747063Y-130291110D01*
X132739104Y-130287475D01*
X132704414Y-130270130D01*
X132695263Y-130265061D01*
X132663959Y-130245953D01*
X132655009Y-130239941D01*
X132626622Y-130219025D01*
X132617795Y-130212521D01*
X132611271Y-130207367D01*
X132566092Y-130169139D01*
X132559635Y-130163272D01*
X132507281Y-130112227D01*
X132502691Y-130107508D01*
X132440973Y-130040585D01*
X132437090Y-130036169D01*
X132364388Y-129949422D01*
X132362121Y-129946635D01*
X132279280Y-129841762D01*
X132277123Y-129838951D01*
X132194118Y-129727463D01*
X132188966Y-129719986D01*
X132172224Y-129693678D01*
X132167392Y-129685394D01*
X132140697Y-129635272D01*
X132136667Y-129626976D01*
X132104119Y-129553065D01*
X132101850Y-129547557D01*
X132085844Y-129505875D01*
X132062785Y-129445826D01*
X132061442Y-129442150D01*
X132019466Y-129321471D01*
X132018427Y-129318348D01*
X132013665Y-129303368D01*
X131975541Y-129183433D01*
X131974568Y-129180224D01*
X131974435Y-129179763D01*
X131931556Y-129031053D01*
X131930954Y-129028884D01*
X131887376Y-128865943D01*
X131887092Y-128864855D01*
X131842985Y-128692267D01*
X131842609Y-128690752D01*
X131799359Y-128511019D01*
X131799114Y-128509975D01*
X131756800Y-128325335D01*
X131756471Y-128323848D01*
X131715476Y-128132535D01*
X131674273Y-127938292D01*
X131674064Y-127937283D01*
X131635227Y-127744065D01*
X131635062Y-127743218D01*
X131604447Y-127582889D01*
X131597754Y-127547839D01*
X131597705Y-127547584D01*
X131593437Y-127524976D01*
X131560885Y-127352538D01*
X131525596Y-127163344D01*
X131525389Y-127162204D01*
X131493129Y-126978418D01*
X131462473Y-126799427D01*
X131433751Y-126628085D01*
X131417283Y-126528057D01*
X131406881Y-126464874D01*
X131406857Y-126464728D01*
X131399210Y-126417931D01*
X131382273Y-126314276D01*
X131382208Y-126313870D01*
X131360763Y-126176418D01*
X131360668Y-126175795D01*
X131352950Y-126124619D01*
X131352862Y-126123564D01*
X131351256Y-126112986D01*
X131341963Y-126051758D01*
X131332080Y-125986216D01*
X131332078Y-125986213D01*
X131330956Y-125978768D01*
X131330723Y-125977707D01*
X131330644Y-125977189D01*
X131325796Y-125945241D01*
X131325446Y-125942935D01*
X131325230Y-125941451D01*
X131322878Y-125924453D01*
X131322360Y-125917544D01*
X131313089Y-125853497D01*
X131312559Y-125849832D01*
X131303754Y-125786164D01*
X131303130Y-125784685D01*
X131301669Y-125774592D01*
X131301535Y-125773639D01*
X131300897Y-125768983D01*
X131281766Y-125629274D01*
X131268889Y-125535240D01*
X131268598Y-125531231D01*
X131260559Y-125474075D01*
X131258755Y-125461246D01*
X131249932Y-125396811D01*
X131249930Y-125396808D01*
X131249153Y-125391127D01*
X131248342Y-125387196D01*
X131246359Y-125373098D01*
X131204657Y-125076542D01*
X131204777Y-125075533D01*
X131195504Y-125011458D01*
X131193229Y-124995282D01*
X131185687Y-124941640D01*
X131184770Y-124937276D01*
X131184214Y-124933437D01*
X131128315Y-124547142D01*
X131121739Y-124501403D01*
X131089054Y-124274052D01*
X131060688Y-124076744D01*
X131060600Y-124076115D01*
X131059329Y-124066836D01*
X130995173Y-123598298D01*
X130995052Y-123597377D01*
X130993161Y-123582726D01*
X130932876Y-123115757D01*
X130932692Y-123114258D01*
X130929699Y-123088528D01*
X130876726Y-122633152D01*
X130876530Y-122631345D01*
X130828625Y-122152291D01*
X130828406Y-122149851D01*
X130824056Y-122095530D01*
X130790441Y-121675774D01*
X130790257Y-121673103D01*
X130789265Y-121656062D01*
X130763002Y-121204905D01*
X130762890Y-121202612D01*
X130749516Y-120857686D01*
X130749131Y-120847764D01*
X130749127Y-120847652D01*
X130741961Y-120658397D01*
X130732254Y-120402052D01*
X130732221Y-120401055D01*
X130719337Y-119940191D01*
X130719331Y-119939949D01*
X130719327Y-119939764D01*
X130708409Y-119465298D01*
X130708401Y-119464898D01*
X130700484Y-118981034D01*
X130700472Y-118979957D01*
X130697507Y-118488971D01*
X130697507Y-118487961D01*
X130699484Y-117990951D01*
X130699493Y-117989971D01*
X130706393Y-117490136D01*
X130706428Y-117488474D01*
X130706541Y-117484380D01*
X130720191Y-116988050D01*
X130720245Y-116986494D01*
X130740894Y-116487949D01*
X130740967Y-116486453D01*
X130768441Y-115991928D01*
X130768572Y-115989885D01*
X130803720Y-115503676D01*
X130803925Y-115501213D01*
X130848838Y-115022787D01*
X130849026Y-115020943D01*
X130878156Y-114756826D01*
X130878269Y-114755846D01*
X130919399Y-114414073D01*
X130919590Y-114412577D01*
X130967600Y-114055930D01*
X130967738Y-114054950D01*
X131021690Y-113685138D01*
X131021921Y-113683628D01*
X131029219Y-113637723D01*
X131082921Y-113299912D01*
X131083037Y-113299199D01*
X131149258Y-112902862D01*
X131149352Y-112902321D01*
X131220346Y-112499026D01*
X131220544Y-112497938D01*
X131297573Y-112086127D01*
X131297680Y-112085566D01*
X131378623Y-111669994D01*
X131378846Y-111668885D01*
X131465658Y-111248632D01*
X131465772Y-111248093D01*
X131556692Y-110826106D01*
X131556914Y-110825099D01*
X131560985Y-110806991D01*
X131651672Y-110403622D01*
X131651870Y-110402756D01*
X131750355Y-109983211D01*
X131750722Y-109981694D01*
X131769143Y-109907483D01*
X131854038Y-109565477D01*
X131854340Y-109564293D01*
X131960712Y-109153575D01*
X131961016Y-109152427D01*
X132070258Y-108747937D01*
X132070557Y-108746856D01*
X132182433Y-108351366D01*
X132182872Y-108349857D01*
X132297267Y-107966584D01*
X132297764Y-107964962D01*
X132414607Y-107593985D01*
X132415297Y-107591866D01*
X132535015Y-107235631D01*
X132535573Y-107234013D01*
X132537735Y-107227877D01*
X132655521Y-106893517D01*
X132656543Y-106890725D01*
X132778730Y-106569384D01*
X132779540Y-106567313D01*
X132840420Y-106416009D01*
X132842437Y-106411285D01*
X132973052Y-106122462D01*
X132975530Y-106117306D01*
X133122459Y-105828991D01*
X133124676Y-105824842D01*
X133286447Y-105535700D01*
X133288998Y-105531354D01*
X133465699Y-105244334D01*
X133467919Y-105240863D01*
X133657344Y-104955311D01*
X133659620Y-104952000D01*
X133861271Y-104668932D01*
X133863385Y-104666056D01*
X134075313Y-104386654D01*
X134077472Y-104383893D01*
X134298471Y-104109550D01*
X134300588Y-104106994D01*
X134328241Y-104074502D01*
X134530200Y-103837199D01*
X134532134Y-103834983D01*
X134768739Y-103570486D01*
X134770384Y-103568684D01*
X135010300Y-103311494D01*
X135012471Y-103309228D01*
X135257821Y-103060030D01*
X135259308Y-103058548D01*
X135359975Y-102959847D01*
X135506475Y-102816208D01*
X135508395Y-102814367D01*
X135755157Y-102582967D01*
X135757193Y-102581101D01*
X136006200Y-102358154D01*
X136007579Y-102356940D01*
X136253643Y-102143683D01*
X136255644Y-102141986D01*
X136497530Y-101941375D01*
X136499463Y-101939805D01*
X136736680Y-101751371D01*
X136738902Y-101749648D01*
X136971443Y-101573568D01*
X136973216Y-101572252D01*
X137198265Y-101408492D01*
X137200245Y-101407084D01*
X137414622Y-101257870D01*
X137417488Y-101255935D01*
X137620444Y-101123126D01*
X137622927Y-101121546D01*
X137819177Y-101000193D01*
X137820552Y-100999358D01*
X137868524Y-100970742D01*
X137870274Y-100969721D01*
X138014363Y-100887385D01*
X138016176Y-100886371D01*
X138164880Y-100805005D01*
X138166903Y-100803923D01*
X138320453Y-100723851D01*
X138321900Y-100723111D01*
X138480972Y-100643099D01*
X138482392Y-100642397D01*
X138645761Y-100563129D01*
X138645996Y-100563016D01*
X138810325Y-100484718D01*
X138811750Y-100484052D01*
X138975053Y-100409125D01*
X138975780Y-100408796D01*
X139138972Y-100335943D01*
X139139491Y-100335714D01*
X139302102Y-100264632D01*
X139302824Y-100264320D01*
X139461629Y-100196536D01*
X139462747Y-100196067D01*
X139539300Y-100164290D01*
X139617688Y-100131752D01*
X139769679Y-100069573D01*
X139913334Y-100011335D01*
X139914670Y-100010804D01*
X140051163Y-99957562D01*
X140181512Y-99907200D01*
X140302197Y-99861085D01*
X140343651Y-99845539D01*
X140348267Y-99844135D01*
X140353186Y-99842265D01*
X140353192Y-99842265D01*
X140413672Y-99819282D01*
X140474434Y-99796497D01*
X140475341Y-99795848D01*
X140510694Y-99782413D01*
X140512162Y-99781867D01*
X140595322Y-99751628D01*
X140600308Y-99749832D01*
X140612010Y-99746395D01*
X140613121Y-99745980D01*
X140613126Y-99745980D01*
X140671701Y-99724137D01*
X140672723Y-99723763D01*
X140731526Y-99702595D01*
X140731560Y-99702570D01*
X140739315Y-99699778D01*
X140739380Y-99699774D01*
X140739621Y-99699668D01*
X140767141Y-99689839D01*
X140768646Y-99689313D01*
X140787091Y-99683025D01*
X140794966Y-99680632D01*
X140811091Y-99676311D01*
X140833181Y-99670394D01*
X140833181Y-99670393D01*
X140833186Y-99670392D01*
X140835492Y-99669060D01*
X140841103Y-99666011D01*
X140849414Y-99661768D01*
X140860783Y-99657979D01*
X140874233Y-99649097D01*
X140878987Y-99646671D01*
X140880946Y-99645607D01*
X140880945Y-99645607D01*
X140880949Y-99645606D01*
X140892872Y-99636939D01*
X140897414Y-99633792D01*
X140900170Y-99631972D01*
X140906447Y-99628094D01*
X140947314Y-99604500D01*
X140949206Y-99602607D01*
X140954727Y-99597415D01*
X140961258Y-99591638D01*
X140970759Y-99585367D01*
X140979502Y-99575505D01*
X140983512Y-99571960D01*
X140987542Y-99568134D01*
X140987552Y-99568128D01*
X140999892Y-99552882D01*
X141008571Y-99543241D01*
X141040500Y-99511314D01*
X141041827Y-99509014D01*
X141046232Y-99501945D01*
X141050889Y-99495000D01*
X141058193Y-99486766D01*
X141063403Y-99476343D01*
X141067799Y-99469791D01*
X141068136Y-99469510D01*
X141070465Y-99465705D01*
X141070471Y-99465699D01*
X141080054Y-99444164D01*
X141085945Y-99432598D01*
X141106392Y-99397186D01*
X141107082Y-99394610D01*
X141109795Y-99385810D01*
X141112404Y-99378341D01*
X141117129Y-99368894D01*
X141119139Y-99359071D01*
X141121891Y-99351196D01*
X141122600Y-99350206D01*
X141124049Y-99345307D01*
X141124053Y-99345300D01*
X141128455Y-99317470D01*
X141131153Y-99304770D01*
X141140500Y-99269892D01*
X141140500Y-99267242D01*
X141140931Y-99256908D01*
X141141543Y-99249587D01*
X141143549Y-99239786D01*
X141143053Y-99231531D01*
X141143795Y-99222661D01*
X141144499Y-99220840D01*
X141144646Y-99215142D01*
X141144648Y-99215135D01*
X141141181Y-99182198D01*
X141140500Y-99169217D01*
X141140500Y-99136109D01*
X141139660Y-99132975D01*
X141135996Y-99112668D01*
X141135788Y-99110491D01*
X141135653Y-99108239D01*
X141135540Y-99107903D01*
X141134930Y-99101507D01*
X141135080Y-99100726D01*
X141134550Y-99096422D01*
X141132214Y-99053189D01*
X141132212Y-99053185D01*
X141131668Y-99050271D01*
X141129867Y-99036297D01*
X141126251Y-98985676D01*
X141126279Y-98985673D01*
X141126237Y-98985478D01*
X141125436Y-98974005D01*
X141125433Y-98972955D01*
X141120224Y-98899279D01*
X141120216Y-98899162D01*
X141115171Y-98826849D01*
X141115028Y-98825815D01*
X141113417Y-98803018D01*
X141113362Y-98802198D01*
X141111140Y-98766963D01*
X141111113Y-98756095D01*
X141107826Y-98711182D01*
X141106389Y-98691542D01*
X141106311Y-98690395D01*
X141102361Y-98627738D01*
X141102360Y-98627735D01*
X141102241Y-98625844D01*
X141100792Y-98615053D01*
X141097305Y-98567389D01*
X141097253Y-98566653D01*
X141094403Y-98524221D01*
X141093322Y-98508132D01*
X141093312Y-98504540D01*
X141092808Y-98497389D01*
X141088322Y-98433675D01*
X141083959Y-98368716D01*
X141083883Y-98368496D01*
X141083341Y-98360524D01*
X141082964Y-98355356D01*
X141082965Y-98355354D01*
X141078216Y-98290172D01*
X141073635Y-98225111D01*
X141073176Y-98218592D01*
X141072806Y-98215914D01*
X141067263Y-98139816D01*
X141067234Y-98139420D01*
X141056336Y-97982888D01*
X141056318Y-97982626D01*
X141050333Y-97893949D01*
X141050319Y-97889617D01*
X141049922Y-97884067D01*
X141049923Y-97884065D01*
X141045301Y-97819372D01*
X141040928Y-97754558D01*
X141040927Y-97754557D01*
X141040555Y-97749031D01*
X141039968Y-97744711D01*
X141033255Y-97650733D01*
X141029997Y-97604041D01*
X141021290Y-97479232D01*
X141021283Y-97479134D01*
X141020869Y-97473133D01*
X141014386Y-97379134D01*
X141014352Y-97373307D01*
X141014005Y-97368637D01*
X141014006Y-97368633D01*
X141009217Y-97304178D01*
X141004780Y-97239829D01*
X141004779Y-97239827D01*
X141004458Y-97235164D01*
X141003661Y-97229379D01*
X141002799Y-97217780D01*
X140996270Y-97129888D01*
X140996218Y-97129164D01*
X140988710Y-97019043D01*
X140989018Y-97017419D01*
X140984226Y-96953287D01*
X140979858Y-96889215D01*
X140979857Y-96889213D01*
X140979589Y-96885277D01*
X140978618Y-96878219D01*
X140971206Y-96779019D01*
X140964415Y-96681117D01*
X140964408Y-96679308D01*
X140963909Y-96672281D01*
X140963910Y-96672277D01*
X140959284Y-96607128D01*
X140954741Y-96541632D01*
X140954739Y-96541627D01*
X140954253Y-96534615D01*
X140954006Y-96532810D01*
X140952475Y-96511249D01*
X140952461Y-96508856D01*
X140951973Y-96502194D01*
X140951974Y-96502192D01*
X140947204Y-96437013D01*
X140942576Y-96371824D01*
X140942575Y-96371822D01*
X140942100Y-96365125D01*
X140941770Y-96362742D01*
X140940560Y-96346205D01*
X140940543Y-96344186D01*
X140940025Y-96337279D01*
X140940026Y-96337275D01*
X140935143Y-96272173D01*
X140935143Y-96272172D01*
X140935182Y-96272169D01*
X140935126Y-96271952D01*
X140930357Y-96206759D01*
X140930355Y-96206753D01*
X140929851Y-96199865D01*
X140929568Y-96197847D01*
X140923157Y-96112365D01*
X140917522Y-96034512D01*
X140917491Y-96030665D01*
X140917049Y-96024845D01*
X140917050Y-96024843D01*
X140912129Y-95959983D01*
X140907438Y-95895154D01*
X140907437Y-95895153D01*
X140906850Y-95887029D01*
X140907727Y-95886965D01*
X140907582Y-95885089D01*
X140906860Y-95885148D01*
X140904107Y-95851368D01*
X140900961Y-95812755D01*
X140896082Y-95748437D01*
X140896081Y-95748434D01*
X140895741Y-95743952D01*
X140894858Y-95737858D01*
X140890084Y-95679270D01*
X140890019Y-95678421D01*
X140886477Y-95628843D01*
X140886409Y-95621409D01*
X140886114Y-95617644D01*
X140886115Y-95617641D01*
X140881107Y-95553653D01*
X140876533Y-95489616D01*
X140875979Y-95488016D01*
X140871550Y-95431534D01*
X140869719Y-95408153D01*
X140869471Y-95394991D01*
X140869409Y-95394312D01*
X140869410Y-95394308D01*
X140863723Y-95331755D01*
X140858815Y-95269175D01*
X140857764Y-95266205D01*
X140855657Y-95243023D01*
X140855576Y-95242096D01*
X140852699Y-95207567D01*
X140852716Y-95207565D01*
X140852690Y-95207463D01*
X140848239Y-95153501D01*
X140845018Y-95114442D01*
X140844953Y-95113620D01*
X140842597Y-95081820D01*
X140842583Y-95080099D01*
X140842043Y-95072962D01*
X140842044Y-95072959D01*
X140837107Y-95007692D01*
X140832265Y-94942315D01*
X140832263Y-94942311D01*
X140831737Y-94935199D01*
X140831494Y-94933484D01*
X140828179Y-94889640D01*
X140824446Y-94836569D01*
X140824425Y-94833025D01*
X140823983Y-94827016D01*
X140823984Y-94827012D01*
X140819219Y-94762206D01*
X140814646Y-94697166D01*
X140814644Y-94697162D01*
X140814224Y-94691178D01*
X140813737Y-94687658D01*
X140809207Y-94626043D01*
X140799314Y-94484567D01*
X140794333Y-94410863D01*
X140794311Y-94405570D01*
X140789534Y-94339579D01*
X140789272Y-94335952D01*
X140784919Y-94271517D01*
X140784526Y-94270367D01*
X140778367Y-94185276D01*
X140778328Y-94184712D01*
X140773188Y-94104524D01*
X140773178Y-94097543D01*
X140772895Y-94093524D01*
X140768375Y-94029426D01*
X140764260Y-93965225D01*
X140764259Y-93965222D01*
X140764002Y-93961209D01*
X140763074Y-93954259D01*
X140757391Y-93873651D01*
X140757344Y-93872944D01*
X140752172Y-93791737D01*
X140751566Y-93782220D01*
X140751895Y-93780524D01*
X140747375Y-93716431D01*
X140743299Y-93652427D01*
X140743298Y-93652426D01*
X140743059Y-93648659D01*
X140742077Y-93641301D01*
X140736355Y-93560145D01*
X140731242Y-93481403D01*
X140731243Y-93479967D01*
X140726420Y-93407154D01*
X140722178Y-93341815D01*
X140722073Y-93341506D01*
X140716479Y-93257029D01*
X140712116Y-93186736D01*
X140712122Y-93184288D01*
X140711695Y-93177651D01*
X140711696Y-93177648D01*
X140707516Y-93112632D01*
X140703457Y-93047229D01*
X140703456Y-93047227D01*
X140703263Y-93044110D01*
X140703264Y-93042168D01*
X140702822Y-93035695D01*
X140702823Y-93035693D01*
X140698408Y-92970955D01*
X140694242Y-92906135D01*
X140694240Y-92906130D01*
X140693884Y-92900583D01*
X140693319Y-92896318D01*
X140689408Y-92838953D01*
X140681524Y-92716748D01*
X140674602Y-92604021D01*
X140672935Y-92575415D01*
X140672964Y-92566302D01*
X140672774Y-92563457D01*
X140672775Y-92563454D01*
X140668529Y-92499771D01*
X140664821Y-92436114D01*
X140664150Y-92434089D01*
X140662424Y-92408203D01*
X140658235Y-92343694D01*
X140658236Y-92342998D01*
X140657726Y-92335183D01*
X140657727Y-92335180D01*
X140655241Y-92297077D01*
X140655236Y-92292952D01*
X140654846Y-92287303D01*
X140654847Y-92287301D01*
X140651534Y-92239270D01*
X140651855Y-92218405D01*
X140653573Y-92201237D01*
X140651126Y-92186276D01*
X140650344Y-92180707D01*
X140649500Y-92173512D01*
X140649500Y-92152108D01*
X140649500Y-92151108D01*
X140644824Y-92133660D01*
X140644360Y-92129697D01*
X140643780Y-92126837D01*
X140643780Y-92126829D01*
X140642637Y-92123501D01*
X140637547Y-92103260D01*
X140634337Y-92083636D01*
X140632300Y-92071180D01*
X140626065Y-92057366D01*
X140619315Y-92038455D01*
X140615606Y-92024614D01*
X140615392Y-92023814D01*
X140594926Y-91988367D01*
X140578091Y-91951062D01*
X140562115Y-91931536D01*
X140549500Y-91909686D01*
X140524934Y-91885120D01*
X140516645Y-91875961D01*
X140494643Y-91849070D01*
X140494635Y-91849062D01*
X140482335Y-91840221D01*
X140482332Y-91840219D01*
X140474153Y-91834339D01*
X140456314Y-91816500D01*
X140420872Y-91796037D01*
X140415862Y-91792435D01*
X140415851Y-91792428D01*
X140387635Y-91772145D01*
X140373454Y-91766783D01*
X140370879Y-91765777D01*
X140362831Y-91762527D01*
X140342186Y-91750608D01*
X140315815Y-91743541D01*
X140308795Y-91740707D01*
X140308496Y-91740470D01*
X140304932Y-91739230D01*
X140304887Y-91739221D01*
X140286165Y-91733781D01*
X140264365Y-91725539D01*
X140249277Y-91724030D01*
X140242480Y-91723160D01*
X140235927Y-91722136D01*
X140214892Y-91716500D01*
X140199847Y-91716500D01*
X140190335Y-91715014D01*
X140189153Y-91714457D01*
X140184794Y-91714018D01*
X140170975Y-91711211D01*
X140167726Y-91710333D01*
X140149277Y-91706643D01*
X140147795Y-91706337D01*
X140100414Y-91696256D01*
X140090485Y-91694861D01*
X140028086Y-91682187D01*
X140024772Y-91681741D01*
X140019038Y-91680594D01*
X140018321Y-91680449D01*
X139923187Y-91660835D01*
X139923063Y-91660809D01*
X139884924Y-91652905D01*
X139884034Y-91652660D01*
X139812057Y-91637807D01*
X139812057Y-91637808D01*
X139811820Y-91637759D01*
X139748029Y-91624541D01*
X139747819Y-91624553D01*
X139716484Y-91618087D01*
X139687021Y-91612007D01*
X139686757Y-91611952D01*
X139548962Y-91583204D01*
X139548755Y-91583093D01*
X139548742Y-91583158D01*
X139397804Y-91551381D01*
X139397469Y-91551310D01*
X139306697Y-91531938D01*
X139303411Y-91531014D01*
X139233918Y-91516405D01*
X139233549Y-91516327D01*
X139164107Y-91501507D01*
X139160745Y-91501021D01*
X139058118Y-91479447D01*
X139057556Y-91479327D01*
X138873588Y-91439763D01*
X138873588Y-91439759D01*
X138873550Y-91439755D01*
X138813999Y-91426929D01*
X138750712Y-91413298D01*
X138749943Y-91413079D01*
X138678938Y-91397839D01*
X138678940Y-91397829D01*
X138678852Y-91397820D01*
X138606548Y-91382247D01*
X138605728Y-91382126D01*
X138473555Y-91353757D01*
X138473401Y-91353724D01*
X138262501Y-91308177D01*
X138261719Y-91308005D01*
X138115926Y-91275533D01*
X138113400Y-91274797D01*
X138043206Y-91259336D01*
X138042923Y-91259273D01*
X137973128Y-91243728D01*
X137970530Y-91243328D01*
X137816606Y-91209424D01*
X137816270Y-91209350D01*
X137585039Y-91157745D01*
X137584611Y-91157648D01*
X137347907Y-91103942D01*
X137284138Y-91089449D01*
X137177938Y-91065312D01*
X137177374Y-91065146D01*
X137169928Y-91063457D01*
X137169927Y-91063457D01*
X137105427Y-91048833D01*
X137081776Y-91043458D01*
X137034124Y-91032628D01*
X137033538Y-91032535D01*
X136860513Y-90993306D01*
X136859800Y-90993142D01*
X136613076Y-90935672D01*
X136612834Y-90935615D01*
X136434471Y-90893690D01*
X136432592Y-90893118D01*
X136368234Y-90878110D01*
X136362081Y-90876675D01*
X136298382Y-90861702D01*
X136298381Y-90861702D01*
X136291689Y-90860129D01*
X136289743Y-90859804D01*
X136111028Y-90818128D01*
X136110125Y-90817914D01*
X135860318Y-90757684D01*
X135859868Y-90757574D01*
X135544129Y-90680200D01*
X135355859Y-90634062D01*
X135355525Y-90633980D01*
X135108978Y-90572836D01*
X135107958Y-90572578D01*
X134864336Y-90509960D01*
X134864323Y-90509957D01*
X134617943Y-90446602D01*
X134617463Y-90446478D01*
X134380302Y-90384482D01*
X134379208Y-90384190D01*
X134146585Y-90321106D01*
X134146427Y-90321009D01*
X134146414Y-90321060D01*
X133918859Y-90258998D01*
X133917561Y-90258636D01*
X133766172Y-90215575D01*
X133766135Y-90215562D01*
X133686576Y-90192935D01*
X133659818Y-90185324D01*
X133627608Y-90176161D01*
X133627568Y-90176152D01*
X133481884Y-90134720D01*
X133480329Y-90134267D01*
X133275847Y-90073213D01*
X133274773Y-90072887D01*
X133078614Y-90012380D01*
X133077794Y-90012124D01*
X132890540Y-89952940D01*
X132889086Y-89952470D01*
X132715781Y-89895336D01*
X132713763Y-89894652D01*
X132549835Y-89837468D01*
X132548651Y-89837048D01*
X132397059Y-89782438D01*
X132394518Y-89781491D01*
X132260329Y-89729809D01*
X132257385Y-89728632D01*
X132133801Y-89677368D01*
X132132246Y-89676710D01*
X131994979Y-89617483D01*
X131942017Y-89594632D01*
X131940931Y-89594157D01*
X131317997Y-89318286D01*
X131316302Y-89317520D01*
X130699029Y-89033004D01*
X130696850Y-89031974D01*
X130086394Y-88736084D01*
X130084378Y-88735084D01*
X129481108Y-88429035D01*
X129478474Y-88427659D01*
X128883377Y-88107599D01*
X128880901Y-88106231D01*
X128295828Y-87774137D01*
X128292766Y-87772340D01*
X127716384Y-87422988D01*
X127714425Y-87421776D01*
X127483962Y-87276169D01*
X127482531Y-87275251D01*
X127189913Y-87084709D01*
X127188000Y-87083438D01*
X127168013Y-87069890D01*
X127027876Y-86974897D01*
X126900977Y-86888878D01*
X126898545Y-86887186D01*
X126618314Y-86687294D01*
X126615702Y-86685380D01*
X126342061Y-86479199D01*
X126338967Y-86476790D01*
X126073278Y-86263104D01*
X126070294Y-86260626D01*
X125814522Y-86041393D01*
X125810698Y-86037976D01*
X125567048Y-85811001D01*
X125563198Y-85807255D01*
X125331646Y-85572012D01*
X125327805Y-85567928D01*
X125109063Y-85324475D01*
X125104921Y-85319619D01*
X125075512Y-85283283D01*
X124898383Y-85064431D01*
X124895163Y-85060275D01*
X124781969Y-84907594D01*
X124778918Y-84903290D01*
X124584954Y-84616963D01*
X124581670Y-84611849D01*
X124527621Y-84522975D01*
X124403816Y-84319398D01*
X124400701Y-84313973D01*
X124307711Y-84142098D01*
X124236944Y-84011298D01*
X124234385Y-84006299D01*
X124209726Y-83955318D01*
X124083756Y-83694877D01*
X124081417Y-83689745D01*
X124078569Y-83683100D01*
X124017336Y-83540221D01*
X124500000Y-83500000D01*
X126226688Y-85572025D01*
X126802586Y-86263104D01*
X127000000Y-86500000D01*
X133000000Y-89500000D01*
X139201000Y-90931000D01*
X139498921Y-90999751D01*
X139501112Y-91000278D01*
X141500000Y-91500000D01*
X141715778Y-89558000D01*
X145000000Y-89558000D01*
X145010608Y-89677325D01*
X145010609Y-89677328D01*
X145066557Y-89872861D01*
X145160721Y-90053129D01*
X145289246Y-90210753D01*
X145446870Y-90339278D01*
X145627138Y-90433442D01*
X145822671Y-90489390D01*
X145822674Y-90489391D01*
X145941999Y-90499999D01*
X145942002Y-90500000D01*
X147250000Y-90500000D01*
X147750000Y-90500000D01*
X149057998Y-90500000D01*
X149058000Y-90499999D01*
X149177325Y-90489391D01*
X149177328Y-90489390D01*
X149372861Y-90433442D01*
X149553129Y-90339278D01*
X149710753Y-90210753D01*
X149839278Y-90053129D01*
X149933442Y-89872861D01*
X149989390Y-89677328D01*
X149989391Y-89677325D01*
X149999999Y-89558000D01*
X150000000Y-89557998D01*
X150000000Y-89250000D01*
X147750000Y-89250000D01*
X147750000Y-90500000D01*
X147250000Y-90500000D01*
X147250000Y-89250000D01*
X145000000Y-89250000D01*
X145000000Y-89558000D01*
X141715778Y-89558000D01*
X141839778Y-88441999D01*
X145000000Y-88441999D01*
X145000000Y-88750000D01*
X147250000Y-88750000D01*
X147750000Y-88750000D01*
X150000000Y-88750000D01*
X150000000Y-88442002D01*
X149999999Y-88441999D01*
X149989391Y-88322674D01*
X149989390Y-88322671D01*
X149933442Y-88127138D01*
X149839278Y-87946870D01*
X149710753Y-87789246D01*
X149553129Y-87660721D01*
X149372861Y-87566557D01*
X149177328Y-87510609D01*
X149177325Y-87510608D01*
X149058000Y-87500000D01*
X147750000Y-87500000D01*
X147750000Y-88750000D01*
X147250000Y-88750000D01*
X147250000Y-87500000D01*
X145941999Y-87500000D01*
X145822674Y-87510608D01*
X145822671Y-87510609D01*
X145627138Y-87566557D01*
X145446870Y-87660721D01*
X145289246Y-87789246D01*
X145160721Y-87946870D01*
X145066557Y-88127138D01*
X145010609Y-88322671D01*
X145010608Y-88322674D01*
X145000000Y-88441999D01*
X141839778Y-88441999D01*
X141996668Y-87029983D01*
X142016735Y-86974897D01*
X142981734Y-85527399D01*
X143029454Y-85485273D01*
X144987824Y-84506088D01*
X145013204Y-84496699D01*
X148991244Y-83502189D01*
X149008980Y-83499102D01*
X153993850Y-83000615D01*
X154006188Y-83000000D01*
X157876000Y-83000000D01*
X157943039Y-83019685D01*
G37*
%TD.AperFunction*%
%TD*%
M02*
