%TF.GenerationSoftware,KiCad,Pcbnew,9.0.6*%
%TF.CreationDate,2026-04-07T16:33:38+02:00*%
%TF.ProjectId,mushroom_rocket,6d757368-726f-46f6-9d5f-726f636b6574,rev?*%
%TF.SameCoordinates,Original*%
%TF.FileFunction,Legend,Top*%
%TF.FilePolarity,Positive*%
%FSLAX46Y46*%
G04 Gerber Fmt 4.6, Leading zero omitted, Abs format (unit mm)*
G04 Created by KiCad (PCBNEW 9.0.6) date 2026-04-07 16:33:38*
%MOMM*%
%LPD*%
G01*
G04 APERTURE LIST*
%ADD10C,0.000000*%
G04 APERTURE END LIST*
D10*
%TO.C,ART1*%
G36*
X180593000Y-63601000D02*
G01*
X180880000Y-63638000D01*
X181535000Y-63852000D01*
X182106000Y-64194000D01*
X182577000Y-64653000D01*
X182934000Y-65215000D01*
X183031000Y-65440000D01*
X183144000Y-65793000D01*
X183200000Y-66150000D01*
X183214000Y-66410000D01*
X183213000Y-66757000D01*
X183178000Y-67038000D01*
X183110000Y-67310000D01*
X182854000Y-67918000D01*
X182473000Y-68445000D01*
X181988000Y-68873000D01*
X181420000Y-69184000D01*
X180790000Y-69361000D01*
X180656000Y-69379000D01*
X180301000Y-69397000D01*
X179973000Y-69380000D01*
X179969000Y-69379000D01*
X179332000Y-69218000D01*
X178751000Y-68919000D01*
X178250000Y-68499000D01*
X177854000Y-67978000D01*
X177677000Y-67627000D01*
X177491000Y-66984000D01*
X177462000Y-66457000D01*
X178123000Y-66457000D01*
X178144000Y-66820000D01*
X178179000Y-67017000D01*
X178395000Y-67572000D01*
X178738000Y-68040000D01*
X179189000Y-68403000D01*
X179729000Y-68644000D01*
X179870000Y-68682000D01*
X180124000Y-68711000D01*
X180447000Y-68713000D01*
X180752000Y-68687000D01*
X180885000Y-68661000D01*
X181269000Y-68518000D01*
X181540000Y-68370000D01*
X181778000Y-68179000D01*
X182025000Y-67929000D01*
X182210000Y-67691000D01*
X182216000Y-67682000D01*
X182463000Y-67131000D01*
X182555000Y-66554000D01*
X182493000Y-65969000D01*
X182363000Y-65583000D01*
X182068000Y-65093000D01*
X181660000Y-64701000D01*
X181168000Y-64423000D01*
X180617000Y-64278000D01*
X180342000Y-64260000D01*
X179757000Y-64334000D01*
X179231000Y-64557000D01*
X178763000Y-64929000D01*
X178734000Y-64959000D01*
X178384000Y-65436000D01*
X178176000Y-65989000D01*
X178147000Y-66130000D01*
X178123000Y-66457000D01*
X177462000Y-66457000D01*
X177454000Y-66322000D01*
X177566000Y-65671000D01*
X177752000Y-65196000D01*
X178123000Y-64627000D01*
X178605000Y-64168000D01*
X179179000Y-63831000D01*
X179829000Y-63630000D01*
X179841000Y-63628000D01*
X180196000Y-63594000D01*
X180593000Y-63601000D01*
G37*
G36*
X171049000Y-55801000D02*
G01*
X171305000Y-55864000D01*
X171607000Y-55965000D01*
X171813000Y-56050000D01*
X172358000Y-56386000D01*
X172835000Y-56840000D01*
X173179000Y-57329000D01*
X173446000Y-57967000D01*
X173566000Y-58628000D01*
X173544000Y-59290000D01*
X173383000Y-59929000D01*
X173089000Y-60522000D01*
X172666000Y-61047000D01*
X172389000Y-61292000D01*
X171807000Y-61649000D01*
X171165000Y-61872000D01*
X170495000Y-61950000D01*
X170240000Y-61940000D01*
X169577000Y-61808000D01*
X168961000Y-61538000D01*
X168847000Y-61469000D01*
X168304000Y-61028000D01*
X167878000Y-60486000D01*
X167583000Y-59864000D01*
X167439000Y-59251000D01*
X167424000Y-59008000D01*
X167425000Y-58866000D01*
X168082000Y-58866000D01*
X168165000Y-59471000D01*
X168339000Y-59930000D01*
X168681000Y-60451000D01*
X169128000Y-60854000D01*
X169672000Y-61132000D01*
X170120000Y-61252000D01*
X170356000Y-61271000D01*
X170655000Y-61267000D01*
X170919000Y-61242000D01*
X170970000Y-61233000D01*
X171561000Y-61027000D01*
X172068000Y-60686000D01*
X172181000Y-60581000D01*
X172562000Y-60095000D01*
X172806000Y-59545000D01*
X172905000Y-58956000D01*
X172855000Y-58352000D01*
X172780000Y-58076000D01*
X172515000Y-57529000D01*
X172127000Y-57067000D01*
X171638000Y-56714000D01*
X171250000Y-56543000D01*
X170930000Y-56461000D01*
X170582000Y-56432000D01*
X170480000Y-56431000D01*
X170153000Y-56446000D01*
X169877000Y-56502000D01*
X169664000Y-56572000D01*
X169138000Y-56844000D01*
X168695000Y-57239000D01*
X168357000Y-57731000D01*
X168159000Y-58251000D01*
X168082000Y-58866000D01*
X167425000Y-58866000D01*
X167427000Y-58698000D01*
X167445000Y-58402000D01*
X167470000Y-58220000D01*
X167661000Y-57637000D01*
X167952000Y-57096000D01*
X167986000Y-57046000D01*
X168130000Y-56867000D01*
X168310000Y-56670000D01*
X168320000Y-56661000D01*
X168863000Y-56225000D01*
X169478000Y-55927000D01*
X170142000Y-55774000D01*
X170838000Y-55771000D01*
X171049000Y-55801000D01*
G37*
G36*
X165014000Y-64488000D02*
G01*
X165712000Y-64713000D01*
X165793000Y-64750000D01*
X166413000Y-65128000D01*
X166932000Y-65623000D01*
X167337000Y-66219000D01*
X167615000Y-66900000D01*
X167681000Y-67160000D01*
X167726000Y-67509000D01*
X167739000Y-67922000D01*
X167718000Y-68308000D01*
X167703000Y-68410000D01*
X167503000Y-69128000D01*
X167166000Y-69769000D01*
X166705000Y-70321000D01*
X166130000Y-70768000D01*
X165579000Y-71049000D01*
X165298000Y-71142000D01*
X164966000Y-71223000D01*
X164917000Y-71232000D01*
X164728000Y-71253000D01*
X164460000Y-71268000D01*
X164192000Y-71273000D01*
X164010000Y-71267000D01*
X163374000Y-71135000D01*
X162769000Y-70889000D01*
X162584000Y-70784000D01*
X162004000Y-70333000D01*
X161540000Y-69783000D01*
X161204000Y-69153000D01*
X161004000Y-68463000D01*
X160959000Y-67837000D01*
X161620000Y-67837000D01*
X161695000Y-68500000D01*
X161919000Y-69110000D01*
X162284000Y-69653000D01*
X162430000Y-69810000D01*
X162948000Y-70219000D01*
X163536000Y-70489000D01*
X163851000Y-70569000D01*
X164065000Y-70589000D01*
X164358000Y-70593000D01*
X164655000Y-70583000D01*
X164883000Y-70559000D01*
X164920000Y-70551000D01*
X165563000Y-70316000D01*
X166111000Y-69954000D01*
X166556000Y-69470000D01*
X166736000Y-69190000D01*
X166972000Y-68616000D01*
X167074000Y-67994000D01*
X167042000Y-67423000D01*
X166862000Y-66784000D01*
X166551000Y-66230000D01*
X166311000Y-65944000D01*
X165843000Y-65547000D01*
X165302000Y-65272000D01*
X164930000Y-65157000D01*
X164669000Y-65119000D01*
X164341000Y-65102000D01*
X164036000Y-65113000D01*
X163977000Y-65119000D01*
X163360000Y-65281000D01*
X162806000Y-65579000D01*
X162334000Y-65995000D01*
X161965000Y-66511000D01*
X161718000Y-67108000D01*
X161702000Y-67170000D01*
X161634000Y-67536000D01*
X161620000Y-67837000D01*
X160959000Y-67837000D01*
X160952000Y-67734000D01*
X160959000Y-67599000D01*
X161086000Y-66885000D01*
X161352000Y-66229000D01*
X161743000Y-65647000D01*
X162243000Y-65158000D01*
X162837000Y-64779000D01*
X163511000Y-64528000D01*
X163572000Y-64513000D01*
X164299000Y-64421000D01*
X165014000Y-64488000D01*
G37*
G36*
X133345000Y-67561000D02*
G01*
X134078000Y-67697000D01*
X134752000Y-67977000D01*
X135351000Y-68392000D01*
X135857000Y-68930000D01*
X136009000Y-69146000D01*
X136320000Y-69754000D01*
X136504000Y-70362000D01*
X136529000Y-70499000D01*
X136543000Y-70645000D01*
X136548000Y-70858000D01*
X136549000Y-71060000D01*
X136545000Y-71393000D01*
X136525000Y-71635000D01*
X136481000Y-71855000D01*
X136402000Y-72123000D01*
X136400000Y-72130000D01*
X136278000Y-72439000D01*
X136108000Y-72781000D01*
X135935000Y-73063000D01*
X135933000Y-73066000D01*
X135432000Y-73633000D01*
X134839000Y-74069000D01*
X134154000Y-74375000D01*
X133810000Y-74471000D01*
X133653000Y-74503000D01*
X133489000Y-74520000D01*
X133249000Y-74529000D01*
X133160000Y-74531000D01*
X132881000Y-74534000D01*
X132698000Y-74526000D01*
X132546000Y-74505000D01*
X132530000Y-74502000D01*
X131852000Y-74317000D01*
X131561000Y-74191000D01*
X130928000Y-73785000D01*
X130405000Y-73270000D01*
X130004000Y-72658000D01*
X129735000Y-71964000D01*
X129668000Y-71670000D01*
X129644000Y-71502000D01*
X129633000Y-71289000D01*
X129630000Y-71020000D01*
X129637000Y-70736000D01*
X130301000Y-70736000D01*
X130305000Y-71382000D01*
X130450000Y-72009000D01*
X130653000Y-72450000D01*
X131054000Y-72988000D01*
X131556000Y-73410000D01*
X132141000Y-73703000D01*
X132789000Y-73858000D01*
X133040000Y-73877000D01*
X133165000Y-73872000D01*
X133338000Y-73860000D01*
X133955000Y-73734000D01*
X134362000Y-73569000D01*
X134632000Y-73404000D01*
X134916000Y-73189000D01*
X135041000Y-73076000D01*
X135462000Y-72559000D01*
X135746000Y-71965000D01*
X135843000Y-71618000D01*
X135884000Y-71287000D01*
X135889000Y-70899000D01*
X135857000Y-70553000D01*
X135854000Y-70540000D01*
X135655000Y-69901000D01*
X135321000Y-69336000D01*
X134865000Y-68862000D01*
X134328000Y-68513000D01*
X133900000Y-68337000D01*
X133471000Y-68250000D01*
X133100000Y-68232000D01*
X132754000Y-68244000D01*
X132473000Y-68289000D01*
X132203000Y-68369000D01*
X131609000Y-68651000D01*
X131100000Y-69059000D01*
X130697000Y-69572000D01*
X130442000Y-70106000D01*
X130301000Y-70736000D01*
X129637000Y-70736000D01*
X129639000Y-70651000D01*
X129673000Y-70363000D01*
X129744000Y-70082000D01*
X129802000Y-69906000D01*
X130080000Y-69292000D01*
X130474000Y-68753000D01*
X130639000Y-68579000D01*
X131073000Y-68203000D01*
X131543000Y-67920000D01*
X131600000Y-67893000D01*
X132289000Y-67648000D01*
X133002000Y-67552000D01*
X133345000Y-67561000D01*
G37*
G36*
X146357000Y-57297000D02*
G01*
X147200000Y-57500000D01*
X147998000Y-57849000D01*
X148733000Y-58338000D01*
X148800000Y-58392000D01*
X149022000Y-58595000D01*
X149277000Y-58855000D01*
X149496000Y-59102000D01*
X149543000Y-59160000D01*
X150018000Y-59902000D01*
X150352000Y-60719000D01*
X150544000Y-61590000D01*
X150563000Y-61852000D01*
X150568000Y-62198000D01*
X150559000Y-62550000D01*
X150537000Y-62834000D01*
X150534000Y-62861000D01*
X150328000Y-63730000D01*
X149978000Y-64534000D01*
X149488000Y-65262000D01*
X149213000Y-65575000D01*
X148569000Y-66145000D01*
X147851000Y-66586000D01*
X147320000Y-66817000D01*
X146519000Y-67036000D01*
X145668000Y-67118000D01*
X145143000Y-67098000D01*
X144342000Y-66953000D01*
X143555000Y-66671000D01*
X143350000Y-66573000D01*
X142602000Y-66104000D01*
X141959000Y-65521000D01*
X141432000Y-64840000D01*
X141031000Y-64075000D01*
X140767000Y-63241000D01*
X140679000Y-62720000D01*
X140661000Y-62433000D01*
X140660000Y-62280000D01*
X141326000Y-62280000D01*
X141358000Y-62731000D01*
X141429000Y-63129000D01*
X141459000Y-63251000D01*
X141739000Y-64016000D01*
X142158000Y-64708000D01*
X142705000Y-65313000D01*
X143170000Y-65684000D01*
X143856000Y-66068000D01*
X144610000Y-66326000D01*
X145120000Y-66418000D01*
X145385000Y-66434000D01*
X145717000Y-66436000D01*
X146026000Y-66424000D01*
X146160000Y-66411000D01*
X146972000Y-66224000D01*
X147723000Y-65892000D01*
X148397000Y-65423000D01*
X148661000Y-65181000D01*
X149179000Y-64553000D01*
X149562000Y-63854000D01*
X149805000Y-63102000D01*
X149903000Y-62317000D01*
X149853000Y-61519000D01*
X149679000Y-60815000D01*
X149348000Y-60078000D01*
X148891000Y-59426000D01*
X148325000Y-58872000D01*
X147668000Y-58432000D01*
X146937000Y-58118000D01*
X146194000Y-57951000D01*
X145856000Y-57926000D01*
X145462000Y-57923000D01*
X145110000Y-57942000D01*
X145049000Y-57949000D01*
X144253000Y-58132000D01*
X143516000Y-58457000D01*
X142855000Y-58911000D01*
X142288000Y-59481000D01*
X141834000Y-60154000D01*
X141773000Y-60271000D01*
X141476000Y-61025000D01*
X141336000Y-61806000D01*
X141326000Y-62280000D01*
X140660000Y-62280000D01*
X140659000Y-62073000D01*
X140672000Y-61725000D01*
X140691000Y-61519000D01*
X140888000Y-60663000D01*
X141226000Y-59870000D01*
X141692000Y-59153000D01*
X142275000Y-58528000D01*
X142962000Y-58008000D01*
X143742000Y-57609000D01*
X144042000Y-57498000D01*
X144687000Y-57329000D01*
X145373000Y-57252000D01*
X145490000Y-57247000D01*
X146357000Y-57297000D01*
G37*
G36*
X159263000Y-48577000D02*
G01*
X161016000Y-48699000D01*
X162650000Y-48892000D01*
X164032000Y-49125000D01*
X165491000Y-49433000D01*
X166973000Y-49804000D01*
X168421000Y-50226000D01*
X168495000Y-50249000D01*
X169568000Y-50608000D01*
X170573000Y-50991000D01*
X171576000Y-51425000D01*
X172530000Y-51881000D01*
X174343000Y-52833000D01*
X176047000Y-53841000D01*
X177595000Y-54866000D01*
X178819000Y-55750000D01*
X179925000Y-56619000D01*
X180948000Y-57504000D01*
X181924000Y-58437000D01*
X182887000Y-59449000D01*
X183692000Y-60360000D01*
X184322000Y-61110000D01*
X184881000Y-61815000D01*
X185418000Y-62537000D01*
X185872000Y-63180000D01*
X186625000Y-64325000D01*
X187368000Y-65567000D01*
X188084000Y-66871000D01*
X188753000Y-68199000D01*
X189358000Y-69516000D01*
X189879000Y-70784000D01*
X190192000Y-71649000D01*
X190523000Y-72695000D01*
X190826000Y-73804000D01*
X191099000Y-74948000D01*
X191335000Y-76100000D01*
X191529000Y-77231000D01*
X191678000Y-78314000D01*
X191775000Y-79321000D01*
X191816000Y-80225000D01*
X191812000Y-80670000D01*
X191751000Y-81508000D01*
X191624000Y-82219000D01*
X191460000Y-82730000D01*
X191419000Y-82830000D01*
X191431000Y-82640000D01*
X191409000Y-82148000D01*
X191297000Y-81584000D01*
X191106000Y-80995000D01*
X191038000Y-80830000D01*
X190984000Y-80694000D01*
X190963000Y-80581000D01*
X190960000Y-80400000D01*
X190927000Y-79498000D01*
X190833000Y-78482000D01*
X190683000Y-77382000D01*
X190483000Y-76229000D01*
X190240000Y-75054000D01*
X189958000Y-73888000D01*
X189643000Y-72762000D01*
X189402000Y-72000000D01*
X189010000Y-70927000D01*
X188525000Y-69765000D01*
X187961000Y-68545000D01*
X187333000Y-67298000D01*
X186654000Y-66053000D01*
X186367000Y-65556000D01*
X185315000Y-63892000D01*
X184126000Y-62252000D01*
X182820000Y-60666000D01*
X181422000Y-59161000D01*
X181291000Y-59029000D01*
X180646000Y-58402000D01*
X180014000Y-57825000D01*
X179358000Y-57268000D01*
X178643000Y-56702000D01*
X177832000Y-56096000D01*
X177600000Y-55927000D01*
X176334000Y-55053000D01*
X175007000Y-54218000D01*
X173649000Y-53436000D01*
X172287000Y-52723000D01*
X170951000Y-52093000D01*
X169667000Y-51563000D01*
X168860000Y-51273000D01*
X167328000Y-50800000D01*
X165731000Y-50379000D01*
X164132000Y-50027000D01*
X162595000Y-49758000D01*
X162550000Y-49751000D01*
X161146000Y-49580000D01*
X159644000Y-49465000D01*
X158098000Y-49407000D01*
X156560000Y-49408000D01*
X155084000Y-49471000D01*
X154940000Y-49481000D01*
X152739000Y-49715000D01*
X150532000Y-50105000D01*
X148333000Y-50649000D01*
X147530000Y-50887000D01*
X146049000Y-51384000D01*
X144646000Y-51939000D01*
X143262000Y-52577000D01*
X141960000Y-53257000D01*
X140984000Y-53809000D01*
X140051000Y-54374000D01*
X139087000Y-54999000D01*
X138950000Y-55090000D01*
X137671000Y-55985000D01*
X136471000Y-56906000D01*
X135556000Y-57667000D01*
X133953000Y-59139000D01*
X132479000Y-60693000D01*
X131124000Y-62341000D01*
X129879000Y-64095000D01*
X128736000Y-65966000D01*
X128214000Y-66920000D01*
X127524000Y-68282000D01*
X126897000Y-69621000D01*
X126344000Y-70911000D01*
X125876000Y-72130000D01*
X125514000Y-73220000D01*
X125133000Y-74591000D01*
X124818000Y-75987000D01*
X124561000Y-77450000D01*
X124353000Y-79022000D01*
X124327000Y-79260000D01*
X124302000Y-79609000D01*
X124291000Y-80088000D01*
X124290000Y-80182000D01*
X124287000Y-80795000D01*
X124206000Y-80952000D01*
X124042000Y-81382000D01*
X123976000Y-81680000D01*
X123951000Y-81854000D01*
X123938000Y-82053000D01*
X123934000Y-82342000D01*
X123934000Y-82370000D01*
X123938000Y-82665000D01*
X123949000Y-82924000D01*
X123958000Y-83037000D01*
X123973000Y-83194000D01*
X123974000Y-83252000D01*
X123947000Y-83190000D01*
X123888000Y-83025000D01*
X123864000Y-82955000D01*
X123573000Y-81833000D01*
X123434000Y-80680000D01*
X123447000Y-79484000D01*
X123449000Y-79448000D01*
X123536000Y-78568000D01*
X123667000Y-77590000D01*
X123834000Y-76565000D01*
X124030000Y-75545000D01*
X124132000Y-75070000D01*
X124478000Y-73692000D01*
X124906000Y-72307000D01*
X125424000Y-70891000D01*
X126040000Y-69421000D01*
X126765000Y-67873000D01*
X126960000Y-67478000D01*
X127917000Y-65670000D01*
X128918000Y-63997000D01*
X129978000Y-62437000D01*
X131112000Y-60968000D01*
X132338000Y-59566000D01*
X133029000Y-58843000D01*
X134315000Y-57611000D01*
X135707000Y-56413000D01*
X137150000Y-55294000D01*
X137805000Y-54826000D01*
X139522000Y-53689000D01*
X141225000Y-52676000D01*
X142901000Y-51792000D01*
X144537000Y-51044000D01*
X145650000Y-50606000D01*
X147731000Y-49921000D01*
X149869000Y-49365000D01*
X152029000Y-48946000D01*
X154080000Y-48681000D01*
X155742000Y-48567000D01*
X157487000Y-48532000D01*
X159263000Y-48577000D01*
G37*
G36*
X175129000Y-91783000D02*
G01*
X175133000Y-91864000D01*
X175133000Y-92075000D01*
X175130000Y-92386000D01*
X175124000Y-92768000D01*
X175117000Y-93191000D01*
X175108000Y-93624000D01*
X175098000Y-94038000D01*
X175088000Y-94403000D01*
X175079000Y-94690000D01*
X175071000Y-94850000D01*
X174967000Y-96203000D01*
X174834000Y-97414000D01*
X174778000Y-97820000D01*
X174735000Y-98102000D01*
X174678000Y-98468000D01*
X174615000Y-98867000D01*
X174553000Y-99250000D01*
X174501000Y-99567000D01*
X174471000Y-99743000D01*
X174475000Y-99782000D01*
X174534000Y-99818000D01*
X174692000Y-99878000D01*
X174726000Y-99891000D01*
X175529000Y-100188000D01*
X176232000Y-100463000D01*
X176819000Y-100709000D01*
X177275000Y-100920000D01*
X177420000Y-100995000D01*
X177941000Y-101312000D01*
X178511000Y-101724000D01*
X179085000Y-102196000D01*
X179190000Y-102288000D01*
X179846000Y-102890000D01*
X180392000Y-103423000D01*
X180849000Y-103911000D01*
X181237000Y-104379000D01*
X181576000Y-104853000D01*
X181885000Y-105356000D01*
X182186000Y-105915000D01*
X182289000Y-106120000D01*
X182797000Y-107270000D01*
X183252000Y-108545000D01*
X183645000Y-109919000D01*
X183968000Y-111362000D01*
X184170000Y-112547000D01*
X184468000Y-115046000D01*
X184636000Y-117614000D01*
X184673000Y-120224000D01*
X184609000Y-122310000D01*
X184560000Y-123154000D01*
X184498000Y-124029000D01*
X184426000Y-124908000D01*
X184346000Y-125763000D01*
X184261000Y-126568000D01*
X184174000Y-127296000D01*
X184088000Y-127920000D01*
X184004000Y-128414000D01*
X183997000Y-128450000D01*
X183825000Y-129034000D01*
X183563000Y-129486000D01*
X183210000Y-129811000D01*
X183098000Y-129878000D01*
X182887000Y-129979000D01*
X182671000Y-130041000D01*
X182574000Y-130062000D01*
X182065000Y-130095000D01*
X181620000Y-129985000D01*
X181570000Y-129961000D01*
X181296000Y-129785000D01*
X181131000Y-129621000D01*
X180997000Y-129451000D01*
X180870000Y-129245000D01*
X180733000Y-128968000D01*
X180570000Y-128589000D01*
X180474000Y-128350000D01*
X180033000Y-127317000D01*
X179537000Y-126267000D01*
X179023000Y-125283000D01*
X178950000Y-125150000D01*
X178356000Y-124118000D01*
X177798000Y-123210000D01*
X177281000Y-122433000D01*
X176812000Y-121797000D01*
X176702000Y-121660000D01*
X175929000Y-120793000D01*
X175064000Y-119956000D01*
X174467000Y-119447000D01*
X174032000Y-119105000D01*
X173622000Y-118806000D01*
X173192000Y-118521000D01*
X172697000Y-118220000D01*
X172240000Y-117956000D01*
X171868000Y-117747000D01*
X171465000Y-117525000D01*
X171055000Y-117302000D01*
X170661000Y-117092000D01*
X170308000Y-116907000D01*
X170021000Y-116760000D01*
X169824000Y-116665000D01*
X169741000Y-116633000D01*
X169740000Y-116633000D01*
X169709000Y-116712000D01*
X169646000Y-116897000D01*
X169592000Y-117061000D01*
X169446000Y-117500000D01*
X169297000Y-117907000D01*
X169115000Y-118355000D01*
X169029000Y-118560000D01*
X168762000Y-119157000D01*
X168510000Y-119664000D01*
X168287000Y-120053000D01*
X168257000Y-120099000D01*
X167900000Y-120539000D01*
X167468000Y-120917000D01*
X167012000Y-121191000D01*
X166900000Y-121239000D01*
X166592000Y-121345000D01*
X166292000Y-121415000D01*
X165944000Y-121458000D01*
X165515000Y-121485000D01*
X165252000Y-121498000D01*
X165066000Y-121511000D01*
X165000000Y-121520000D01*
X165026000Y-121595000D01*
X165095000Y-121789000D01*
X165196000Y-122067000D01*
X165278000Y-122291000D01*
X165477000Y-122835000D01*
X165677000Y-123382000D01*
X165870000Y-123909000D01*
X166046000Y-124390000D01*
X166195000Y-124798000D01*
X166309000Y-125110000D01*
X166378000Y-125299000D01*
X166381000Y-125307000D01*
X166440000Y-125478000D01*
X166456000Y-125571000D01*
X166444000Y-125655000D01*
X166325000Y-125880000D01*
X166234000Y-125947000D01*
X166185000Y-125971000D01*
X166117000Y-125987000D01*
X165992000Y-125996000D01*
X165774000Y-126002000D01*
X165523000Y-126006000D01*
X165228000Y-126013000D01*
X165005000Y-126019000D01*
X164894000Y-126025000D01*
X164888000Y-126026000D01*
X164894000Y-126102000D01*
X164919000Y-126286000D01*
X164939000Y-126412000D01*
X165041000Y-127116000D01*
X165110000Y-127722000D01*
X165150000Y-128288000D01*
X165167000Y-128870000D01*
X165168000Y-129100000D01*
X165162000Y-129631000D01*
X165140000Y-130057000D01*
X165095000Y-130431000D01*
X165023000Y-130809000D01*
X164956000Y-131090000D01*
X164711000Y-131942000D01*
X164383000Y-132892000D01*
X163984000Y-133912000D01*
X163530000Y-134973000D01*
X163032000Y-136046000D01*
X162505000Y-137103000D01*
X161964000Y-138114000D01*
X161420000Y-139052000D01*
X160889000Y-139888000D01*
X160463000Y-140489000D01*
X160018000Y-141035000D01*
X159588000Y-141481000D01*
X159194000Y-141803000D01*
X159177000Y-141815000D01*
X158788000Y-142029000D01*
X158418000Y-142123000D01*
X158324000Y-142130000D01*
X158154000Y-142132000D01*
X158080000Y-142128000D01*
X157650000Y-141992000D01*
X157234000Y-141746000D01*
X156804000Y-141373000D01*
X156684000Y-141251000D01*
X156184000Y-140667000D01*
X155652000Y-139934000D01*
X155094000Y-139060000D01*
X154515000Y-138051000D01*
X154203000Y-137469000D01*
X153744000Y-136558000D01*
X153305000Y-135626000D01*
X152895000Y-134692000D01*
X152522000Y-133780000D01*
X152194000Y-132910000D01*
X151921000Y-132104000D01*
X151709000Y-131383000D01*
X151568000Y-130769000D01*
X151532000Y-130548000D01*
X151474000Y-129782000D01*
X152745000Y-129782000D01*
X152771000Y-130188000D01*
X152832000Y-130591000D01*
X152937000Y-131038000D01*
X153092000Y-131581000D01*
X153103000Y-131617000D01*
X153385000Y-132463000D01*
X153743000Y-133404000D01*
X154160000Y-134403000D01*
X154620000Y-135422000D01*
X155106000Y-136426000D01*
X155602000Y-137378000D01*
X156091000Y-138242000D01*
X156180000Y-138390000D01*
X156647000Y-139125000D01*
X157088000Y-139748000D01*
X157493000Y-140247000D01*
X157853000Y-140609000D01*
X157857000Y-140612000D01*
X158056000Y-140763000D01*
X158220000Y-140850000D01*
X158262000Y-140859000D01*
X158347000Y-140821000D01*
X158442000Y-140763000D01*
X158791000Y-140476000D01*
X159186000Y-140043000D01*
X159622000Y-139472000D01*
X160095000Y-138767000D01*
X160546000Y-138026000D01*
X161049000Y-137133000D01*
X161542000Y-136188000D01*
X162014000Y-135217000D01*
X162457000Y-134244000D01*
X162858000Y-133294000D01*
X163208000Y-132390000D01*
X163495000Y-131558000D01*
X163710000Y-130821000D01*
X163791000Y-130480000D01*
X163862000Y-129984000D01*
X163896000Y-129373000D01*
X163891000Y-128685000D01*
X163848000Y-127961000D01*
X163828000Y-127750000D01*
X163799000Y-127493000D01*
X163758000Y-127176000D01*
X163710000Y-126837000D01*
X163663000Y-126515000D01*
X163620000Y-126248000D01*
X163589000Y-126075000D01*
X163576000Y-126029000D01*
X163498000Y-126028000D01*
X163290000Y-126028000D01*
X162980000Y-126030000D01*
X162598000Y-126033000D01*
X162173000Y-126037000D01*
X161735000Y-126042000D01*
X161313000Y-126048000D01*
X160936000Y-126053000D01*
X160633000Y-126058000D01*
X160435000Y-126062000D01*
X160369000Y-126065000D01*
X160357000Y-126142000D01*
X160332000Y-126345000D01*
X160298000Y-126640000D01*
X160270000Y-126891000D01*
X160180000Y-127689000D01*
X160103000Y-128331000D01*
X160040000Y-128824000D01*
X159989000Y-129172000D01*
X159949000Y-129380000D01*
X159947000Y-129390000D01*
X159751000Y-129849000D01*
X159530000Y-130137000D01*
X159162000Y-130441000D01*
X158739000Y-130617000D01*
X158719000Y-130623000D01*
X158307000Y-130648000D01*
X157889000Y-130531000D01*
X157499000Y-130286000D01*
X157295000Y-130084000D01*
X157127000Y-129834000D01*
X156980000Y-129526000D01*
X156921000Y-129347000D01*
X156881000Y-129167000D01*
X156838000Y-128920000D01*
X156787000Y-128587000D01*
X156726000Y-128151000D01*
X156652000Y-127593000D01*
X156564000Y-126894000D01*
X156560000Y-126861000D01*
X156517000Y-126523000D01*
X156481000Y-126253000D01*
X156457000Y-126083000D01*
X156450000Y-126043000D01*
X156371000Y-126042000D01*
X156157000Y-126045000D01*
X155833000Y-126050000D01*
X155422000Y-126057000D01*
X154950000Y-126067000D01*
X154906000Y-126068000D01*
X154422000Y-126078000D01*
X153991000Y-126087000D01*
X153640000Y-126094000D01*
X153393000Y-126099000D01*
X153279000Y-126100000D01*
X153277000Y-126100000D01*
X153185000Y-126100000D01*
X153092000Y-126575000D01*
X152950000Y-127352000D01*
X152849000Y-128017000D01*
X152784000Y-128613000D01*
X152751000Y-129182000D01*
X152746000Y-129320000D01*
X152745000Y-129782000D01*
X151474000Y-129782000D01*
X151469000Y-129705000D01*
X151496000Y-128736000D01*
X151615000Y-127639000D01*
X151682000Y-127200000D01*
X151727000Y-126933000D01*
X151779000Y-126645000D01*
X151827000Y-126388000D01*
X151863000Y-126214000D01*
X151872000Y-126175000D01*
X151866000Y-126157000D01*
X151813000Y-126147000D01*
X151679000Y-126142000D01*
X151431000Y-126140000D01*
X151290000Y-126140000D01*
X150968000Y-126139000D01*
X150767000Y-126131000D01*
X150650000Y-126110000D01*
X150578000Y-126068000D01*
X150514000Y-125999000D01*
X150513000Y-125998000D01*
X150421000Y-125812000D01*
X150415000Y-125784000D01*
X150415000Y-125747000D01*
X150423000Y-125688000D01*
X150444000Y-125592000D01*
X150481000Y-125446000D01*
X150531000Y-125259000D01*
X150531292Y-125258000D01*
X151420000Y-125258000D01*
X151420000Y-125259000D01*
X151454000Y-125272000D01*
X151575000Y-125277000D01*
X151814000Y-125275000D01*
X151975000Y-125271000D01*
X152247000Y-125265000D01*
X152637000Y-125257000D01*
X153104000Y-125247000D01*
X153606000Y-125236000D01*
X153910000Y-125230000D01*
X154412000Y-125219000D01*
X154903000Y-125209000D01*
X155342000Y-125199000D01*
X155688000Y-125191000D01*
X155835000Y-125188000D01*
X156380000Y-125175000D01*
X156380000Y-125119000D01*
X156373000Y-125016000D01*
X156353000Y-124803000D01*
X156330000Y-124567000D01*
X156304000Y-124299000D01*
X156269000Y-123918000D01*
X156229000Y-123473000D01*
X156188000Y-123010000D01*
X156181000Y-122930000D01*
X156144000Y-122510000D01*
X156111000Y-122140000D01*
X156086000Y-121852000D01*
X156071000Y-121680000D01*
X156068000Y-121654000D01*
X156056000Y-121518000D01*
X155953000Y-121528000D01*
X155845000Y-121533000D01*
X155602000Y-121538000D01*
X155251000Y-121545000D01*
X154815000Y-121553000D01*
X154321000Y-121561000D01*
X154175000Y-121563000D01*
X153676000Y-121571000D01*
X153235000Y-121578000D01*
X152874000Y-121586000D01*
X152619000Y-121592000D01*
X152493000Y-121597000D01*
X152484000Y-121599000D01*
X152455000Y-121675000D01*
X152398000Y-121859000D01*
X152351000Y-122020000D01*
X152279000Y-122274000D01*
X152177000Y-122627000D01*
X152062000Y-123023000D01*
X151989000Y-123270000D01*
X151790000Y-123955000D01*
X151632000Y-124499000D01*
X151517000Y-124899000D01*
X151446000Y-125154000D01*
X151420000Y-125258000D01*
X150531292Y-125258000D01*
X150538000Y-125235000D01*
X150619000Y-124945000D01*
X150728000Y-124563000D01*
X150868000Y-124073000D01*
X151044000Y-123461000D01*
X151260000Y-122715000D01*
X151328000Y-122477000D01*
X151428000Y-122129000D01*
X151509000Y-121842000D01*
X151563000Y-121650000D01*
X151580000Y-121582000D01*
X151506000Y-121562000D01*
X151445000Y-121560000D01*
X151243000Y-121550000D01*
X150957000Y-121526000D01*
X150658000Y-121493000D01*
X150470000Y-121468000D01*
X149827000Y-121298000D01*
X149211000Y-121003000D01*
X148757000Y-120676000D01*
X148464000Y-120358000D01*
X148142000Y-119896000D01*
X147798000Y-119300000D01*
X147440000Y-118583000D01*
X147072000Y-117756000D01*
X146751000Y-116960000D01*
X146670000Y-116753000D01*
X146619000Y-116624000D01*
X146610000Y-116604000D01*
X146541000Y-116638000D01*
X146358000Y-116742000D01*
X146084000Y-116902000D01*
X145741000Y-117104000D01*
X145353000Y-117335000D01*
X144941000Y-117582000D01*
X144570000Y-117806000D01*
X143737000Y-118321000D01*
X143033000Y-118776000D01*
X142462000Y-119167000D01*
X142111000Y-119427000D01*
X140910000Y-120455000D01*
X139767000Y-121631000D01*
X139311000Y-122160000D01*
X138771000Y-122845000D01*
X138216000Y-123624000D01*
X137636000Y-124512000D01*
X137019000Y-125528000D01*
X136744000Y-126000000D01*
X136531000Y-126380000D01*
X136335000Y-126760000D01*
X136134000Y-127181000D01*
X135907000Y-127688000D01*
X135780000Y-127978000D01*
X135499000Y-128622000D01*
X135263000Y-129133000D01*
X135062000Y-129532000D01*
X134886000Y-129834000D01*
X134722000Y-130059000D01*
X134561000Y-130224000D01*
X134390000Y-130348000D01*
X134296000Y-130401000D01*
X133920000Y-130541000D01*
X133483000Y-130587000D01*
X133470000Y-130587000D01*
X133187000Y-130575000D01*
X132957000Y-130525000D01*
X132820000Y-130476000D01*
X132495000Y-130293000D01*
X132232000Y-130008000D01*
X132021000Y-129603000D01*
X131848000Y-129061000D01*
X131832000Y-128995000D01*
X131777000Y-128761000D01*
X131730000Y-128530000D01*
X131684000Y-128259000D01*
X131630000Y-127906000D01*
X131580000Y-127550000D01*
X131524000Y-127152000D01*
X131466000Y-126745000D01*
X131418000Y-126404000D01*
X131409000Y-126343000D01*
X131281000Y-125396000D01*
X131180000Y-124548000D01*
X131109000Y-123821000D01*
X131081000Y-123460000D01*
X131043000Y-122726000D01*
X131014000Y-121892000D01*
X130996000Y-121017000D01*
X130991000Y-120286000D01*
X131854000Y-120286000D01*
X131864000Y-121323000D01*
X131892000Y-122362000D01*
X131920000Y-123040000D01*
X131942000Y-123424000D01*
X131971000Y-123811000D01*
X132010000Y-124225000D01*
X132062000Y-124690000D01*
X132129000Y-125231000D01*
X132214000Y-125872000D01*
X132320000Y-126636000D01*
X132370000Y-126990000D01*
X132466000Y-127651000D01*
X132548000Y-128174000D01*
X132622000Y-128581000D01*
X132691000Y-128893000D01*
X132759000Y-129132000D01*
X132832000Y-129319000D01*
X132873000Y-129402000D01*
X133006000Y-129595000D01*
X133178000Y-129690000D01*
X133442000Y-129715000D01*
X133500000Y-129714000D01*
X133696000Y-129704000D01*
X133812000Y-129679000D01*
X133856000Y-129661000D01*
X133954000Y-129605000D01*
X134050000Y-129517000D01*
X134155000Y-129380000D01*
X134275000Y-129179000D01*
X134420000Y-128897000D01*
X134598000Y-128519000D01*
X134819000Y-128027000D01*
X135091000Y-127407000D01*
X135146000Y-127280000D01*
X135332000Y-126860000D01*
X135498000Y-126502000D01*
X135666000Y-126168000D01*
X135854000Y-125820000D01*
X136084000Y-125420000D01*
X136374000Y-124929000D01*
X136440000Y-124820000D01*
X136972000Y-123953000D01*
X137460000Y-123201000D01*
X137927000Y-122533000D01*
X138393000Y-121919000D01*
X138883000Y-121329000D01*
X139155000Y-121019000D01*
X139883000Y-120251000D01*
X140653000Y-119521000D01*
X141425000Y-118868000D01*
X142019000Y-118422000D01*
X142495000Y-118100000D01*
X143090000Y-117715000D01*
X143785000Y-117280000D01*
X144557000Y-116808000D01*
X144560000Y-116806000D01*
X144805000Y-116659000D01*
X145111000Y-116478000D01*
X145439000Y-116284000D01*
X145754000Y-116098000D01*
X146019000Y-115944000D01*
X146197000Y-115841000D01*
X146233000Y-115820000D01*
X146316000Y-115775000D01*
X146086000Y-115102000D01*
X145948000Y-114698000D01*
X145777000Y-114192000D01*
X145583000Y-113615000D01*
X145376000Y-112999000D01*
X145167000Y-112373000D01*
X144965000Y-111769000D01*
X144782000Y-111217000D01*
X144627000Y-110749000D01*
X144511000Y-110396000D01*
X144493000Y-110340000D01*
X144218000Y-109486000D01*
X143967000Y-108692000D01*
X143733000Y-107935000D01*
X143511000Y-107194000D01*
X143292000Y-106446000D01*
X143072000Y-105668000D01*
X142844000Y-104837000D01*
X142600000Y-103930000D01*
X142335000Y-102926000D01*
X142043000Y-101801000D01*
X141869000Y-101126000D01*
X141755000Y-100683000D01*
X141652000Y-100723000D01*
X141483000Y-100789000D01*
X141430000Y-100809000D01*
X141232000Y-100889000D01*
X140949000Y-101006000D01*
X140642000Y-101136000D01*
X140373000Y-101252000D01*
X140310000Y-101280000D01*
X139405000Y-101710000D01*
X138596000Y-102146000D01*
X137908000Y-102575000D01*
X137610000Y-102787000D01*
X137019000Y-103296000D01*
X136410000Y-103940000D01*
X135799000Y-104700000D01*
X135199000Y-105554000D01*
X134626000Y-106481000D01*
X134093000Y-107460000D01*
X133616000Y-108471000D01*
X133559000Y-108603000D01*
X133284000Y-109296000D01*
X133045000Y-110005000D01*
X132837000Y-110753000D01*
X132655000Y-111565000D01*
X132493000Y-112464000D01*
X132347000Y-113472000D01*
X132212000Y-114614000D01*
X132192000Y-114800000D01*
X132150000Y-115202000D01*
X132104000Y-115676000D01*
X132055000Y-116179000D01*
X132010000Y-116671000D01*
X131970000Y-117109000D01*
X131941000Y-117451000D01*
X131931000Y-117580000D01*
X131888000Y-118375000D01*
X131862000Y-119290000D01*
X131854000Y-120286000D01*
X130991000Y-120286000D01*
X130990000Y-120161000D01*
X130997000Y-119383000D01*
X130999000Y-119260000D01*
X131012000Y-118787000D01*
X131026000Y-118369000D01*
X131044000Y-117978000D01*
X131068000Y-117583000D01*
X131100000Y-117156000D01*
X131143000Y-116667000D01*
X131198000Y-116086000D01*
X131268000Y-115384000D01*
X131291000Y-115150000D01*
X131426000Y-113919000D01*
X131569000Y-112825000D01*
X131726000Y-111848000D01*
X131902000Y-110964000D01*
X132103000Y-110153000D01*
X132335000Y-109391000D01*
X132603000Y-108658000D01*
X132911000Y-107930000D01*
X133258000Y-107205000D01*
X133941000Y-105943000D01*
X134673000Y-104788000D01*
X135442000Y-103756000D01*
X136236000Y-102866000D01*
X136290000Y-102811000D01*
X136768000Y-102369000D01*
X137286000Y-101965000D01*
X137884000Y-101570000D01*
X138550000Y-101186000D01*
X139121000Y-100889000D01*
X139788000Y-100573000D01*
X140493000Y-100262000D01*
X141179000Y-99984000D01*
X141240000Y-99960000D01*
X141439000Y-99884000D01*
X141559000Y-99837000D01*
X141574000Y-99832000D01*
X141566000Y-99761000D01*
X141541000Y-99592000D01*
X141539000Y-99580000D01*
X141489000Y-99238000D01*
X141427000Y-98789000D01*
X141357000Y-98282000D01*
X141289000Y-97768000D01*
X141230000Y-97314000D01*
X141150000Y-96663000D01*
X141088000Y-96109000D01*
X141041000Y-95611000D01*
X141006000Y-95130000D01*
X140982000Y-94625000D01*
X140965000Y-94058000D01*
X140952000Y-93388000D01*
X140947000Y-93048000D01*
X140934000Y-91966000D01*
X141082000Y-91951000D01*
X141265000Y-91925000D01*
X141332000Y-91910000D01*
X141497000Y-91884000D01*
X141592000Y-91877000D01*
X141750000Y-91871000D01*
X141763000Y-92550000D01*
X141769000Y-92847000D01*
X141776000Y-93122000D01*
X141786000Y-93411000D01*
X141800000Y-93753000D01*
X141819000Y-94185000D01*
X141841000Y-94650000D01*
X141865000Y-95085000D01*
X141899000Y-95533000D01*
X141945000Y-96019000D01*
X142005000Y-96568000D01*
X142084000Y-97206000D01*
X142182000Y-97959000D01*
X142271000Y-98610000D01*
X142328000Y-99021000D01*
X142374000Y-99350000D01*
X142416000Y-99625000D01*
X142460000Y-99876000D01*
X142512000Y-100129000D01*
X142578000Y-100414000D01*
X142663000Y-100758000D01*
X142773000Y-101189000D01*
X142915000Y-101736000D01*
X142981000Y-101990000D01*
X143305000Y-103231000D01*
X143606000Y-104356000D01*
X143892000Y-105397000D01*
X144173000Y-106387000D01*
X144460000Y-107357000D01*
X144760000Y-108341000D01*
X145085000Y-109371000D01*
X145444000Y-110479000D01*
X145846000Y-111698000D01*
X145939000Y-111980000D01*
X146293000Y-113040000D01*
X146604000Y-113962000D01*
X146876000Y-114761000D01*
X147116000Y-115451000D01*
X147328000Y-116045000D01*
X147519000Y-116560000D01*
X147692000Y-117009000D01*
X147854000Y-117406000D01*
X148011000Y-117766000D01*
X148166000Y-118104000D01*
X148326000Y-118434000D01*
X148349000Y-118480000D01*
X148628000Y-119020000D01*
X148865000Y-119436000D01*
X149080000Y-119751000D01*
X149291000Y-119990000D01*
X149517000Y-120176000D01*
X149777000Y-120333000D01*
X149834000Y-120362000D01*
X150382000Y-120565000D01*
X150600000Y-120610000D01*
X151014000Y-120661000D01*
X151525000Y-120698000D01*
X152071000Y-120717000D01*
X152310000Y-120720000D01*
X152499000Y-120718000D01*
X152807000Y-120715000D01*
X153205000Y-120709000D01*
X153661000Y-120702000D01*
X154147000Y-120695000D01*
X154632000Y-120687000D01*
X155086000Y-120679000D01*
X155478000Y-120672000D01*
X155778000Y-120666000D01*
X155957000Y-120661000D01*
X155980000Y-120660000D01*
X155978000Y-120585000D01*
X155965000Y-120374000D01*
X155942000Y-120054000D01*
X155912000Y-119649000D01*
X155878000Y-119193000D01*
X155790000Y-118033000D01*
X155716000Y-117007000D01*
X155655000Y-116090000D01*
X155605000Y-115258000D01*
X155565000Y-114485000D01*
X155533000Y-113747000D01*
X155519000Y-113380000D01*
X155504000Y-112793000D01*
X155493000Y-112105000D01*
X155487000Y-111355000D01*
X155486000Y-110577000D01*
X155486000Y-110572000D01*
X156343000Y-110572000D01*
X156347000Y-111429000D01*
X156357000Y-112295000D01*
X156374000Y-113130000D01*
X156397000Y-113898000D01*
X156426000Y-114560000D01*
X156440000Y-114810000D01*
X156455000Y-115044000D01*
X156475000Y-115374000D01*
X156497000Y-115736000D01*
X156501000Y-115810000D01*
X156555000Y-116669000D01*
X156624000Y-117659000D01*
X156706000Y-118754000D01*
X156797000Y-119924000D01*
X156896000Y-121143000D01*
X157001000Y-122383000D01*
X157109000Y-123616000D01*
X157151000Y-124080000D01*
X157197000Y-124584000D01*
X157238000Y-125039000D01*
X157272000Y-125420000D01*
X157297000Y-125699000D01*
X157310000Y-125852000D01*
X157311000Y-125866000D01*
X157327000Y-126030000D01*
X157360000Y-126317000D01*
X157406000Y-126692000D01*
X157461000Y-127122000D01*
X157519000Y-127570000D01*
X157576000Y-128002000D01*
X157629000Y-128383000D01*
X157671000Y-128678000D01*
X157671000Y-128679000D01*
X157726000Y-129004000D01*
X157781000Y-129221000D01*
X157852000Y-129381000D01*
X157935000Y-129505000D01*
X158134000Y-129689000D01*
X158372000Y-129786000D01*
X158480000Y-129790000D01*
X158633000Y-129747000D01*
X158672000Y-129730000D01*
X158908000Y-129542000D01*
X159079000Y-129274000D01*
X159120000Y-129148000D01*
X159146000Y-128986000D01*
X159185000Y-128698000D01*
X159233000Y-128316000D01*
X159287000Y-127873000D01*
X159343000Y-127401000D01*
X159396000Y-126934000D01*
X159443000Y-126504000D01*
X159480000Y-126144000D01*
X159504000Y-125887000D01*
X159509000Y-125820000D01*
X159521000Y-125653000D01*
X159543000Y-125378000D01*
X159558000Y-125206000D01*
X160417000Y-125206000D01*
X160973000Y-125193000D01*
X161214000Y-125189000D01*
X161584000Y-125184000D01*
X162052000Y-125179000D01*
X162588000Y-125174000D01*
X163159000Y-125169000D01*
X163467000Y-125167000D01*
X165404000Y-125154000D01*
X165392000Y-125102000D01*
X165363000Y-125015000D01*
X165285000Y-124800000D01*
X165169000Y-124477000D01*
X165020000Y-124070000D01*
X164848000Y-123598000D01*
X164735000Y-123290000D01*
X164090000Y-121530000D01*
X162406000Y-121525000D01*
X160722000Y-121520000D01*
X160712000Y-121585000D01*
X160703000Y-121689000D01*
X160685000Y-121913000D01*
X160662000Y-122217000D01*
X160650000Y-122380000D01*
X160624000Y-122732000D01*
X160593000Y-123146000D01*
X160558000Y-123589000D01*
X160522000Y-124030000D01*
X160489000Y-124436000D01*
X160461000Y-124775000D01*
X160439000Y-125015000D01*
X160429000Y-125118000D01*
X160417000Y-125206000D01*
X159558000Y-125206000D01*
X159571000Y-125049000D01*
X159579000Y-124960000D01*
X159647000Y-124171000D01*
X159713000Y-123365000D01*
X159774000Y-122581000D01*
X159827000Y-121857000D01*
X159869000Y-121231000D01*
X159889000Y-120910000D01*
X159944000Y-119928000D01*
X159990000Y-119037000D01*
X160029000Y-118202000D01*
X160062000Y-117390000D01*
X160090000Y-116567000D01*
X160114000Y-115698000D01*
X160135000Y-114751000D01*
X160154000Y-113691000D01*
X160162000Y-113233000D01*
X160169000Y-112675000D01*
X160174000Y-112057000D01*
X160176000Y-111407000D01*
X160175000Y-110753000D01*
X160172000Y-110123000D01*
X160167000Y-109545000D01*
X160160000Y-109046000D01*
X160151000Y-108656000D01*
X160142000Y-108430000D01*
X160126000Y-108131000D01*
X160108000Y-107780000D01*
X160100000Y-107620000D01*
X160044000Y-106624000D01*
X159976000Y-105706000D01*
X159898000Y-104885000D01*
X159811000Y-104183000D01*
X159718000Y-103618000D01*
X159708000Y-103571000D01*
X159566000Y-103016000D01*
X159371000Y-102467000D01*
X159142000Y-101964000D01*
X158896000Y-101546000D01*
X158689000Y-101290000D01*
X158416000Y-101124000D01*
X158075000Y-101083000D01*
X157915000Y-101108000D01*
X157654000Y-101203000D01*
X157465000Y-101370000D01*
X157300000Y-101649000D01*
X157101000Y-102145000D01*
X156927000Y-102764000D01*
X156776000Y-103511000D01*
X156648000Y-104392000D01*
X156543000Y-105411000D01*
X156459000Y-106575000D01*
X156396000Y-107888000D01*
X156360000Y-109030000D01*
X156348000Y-109759000D01*
X156343000Y-110572000D01*
X155486000Y-110572000D01*
X155489000Y-109810000D01*
X155498000Y-109091000D01*
X155511000Y-108455000D01*
X155529000Y-107941000D01*
X155530000Y-107920000D01*
X155540000Y-107702000D01*
X155550000Y-107460000D01*
X155595000Y-106597000D01*
X155657000Y-105722000D01*
X155732000Y-104882000D01*
X155816000Y-104128000D01*
X155861000Y-103790000D01*
X156003000Y-102966000D01*
X156178000Y-102230000D01*
X156379000Y-101603000D01*
X156601000Y-101108000D01*
X156670000Y-100988000D01*
X156995000Y-100613000D01*
X157425000Y-100356000D01*
X157760000Y-100255000D01*
X157950000Y-100227000D01*
X158168000Y-100225000D01*
X158210000Y-100226000D01*
X158666000Y-100292000D01*
X159037000Y-100463000D01*
X159310000Y-100693000D01*
X159624000Y-101086000D01*
X159928000Y-101605000D01*
X160204000Y-102218000D01*
X160317000Y-102523000D01*
X160435000Y-102908000D01*
X160539000Y-103342000D01*
X160632000Y-103841000D01*
X160714000Y-104419000D01*
X160788000Y-105092000D01*
X160855000Y-105876000D01*
X160918000Y-106785000D01*
X160978000Y-107836000D01*
X160992000Y-108110000D01*
X161011000Y-108613000D01*
X161024000Y-109252000D01*
X161033000Y-110004000D01*
X161036000Y-110847000D01*
X161034000Y-111756000D01*
X161027000Y-112708000D01*
X161016000Y-113681000D01*
X161000000Y-114650000D01*
X160980000Y-115593000D01*
X160955000Y-116486000D01*
X160940000Y-116950000D01*
X160922000Y-117410000D01*
X160900000Y-117942000D01*
X160876000Y-118510000D01*
X160850000Y-119079000D01*
X160824000Y-119612000D01*
X160801000Y-120075000D01*
X160781000Y-120431000D01*
X160774000Y-120555000D01*
X160767000Y-120660000D01*
X162671000Y-120660000D01*
X163506000Y-120659000D01*
X164198000Y-120655000D01*
X164763000Y-120648000D01*
X165216000Y-120637000D01*
X165575000Y-120621000D01*
X165855000Y-120600000D01*
X166073000Y-120574000D01*
X166245000Y-120542000D01*
X166296000Y-120529000D01*
X166805000Y-120316000D01*
X167255000Y-119968000D01*
X167556000Y-119600000D01*
X167721000Y-119317000D01*
X167921000Y-118922000D01*
X168136000Y-118456000D01*
X168350000Y-117957000D01*
X168544000Y-117467000D01*
X168655000Y-117160000D01*
X168741000Y-116904000D01*
X168833000Y-116615000D01*
X168916000Y-116346000D01*
X168974000Y-116146000D01*
X168990000Y-116080000D01*
X169018000Y-115986000D01*
X169088000Y-115764000D01*
X169091000Y-115756000D01*
X170000000Y-115756000D01*
X170064000Y-115803000D01*
X170223000Y-115891000D01*
X170279000Y-115919000D01*
X170798000Y-116186000D01*
X171397000Y-116505000D01*
X172024000Y-116847000D01*
X172626000Y-117183000D01*
X173150000Y-117485000D01*
X173270000Y-117556000D01*
X174488000Y-118368000D01*
X175647000Y-119319000D01*
X176757000Y-120416000D01*
X176979000Y-120660000D01*
X177424000Y-121183000D01*
X177863000Y-121761000D01*
X178314000Y-122416000D01*
X178795000Y-123175000D01*
X179233000Y-123910000D01*
X179837000Y-124980000D01*
X180361000Y-125987000D01*
X180832000Y-126988000D01*
X181277000Y-128038000D01*
X181293000Y-128080000D01*
X181458000Y-128477000D01*
X181587000Y-128755000D01*
X181694000Y-128942000D01*
X181797000Y-129071000D01*
X181803000Y-129078000D01*
X181993000Y-129207000D01*
X182239000Y-129237000D01*
X182400000Y-129219000D01*
X182647000Y-129144000D01*
X182808000Y-129044000D01*
X182993000Y-128780000D01*
X183130000Y-128389000D01*
X183150000Y-128300000D01*
X183188000Y-128089000D01*
X183237000Y-127761000D01*
X183293000Y-127360000D01*
X183349000Y-126929000D01*
X183400000Y-126510000D01*
X183409000Y-126430000D01*
X183661000Y-123716000D01*
X183794000Y-121107000D01*
X183806000Y-118604000D01*
X183699000Y-116205000D01*
X183629000Y-115350000D01*
X183513000Y-114191000D01*
X183388000Y-113159000D01*
X183248000Y-112224000D01*
X183088000Y-111352000D01*
X182901000Y-110512000D01*
X182684000Y-109671000D01*
X182610000Y-109410000D01*
X182216000Y-108172000D01*
X181776000Y-107052000D01*
X181295000Y-106062000D01*
X180779000Y-105213000D01*
X180514000Y-104850000D01*
X180184000Y-104461000D01*
X179760000Y-104012000D01*
X179276000Y-103534000D01*
X178767000Y-103063000D01*
X178268000Y-102631000D01*
X178020000Y-102430000D01*
X177522000Y-102069000D01*
X176993000Y-101756000D01*
X176384000Y-101462000D01*
X176010000Y-101303000D01*
X175704000Y-101180000D01*
X175362000Y-101047000D01*
X175019000Y-100916000D01*
X174708000Y-100800000D01*
X174463000Y-100712000D01*
X174320000Y-100665000D01*
X174298000Y-100660000D01*
X174271000Y-100726000D01*
X174249000Y-100815000D01*
X174205000Y-101010000D01*
X174131000Y-101329000D01*
X174035000Y-101738000D01*
X173925000Y-102205000D01*
X173807000Y-102698000D01*
X173691000Y-103185000D01*
X173584000Y-103633000D01*
X173492000Y-104009000D01*
X173482000Y-104053000D01*
X173256000Y-104964000D01*
X173035000Y-105829000D01*
X172812000Y-106669000D01*
X172582000Y-107506000D01*
X172337000Y-108360000D01*
X172072000Y-109252000D01*
X171781000Y-110204000D01*
X171457000Y-111237000D01*
X171095000Y-112371000D01*
X170688000Y-113628000D01*
X170537000Y-114090000D01*
X170402000Y-114502000D01*
X170277000Y-114885000D01*
X170173000Y-115202000D01*
X170105000Y-115411000D01*
X170098000Y-115432000D01*
X170036000Y-115628000D01*
X170002000Y-115745000D01*
X170000000Y-115756000D01*
X169091000Y-115756000D01*
X169193000Y-115437000D01*
X169325000Y-115030000D01*
X169475000Y-114567000D01*
X169510000Y-114460000D01*
X169952000Y-113103000D01*
X170346000Y-111882000D01*
X170696000Y-110781000D01*
X171007000Y-109785000D01*
X171284000Y-108877000D01*
X171532000Y-108043000D01*
X171754000Y-107267000D01*
X171957000Y-106534000D01*
X172144000Y-105828000D01*
X172218000Y-105540000D01*
X172638000Y-103866000D01*
X173052000Y-102153000D01*
X173351000Y-100880000D01*
X173504000Y-100165000D01*
X173659000Y-99349000D01*
X173805000Y-98494000D01*
X173932000Y-97659000D01*
X174029000Y-96903000D01*
X174049000Y-96730000D01*
X174140000Y-95784000D01*
X174203000Y-94927000D01*
X174241000Y-94090000D01*
X174258000Y-93206000D01*
X174259000Y-92871000D01*
X174261000Y-92496000D01*
X174263000Y-92185000D01*
X174266000Y-91971000D01*
X174269000Y-91885000D01*
X174269000Y-91884000D01*
X174346000Y-91873000D01*
X174527000Y-91855000D01*
X174604000Y-91849000D01*
X174834000Y-91826000D01*
X175002000Y-91803000D01*
X175026000Y-91798000D01*
X175121000Y-91782000D01*
X175129000Y-91783000D01*
G37*
%TD*%
M02*
