%TF.GenerationSoftware,KiCad,Pcbnew,9.0.6*%
%TF.CreationDate,2026-04-07T16:33:38+02:00*%
%TF.ProjectId,mushroom_rocket,6d757368-726f-46f6-9d5f-726f636b6574,rev?*%
%TF.SameCoordinates,Original*%
%TF.FileFunction,Soldermask,Bot*%
%TF.FilePolarity,Negative*%
%FSLAX46Y46*%
G04 Gerber Fmt 4.6, Leading zero omitted, Abs format (unit mm)*
G04 Created by KiCad (PCBNEW 9.0.6) date 2026-04-07 16:33:38*
%MOMM*%
%LPD*%
G01*
G04 APERTURE LIST*
G04 Aperture macros list*
%AMRoundRect*
0 Rectangle with rounded corners*
0 $1 Rounding radius*
0 $2 $3 $4 $5 $6 $7 $8 $9 X,Y pos of 4 corners*
0 Add a 4 corners polygon primitive as box body*
4,1,4,$2,$3,$4,$5,$6,$7,$8,$9,$2,$3,0*
0 Add four circle primitives for the rounded corners*
1,1,$1+$1,$2,$3*
1,1,$1+$1,$4,$5*
1,1,$1+$1,$6,$7*
1,1,$1+$1,$8,$9*
0 Add four rect primitives between the rounded corners*
20,1,$1+$1,$2,$3,$4,$5,0*
20,1,$1+$1,$4,$5,$6,$7,0*
20,1,$1+$1,$6,$7,$8,$9,0*
20,1,$1+$1,$8,$9,$2,$3,0*%
%AMRotRect*
0 Rectangle, with rotation*
0 The origin of the aperture is its center*
0 $1 length*
0 $2 width*
0 $3 Rotation angle, in degrees counterclockwise*
0 Add horizontal line*
21,1,$1,$2,0,0,$3*%
G04 Aperture macros list end*
%ADD10C,0.000000*%
%ADD11C,7.105000*%
%ADD12R,1.524000X4.000000*%
%ADD13R,1.524000X5.000000*%
%ADD14R,5.000000X3.600000*%
%ADD15RotRect,1.524000X4.000000X170.000000*%
%ADD16RotRect,1.524000X5.000000X170.000000*%
%ADD17RoundRect,0.500000X-1.500000X-0.500000X1.500000X-0.500000X1.500000X0.500000X-1.500000X0.500000X0*%
%ADD18RotRect,1.524000X4.000000X190.000000*%
%ADD19RotRect,1.524000X5.000000X190.000000*%
G04 APERTURE END LIST*
D10*
%TO.C,ART1*%
G36*
X134086000Y-68050000D02*
G01*
X134699000Y-68333000D01*
X134819000Y-68410000D01*
X135362000Y-68867000D01*
X135781000Y-69424000D01*
X136071000Y-70071000D01*
X136174000Y-70470000D01*
X136205000Y-70757000D01*
X136211000Y-71116000D01*
X136192000Y-71463000D01*
X136164000Y-71653000D01*
X135965000Y-72271000D01*
X135660000Y-72836000D01*
X135634000Y-72874000D01*
X135402000Y-73153000D01*
X135110000Y-73436000D01*
X134900000Y-73605000D01*
X134299000Y-73935000D01*
X133640000Y-74129000D01*
X132958000Y-74175000D01*
X132830000Y-74166000D01*
X132369000Y-74081000D01*
X131895000Y-73922000D01*
X131731000Y-73847000D01*
X131153000Y-73472000D01*
X130680000Y-72990000D01*
X130324000Y-72423000D01*
X130094000Y-71793000D01*
X130003000Y-71122000D01*
X130060000Y-70433000D01*
X130264000Y-69766000D01*
X130607000Y-69175000D01*
X130993000Y-68740000D01*
X131532000Y-68329000D01*
X132136000Y-68052000D01*
X132780000Y-67912000D01*
X133438000Y-67910000D01*
X134086000Y-68050000D01*
G37*
G36*
X170973000Y-56220000D02*
G01*
X171007000Y-56227000D01*
X171636000Y-56429000D01*
X172188000Y-56762000D01*
X172644000Y-57210000D01*
X172985000Y-57755000D01*
X173110000Y-58067000D01*
X173225000Y-58598000D01*
X173240000Y-58900000D01*
X173165000Y-59540000D01*
X172949000Y-60126000D01*
X172609000Y-60641000D01*
X172160000Y-61066000D01*
X171618000Y-61383000D01*
X170998000Y-61574000D01*
X170900000Y-61591000D01*
X170529000Y-61617000D01*
X170142000Y-61598000D01*
X170073000Y-61589000D01*
X169448000Y-61414000D01*
X168889000Y-61106000D01*
X168420000Y-60680000D01*
X168059000Y-60155000D01*
X167902000Y-59794000D01*
X167791000Y-59384000D01*
X167755000Y-58957000D01*
X167754000Y-58900000D01*
X167762000Y-58631000D01*
X167790000Y-58424000D01*
X167797000Y-58386000D01*
X168001000Y-57763000D01*
X168337000Y-57225000D01*
X168549000Y-56989000D01*
X169066000Y-56581000D01*
X169663000Y-56311000D01*
X169941000Y-56238000D01*
X170265000Y-56198000D01*
X170642000Y-56191000D01*
X170973000Y-56220000D01*
G37*
G36*
X146862000Y-57744000D02*
G01*
X147543000Y-57989000D01*
X148266000Y-58401000D01*
X148901000Y-58935000D01*
X149431000Y-59571000D01*
X149839000Y-60291000D01*
X150099000Y-61032000D01*
X150168000Y-61327000D01*
X150207000Y-61574000D01*
X150225000Y-61842000D01*
X150229000Y-62180000D01*
X150225000Y-62508000D01*
X150214000Y-62729000D01*
X150194000Y-62890000D01*
X149970000Y-63738000D01*
X149611000Y-64507000D01*
X149125000Y-65187000D01*
X148520000Y-65766000D01*
X147803000Y-66235000D01*
X147680000Y-66298000D01*
X147014000Y-66572000D01*
X146340000Y-66724000D01*
X145720000Y-66771000D01*
X145300000Y-66767000D01*
X145100000Y-66752000D01*
X144251000Y-66566000D01*
X143470000Y-66241000D01*
X142769000Y-65784000D01*
X142162000Y-65203000D01*
X141661000Y-64508000D01*
X141648000Y-64485000D01*
X141294000Y-63727000D01*
X141088000Y-62934000D01*
X141027000Y-62124000D01*
X141108000Y-61320000D01*
X141329000Y-60540000D01*
X141686000Y-59804000D01*
X142179000Y-59133000D01*
X142370000Y-58929000D01*
X142971000Y-58423000D01*
X143603000Y-58050000D01*
X144386000Y-57750000D01*
X145205000Y-57598000D01*
X146037000Y-57596000D01*
X146862000Y-57744000D01*
G37*
G36*
X180738000Y-64241000D02*
G01*
X180995000Y-64280000D01*
X181271000Y-64360000D01*
X181783000Y-64595000D01*
X182227000Y-64944000D01*
X182262000Y-64978000D01*
X182428000Y-65155000D01*
X182551000Y-65306000D01*
X182560000Y-65318000D01*
X182809000Y-65800000D01*
X182940000Y-66267000D01*
X182957000Y-66490000D01*
X182957000Y-66764000D01*
X182940000Y-66973000D01*
X182767000Y-67548000D01*
X182447000Y-68062000D01*
X182300000Y-68228000D01*
X181816000Y-68623000D01*
X181249000Y-68889000D01*
X180950000Y-68972000D01*
X180737000Y-68999000D01*
X180445000Y-69012000D01*
X180154000Y-69009000D01*
X179960000Y-68992000D01*
X179331000Y-68807000D01*
X178792000Y-68497000D01*
X178355000Y-68072000D01*
X178033000Y-67545000D01*
X177894000Y-67161000D01*
X177868000Y-67042000D01*
X177856000Y-66895000D01*
X177852000Y-66656000D01*
X177852000Y-66620000D01*
X177855000Y-66369000D01*
X177866000Y-66214000D01*
X177890000Y-66095000D01*
X177896000Y-66073000D01*
X178111000Y-65533000D01*
X178444000Y-65073000D01*
X178483000Y-65031000D01*
X178948000Y-64640000D01*
X179479000Y-64379000D01*
X179560000Y-64352000D01*
X179820000Y-64278000D01*
X180050000Y-64241000D01*
X180335000Y-64231000D01*
X180410000Y-64230000D01*
X180738000Y-64241000D01*
G37*
G36*
X164705000Y-64782000D02*
G01*
X164988000Y-64821000D01*
X165286000Y-64902000D01*
X165311000Y-64910000D01*
X165614000Y-65034000D01*
X165943000Y-65205000D01*
X166130000Y-65323000D01*
X166410000Y-65556000D01*
X166693000Y-65846000D01*
X166857000Y-66050000D01*
X167031000Y-66338000D01*
X167193000Y-66669000D01*
X167270000Y-66869000D01*
X167356000Y-67178000D01*
X167398000Y-67468000D01*
X167409000Y-67820000D01*
X167400000Y-68161000D01*
X167366000Y-68426000D01*
X167293000Y-68699000D01*
X167270000Y-68772000D01*
X167030000Y-69326000D01*
X166683000Y-69809000D01*
X166521000Y-69981000D01*
X165985000Y-70420000D01*
X165392000Y-70712000D01*
X164723000Y-70867000D01*
X164610000Y-70879000D01*
X164392000Y-70895000D01*
X164212000Y-70891000D01*
X164065000Y-70879000D01*
X163393000Y-70736000D01*
X162777000Y-70453000D01*
X162238000Y-70044000D01*
X161800000Y-69525000D01*
X161610000Y-69199000D01*
X161416000Y-68709000D01*
X161336000Y-68395000D01*
X161293000Y-68018000D01*
X161295000Y-67596000D01*
X161338000Y-67240000D01*
X161557000Y-66566000D01*
X161904000Y-65976000D01*
X162367000Y-65484000D01*
X162932000Y-65106000D01*
X163339000Y-64931000D01*
X163650000Y-64836000D01*
X163934000Y-64787000D01*
X164276000Y-64772000D01*
X164350000Y-64772000D01*
X164705000Y-64782000D01*
G37*
G36*
X163439000Y-126034000D02*
G01*
X163483000Y-126037000D01*
X163507000Y-126125000D01*
X163546000Y-126336000D01*
X163594000Y-126635000D01*
X163645000Y-126986000D01*
X163696000Y-127354000D01*
X163740000Y-127702000D01*
X163769000Y-127960000D01*
X163827000Y-128786000D01*
X163831000Y-129560000D01*
X163782000Y-130244000D01*
X163729000Y-130590000D01*
X163592000Y-131153000D01*
X163384000Y-131830000D01*
X163114000Y-132596000D01*
X162790000Y-133427000D01*
X162424000Y-134301000D01*
X162024000Y-135191000D01*
X161600000Y-136075000D01*
X161365000Y-136540000D01*
X160753000Y-137682000D01*
X160170000Y-138675000D01*
X159611000Y-139525000D01*
X159260000Y-140004000D01*
X159058000Y-140245000D01*
X158820000Y-140500000D01*
X158585000Y-140728000D01*
X158394000Y-140889000D01*
X158340000Y-140925000D01*
X158222000Y-140988000D01*
X158190000Y-140999000D01*
X158112000Y-140968000D01*
X158070000Y-140948000D01*
X157797000Y-140754000D01*
X157471000Y-140431000D01*
X157104000Y-139995000D01*
X156711000Y-139459000D01*
X156677000Y-139410000D01*
X156205000Y-138680000D01*
X155721000Y-137851000D01*
X155235000Y-136948000D01*
X154759000Y-135997000D01*
X154305000Y-135024000D01*
X153885000Y-134055000D01*
X153509000Y-133115000D01*
X153190000Y-132231000D01*
X152939000Y-131427000D01*
X152771000Y-130746000D01*
X152721000Y-130462000D01*
X152693000Y-130187000D01*
X152682000Y-129863000D01*
X152686000Y-129474000D01*
X152704000Y-128973000D01*
X152742000Y-128485000D01*
X152807000Y-127967000D01*
X152902000Y-127378000D01*
X153033000Y-126676000D01*
X153033000Y-126675000D01*
X153146000Y-126100000D01*
X153258000Y-126100000D01*
X153370000Y-126099000D01*
X153615000Y-126094000D01*
X153967000Y-126087000D01*
X154397000Y-126078000D01*
X154881000Y-126068000D01*
X154906000Y-126068000D01*
X155382000Y-126058000D01*
X155799000Y-126050000D01*
X156133000Y-126045000D01*
X156357000Y-126042000D01*
X156449000Y-126043000D01*
X156450000Y-126043000D01*
X156463000Y-126121000D01*
X156490000Y-126323000D01*
X156529000Y-126617000D01*
X156560000Y-126861000D01*
X156649000Y-127566000D01*
X156723000Y-128130000D01*
X156784000Y-128571000D01*
X156836000Y-128908000D01*
X156880000Y-129158000D01*
X156919000Y-129340000D01*
X156921000Y-129347000D01*
X157028000Y-129640000D01*
X157189000Y-129938000D01*
X157295000Y-130084000D01*
X157673000Y-130414000D01*
X158110000Y-130609000D01*
X158374000Y-130653000D01*
X158787000Y-130606000D01*
X159186000Y-130424000D01*
X159539000Y-130130000D01*
X159811000Y-129746000D01*
X159875000Y-129610000D01*
X159915000Y-129496000D01*
X159954000Y-129342000D01*
X159994000Y-129129000D01*
X160038000Y-128841000D01*
X160089000Y-128458000D01*
X160148000Y-127962000D01*
X160220000Y-127337000D01*
X160270000Y-126891000D01*
X160308000Y-126551000D01*
X160340000Y-126278000D01*
X160362000Y-126107000D01*
X160369000Y-126065000D01*
X160448000Y-126060000D01*
X160657000Y-126056000D01*
X160966000Y-126051000D01*
X161347000Y-126046000D01*
X161767000Y-126041000D01*
X162199000Y-126038000D01*
X162612000Y-126035000D01*
X162976000Y-126033000D01*
X163262000Y-126033000D01*
X163439000Y-126034000D01*
G37*
G36*
X160800000Y-73777000D02*
G01*
X161498000Y-73791000D01*
X162146000Y-73809000D01*
X162766000Y-73831000D01*
X163380000Y-73860000D01*
X164010000Y-73898000D01*
X164678000Y-73944000D01*
X165406000Y-74002000D01*
X166216000Y-74073000D01*
X167131000Y-74157000D01*
X168173000Y-74257000D01*
X168710000Y-74309000D01*
X169085000Y-74346000D01*
X169407000Y-74377000D01*
X169639000Y-74400000D01*
X169740000Y-74410000D01*
X170187000Y-74455000D01*
X170753000Y-74515000D01*
X171399000Y-74586000D01*
X172085000Y-74662000D01*
X172770000Y-74741000D01*
X173416000Y-74817000D01*
X173982000Y-74885000D01*
X174110000Y-74901000D01*
X175679000Y-75112000D01*
X177179000Y-75344000D01*
X178591000Y-75592000D01*
X179896000Y-75854000D01*
X181078000Y-76125000D01*
X182068000Y-76390000D01*
X182765000Y-76602000D01*
X183545000Y-76858000D01*
X184345000Y-77136000D01*
X185102000Y-77414000D01*
X185533000Y-77581000D01*
X186156000Y-77843000D01*
X186825000Y-78146000D01*
X187501000Y-78471000D01*
X188148000Y-78801000D01*
X188726000Y-79115000D01*
X189198000Y-79396000D01*
X189259000Y-79435000D01*
X189638000Y-79706000D01*
X190031000Y-80033000D01*
X190394000Y-80372000D01*
X190679000Y-80683000D01*
X190738000Y-80760000D01*
X190974000Y-81159000D01*
X191077000Y-81563000D01*
X191086000Y-81750000D01*
X191030000Y-82229000D01*
X190877000Y-82783000D01*
X190643000Y-83373000D01*
X190345000Y-83959000D01*
X189998000Y-84503000D01*
X189942000Y-84580000D01*
X189469000Y-85131000D01*
X188843000Y-85722000D01*
X188067000Y-86351000D01*
X187143000Y-87016000D01*
X186902000Y-87178000D01*
X185890000Y-87801000D01*
X184762000Y-88396000D01*
X183561000Y-88941000D01*
X183430000Y-88995000D01*
X182666000Y-89284000D01*
X181786000Y-89567000D01*
X180781000Y-89847000D01*
X179642000Y-90127000D01*
X178359000Y-90408000D01*
X177370000Y-90608000D01*
X176891000Y-90702000D01*
X176403000Y-90795000D01*
X175932000Y-90885000D01*
X175504000Y-90966000D01*
X175143000Y-91033000D01*
X174875000Y-91081000D01*
X174726000Y-91106000D01*
X174704000Y-91109000D01*
X174694000Y-91034000D01*
X174676000Y-90844000D01*
X174658000Y-90647000D01*
X174588000Y-89875000D01*
X174517000Y-89230000D01*
X174442000Y-88681000D01*
X174410000Y-88480000D01*
X174372000Y-88232000D01*
X174327000Y-87915000D01*
X174301000Y-87724000D01*
X174216000Y-87172000D01*
X174119000Y-86744000D01*
X174000000Y-86402000D01*
X173846000Y-86111000D01*
X173794000Y-86032000D01*
X173636000Y-85841000D01*
X173402000Y-85607000D01*
X173147000Y-85382000D01*
X173040000Y-85297000D01*
X172417000Y-84893000D01*
X171718000Y-84544000D01*
X171411000Y-84421000D01*
X170905000Y-84251000D01*
X170271000Y-84067000D01*
X169537000Y-83876000D01*
X168733000Y-83683000D01*
X167889000Y-83497000D01*
X167033000Y-83322000D01*
X166195000Y-83168000D01*
X165406000Y-83039000D01*
X165350000Y-83030000D01*
X164851000Y-82959000D01*
X164417000Y-82905000D01*
X164012000Y-82866000D01*
X163599000Y-82839000D01*
X163143000Y-82822000D01*
X162607000Y-82814000D01*
X161954000Y-82811000D01*
X161810000Y-82811000D01*
X161370000Y-82812000D01*
X160836000Y-82814000D01*
X160226000Y-82817000D01*
X159559000Y-82820000D01*
X158853000Y-82824000D01*
X158129000Y-82829000D01*
X157404000Y-82834000D01*
X156697000Y-82839000D01*
X156027000Y-82844000D01*
X155413000Y-82849000D01*
X154873000Y-82854000D01*
X154427000Y-82859000D01*
X154092000Y-82864000D01*
X153889000Y-82867000D01*
X153840000Y-82869000D01*
X153669000Y-82878000D01*
X153404000Y-82891000D01*
X153190000Y-82901000D01*
X152487000Y-82939000D01*
X151691000Y-82998000D01*
X150866000Y-83070000D01*
X150077000Y-83151000D01*
X149570000Y-83211000D01*
X148353000Y-83381000D01*
X147283000Y-83561000D01*
X146346000Y-83757000D01*
X145529000Y-83970000D01*
X144818000Y-84203000D01*
X144227000Y-84448000D01*
X143421000Y-84862000D01*
X142766000Y-85281000D01*
X142267000Y-85703000D01*
X141924000Y-86128000D01*
X141912000Y-86147000D01*
X141779000Y-86412000D01*
X141679000Y-86720000D01*
X141606000Y-87105000D01*
X141551000Y-87601000D01*
X141530000Y-87870000D01*
X141504000Y-88220000D01*
X141473000Y-88588000D01*
X141460000Y-88720000D01*
X141409000Y-89364000D01*
X141364000Y-90147000D01*
X141337000Y-90775000D01*
X141324000Y-91098000D01*
X141313000Y-91291000D01*
X141302000Y-91388000D01*
X141286000Y-91417000D01*
X141282000Y-91418000D01*
X141186000Y-91401000D01*
X141120000Y-91387000D01*
X140976000Y-91355000D01*
X140733000Y-91301000D01*
X140490000Y-91248000D01*
X140178000Y-91180000D01*
X139888000Y-91116000D01*
X139730000Y-91080000D01*
X139073000Y-90933000D01*
X138364000Y-90778000D01*
X137653000Y-90625000D01*
X136994000Y-90486000D01*
X136438000Y-90372000D01*
X136430000Y-90370000D01*
X135625000Y-90205000D01*
X134952000Y-90059000D01*
X134383000Y-89925000D01*
X133893000Y-89794000D01*
X133454000Y-89660000D01*
X133040000Y-89516000D01*
X132625000Y-89354000D01*
X132410000Y-89264000D01*
X132067000Y-89110000D01*
X131623000Y-88897000D01*
X131117000Y-88646000D01*
X130589000Y-88375000D01*
X130120000Y-88126000D01*
X129800000Y-87954000D01*
X129502000Y-87795000D01*
X129277000Y-87675000D01*
X129230000Y-87651000D01*
X128494000Y-87257000D01*
X127880000Y-86909000D01*
X127362000Y-86588000D01*
X126914000Y-86279000D01*
X126511000Y-85962000D01*
X126127000Y-85620000D01*
X125849000Y-85351000D01*
X125400000Y-84876000D01*
X125051000Y-84441000D01*
X124832000Y-84113000D01*
X124494000Y-83493000D01*
X124287000Y-82941000D01*
X124210000Y-82441000D01*
X124256000Y-81980000D01*
X124272000Y-81920000D01*
X124484000Y-81373000D01*
X124809000Y-80813000D01*
X125211000Y-80290000D01*
X125637000Y-79874000D01*
X126163000Y-79483000D01*
X126810000Y-79089000D01*
X127592000Y-78682000D01*
X128157000Y-78416000D01*
X128535000Y-78253000D01*
X128981000Y-78073000D01*
X129443000Y-77895000D01*
X129865000Y-77741000D01*
X130190000Y-77634000D01*
X130319000Y-77595000D01*
X130542000Y-77526000D01*
X130713000Y-77473000D01*
X131937000Y-77109000D01*
X133299000Y-76733000D01*
X134779000Y-76351000D01*
X136130000Y-76022000D01*
X137046000Y-75809000D01*
X137860000Y-75628000D01*
X138625000Y-75469000D01*
X139394000Y-75321000D01*
X140220000Y-75174000D01*
X140290000Y-75162000D01*
X141532000Y-74964000D01*
X142908000Y-74774000D01*
X144390000Y-74595000D01*
X145952000Y-74430000D01*
X147568000Y-74281000D01*
X149211000Y-74151000D01*
X150855000Y-74043000D01*
X152440000Y-73960000D01*
X154237000Y-73885000D01*
X155884000Y-73829000D01*
X157389000Y-73791000D01*
X158760000Y-73770000D01*
X160008000Y-73768000D01*
X160800000Y-73777000D01*
G37*
%TD*%
D11*
%TO.C,ART1*%
X156789000Y-56053000D03*
%TD*%
D12*
%TO.C,D3*%
X158040000Y-68000000D03*
D13*
X155500000Y-68500000D03*
%TD*%
D14*
%TO.C,BT1*%
X173500000Y-108000000D03*
X144200000Y-108000000D03*
%TD*%
D12*
%TO.C,D1*%
X159500000Y-122000000D03*
D13*
X156960000Y-122500000D03*
%TD*%
D15*
%TO.C,D4*%
X174290215Y-69612879D03*
D16*
X171701979Y-69664217D03*
%TD*%
D17*
%TO.C,SW1*%
X147500000Y-89000000D03*
X169500000Y-89000000D03*
%TD*%
D18*
%TO.C,D2*%
X141500000Y-69765583D03*
D19*
X139085413Y-70699053D03*
%TD*%
M02*
