<?xml version="1.0" encoding="UTF-8" standalone="no"?>
<!DOCTYPE svg PUBLIC "-//W3C//DTD SVG 1.1//EN" "http://www.w3.org/Graphics/SVG/1.1/DTD/svg11.dtd">
<svg width="100%" height="100%" viewBox="0 0 1647 3586" version="1.1" xmlns="http://www.w3.org/2000/svg" xmlns:xlink="http://www.w3.org/1999/xlink" xml:space="preserve" xmlns:serif="http://www.serif.com/" style="fill-rule:evenodd;clip-rule:evenodd;stroke-linecap:round;stroke-linejoin:round;stroke-miterlimit:1.5;">
    <path d="M219.372,661.383C219.372,327.612 490.352,56.632 824.123,56.632C1157.89,56.632 1428.87,327.612 1428.87,661.383" style="fill:none;stroke:rgb(35,31,32);stroke-width:113.26px;"/>
    <path d="M1428.87,661.383L1428.87,1686.4L219.372,1686.4L219.372,661.383" style="fill:none;stroke:rgb(35,31,32);stroke-width:113.26px;"/>
    <path d="M56.632,1686.4L1589.64,1686.4L513.757,1686.4" style="fill:none;stroke:rgb(35,31,32);stroke-width:113.26px;"/>
    <g>
        <path d="M1186.18,1686.4L1186.18,3122.97" style="fill:none;stroke:rgb(35,31,32);stroke-width:113.26px;"/>
        <path d="M832.776,3084.18L832.776,3125.43L812.915,3125.43L812.915,3059.74L989.026,3059.74L989.026,3018.21L1009.17,3018.21L1009.17,3130.02L989.026,3130.02L989.026,3084.18L832.776,3084.18Z" style="fill:rgb(35,31,32);fill-rule:nonzero;"/>
        <path d="M932.081,2857.52C935.507,2857.52 938.378,2857.56 940.692,2857.66C943.007,2857.75 945.183,2857.89 947.22,2858.07L947.22,2955.99C961.48,2955.99 972.429,2952.01 980.067,2944.04C987.706,2936.08 991.526,2924.6 991.526,2909.6C991.526,2905.53 991.364,2901.45 991.04,2897.38C990.716,2893.3 990.276,2889.37 989.72,2885.57C989.165,2881.78 988.54,2878.14 987.845,2874.67C987.151,2871.2 986.387,2867.98 985.554,2865.02L1005.42,2865.02C1007.27,2871.59 1008.77,2879.02 1009.93,2887.31C1011.09,2895.6 1011.67,2904.18 1011.67,2913.07C1011.67,2925.02 1010.04,2935.29 1006.8,2943.91C1003.56,2952.52 998.864,2959.58 992.706,2965.09C986.549,2970.6 979.003,2974.67 970.067,2977.31C961.132,2979.95 951.017,2981.27 939.72,2981.27C929.905,2981.27 920.623,2979.85 911.873,2977.03C903.123,2974.21 895.438,2970.09 888.817,2964.67C882.197,2959.25 876.942,2952.61 873.054,2944.74C869.165,2936.87 867.22,2927.93 867.22,2917.93C867.22,2908.21 868.748,2899.6 871.804,2892.1C874.859,2884.6 879.188,2878.28 884.79,2873.14C890.392,2868 897.197,2864.11 905.206,2861.47C913.216,2858.84 922.174,2857.52 932.081,2857.52ZM928.609,2882.66C922.405,2882.38 916.734,2882.98 911.595,2884.46C906.456,2885.94 902.035,2888.23 898.331,2891.34C894.628,2894.44 891.734,2898.3 889.651,2902.93C887.567,2907.56 886.526,2912.93 886.526,2919.04C886.526,2924.32 887.544,2929.14 889.581,2933.49C891.618,2937.84 894.489,2941.59 898.192,2944.74C901.896,2947.89 906.341,2950.43 911.526,2952.38C916.711,2954.32 922.405,2955.53 928.609,2955.99L928.609,2882.66Z" style="fill:rgb(35,31,32);fill-rule:nonzero;"/>
        <path d="M889.442,2718.49C892.683,2715.9 896.456,2713.88 900.762,2712.45C905.067,2711.01 909.72,2710.29 914.72,2710.29C921.942,2710.29 928.54,2711.61 934.512,2714.25C940.484,2716.89 945.6,2720.62 949.859,2725.43C954.118,2730.25 957.429,2736.01 959.79,2742.72C962.151,2749.44 963.331,2756.82 963.331,2764.88C963.331,2770.71 962.706,2776.17 961.456,2781.27C960.206,2786.36 958.655,2790.39 956.804,2793.35C959.396,2795.11 961.85,2796.59 964.165,2797.79C966.48,2799 969.072,2799.6 971.942,2799.6C975.461,2799.6 978.378,2797.91 980.692,2794.53C983.007,2791.15 984.257,2786.68 984.442,2781.13L985.831,2744.46C986.017,2737.52 986.896,2731.1 988.47,2725.22C990.044,2719.35 992.313,2714.3 995.276,2710.09C998.239,2705.87 1001.9,2702.59 1006.25,2700.22C1010.6,2697.86 1015.65,2696.68 1021.39,2696.68C1027.59,2696.68 1033.47,2698.03 1039.03,2700.71C1044.58,2703.4 1049.47,2707.54 1053.68,2713.14C1057.89,2718.74 1061.25,2725.85 1063.75,2734.46C1066.25,2743.07 1067.5,2753.3 1067.5,2765.16C1067.5,2776.45 1066.6,2786.06 1064.79,2793.97C1062.98,2801.89 1060.48,2808.4 1057.29,2813.49C1054.1,2818.58 1050.3,2822.28 1045.9,2824.6C1041.5,2826.91 1036.66,2828.07 1031.39,2828.07C1024.63,2828.07 1018.7,2826.5 1013.61,2823.35C1008.52,2820.2 1003.61,2815.34 998.887,2808.77C997.776,2811.17 996.387,2813.26 994.72,2815.02C993.054,2816.78 991.225,2818.21 989.234,2819.32C987.243,2820.43 985.137,2821.27 982.915,2821.82C980.692,2822.38 978.517,2822.66 976.387,2822.66C970.368,2822.66 964.859,2821.24 959.859,2818.42C954.859,2815.6 950.137,2812.24 945.692,2808.35C943.563,2810.11 941.48,2811.66 939.442,2813C937.405,2814.35 935.206,2815.5 932.845,2816.47C930.484,2817.45 927.938,2818.19 925.206,2818.7C922.475,2819.21 919.35,2819.46 915.831,2819.46C908.609,2819.46 902.012,2818.14 896.04,2815.5C890.067,2812.86 884.952,2809.16 880.692,2804.39C876.433,2799.62 873.123,2793.88 870.762,2787.17C868.401,2780.46 867.22,2773.03 867.22,2764.88C867.22,2761.45 867.452,2758.16 867.915,2755.02C868.378,2751.87 868.98,2749.09 869.72,2746.68L869.72,2696.13L889.442,2696.13L889.442,2718.49ZM1029.3,2802.38C1035.88,2802.38 1040.67,2798.95 1043.68,2792.1C1046.69,2785.25 1048.19,2775.71 1048.19,2763.49C1048.19,2755.8 1047.5,2749.35 1046.11,2744.11C1044.72,2738.88 1042.89,2734.67 1040.62,2731.47C1038.36,2728.28 1035.76,2725.99 1032.85,2724.6C1029.93,2723.21 1026.94,2722.52 1023.89,2722.52C1018.24,2722.52 1014.07,2724.83 1011.39,2729.46C1008.7,2734.09 1007.13,2741.17 1006.67,2750.71L1005.42,2787.1C1007.45,2790.16 1009.44,2792.68 1011.39,2794.67C1013.33,2796.66 1015.3,2798.21 1017.29,2799.32C1019.28,2800.43 1021.27,2801.22 1023.26,2801.68C1025.25,2802.15 1027.27,2802.38 1029.3,2802.38ZM915.276,2795.02C919.72,2795.02 923.794,2794.28 927.498,2792.79C931.202,2791.31 934.35,2789.23 936.942,2786.54C939.535,2783.86 941.549,2780.69 942.984,2777.03C944.419,2773.37 945.137,2769.32 945.137,2764.88C945.137,2760.06 944.327,2755.78 942.706,2752.03C941.086,2748.28 938.887,2745.13 936.109,2742.59C933.331,2740.04 930.137,2738.1 926.526,2736.75C922.915,2735.41 919.165,2734.74 915.276,2734.74C910.831,2734.74 906.757,2735.48 903.054,2736.96C899.35,2738.44 896.202,2740.53 893.609,2743.21C891.017,2745.9 889.003,2749.07 887.567,2752.72C886.132,2756.38 885.415,2760.43 885.415,2764.88C885.415,2769.69 886.248,2773.97 887.915,2777.72C889.581,2781.47 891.78,2784.62 894.512,2787.17C897.243,2789.72 900.415,2791.66 904.026,2793C907.637,2794.35 911.387,2795.02 915.276,2795.02Z" style="fill:rgb(35,31,32);fill-rule:nonzero;"/>
        <path d="M867.22,2606.54C867.22,2603.67 867.799,2600.94 868.956,2598.35C870.114,2595.76 871.665,2593.49 873.609,2591.54C875.554,2589.6 877.822,2588.05 880.415,2586.89C883.007,2585.73 885.739,2585.16 888.609,2585.16C891.572,2585.16 894.327,2585.73 896.873,2586.89C899.419,2588.05 901.665,2589.6 903.609,2591.54C905.554,2593.49 907.081,2595.76 908.192,2598.35C909.304,2600.94 909.859,2603.67 909.859,2606.54C909.859,2609.51 909.304,2612.26 908.192,2614.81C907.081,2617.35 905.554,2619.6 903.609,2621.54C901.665,2623.49 899.419,2625.02 896.873,2626.13C894.327,2627.24 891.572,2627.79 888.609,2627.79C885.739,2627.79 883.007,2627.24 880.415,2626.13C877.822,2625.02 875.554,2623.49 873.609,2621.54C871.665,2619.6 870.114,2617.35 868.956,2614.81C867.799,2612.26 867.22,2609.51 867.22,2606.54ZM969.026,2606.54C969.026,2603.67 969.605,2600.94 970.762,2598.35C971.919,2595.76 973.47,2593.49 975.415,2591.54C977.359,2589.6 979.628,2588.05 982.22,2586.89C984.813,2585.73 987.544,2585.16 990.415,2585.16C993.378,2585.16 996.132,2585.73 998.679,2586.89C1001.23,2588.05 1003.47,2589.6 1005.42,2591.54C1007.36,2593.49 1008.89,2595.76 1010,2598.35C1011.11,2600.94 1011.67,2603.67 1011.67,2606.54C1011.67,2609.51 1011.11,2612.26 1010,2614.81C1008.89,2617.35 1007.36,2619.6 1005.42,2621.54C1003.47,2623.49 1001.23,2625.02 998.679,2626.13C996.132,2627.24 993.378,2627.79 990.415,2627.79C987.544,2627.79 984.813,2627.24 982.22,2626.13C979.628,2625.02 977.359,2623.49 975.415,2621.54C973.47,2619.6 971.919,2617.35 970.762,2614.81C969.605,2612.26 969.026,2609.51 969.026,2606.54Z" style="fill:rgb(35,31,32);fill-rule:nonzero;"/>
        <path d="M832.776,2302.24L832.776,2343.49L812.915,2343.49L812.915,2277.79L989.026,2277.79L989.026,2236.27L1009.17,2236.27L1009.17,2348.07L989.026,2348.07L989.026,2302.24L832.776,2302.24Z" style="fill:rgb(35,31,32);fill-rule:nonzero;"/>
        <path d="M938.331,2071.96C949.165,2071.96 959.095,2073.49 968.123,2076.54C977.151,2079.6 984.882,2084 991.317,2089.74C997.753,2095.48 1002.75,2102.47 1006.32,2110.71C1009.88,2118.95 1011.67,2128.3 1011.67,2138.77C1011.67,2148.77 1010.11,2157.72 1007.01,2165.64C1003.91,2173.56 999.35,2180.27 993.331,2185.78C987.313,2191.29 979.859,2195.5 970.97,2198.42C962.081,2201.34 951.85,2202.79 940.276,2202.79C929.442,2202.79 919.558,2201.27 910.623,2198.21C901.688,2195.16 894.003,2190.76 887.567,2185.02C881.132,2179.28 876.132,2172.28 872.567,2164.04C869.003,2155.8 867.22,2146.45 867.22,2135.99C867.22,2125.99 868.771,2117.03 871.873,2109.11C874.975,2101.2 879.512,2094.48 885.484,2088.97C891.456,2083.47 898.887,2079.25 907.776,2076.34C916.665,2073.42 926.85,2071.96 938.331,2071.96ZM939.442,2096.68C930.831,2096.68 923.308,2097.63 916.873,2099.53C910.438,2101.43 905.067,2104.14 900.762,2107.66C896.456,2111.17 893.216,2115.46 891.04,2120.5C888.864,2125.55 887.776,2131.17 887.776,2137.38C887.776,2144.6 889.188,2150.78 892.012,2155.92C894.836,2161.06 898.609,2165.27 903.331,2168.56C908.054,2171.85 913.54,2174.25 919.79,2175.78C926.04,2177.31 932.591,2178.07 939.442,2178.07C948.054,2178.07 955.6,2177.12 962.081,2175.22C968.563,2173.33 973.956,2170.62 978.262,2167.1C982.567,2163.58 985.808,2159.32 987.984,2154.32C990.16,2149.32 991.248,2143.67 991.248,2137.38C991.248,2130.16 989.836,2123.97 987.012,2118.84C984.188,2113.7 980.415,2109.48 975.692,2106.2C970.97,2102.91 965.484,2100.5 959.234,2098.97C952.984,2097.45 946.387,2096.68 939.442,2096.68Z" style="fill:rgb(35,31,32);fill-rule:nonzero;"/>
        <path d="M869.72,2036.96L869.72,2015.43L892.22,2014.46C887.405,2010.39 883.401,2006.45 880.206,2002.65C877.012,1998.86 874.442,1995.13 872.498,1991.47C870.554,1987.82 869.188,1984.09 868.401,1980.29C867.614,1976.5 867.22,1972.56 867.22,1968.49C867.22,1954.14 871.456,1943.28 879.929,1935.92C888.401,1928.56 901.155,1924.88 918.192,1924.88L1009.17,1924.88L1009.17,1949.04L920.137,1949.04C909.211,1949.04 901.132,1951.08 895.901,1955.15C890.669,1959.23 888.054,1965.29 888.054,1973.35C888.054,1976.31 888.493,1979.21 889.373,1982.03C890.253,1984.85 891.78,1987.79 893.956,1990.85C896.132,1993.9 899.072,1997.22 902.776,2000.78C906.48,2004.35 911.109,2008.35 916.665,2012.79L1009.17,2012.79L1009.17,2036.96L869.72,2036.96Z" style="fill:rgb(35,31,32);fill-rule:nonzero;"/>
        <path d="M889.442,1780.15C892.683,1777.56 896.456,1775.55 900.762,1774.11C905.067,1772.68 909.72,1771.96 914.72,1771.96C921.942,1771.96 928.54,1773.28 934.512,1775.92C940.484,1778.56 945.6,1782.28 949.859,1787.1C954.118,1791.91 957.429,1797.68 959.79,1804.39C962.151,1811.1 963.331,1818.49 963.331,1826.54C963.331,1832.38 962.706,1837.84 961.456,1842.93C960.206,1848.03 958.655,1852.05 956.804,1855.02C959.396,1856.78 961.85,1858.26 964.165,1859.46C966.48,1860.66 969.072,1861.27 971.942,1861.27C975.461,1861.27 978.378,1859.58 980.692,1856.2C983.007,1852.82 984.257,1848.35 984.442,1842.79L985.831,1806.13C986.017,1799.18 986.896,1792.77 988.47,1786.89C990.044,1781.01 992.313,1775.97 995.276,1771.75C998.239,1767.54 1001.9,1764.25 1006.25,1761.89C1010.6,1759.53 1015.65,1758.35 1021.39,1758.35C1027.59,1758.35 1033.47,1759.69 1039.03,1762.38C1044.58,1765.06 1049.47,1769.21 1053.68,1774.81C1057.89,1780.41 1061.25,1787.52 1063.75,1796.13C1066.25,1804.74 1067.5,1814.97 1067.5,1826.82C1067.5,1838.12 1066.6,1847.72 1064.79,1855.64C1062.98,1863.56 1060.48,1870.06 1057.29,1875.15C1054.1,1880.25 1050.3,1883.95 1045.9,1886.27C1041.5,1888.58 1036.66,1889.74 1031.39,1889.74C1024.63,1889.74 1018.7,1888.16 1013.61,1885.02C1008.52,1881.87 1003.61,1877.01 998.887,1870.43C997.776,1872.84 996.387,1874.92 994.72,1876.68C993.054,1878.44 991.225,1879.88 989.234,1880.99C987.243,1882.1 985.137,1882.93 982.915,1883.49C980.692,1884.04 978.517,1884.32 976.387,1884.32C970.368,1884.32 964.859,1882.91 959.859,1880.09C954.859,1877.26 950.137,1873.9 945.692,1870.02C943.563,1871.78 941.48,1873.33 939.442,1874.67C937.405,1876.01 935.206,1877.17 932.845,1878.14C930.484,1879.11 927.938,1879.85 925.206,1880.36C922.475,1880.87 919.35,1881.13 915.831,1881.13C908.609,1881.13 902.012,1879.81 896.04,1877.17C890.067,1874.53 884.952,1870.83 880.692,1866.06C876.433,1861.29 873.123,1855.55 870.762,1848.84C868.401,1842.12 867.22,1834.69 867.22,1826.54C867.22,1823.12 867.452,1819.83 867.915,1816.68C868.378,1813.53 868.98,1810.76 869.72,1808.35L869.72,1757.79L889.442,1757.79L889.442,1780.15ZM1029.3,1864.04C1035.88,1864.04 1040.67,1860.62 1043.68,1853.77C1046.69,1846.91 1048.19,1837.38 1048.19,1825.15C1048.19,1817.47 1047.5,1811.01 1046.11,1805.78C1044.72,1800.55 1042.89,1796.34 1040.62,1793.14C1038.36,1789.95 1035.76,1787.65 1032.85,1786.27C1029.93,1784.88 1026.94,1784.18 1023.89,1784.18C1018.24,1784.18 1014.07,1786.5 1011.39,1791.13C1008.7,1795.76 1007.13,1802.84 1006.67,1812.38L1005.42,1848.77C1007.45,1851.82 1009.44,1854.35 1011.39,1856.34C1013.33,1858.33 1015.3,1859.88 1017.29,1860.99C1019.28,1862.1 1021.27,1862.89 1023.26,1863.35C1025.25,1863.81 1027.27,1864.04 1029.3,1864.04ZM915.276,1856.68C919.72,1856.68 923.794,1855.94 927.498,1854.46C931.202,1852.98 934.35,1850.9 936.942,1848.21C939.535,1845.53 941.549,1842.35 942.984,1838.7C944.419,1835.04 945.137,1830.99 945.137,1826.54C945.137,1821.73 944.327,1817.45 942.706,1813.7C941.086,1809.95 938.887,1806.8 936.109,1804.25C933.331,1801.71 930.137,1799.76 926.526,1798.42C922.915,1797.08 919.165,1796.4 915.276,1796.4C910.831,1796.4 906.757,1797.15 903.054,1798.63C899.35,1800.11 896.202,1802.19 893.609,1804.88C891.017,1807.56 889.003,1810.73 887.567,1814.39C886.132,1818.05 885.415,1822.1 885.415,1826.54C885.415,1831.36 886.248,1835.64 887.915,1839.39C889.581,1843.14 891.78,1846.29 894.512,1848.84C897.243,1851.38 900.415,1853.33 904.026,1854.67C907.637,1856.01 911.387,1856.68 915.276,1856.68Z" style="fill:rgb(35,31,32);fill-rule:nonzero;"/>
        <path d="M1347.53,3449.3L1216.53,3449.3L1216.53,3585.3L1159.19,3585.3L1159.19,3449.3L1028.19,3449.3L1028.19,3398.63L1159.19,3398.63L1159.19,3263.63L1216.53,3263.63L1216.53,3398.63L1347.53,3398.63L1347.53,3449.3Z" style="fill:rgb(35,31,32);fill-rule:nonzero;"/>
    </g>
    <g>
        <path d="M510.943,1746.4L510.943,2564.21" style="fill:none;stroke:rgb(35,31,32);stroke-width:113.26px;"/>
        <path d="M323.128,2455.71C328.036,2455.71 332.434,2456.55 336.323,2458.21C340.212,2459.88 343.661,2462.15 346.67,2465.02C349.679,2467.89 352.249,2471.22 354.378,2475.02C356.508,2478.82 358.267,2482.87 359.656,2487.17C361.045,2491.48 362.063,2495.9 362.712,2500.44C363.36,2504.97 363.684,2509.42 363.684,2513.77C363.684,2523.21 363.267,2531.89 362.434,2539.81C361.6,2547.73 360.258,2555.48 358.406,2563.08L336.184,2563.08C338.499,2554.93 340.258,2546.83 341.462,2538.77C342.665,2530.71 343.267,2522.7 343.267,2514.74C343.267,2503.17 341.693,2494.6 338.545,2489.05C335.397,2483.49 330.906,2480.71 325.073,2480.71C322.573,2480.71 320.327,2481.15 318.337,2482.03C316.346,2482.91 314.448,2484.51 312.642,2486.83C310.837,2489.14 308.962,2492.73 307.017,2497.59C305.073,2502.45 302.85,2509.09 300.35,2517.52C298.499,2523.82 296.392,2529.63 294.031,2534.95C291.67,2540.27 288.869,2544.88 285.628,2548.77C282.388,2552.66 278.591,2555.71 274.239,2557.94C269.888,2560.16 264.749,2561.27 258.823,2561.27C254.934,2561.27 250.675,2560.37 246.045,2558.56C241.415,2556.76 237.11,2553.68 233.128,2549.33C229.147,2544.97 225.837,2539.09 223.198,2531.69C220.559,2524.28 219.239,2515.02 219.239,2503.91C219.239,2498.45 219.54,2492.38 220.142,2485.71C220.744,2479.05 221.786,2472.1 223.267,2464.88L244.795,2464.88C242.943,2472.47 241.577,2479.67 240.698,2486.48C239.818,2493.28 239.378,2499.19 239.378,2504.19C239.378,2510.2 239.841,2515.27 240.767,2519.39C241.693,2523.51 242.966,2526.85 244.587,2529.39C246.207,2531.94 248.105,2533.77 250.281,2534.88C252.457,2535.99 254.795,2536.55 257.295,2536.55C259.795,2536.55 262.063,2536.06 264.1,2535.09C266.138,2534.12 268.105,2532.31 270.003,2529.67C271.901,2527.03 273.8,2523.35 275.698,2518.63C277.596,2513.91 279.656,2507.75 281.878,2500.16C284.286,2491.92 286.809,2484.97 289.448,2479.33C292.087,2473.68 295.026,2469.09 298.267,2465.58C301.508,2462.06 305.165,2459.53 309.239,2458.01C313.313,2456.48 317.943,2455.71 323.128,2455.71Z" style="fill:rgb(35,31,32);fill-rule:nonzero;"/>
        <path d="M361.184,2297.66L361.184,2321.83L272.156,2321.83C261.415,2321.83 253.383,2323.84 248.059,2327.87C242.735,2331.89 240.073,2337.66 240.073,2345.16C240.073,2348.4 240.513,2351.43 241.392,2354.26C242.272,2357.08 243.8,2360.02 245.975,2363.08C248.151,2366.13 251.091,2369.46 254.795,2373.08C258.499,2376.69 263.128,2380.85 268.684,2385.58L361.184,2385.58L361.184,2409.74L164.934,2409.74L164.934,2385.58L221.739,2385.58L243.684,2386.41C239.147,2382.61 235.327,2378.89 232.225,2375.23C229.124,2371.57 226.6,2367.91 224.656,2364.26C222.712,2360.6 221.323,2356.87 220.489,2353.08C219.656,2349.28 219.239,2345.34 219.239,2341.27C219.239,2327.38 223.475,2316.64 231.948,2309.05C240.42,2301.45 253.175,2297.66 270.212,2297.66L361.184,2297.66Z" style="fill:rgb(35,31,32);fill-rule:nonzero;"/>
        <path d="M290.35,2131.96C301.184,2131.96 311.114,2133.49 320.142,2136.55C329.17,2139.6 336.901,2144 343.337,2149.74C349.772,2155.48 354.772,2162.47 358.337,2170.71C361.901,2178.95 363.684,2188.31 363.684,2198.77C363.684,2208.77 362.133,2217.73 359.031,2225.64C355.929,2233.56 351.369,2240.27 345.35,2245.78C339.332,2251.29 331.878,2255.51 322.989,2258.42C314.1,2261.34 303.869,2262.8 292.295,2262.8C281.462,2262.8 271.577,2261.27 262.642,2258.21C253.707,2255.16 246.022,2250.76 239.587,2245.02C233.151,2239.28 228.151,2232.29 224.587,2224.05C221.022,2215.81 219.239,2206.45 219.239,2195.99C219.239,2185.99 220.79,2177.03 223.892,2169.12C226.994,2161.2 231.531,2154.49 237.503,2148.98C243.475,2143.47 250.906,2139.26 259.795,2136.34C268.684,2133.42 278.869,2131.96 290.35,2131.96ZM291.462,2156.69C282.85,2156.69 275.327,2157.64 268.892,2159.53C262.457,2161.43 257.087,2164.14 252.781,2167.66C248.475,2171.18 245.235,2175.46 243.059,2180.51C240.883,2185.55 239.795,2191.18 239.795,2197.38C239.795,2204.6 241.207,2210.78 244.031,2215.92C246.855,2221.06 250.628,2225.27 255.35,2228.56C260.073,2231.85 265.559,2234.26 271.809,2235.78C278.059,2237.31 284.61,2238.08 291.462,2238.08C300.073,2238.08 307.619,2237.13 314.1,2235.23C320.582,2233.33 325.975,2230.62 330.281,2227.1C334.587,2223.58 337.827,2219.33 340.003,2214.33C342.179,2209.33 343.267,2203.68 343.267,2197.38C343.267,2190.16 341.855,2183.98 339.031,2178.84C336.207,2173.7 332.434,2169.49 327.712,2166.2C322.989,2162.91 317.503,2160.51 311.253,2158.98C305.003,2157.45 298.406,2156.69 291.462,2156.69Z" style="fill:rgb(35,31,32);fill-rule:nonzero;"/>
        <path d="M221.739,2091.27L221.739,2069.19L247.434,2068.49C237.526,2060.25 230.35,2052.13 225.906,2044.12C221.462,2036.11 219.239,2028.03 219.239,2019.88C219.239,2005.44 223.915,1994.49 233.267,1987.03C242.619,1979.58 256.508,1976.13 274.934,1976.69L274.934,2001.13C262.712,2000.85 253.846,2002.63 248.337,2006.48C242.827,2010.32 240.073,2015.94 240.073,2023.35C240.073,2026.59 240.651,2029.86 241.809,2033.14C242.966,2036.43 244.818,2039.81 247.364,2043.28C249.911,2046.76 253.175,2050.44 257.156,2054.32C261.138,2058.21 265.952,2062.38 271.6,2066.82L361.184,2066.82L361.184,2091.27L221.739,2091.27Z" style="fill:rgb(35,31,32);fill-rule:nonzero;"/>
        <path d="M359.239,1828.21C360.628,1833.68 361.624,1839.33 362.225,1845.16C362.827,1850.99 363.128,1856.92 363.128,1862.94C363.128,1880.44 359.17,1893.49 351.253,1902.1C343.337,1910.71 331.184,1915.02 314.795,1915.02L242.017,1915.02L242.017,1954.05L221.739,1954.05L221.739,1915.02L183.406,1915.02L177.156,1890.85L221.739,1890.85L221.739,1828.21L242.017,1828.21L242.017,1890.85L312.85,1890.85C322.85,1890.85 330.327,1888.19 335.281,1882.87C340.235,1877.54 342.712,1869.69 342.712,1859.33C342.712,1854.88 342.364,1850.02 341.67,1844.74C340.975,1839.46 339.888,1833.95 338.406,1828.21L359.239,1828.21Z" style="fill:rgb(35,31,32);fill-rule:nonzero;"/>
        <rect x="391.322" y="3456.63" width="199.333" height="54.667" style="fill:rgb(35,31,32);fill-rule:nonzero;"/>
    </g>
    <path d="M630.737,1050.54L421.848,1050.54L421.848,687.486L472.126,687.486L472.126,1008.32L630.737,1008.32L630.737,1050.54Z" style="fill:rgb(35,31,32);fill-rule:nonzero;"/>
    <path d="M932.126,1050.54L725.737,1050.54L725.737,687.486L932.126,687.486L932.126,729.153L775.181,729.153L775.181,841.653L926.015,841.653L926.015,883.319L775.181,883.319L775.181,1008.32L932.126,1008.32L932.126,1050.54Z" style="fill:rgb(35,31,32);fill-rule:nonzero;"/>
    <path d="M1275.18,864.986C1275.18,882.393 1273.84,899.06 1271.15,914.986C1268.47,930.912 1264.16,945.727 1258.24,959.43C1252.31,973.134 1244.63,985.588 1235.18,996.791C1225.74,1008 1214.16,1017.58 1200.46,1025.54C1186.76,1033.5 1170.83,1039.66 1152.68,1044.01C1134.53,1048.37 1113.88,1050.54 1090.74,1050.54L1012.96,1050.54L1012.96,687.486L1106.57,687.486C1163.24,687.486 1205.51,702.069 1233.38,731.236C1261.25,760.403 1275.18,804.986 1275.18,864.986ZM1223.24,868.597C1223.24,842.856 1220.83,821.097 1216.02,803.319C1211.2,785.541 1203.88,771.19 1194.07,760.264C1184.26,749.338 1171.94,741.421 1157.13,736.514C1142.31,731.606 1124.9,729.153 1104.9,729.153L1062.4,729.153L1062.4,1007.76L1099.35,1007.76C1181.94,1007.76 1223.24,961.375 1223.24,868.597Z" style="fill:rgb(35,31,32);fill-rule:nonzero;"/>
</svg>
