<?xml version="1.0" encoding="UTF-8" standalone="no"?>
<!DOCTYPE svg PUBLIC "-//W3C//DTD SVG 1.1//EN" "http://www.w3.org/Graphics/SVG/1.1/DTD/svg11.dtd">
<svg width="100%" height="100%" viewBox="0 0 11429 10000" version="1.1" xmlns="http://www.w3.org/2000/svg" xmlns:xlink="http://www.w3.org/1999/xlink" xml:space="preserve" xmlns:serif="http://www.serif.com/" style="fill-rule:evenodd;clip-rule:evenodd;stroke-linejoin:round;stroke-miterlimit:2;">
    <g id="B.Mask">
        <g>
            <path d="M2082.17,4631.79C2082.17,4631.79 1857.73,4583.05 1745.78,4557.64C1611.23,4527.26 1418.89,4498.41 1275.38,4448.95C1138.65,4401.83 992.704,4318.01 884.553,4260.95C795.935,4214.2 701.257,4165.73 626.474,4106.59C554.133,4049.44 478.083,3973.93 435.854,3906.38C398.055,3845.8 360.438,3771.65 373.188,3701.3C386.029,3630.22 446.163,3535.63 513.079,3479.39C593.468,3411.84 734.896,3343.02 855.616,3296.09C1003.56,3238.58 1217.14,3181.25 1400.8,3134.5C1590.16,3086.21 1792.89,3039.28 1991.83,3006.63C2207.32,2971.19 2458.98,2942.61 2693.73,2922.18C2938.15,2900.83 3210.79,2886.82 3458.47,2878.77C3698.74,2870.99 3939.45,2865.12 4179.72,2873.98C4420.52,2882.75 4671.37,2908.88 4903.4,2931.85C5126.58,2953.91 5378.6,2982.49 5571.57,3011.43C5735.97,3036.11 5921.7,3071.74 6061.23,3105.47C6179.15,3134.05 6308.46,3178.26 6408.65,3214.07C6494.83,3244.91 6579.92,3279.45 6661.94,3320.24C6748.3,3363.19 6860.88,3416.18 6927.25,3472.15C6985.04,3520.98 7057.29,3580.66 7059.91,3656.17C7062.71,3735.84 7007.46,3865.78 6944.16,3949.79C6875.35,4041.03 6754.81,4130.73 6647.38,4203.53C6540.05,4276.23 6420.23,4337 6300.05,4386.37C6179.87,4435.83 6052.73,4469.02 5926.14,4499.77C5779.55,4535.48 5420.56,4600.41 5420.56,4600.41C5420.56,4600.41 5407.45,4423.36 5391.62,4337.9C5375.89,4252.9 5378.42,4155.6 5325.52,4087.33C5272.26,4018.6 5167.36,3957.11 5072.23,3925.64C4918.69,3875.01 4617.93,3808.09 4404.07,3783.04C4200.33,3759.17 3985.48,3775.26 3788.89,3775.26C3600.71,3775.26 3404.58,3772.01 3224.45,3783.04C3051.64,3793.62 2849.35,3816.23 2708.2,3841.28C2595.7,3861.17 2471.46,3890.29 2377.78,3932.88C2291.69,3972.12 2192.85,4028.01 2146.19,4096.91C2099.53,4165.82 2107.85,4262.31 2097.81,4346.4C2087.14,4435.56 2082.17,4631.79 2082.17,4631.79Z" style="fill:rgb(147,255,0);"/>
        </g>
        <g>
            <ellipse cx="2513.69" cy="1713.71" rx="461.178" ry="459.279" style="fill:rgb(147,255,0);"/>
        </g>
        <g>
            <ellipse cx="1261.27" cy="2597.09" rx="311.16" ry="313.601" style="fill:rgb(147,255,0);"/>
        </g>
        <g>
            <ellipse cx="5000.08" cy="1386.84" rx="274.989" ry="271.372" style="fill:rgb(147,255,0);"/>
        </g>
        <g>
            <ellipse cx="4385.62" cy="2277.01" rx="307.09" ry="306.096" style="fill:rgb(147,255,0);"/>
        </g>
        <g>
            <ellipse cx="5990.43" cy="2156.89" rx="256.903" ry="239.994" style="fill:rgb(147,255,0);"/>
        </g>
        <path d="M4299.47,8083.14C4318.29,8188.47 4349.46,8378.95 4326.7,8519.98C4298.22,8696.31 4111.76,9127.28 3940.31,9388.17C3833.15,9551.12 3779.89,9574.81 3770.04,9576.71C3767.68,9576.35 3763.89,9574.99 3759.82,9572.91C3724.64,9555.37 3654.65,9487.27 3551.47,9312.93C3399.28,9056.21 3253.97,8702.19 3225.39,8544.39C3199.87,8403.26 3244.14,8191.72 3265.1,8091.01C3375.44,8088.65 3485.78,8086.17 3596.1,8084.12C3610.66,8203.48 3629.02,8346.35 3638.42,8398.08C3657.23,8500.71 3735.54,8543.94 3792.78,8545.66C3852.28,8547.46 3932.94,8495.56 3948.59,8404.05C3955.91,8361.55 3970.83,8233.41 3986.38,8086.2C4090.74,8084.91 4195.11,8084.06 4299.47,8083.14Z" style="fill:rgb(114,227,15);"/>
    </g>
    <g id="F.Cu">
        <path d="M3962.81,3734.58C4027.76,3736 4085.89,3737.99 4132.24,3740.36C4166.97,3742.08 4331.82,3750.4 4556.8,3780.33C4713.06,3801.13 4889.03,3835.13 4982.98,3857.91C5081.82,3881.88 5199.91,3931.97 5226.59,3944.36C5295.5,3976.56 5326.15,4009.65 5343.06,4030.81C5377.15,4073.22 5392.8,4117.62 5399.31,4136.43C5412.87,4175.59 5431.05,4240.6 5439.64,4305.53C5448.2,4370.31 5455.05,4476.07 5459.71,4558.92C5429.79,4565.17 5411.71,4568.87 5410.43,4569.12C5406,4570.03 5406,4569.94 5401.75,4571.57C5400.66,4572.02 5394.69,4574.37 5389,4579.34C5383.39,4584.41 5380.32,4590.01 5379.78,4591.01C5378.51,4593.18 5377.33,4595.44 5376.7,4597.88C5376.29,4599.53 5376.06,4601.23 5375.87,4602.94C5373.39,4556.24 5368.35,4465.81 5362.14,4393.15C5356.08,4322.53 5351.65,4297.21 5347.76,4276.95C5337.36,4223.24 5320.36,4166.45 5306.89,4136.16C5284.65,4086.51 5257.16,4064.36 5250.56,4059.03C5220.71,4034.61 5183.19,4019.15 5166.73,4012.18C5113.29,3989.58 5029.64,3957.66 4960.92,3941.2C4865.61,3918.32 4694.16,3885.13 4535.1,3864.34C4269.06,3829.52 4090.65,3824.37 4036.57,3822.74C4012.95,3821.99 3987.48,3821.31 3960.56,3820.72" style="fill:rgb(255,205,0);"/>
        <path d="M3793.59,3818.47C3654.03,3817.71 3500.2,3819.62 3367.86,3826.26C3176.97,3835.85 2965.1,3856.74 2813.36,3879.89C2674.92,3901.05 2542.62,3929.17 2463.14,3953.86C2384.29,3978.36 2291.42,4034.97 2252.9,4060.65C2235.99,4071.96 2202.62,4097.19 2184.44,4134.53C2169.7,4164.82 2153.88,4222.07 2145.38,4300.01C2135.97,4387.15 2128.87,4540.59 2125.3,4616.54L2125.3,4616.06C2125.12,4613.89 2125.03,4611.62 2124.67,4609.36C2124.31,4607.19 2123.77,4605.02 2123.04,4602.94C2120.96,4596.52 2117.53,4591.91 2116.89,4591.01C2106.4,4576.81 2091.57,4574.37 2088.95,4574.01C2077.5,4572.18 2061.39,4569.54 2041.42,4566.18C2052.75,4329.77 2061.22,4271.02 2067.97,4231.74C2084.79,4134.35 2108.39,4093.21 2114.63,4082.54C2148,4024.75 2200.09,3992.2 2213.74,3983.34C2238.16,3967.51 2342.42,3900.96 2438.63,3871.3C2539.82,3840.1 2707.93,3806.28 2873.14,3784.4C3009.59,3766.31 3224.72,3744.43 3445.63,3736.74C3555.31,3732.94 3677.95,3731.72 3793.59,3732.33" style="fill:rgb(255,205,0);"/>
        <g>
            <path d="M3777.93,2911.84C3787.03,2911.89 3796.48,2911.96 3806.34,2912.05C3992.62,2913.68 4190.57,2921.54 4231.44,2923.26C4431.38,2931.49 4696.33,2946.86 5031.72,2985.84C5252.18,3011.43 5390.44,3030.14 5501.94,3047.42C5654.58,3071.11 5888.25,3114.33 6069.28,3158.55C6234.67,3198.97 6374.84,3248.44 6421.77,3265.44C6461.19,3279.81 6531.27,3305.41 6658.69,3370.51C6740.25,3412.11 6852.47,3473.06 6908.08,3518.36C6914.14,3523.33 6955.74,3556.16 6977.35,3612.77C6993.08,3653.96 7011.78,3705.4 7007.46,3755.12C7025.1,3714.64 7033.3,3681.35 7037.66,3655.54C7041.58,3632.54 7045.32,3600.52 7046.29,3555.84C7034.87,3533 7015.38,3501.26 6983.59,3470.34C6969.03,3456.24 6925.63,3414.91 6763.76,3328.28C6629.48,3256.3 6547.55,3221.94 6509.66,3206.75C6443.74,3180.25 6303.31,3130.88 6149.13,3090.01C5967.19,3041.72 5730.45,2999.13 5684.69,2990.9C5552.58,2967.12 5417.75,2945.41 5153.35,2913.49C4999.53,2894.87 4928.27,2887.63 4911.82,2885.91C4644.69,2858.15 4401.53,2842.51 4139.66,2833.56C3980.72,2828.14 3863.82,2826.16 3777.44,2825.7" style="fill:rgb(255,205,0);"/>
            <path d="M3388.13,2829.98C3250.69,2832.76 3110.24,2837.58 2979.48,2848.12C2758.02,2865.84 2364.93,2904.09 2052.6,2951.2C1754.46,2996.24 1409.3,3071.02 1197.25,3129.7C1044.52,3172.03 899.022,3230.44 788.52,3284.06C774.051,3291.03 686.156,3333.26 584.787,3398.18C448.423,3485.45 402.305,3540.7 387.295,3559.78C384.78,3562.98 382.399,3566.27 380.145,3569.64C386.013,3647.76 403.372,3726.88 433.098,3799.68C431.479,3782.82 429.888,3764.84 429.162,3744.34C426.721,3672.09 439.471,3632.84 455.024,3612.95C505.754,3548.56 635.969,3462.03 756.418,3397.19C899.293,3320.24 1069.66,3254.86 1214.16,3214.43C1401.53,3161.99 1712.32,3093.44 1991.29,3048.05C2305.43,2996.87 2728,2954.91 2983.82,2934.2C3115.86,2923.44 3260.39,2918.64 3395.41,2915.95" style="fill:rgb(255,205,0);"/>
        </g>
        <g>
            <path d="M351.314,3827.13C350.993,3826.39 350.693,3825.64 350.417,3824.88C350.714,3825.63 351.013,3826.38 351.314,3827.13Z" style="fill:rgb(255,205,0);"/>
        </g>
        <g>
            <path d="M7091.57,3777.31C7091.32,3779.03 7091.05,3780.76 7090.75,3782.5C7088.97,3792.93 7083.81,3800.3 7079.48,3804.85C7083.94,3795.35 7087.95,3786.16 7091.57,3777.31Z" style="fill:rgb(255,205,0);"/>
        </g>
        <g>
            <path d="M2098.18,4324.07L2097.45,4368.74L1576.68,4360.24L1577.41,4315.57L2098.18,4324.07Z" style="fill:rgb(255,205,0);"/>
        </g>
        <g>
            <path d="M2099.44,4212.3L2096.28,4256.88L1161.08,4190.6L1164.24,4146.02L2099.44,4212.3Z" style="fill:rgb(255,205,0);"/>
        </g>
        <g>
            <path d="M2115.99,4112.56L2109.21,4156.69L991.981,3986.05L998.763,3941.92L2115.99,4112.56Z" style="fill:rgb(255,205,0);"/>
        </g>
        <g>
            <path d="M2203.07,4008.48L2192.76,4051.97L901.553,3744.34L911.862,3700.84L2203.07,4008.48Z" style="fill:rgb(255,205,0);"/>
        </g>
        <g>
            <path d="M2302.63,3940.93L2286.26,3982.52L751.354,3378.47L767.721,3336.87L2302.63,3940.93Z" style="fill:rgb(255,205,0);"/>
        </g>
        <g>
            <path d="M2435.65,3874.91L2413.68,3913.8L1516.01,3405.15L1537.98,3366.35L2435.65,3874.91Z" style="fill:rgb(255,205,0);"/>
        </g>
        <g>
            <path d="M2620.57,3837.66L2592.54,3872.47L1870.57,3289.76L1898.6,3254.95L2620.57,3837.66Z" style="fill:rgb(255,205,0);"/>
        </g>
        <g>
            <path d="M2859.03,3803.12L2827.92,3835.13L2006.03,3035.75L2037.14,3003.74L2859.03,3803.12Z" style="fill:rgb(255,205,0);"/>
        </g>
        <g>
            <path d="M3165.31,3770.29L3128.68,3795.79L2952.62,3542.14L2989.24,3516.64L3165.31,3770.29Z" style="fill:rgb(255,205,0);"/>
        </g>
        <g>
            <path d="M2900.53,3468.26L2900.53,3512.93C2868.52,3512.57 2836.42,3512.93 2804.41,3512.66C2803.33,3512.66 2802.24,3512.21 2801.16,3511.85C2797.9,3510.86 2795.55,3509.23 2795.1,3508.96C2793.02,3507.51 2793.02,3507.42 2791.39,3505.52C2789.67,3503.71 2789.58,3503.71 2788.32,3501.45C2686.95,3320.69 2585.76,3139.74 2484.39,2958.98L2523.36,2937.1L2820.87,3468.26L2900.53,3468.26Z" style="fill:rgb(255,205,0);"/>
        </g>
        <g>
            <path d="M845.489,3646.95C847.207,3646.95 869.181,3646.13 887.085,3664.31C911.681,3689.09 908.607,3729.69 880.574,3750.67C854.26,3770.29 816.552,3764.41 797.653,3737.47C779.206,3711.15 785.988,3674.8 813.025,3656.81C827.765,3646.95 842.052,3646.95 845.489,3646.95ZM845.489,3672.45C843.138,3672.45 832.105,3672.45 822.43,3681.85C808.052,3695.78 809.951,3719.56 827.042,3731.14C842.957,3741.9 864.84,3736.74 874.244,3720.01C879.761,3710.16 879.58,3698.04 873.611,3688.18C872.165,3685.74 863.845,3672.63 845.489,3672.45Z" style="fill:rgb(255,205,0);"/>
        </g>
        <g>
            <path d="M1524.78,4280.21C1526.5,4280.21 1548.47,4279.4 1566.37,4297.57C1590.97,4322.35 1587.89,4362.95 1559.86,4383.93C1533.55,4403.55 1495.84,4397.67 1476.94,4370.73C1458.49,4344.41 1465.28,4308.06 1492.31,4290.07C1507.05,4280.21 1521.34,4280.21 1524.78,4280.21ZM1524.78,4305.71C1522.43,4305.71 1511.39,4305.71 1501.72,4315.02C1487.34,4329.04 1489.24,4352.82 1506.33,4364.4C1522.25,4375.16 1544.13,4370 1553.53,4353.27C1559.05,4343.42 1558.87,4331.21 1552.9,4321.44C1551.45,4319 1543.13,4305.89 1524.78,4305.71Z" style="fill:rgb(255,205,0);"/>
        </g>
        <g>
            <path d="M1858.27,3189.93C1859.99,3190.02 1881.96,3189.21 1899.87,3207.29C1924.47,3232.16 1921.39,3272.67 1893.36,3293.65C1867.04,3313.36 1829.34,3307.49 1810.44,3280.54C1791.99,3254.22 1798.77,3217.87 1825.72,3199.79C1840.55,3189.93 1854.84,3190.02 1858.27,3189.93ZM1858.27,3215.52C1855.92,3215.52 1844.89,3215.52 1835.21,3224.84C1820.84,3238.76 1822.64,3262.63 1839.74,3274.12C1855.65,3284.88 1877.62,3279.81 1886.94,3263.09C1892.45,3253.23 1892.36,3241.02 1886.39,3231.26C1884.86,3228.72 1876.63,3215.7 1858.27,3215.52Z" style="fill:rgb(255,205,0);"/>
        </g>
        <g>
            <path d="M2946.2,3434.72C2947.92,3434.72 2969.98,3433.99 2987.89,3452.08C3012.39,3476.95 3009.32,3517.46 2981.29,3538.44C2954.97,3558.15 2917.35,3552.27 2898.37,3525.32C2879.92,3499.01 2886.7,3462.57 2913.74,3444.57C2928.48,3434.72 2942.86,3434.81 2946.2,3434.72ZM2946.2,3460.22C2943.94,3460.31 2932.82,3460.22 2923.23,3469.62C2908.85,3483.55 2910.66,3507.33 2927.75,3518.9C2943.67,3529.66 2965.64,3524.51 2974.96,3507.87C2980.47,3497.92 2980.29,3485.81 2974.32,3475.95C2972.88,3473.51 2964.56,3460.49 2946.29,3460.22L2946.2,3460.22Z" style="fill:rgb(255,205,0);"/>
        </g>
        <g>
            <path d="M3771.26,3078.8C3772.98,3078.8 3794.95,3078.07 3812.85,3096.16C3825.94,3109.39 3831.19,3127.04 3829.02,3143.83C3827.12,3158.6 3819.46,3172.7 3806.34,3182.51C3780.03,3202.23 3742.32,3196.35 3723.42,3169.4C3704.97,3143.09 3711.76,3106.65 3738.79,3088.65C3753.53,3078.8 3767.82,3078.89 3771.26,3078.8ZM3771.26,3104.3C3768.91,3104.39 3757.87,3104.3 3748.2,3113.7C3733.82,3127.62 3735.63,3151.41 3752.81,3162.98C3768.64,3173.74 3790.61,3168.59 3800.01,3151.86C3805.44,3142 3805.35,3129.89 3799.38,3120.03C3797.93,3117.59 3789.61,3104.57 3771.26,3104.3Z" style="fill:rgb(255,205,0);"/>
        </g>
        <g>
            <path d="M4913.17,3078.8C4914.89,3078.8 4936.86,3078.07 4954.77,3096.16C4979.27,3121.02 4976.2,3161.54 4948.17,3182.51C4921.94,3202.23 4884.23,3196.35 4865.34,3169.4C4846.8,3143.09 4853.58,3106.65 4880.62,3088.65C4895.36,3078.8 4909.73,3078.89 4913.17,3078.8ZM4913.08,3104.3C4910.82,3104.39 4899.7,3104.3 4890.11,3113.7C4875.73,3127.62 4877.54,3151.41 4894.63,3162.98C4910.55,3173.74 4932.52,3168.59 4941.84,3151.86C4947.35,3142 4947.17,3129.89 4941.29,3120.03C4939.76,3117.59 4931.53,3104.57 4913.17,3104.3L4913.08,3104.3Z" style="fill:rgb(255,205,0);"/>
        </g>
        <g>
            <path d="M4794.17,3626.69C4795.8,3626.78 4817.86,3625.97 4835.77,3644.06C4860.27,3668.92 4857.2,3709.43 4829.16,3730.41C4802.85,3750.13 4765.23,3744.25 4746.33,3717.3C4727.8,3690.99 4734.58,3654.64 4761.61,3636.55C4776.36,3626.69 4790.73,3626.78 4794.17,3626.69ZM4794.08,3652.28C4791.82,3652.28 4780.69,3652.28 4771.11,3661.6C4756.73,3675.52 4758.54,3699.4 4775.63,3710.88C4791.55,3721.64 4813.52,3716.58 4822.83,3699.85C4828.35,3689.99 4828.17,3677.78 4822.29,3668.02C4820.76,3665.58 4812.44,3652.46 4794.17,3652.28L4794.08,3652.28Z" style="fill:rgb(255,205,0);"/>
        </g>
        <g>
            <path d="M5617.15,3234.87C5618.86,3234.87 5640.84,3234.15 5658.74,3252.23C5683.34,3277.01 5680.26,3317.61 5652.23,3338.59C5625.92,3358.31 5588.21,3352.34 5569.31,3325.48C5550.86,3299.17 5557.65,3262.72 5584.59,3244.73C5599.33,3234.87 5613.71,3234.87 5617.15,3234.87ZM5617.15,3260.37C5614.8,3260.46 5603.76,3260.37 5594.09,3269.78C5579.71,3283.7 5581.52,3307.49 5598.61,3319.06C5614.52,3329.82 5636.5,3324.67 5645.81,3307.94C5651.33,3298.08 5651.24,3285.96 5645.27,3276.11C5643.73,3273.66 5635.5,3260.55 5617.15,3260.37Z" style="fill:rgb(255,205,0);"/>
        </g>
        <g>
            <path d="M6501.89,3608.79C6503.6,3608.79 6525.58,3607.97 6543.48,3626.15C6568.08,3650.93 6565,3691.53 6536.97,3712.51C6510.66,3732.13 6472.95,3726.25 6454.05,3699.31C6435.6,3672.99 6442.38,3636.64 6469.42,3618.55C6484.16,3608.79 6498.45,3608.79 6501.89,3608.79ZM6501.89,3634.29C6499.53,3634.29 6488.5,3634.29 6478.83,3643.6C6464.45,3657.62 6466.26,3681.4 6483.44,3692.98C6499.26,3703.74 6521.24,3698.58 6530.64,3681.85C6536.07,3672 6535.98,3659.79 6530.01,3650.02C6528.56,3647.58 6520.24,3634.47 6501.89,3634.29Z" style="fill:rgb(255,205,0);"/>
        </g>
        <g>
            <path d="M6270.57,4081.45C6272.29,4081.45 6294.26,4080.73 6312.17,4098.81C6336.77,4123.68 6333.69,4164.19 6305.66,4185.17C6279.34,4204.88 6241.64,4199.01 6222.74,4172.06C6204.29,4145.74 6211.07,4109.3 6238.11,4091.31C6252.85,4081.45 6267.14,4081.54 6270.57,4081.45ZM6270.57,4106.95C6268.31,4107.04 6257.19,4106.95 6247.51,4116.36C6233.14,4130.28 6235.03,4154.06 6252.12,4165.64C6268.04,4176.4 6289.92,4171.24 6299.33,4154.52C6304.84,4144.66 6304.66,4132.54 6298.69,4122.69C6297.25,4120.24 6288.93,4107.13 6270.57,4106.95Z" style="fill:rgb(255,205,0);"/>
        </g>
        <g>
            <path d="M3432.07,3745.7L3392.19,3765.77L2965.37,2917.11L3005.25,2897.04L3432.07,3745.7Z" style="fill:rgb(255,205,0);"/>
        </g>
        <g>
            <path d="M3572.68,3751.03L3529,3760.43L3345.08,2901.74L3388.66,2892.33L3572.68,3751.03Z" style="fill:rgb(255,205,0);"/>
        </g>
        <g>
            <rect x="3748.92" y="3181.61" width="44.671" height="582.079" style="fill:rgb(255,205,0);"/>
        </g>
        <g>
            <path d="M4000.85,3768.48L3963.22,3763.69L3963.02,3734.58L4149.78,2892.15L4193.37,2901.83L4000.85,3768.48Z" style="fill:rgb(255,205,0);"/>
        </g>
        <g>
            <path d="M4223.21,3773.64L4183.24,3753.65L4606.53,2907.16L4646.41,2927.15L4223.21,3773.64Z" style="fill:rgb(255,205,0);"/>
        </g>
        <g>
            <path d="M4459.14,3804.83L4423.06,3778.52L4874.29,3159.09L4910.37,3185.41L4459.14,3804.83Z" style="fill:rgb(255,205,0);"/>
        </g>
        <g>
            <rect x="4770.11" y="3728.42" width="44.671" height="122.89" style="fill:rgb(255,205,0);"/>
        </g>
        <g>
            <path d="M4824.08,3660.16L4795.48,3643.66C4795.82,3622.48 5358.84,2984.66 5358.84,2984.66L5388.18,3016.76L4824.08,3660.16Z" style="fill:rgb(255,205,0);"/>
        </g>
        <g>
            <path d="M5570.12,3302.06L5596.62,3337.96L4875.82,3869.31L4849.33,3833.32L5570.12,3302.06Z" style="fill:rgb(255,205,0);"/>
        </g>
        <g>
            <path d="M5070.78,3927.36L5048.27,3888.75L6277.72,3170.94L6300.23,3209.46L5070.78,3927.36Z" style="fill:rgb(255,205,0);"/>
        </g>
        <g>
            <path d="M5204.35,3984.87L5187.8,3943.37L6700.37,3339.04L6716.92,3380.55L5204.35,3984.87Z" style="fill:rgb(255,205,0);"/>
        </g>
        <g>
            <path d="M5315.39,4060.2L5302.28,4017.52L6455.68,3663.95L6468.7,3706.63L5315.39,4060.2Z" style="fill:rgb(255,205,0);"/>
        </g>
        <g>
            <path d="M5375.98,4150.72L5368.83,4106.59L6458.66,3929.89L6465.8,3973.93L5375.98,4150.72Z" style="fill:rgb(255,205,0);"/>
        </g>
        <g>
            <path d="M6224,4125.85L6228.61,4170.25L5401.48,4255.07L5396.96,4210.67L6224,4125.85Z" style="fill:rgb(255,205,0);"/>
        </g>
        <g>
            <path d="M5419.65,4354.36L5419.02,4309.69C5419.02,4309.69 5750,4340.94 6240.41,4383.61L6197.6,4418.92L5419.65,4354.36Z" style="fill:rgb(255,205,0);"/>
        </g>
        <g>
            <path d="M350.417,3824.88C350.149,3824.15 349.903,3823.4 349.677,3822.65C347.959,3817.22 348.23,3817.22 347.687,3811.53C341.729,3749.87 332.39,3641.13 380.145,3569.64C386.013,3647.76 403.372,3726.88 433.098,3799.68C433.293,3801.71 433.489,3803.73 433.684,3805.74C433.774,3806.46 434.136,3810.08 433.684,3814.51C433.412,3817.04 431.875,3831.87 418.221,3843.18C416.05,3844.89 413.79,3846.52 411.348,3847.79C408.816,3849.14 406.194,3850.32 403.481,3851.13L394.981,3852.85C392.087,3852.85 389.193,3853.12 386.3,3852.76C383.677,3852.49 368.938,3850.95 357.634,3837.39C355.826,3835.22 354.289,3832.87 352.932,3830.43C352.341,3829.36 351.802,3828.26 351.314,3827.13C351.013,3826.38 350.714,3825.63 350.417,3824.88Z" style="fill:rgb(255,205,0);"/>
        </g>
        <g>
            <path d="M5463.37,4646.1C5462.34,4626.36 5461.2,4585.48 5459.71,4558.92C5598.37,4529.97 5991.46,4446.22 6147.5,4395.86C6325.82,4338.44 6507.67,4240.33 6643.22,4147.55C6693.59,4113.1 6803.91,4034.16 6881.95,3944.82C6946.99,3870.29 6984.93,3806.84 7007.46,3755.12C7007.21,3758.01 7006.88,3760.9 7006.47,3763.78C7005.56,3770.2 7005.02,3770.2 7005.2,3776.62C7005.29,3777.98 7005.47,3785.03 7009,3792.9C7016.32,3809.08 7030.16,3814.42 7032.6,3815.41C7035.31,3816.41 7038.21,3816.95 7040.92,3817.68L7049.6,3818.31C7050.32,3818.31 7053.76,3818.22 7058.01,3817.22C7059.28,3816.86 7066.15,3815.32 7073.11,3810.35C7073.95,3809.76 7076.52,3807.96 7079.48,3804.85C7053.41,3860.4 7012.16,3926.9 6945.79,4002.6C6862.42,4097.73 6728.77,4201.63 6577.48,4291.51C6517.62,4327.14 6342.46,4428.15 6144.34,4487.02C5963.12,4540.91 5582.01,4621.42 5463.37,4646.1Z" style="fill:rgb(255,205,0);"/>
        </g>
        <g>
            <path d="M5463.42,4649.43C5463.45,4648.4 5463.43,4647.3 5463.37,4646.1C5463.38,4647.2 5463.4,4648.3 5463.42,4649.43Z" style="fill:rgb(255,205,0);"/>
        </g>
        <g>
            <path d="M2038.69,4652.99C1994.56,4645.62 1918.9,4632.6 1828.35,4615.37C1763.8,4603.1 1691.7,4588.69 1618.05,4572.7C1469.85,4540.5 1315.44,4501.87 1203.94,4461.15C1170.48,4448.95 1152.04,4440.81 1122.47,4427.7C727.12,4252.99 540.478,4111.2 450.322,3999.16C409.13,3947.95 376.23,3889.49 351.314,3827.13C351.802,3828.26 352.341,3829.36 352.932,3830.43C354.289,3832.87 355.826,3835.22 357.634,3837.39C368.938,3850.95 383.677,3852.49 386.3,3852.76C389.193,3853.12 392.087,3852.85 394.981,3852.85L403.481,3851.13C406.194,3850.32 408.816,3849.14 411.348,3847.79C413.79,3846.52 416.05,3844.89 418.221,3843.18C431.875,3831.87 433.412,3817.04 433.684,3814.51C434.136,3810.08 433.774,3806.46 433.684,3805.74C433.489,3803.73 433.293,3801.71 433.098,3799.68C457.661,3859.84 490.667,3915.68 532.611,3963.08C626.293,4069.06 819.084,4201.81 1183.05,4360.24C1388.97,4449.91 1865.11,4536.46 2041.42,4566.18C2041.38,4567.06 2041.34,4567.96 2041.3,4568.85C2041.12,4572.47 2039.22,4613.8 2039.22,4614.52C2039.22,4617.41 2039.22,4620.31 2039.67,4623.2C2040.02,4625.37 2038.79,4643.65 2038.69,4652.99Z" style="fill:rgb(255,205,0);"/>
        </g>
        <g>
            <path d="M5459.71,4558.92C5461.2,4585.48 5462.48,4626.6 5463.51,4646.36C5428.11,4651.75 5426.25,4651.44 5425.62,4651.62C5425.62,4651.62 5378.81,4655.82 5378.17,4653.29C5377.45,4650.49 5377.88,4636.94 5377.51,4634.05C5377.43,4633.3 5376.85,4621.62 5375.87,4602.94C5376.06,4601.23 5376.29,4599.53 5376.7,4597.88C5377.33,4595.44 5378.51,4593.18 5379.78,4591.01C5380.32,4590.01 5383.39,4584.41 5389,4579.34C5394.69,4574.37 5400.66,4572.02 5401.75,4571.57C5406,4569.94 5406,4570.03 5410.43,4569.12C5411.71,4568.87 5429.79,4565.17 5459.71,4558.92Z" style="fill:rgb(255,205,0);"/>
        </g>
        <g>
            <path d="M2041.42,4566.18C2061.39,4569.54 2077.5,4572.18 2088.95,4574.01C2091.57,4574.37 2106.4,4576.81 2116.89,4591.01C2117.53,4591.91 2120.96,4596.52 2123.04,4602.94C2123.77,4605.02 2124.31,4607.19 2124.67,4609.36C2125.03,4611.62 2125.12,4613.89 2125.3,4616.06L2125.3,4616.54L2125.21,4618.5C2125.21,4619.22 2125.06,4622.85 2123.95,4627.09C2123.24,4629.8 2122.21,4632.5 2121.05,4635.05C2120.23,4636.85 2115.54,4646.53 2104.6,4653.31C2102.15,4654.76 2099.72,4655.95 2097.09,4656.93C2094.39,4657.94 2091.66,4658.65 2088.86,4659.1L2080.18,4659.55C2077.29,4659.1 2074.39,4659.01 2071.59,4658.28C2068.88,4657.56 2066.16,4656.57 2063.63,4655.39C2061.91,4654.49 2052.15,4649.88 2045.46,4638.84C2044.01,4636.49 2042.74,4633.96 2041.84,4631.34C2040.85,4628.72 2040.12,4626 2039.67,4623.2C2039.22,4620.31 2039.22,4617.41 2039.22,4614.52C2039.22,4613.8 2041.12,4572.47 2041.3,4568.85C2041.34,4567.96 2041.38,4567.06 2041.42,4566.18Z" style="fill:rgb(255,205,0);"/>
        </g>
        <g>
            <path d="M2038.69,4652.99C2038.79,4643.65 2037,4636.33 2036.65,4634.16C2037.1,4636.96 2031.47,4630.62 2045.17,4634.2C2058.47,4635.71 2053.86,4637.31 2055.3,4639.66C2062,4650.69 2061.91,4654.49 2063.63,4655.39C2066.16,4656.57 2068.88,4657.56 2071.59,4658.28C2074.39,4659.01 2077.29,4659.1 2080.18,4659.55C2077.51,4659.14 2055.61,4656.48 2049.95,4654.65L2039.58,4653.13C2039.28,4653.09 2038.99,4653.03 2038.69,4652.99Z" style="fill:rgb(255,205,0);"/>
        </g>
        <g>
            <path d="M7046.29,3555.84C7053.81,3570.88 7057.82,3582.08 7059.55,3586.63C7079.51,3639.17 7102.13,3705.84 7091.57,3777.31C7087.95,3786.16 7083.94,3795.35 7079.48,3804.85C7076.52,3807.96 7073.95,3809.76 7073.11,3810.35C7066.15,3815.32 7059.28,3816.86 7058.01,3817.22C7053.76,3818.22 7050.32,3818.31 7049.6,3818.31L7040.92,3817.68C7038.21,3816.95 7035.31,3816.41 7032.6,3815.41C7030.16,3814.42 7016.32,3809.08 7009,3792.9C7005.47,3785.03 7005.29,3777.98 7005.2,3776.62C7005.02,3770.2 7005.56,3770.2 7006.47,3763.78C7006.88,3760.9 7007.21,3758.01 7007.46,3755.12C7025.1,3714.64 7033.3,3681.35 7037.66,3655.54C7041.58,3632.54 7045.32,3600.52 7046.29,3555.84Z" style="fill:rgb(255,205,0);"/>
        </g>
    </g>
    <g id="F.Cu.Keepout:copperpour">
        <ellipse cx="2513.69" cy="1713.71" rx="461.178" ry="459.279" style="fill:rgb(153,138,102);"/>
        <ellipse cx="1261.27" cy="2597.09" rx="311.16" ry="313.601" style="fill:rgb(153,138,102);"/>
        <ellipse cx="5000.08" cy="1386.84" rx="274.989" ry="271.372" style="fill:rgb(153,138,102);"/>
        <ellipse cx="4385.62" cy="2277.01" rx="307.09" ry="306.096" style="fill:rgb(153,138,102);"/>
        <ellipse cx="5990.43" cy="2156.89" rx="256.903" ry="239.994" style="fill:rgb(153,138,102);"/>
        <path d="M4299.47,8083.14C4318.29,8188.47 4349.46,8378.95 4326.7,8519.98C4298.22,8696.31 4111.76,9127.28 3940.31,9388.17C3833.15,9551.12 3779.89,9574.81 3770.04,9576.71C3767.68,9576.35 3763.89,9574.99 3759.82,9572.91C3724.64,9555.37 3654.65,9487.27 3551.47,9312.93C3399.28,9056.21 3253.97,8702.19 3225.39,8544.39C3199.87,8403.26 3244.14,8191.72 3265.1,8091.01C3375.44,8088.65 3485.78,8086.17 3596.1,8084.12C3610.66,8203.48 3629.02,8346.35 3638.42,8398.08C3657.23,8500.71 3735.54,8543.94 3792.78,8545.66C3852.28,8547.46 3932.94,8495.56 3948.59,8404.05C3955.91,8361.55 3970.83,8233.41 3986.38,8086.2C4090.74,8084.91 4195.11,8084.06 4299.47,8083.14Z" style="fill:rgb(153,138,102);"/>
        <g>
            <path d="M2082.26,4639.66L1759.26,4586.64C1759.26,4586.64 1443.46,4521.75 1299.95,4470.65C1163.23,4421.97 985.837,4344.62 877.686,4285.67C789.067,4237.37 690.692,4194.69 615.908,4133.59C543.567,4074.55 461.97,3987.29 419.74,3917.5C381.942,3854.91 353.571,3737.62 366.321,3664.93C379.161,3591.5 452.241,3523.37 519.157,3465.26C599.547,3395.47 748.372,3311.43 869.092,3262.94C1017.03,3203.53 1164.04,3157.24 1347.7,3108.94C1537.06,3059.05 1808.22,3010.57 2007.16,2976.84C2222.65,2940.22 2463.21,2910.69 2697.96,2889.58C2942.38,2867.53 3174.33,2851.2 3422.01,2842.89C3662.28,2834.85 3952.93,2838.03 4193.19,2847.18C4434,2856.24 4684.85,2883.24 4916.88,2906.97C5140.06,2929.77 5392.07,2959.29 5585.05,2989.19C5749.44,3014.69 5935.18,3051.5 6074.71,3086.35C6192.63,3115.87 6367.8,3173.39 6467.99,3210.39C6554.17,3242.24 6607.3,3273.4 6675.42,3308.23C6755.56,3349.21 6882.5,3398.43 6948.87,3456.26C7006.66,3506.71 7044.78,3536.68 7073.39,3655.3C7106.04,3790.7 7020.94,3871.86 6957.64,3958.65C6888.82,4052.91 6768.28,4145.59 6660.86,4220.79C6553.52,4295.91 6433.7,4358.69 6313.53,4409.7C6193.35,4460.8 6056.96,4491.39 5930.36,4523.15C5783.78,4560.05 5397.5,4616.54 5397.5,4616.54C5397.5,4616.54 5391.69,4455.31 5375.87,4367.02C5360.13,4279.2 5347.51,4150.94 5294.61,4080.4C5241.35,4009.4 5110.56,3966.21 5015.43,3933.7C4861.89,3881.39 4609.21,3851.06 4395.35,3825.18C4191.62,3800.51 3947.16,3789.43 3750.57,3789.43C3562.39,3789.43 3213.88,3804.83 3213.88,3804.83C3213.88,3804.83 2836.94,3846.55 2695.78,3872.43C2583.29,3892.98 2300.63,3998.51 2300.63,3998.51C2300.63,3998.51 2232.22,4028.36 2185.56,4099.55C2138.9,4170.74 2132.42,4264.88 2122.39,4351.76C2111.72,4443.88 2082.26,4639.66 2082.26,4639.66Z" style="fill:rgb(153,138,102);"/>
        </g>
    </g>
    <g id="B.Cu.Keepout:copperpour">
        <ellipse cx="2513.69" cy="1713.71" rx="461.178" ry="459.279" style="fill:rgb(121,115,140);"/>
        <ellipse cx="1261.27" cy="2597.09" rx="311.16" ry="313.601" style="fill:rgb(121,115,140);"/>
        <ellipse cx="5000.08" cy="1386.84" rx="274.989" ry="271.372" style="fill:rgb(121,115,140);"/>
        <ellipse cx="4385.62" cy="2277.01" rx="307.09" ry="306.096" style="fill:rgb(121,115,140);"/>
        <ellipse cx="5990.43" cy="2156.89" rx="256.903" ry="239.994" style="fill:rgb(121,115,140);"/>
        <path d="M4299.47,8083.14C4318.29,8188.47 4349.46,8378.95 4326.7,8519.98C4298.22,8696.31 4111.76,9127.28 3940.31,9388.17C3833.15,9551.12 3779.89,9574.81 3770.04,9576.71C3767.68,9576.35 3763.89,9574.99 3759.82,9572.91C3724.64,9555.37 3654.65,9487.27 3551.47,9312.93C3399.28,9056.21 3253.97,8702.19 3225.39,8544.39C3199.87,8403.26 3244.14,8191.72 3265.1,8091.01C3375.44,8088.65 3485.78,8086.17 3596.1,8084.12C3610.66,8203.48 3629.02,8346.35 3638.42,8398.08C3657.23,8500.71 3735.54,8543.94 3792.78,8545.66C3852.28,8547.46 3932.94,8495.56 3948.59,8404.05C3955.91,8361.55 3970.83,8233.41 3986.38,8086.2C4090.74,8084.91 4195.11,8084.06 4299.47,8083.14Z" style="fill:rgb(121,115,140);"/>
        <g>
            <path d="M2082.26,4639.66L1759.26,4586.64C1759.26,4586.64 1443.46,4521.75 1299.95,4470.65C1163.23,4421.97 985.837,4344.62 877.686,4285.67C789.067,4237.37 690.692,4194.69 615.908,4133.59C543.567,4074.55 461.97,3987.29 419.74,3917.5C381.942,3854.91 353.571,3737.62 366.321,3664.93C379.161,3591.5 452.241,3523.37 519.157,3465.26C599.547,3395.47 748.372,3311.43 869.092,3262.94C1017.03,3203.53 1164.04,3157.24 1347.7,3108.94C1537.06,3059.05 1808.22,3010.57 2007.16,2976.84C2222.65,2940.22 2463.21,2910.69 2697.96,2889.58C2942.38,2867.53 3174.33,2851.2 3422.01,2842.89C3662.28,2834.85 3952.93,2838.03 4193.19,2847.18C4434,2856.24 4684.85,2883.24 4916.88,2906.97C5140.06,2929.77 5392.07,2959.29 5585.05,2989.19C5749.44,3014.69 5935.18,3051.5 6074.71,3086.35C6192.63,3115.87 6367.8,3173.39 6467.99,3210.39C6554.17,3242.24 6607.3,3273.4 6675.42,3308.23C6755.56,3349.21 6882.5,3398.43 6948.87,3456.26C7006.66,3506.71 7044.78,3536.68 7073.39,3655.3C7106.04,3790.7 7020.94,3871.86 6957.64,3958.65C6888.82,4052.91 6768.28,4145.59 6660.86,4220.79C6553.52,4295.91 6433.7,4358.69 6313.53,4409.7C6193.35,4460.8 6056.96,4491.39 5930.36,4523.15C5783.78,4560.05 5397.5,4616.54 5397.5,4616.54C5397.5,4616.54 5391.69,4455.31 5375.87,4367.02C5360.13,4279.2 5347.51,4150.94 5294.61,4080.4C5241.35,4009.4 5110.56,3966.21 5015.43,3933.7C4861.89,3881.39 4609.21,3851.06 4395.35,3825.18C4191.62,3800.51 3947.16,3789.43 3750.57,3789.43C3562.39,3789.43 3213.88,3804.83 3213.88,3804.83C3213.88,3804.83 2836.94,3846.55 2695.78,3872.43C2583.29,3892.98 2300.63,3998.51 2300.63,3998.51C2300.63,3998.51 2232.22,4028.36 2185.56,4099.55C2138.9,4170.74 2132.42,4264.88 2122.39,4351.76C2111.72,4443.88 2082.26,4639.66 2082.26,4639.66Z" style="fill:rgb(121,115,140);"/>
        </g>
    </g>
    <g id="F.Mask">
        <ellipse cx="2513.69" cy="1713.71" rx="461.178" ry="459.279" style="fill:rgb(255,0,0);fill-opacity:0.48;"/>
        <ellipse cx="1261.27" cy="2597.09" rx="311.16" ry="313.601" style="fill:rgb(255,0,0);fill-opacity:0.48;"/>
        <ellipse cx="5000.08" cy="1386.84" rx="274.989" ry="271.372" style="fill:rgb(255,0,0);fill-opacity:0.48;"/>
        <ellipse cx="4385.62" cy="2277.01" rx="307.09" ry="306.096" style="fill:rgb(255,0,0);fill-opacity:0.48;"/>
        <ellipse cx="5990.43" cy="2156.89" rx="256.903" ry="239.994" style="fill:rgb(255,0,0);fill-opacity:0.48;"/>
        <path d="M4299.47,8083.14C4318.29,8188.47 4349.46,8378.95 4326.7,8519.98C4298.22,8696.31 4111.76,9127.28 3940.31,9388.17C3833.15,9551.12 3779.89,9574.81 3770.04,9576.71C3767.68,9576.35 3763.89,9574.99 3759.82,9572.91C3724.64,9555.37 3654.65,9487.27 3551.47,9312.93C3399.28,9056.21 3253.97,8702.19 3225.39,8544.39C3199.87,8403.26 3244.14,8191.72 3265.1,8091.01C3375.44,8088.65 3485.78,8086.17 3596.1,8084.12C3610.66,8203.48 3629.02,8346.35 3638.42,8398.08C3657.23,8500.71 3735.54,8543.94 3792.78,8545.66C3852.28,8547.46 3932.94,8495.56 3948.59,8404.05C3955.91,8361.55 3970.83,8233.41 3986.38,8086.2C4090.74,8084.91 4195.11,8084.06 4299.47,8083.14Z" style="fill:rgb(255,0,0);fill-opacity:0.48;"/>
        <g>
            <path d="M2082.26,4639.66L1759.26,4586.64C1759.26,4586.64 1443.46,4521.75 1299.95,4470.65C1163.23,4421.97 985.837,4344.62 877.686,4285.67C789.067,4237.37 690.692,4194.69 615.908,4133.59C543.567,4074.55 461.97,3987.29 419.74,3917.5C381.942,3854.91 353.571,3737.62 366.321,3664.93C379.161,3591.5 452.241,3523.37 519.157,3465.26C599.547,3395.47 748.372,3311.43 869.092,3262.94C1017.03,3203.53 1164.04,3157.24 1347.7,3108.94C1537.06,3059.05 1808.22,3010.57 2007.16,2976.84C2222.65,2940.22 2463.21,2910.69 2697.96,2889.58C2942.38,2867.53 3174.33,2851.2 3422.01,2842.89C3662.28,2834.85 3952.93,2838.03 4193.19,2847.18C4434,2856.24 4684.85,2883.24 4916.88,2906.97C5140.06,2929.77 5392.07,2959.29 5585.05,2989.19C5749.44,3014.69 5935.18,3051.5 6074.71,3086.35C6192.63,3115.87 6367.8,3173.39 6467.99,3210.39C6554.17,3242.24 6607.3,3273.4 6675.42,3308.23C6755.56,3349.21 6882.5,3398.43 6948.87,3456.26C7006.66,3506.71 7044.78,3536.68 7073.39,3655.3C7106.04,3790.7 7020.94,3871.86 6957.64,3958.65C6888.82,4052.91 6768.28,4145.59 6660.86,4220.79C6553.52,4295.91 6433.7,4358.69 6313.53,4409.7C6193.35,4460.8 6056.96,4491.39 5930.36,4523.15C5783.78,4560.05 5397.5,4616.54 5397.5,4616.54C5397.5,4616.54 5391.69,4455.31 5375.87,4367.02C5360.13,4279.2 5347.51,4150.94 5294.61,4080.4C5241.35,4009.4 5110.56,3966.21 5015.43,3933.7C4861.89,3881.39 4609.21,3851.06 4395.35,3825.18C4191.62,3800.51 3947.16,3789.43 3750.57,3789.43C3562.39,3789.43 3213.88,3804.83 3213.88,3804.83C3213.88,3804.83 2836.94,3846.55 2695.78,3872.43C2583.29,3892.98 2300.63,3998.51 2300.63,3998.51C2300.63,3998.51 2232.22,4028.36 2185.56,4099.55C2138.9,4170.74 2132.42,4264.88 2122.39,4351.76C2111.72,4443.88 2082.26,4639.66 2082.26,4639.66Z" style="fill:rgb(255,0,0);fill-opacity:0.48;"/>
        </g>
    </g>
    <g id="F.SilkS">
        <path d="M350.417,3824.88C300.919,3699.87 283.407,3559.4 295.421,3430.38C304.192,3335.61 336.203,3031.86 437.572,2732.28C521.85,2483.42 665.629,2180.4 809.77,1946.38C995.236,1645.25 1180.97,1450.93 1286.32,1347.75C1519.8,1119.33 1735.47,975.641 1808.81,927.172C2166.45,690.796 2421.63,593.225 2534.85,552.352C2832.35,445.105 3130.4,387.955 3368.04,366.162C3421.31,361.289 3474.28,357.825 3526.51,355.562C3739.82,346.317 3940.79,357.088 4099.51,373.578C4370.07,401.7 4646.5,472.866 4845.26,537.703C5032.53,598.831 5222.97,688.806 5431.41,807.537C5642.28,927.715 5835.62,1069.32 5964.48,1176.57C6048.66,1246.56 6187.02,1370.9 6356.57,1574.9C6543.12,1799.43 6647.56,1981.19 6691.42,2058.6C6756.53,2173.35 6882.22,2406.47 6962.7,2636.52C7022.02,2805.89 7073.93,3017.58 7105.31,3224.02C7141.11,3460.49 7138.67,3608.88 7115.79,3702.92C7110.65,3724.19 7103.12,3749.08 7091.57,3777.31C7102.13,3705.84 7079.51,3639.17 7059.55,3586.63C7057.82,3582.08 7053.81,3570.88 7046.29,3555.84C7047.93,3479.8 7041.53,3367.1 7014.24,3199.88C7004.48,3139.65 6958.99,2868.64 6863.05,2614.27C6768.37,2363.61 6622.97,2108.33 6565.09,2013.2C6494.38,1896.82 6380.71,1728.09 6207.91,1534.21C6049.21,1356.16 5926.5,1255.24 5853.16,1197.1C5768.52,1130 5596.35,1000.24 5382.4,878.794C5178.48,763.137 4995.64,676.96 4813.7,618.002C4726.62,589.789 4417.9,492.58 4084.77,458.669C3927.88,442.664 3612.92,420.238 3276.8,462.739C2982.01,500.085 2712.18,575.23 2500.94,656.976C2373.26,706.349 2136.52,809.979 1821.83,1022.03C1598.57,1172.5 1377.92,1361.95 1198.34,1564.95C985.018,1806.21 852.723,2036.44 783.817,2163.94C667.528,2378.89 560.462,2622.95 500.057,2819.09C438.205,3019.93 399.321,3243.01 381.145,3438.42C377.188,3480.93 376.801,3525.12 380.145,3569.64C332.39,3641.13 341.729,3749.87 347.687,3811.53C348.23,3817.22 347.959,3817.22 349.677,3822.65C349.903,3823.4 350.149,3824.15 350.417,3824.88Z" style="fill:white;"/>
        <path d="M3265.1,8091.01C3185.95,8092.7 3106.81,8094.33 3027.68,8095.69C3025.23,8095.69 3022.88,8094.79 3020.53,8093.97C3019.45,8093.61 3013.48,8091.62 3007.6,8087.1C3001.81,8082.58 2998.47,8077.33 2997.84,8076.34C2993.76,8070.1 2992.41,8064.04 2992.14,8062.86C2991.6,8060.51 2991.23,8058.07 2991.05,8055.63C2990.87,8053.19 2990.6,8050.66 2991.23,8048.31C3030.03,7911.67 3070.18,7775.4 3109.24,7638.85C3070.27,7636.77 3020.08,7632.89 2983.64,7626.01C2971.97,7623.75 2961.12,7621.31 2942.31,7614.98C2852.61,7584.51 2812.01,7536.85 2799.17,7521.39C2760.37,7474.64 2725.02,7404.74 2687.85,7328.15C2664.7,7280.4 2631.7,7195.94 2611.35,7142.59C2511.43,7200.37 2269.08,7342.52 2165.54,7421.56C2105.59,7467.4 1990.93,7561.63 1861.35,7721.59C1768.48,7836.35 1679.95,7984.92 1607.16,8110.97C1546.12,8216.68 1493.67,8380.26 1438.24,8464C1420.15,8491.22 1407.49,8501.53 1403.69,8504.6C1352.69,8546.65 1264.08,8550.09 1209.1,8515.91C1180.34,8498 1151.31,8465.27 1128.35,8359.38C1117.4,8309.01 1111.62,8260.09 1106.82,8225.18C1088.38,8091.17 1062.06,7931.93 1055.73,7783.54C1047.14,7579.99 1043.7,7353.37 1064.14,7152.36C1088.11,6916.61 1109.27,6612.05 1200.69,6375.32C1295,6131.07 1455.51,5874.35 1616.65,5731.11C1651.74,5699.91 1706.9,5658.86 1796.33,5609.85C1917.95,5543.3 2048.17,5492.11 2108.12,5469.87C2095.46,5384.14 2063.54,5162.51 2053.68,5044.14C2044.39,4933.66 2045.14,4767.24 2043.97,4684.34C2044.86,4686.71 2061.67,4682.39 2063.39,4683.3C2065.92,4684.47 2091.74,4677.96 2091.74,4677.96C2091.74,4677.96 2108.53,4677.06 2125.18,4675.14C2126.72,4803.43 2130.28,4854.69 2130.91,4873.86C2135.34,5000.82 2140.13,5047.85 2144.11,5085.37C2158.85,5225.08 2190.77,5440.66 2197.92,5488.5C2198.1,5489.67 2198.37,5490.85 2198.46,5492.02C2198.73,5494.46 2199,5497 2198.91,5499.44C2198.91,5500.61 2198.73,5506.94 2196.02,5514C2195.57,5515.08 2193.3,5521.05 2188.33,5526.75C2183.36,5532.44 2177.84,5535.52 2176.76,5536.06C2172.51,5538.41 2172.42,5538.23 2167.89,5539.86C2095.1,5565.27 1819.12,5670.07 1679.23,5790.79C1647.49,5818.19 1617.1,5851.02 1612.04,5856.53C1477.3,6002.21 1353.78,6216.98 1280.53,6407.6C1194.09,6632.58 1173.47,6928.55 1149.87,7161.04C1129.79,7357.81 1133.41,7581.52 1141.82,7779.92C1148.24,7931.84 1176.72,8096.78 1195.71,8240.1C1200.96,8279.08 1214.52,8379.63 1240.11,8425.75C1246.62,8437.32 1250.87,8440.22 1253.59,8442.03C1273.03,8455.05 1312.36,8457.04 1338.59,8444.56C1348.44,8439.86 1352.33,8435.15 1355.5,8431.26C1391.31,8388.13 1433.36,8277.81 1475.67,8182.68C1510.13,8105.37 1527.49,8076.61 1543.13,8049.66C1624.61,7909.05 1707.89,7773.59 1797.78,7663.27C1861.35,7585.23 1969.95,7462.25 2114.63,7352.02C2135.88,7335.92 2216,7275.43 2473.36,7123.42C2552.84,7076.49 2612.53,7042.58 2612.53,7042.58C2614.78,7041.49 2616.96,7040.23 2619.31,7039.41C2620.39,7039.05 2626.36,7036.88 2633.96,7036.88C2635.13,7036.88 2641.46,7036.88 2648.61,7039.5C2649.69,7039.95 2655.66,7042.12 2661.45,7046.92C2662.35,7047.73 2667.23,7051.8 2671.03,7058.31C2673.38,7062.38 2673.29,7062.38 2674.92,7066.81C2689.84,7107.05 2737.41,7233.2 2765.8,7291.34C2798.53,7358.8 2839.22,7442.08 2877.84,7479.97C2904.51,7506.02 2942.04,7525.46 2983.1,7537.57C3016.55,7547.34 3101.28,7553.13 3162.14,7554.85C3166.3,7555.03 3166.3,7554.94 3166.66,7555.03C3169.01,7555.21 3171.45,7555.3 3173.81,7555.75C3176.52,7556.29 3192.43,7559.37 3202.38,7575.55C3206.09,7581.7 3207.45,7587.67 3207.72,7588.76C3208.17,7591.11 3208.53,7593.46 3208.62,7595.9C3208.89,7601.24 3208.53,7602.41 3208.44,7603.04C3148.58,7813.92 3141.89,7832.1 3091.43,8008.97C3274.36,8005.53 3457.39,8000.92 3640.32,7997.76C3642.67,7997.76 3644.93,7998.66 3647.19,7999.39C3653.97,8001.47 3658.77,8005.08 3659.67,8005.72C3660.58,8006.35 3665.46,8009.88 3669.53,8015.75C3673.6,8021.54 3675.22,8027.33 3675.59,8028.41C3676.22,8030.67 3676.58,8033.02 3676.94,8035.28C3677.12,8036.1 3677.03,8036.1 3679.11,8053.37C3697.56,8205.38 3715.46,8341.29 3723.33,8383.43C3735.63,8449.26 3784.82,8460.56 3797.66,8459.48C3815.3,8458.03 3855.81,8437.05 3863.76,8388.95C3874.07,8327.18 3895.05,8132.31 3904.37,8042.25C3904.46,8041.25 3904.55,8040.17 3904.64,8039.17C3905,8036.91 3905.36,8034.56 3905.99,8032.3C3906.26,8031.22 3907.8,8025.52 3911.69,8019.64C3912.32,8018.74 3915.58,8013.85 3921.19,8009.51C3926.79,8005.17 3932.4,8003.27 3933.39,8002.91C3938.37,8001.19 3939.63,8001.19 3940.18,8001.19C4224.66,7997.58 4244.91,7998.75 4491.87,7995.77C4443.58,7863.38 4394.39,7731.36 4346.46,7598.88C4345.56,7596.62 4345.74,7594 4345.74,7591.56C4345.65,7584.05 4347.73,7578.18 4348.09,7577C4350.53,7569.95 4354.51,7565.06 4355.24,7564.16C4359.94,7558.37 4365.27,7555.03 4366.27,7554.48C4367.26,7553.85 4372.69,7550.51 4380.01,7548.97C4382.36,7548.52 4384.81,7548.24 4387.34,7548.15C4435.08,7546.26 4482.92,7544.81 4530.76,7543.18C4532.11,7543.09 4537.9,7542.55 4538.53,7542.46C4603.37,7536.04 4642.61,7513.43 4681.95,7473.19C4724.81,7429.51 4760.98,7333.75 4790.46,7266.47C4792.36,7262.22 4810.08,7223.25 4844.54,7109.76C4849.87,7092.31 4853.94,7078.3 4855.84,7071.88C4857.02,7067.81 4856.93,7067.81 4858.73,7063.92C4866.42,7047.55 4881.07,7042.49 4883.6,7041.58C4890.11,7039.32 4895.9,7039.23 4897.07,7039.23C4903.95,7039.14 4909.55,7040.86 4910.55,7041.22C4914.35,7042.4 4914.35,7042.49 4917.87,7044.29C4939.67,7055.24 5158.77,7165.38 5296.67,7249.56C5335.47,7273.35 5357.17,7288.27 5384.21,7307.98C5440.45,7348.94 5555.75,7437.92 5671.13,7573.56C5762.46,7680.9 5842.13,7816 5910.49,7935.27C5974.06,8046.32 6043.6,8192.99 6078.96,8285.14C6098.58,8336.32 6117.75,8386.05 6146.05,8399.43C6156.63,8404.5 6167.67,8404.68 6182.32,8403.05C6218.67,8399.07 6236.3,8384.97 6248.6,8361.91C6261.08,8338.49 6266.14,8309.1 6269.94,8286.94C6290.83,8164.78 6315.52,7909.95 6325.46,7714.63C6340.65,7416.67 6328.9,7200.1 6316.24,7047.1C6303.31,6891.2 6283.96,6743.08 6263.25,6637.19C6235.94,6497.84 6192.99,6350.45 6153.29,6249.44C6107.98,6133.87 6058.25,6049.6 6026.96,6004.29C5979.58,5935.48 5914.83,5871.91 5837.97,5802.19C5783.8,5752.99 5719.33,5698.02 5648.34,5660.13C5576,5621.61 5395.6,5556.95 5334.83,5535.88C5331.31,5534.7 5331.22,5534.7 5327.96,5532.99C5326.97,5532.44 5321.99,5529.82 5317.2,5524.85C5316.48,5524.12 5312.5,5519.97 5309.51,5513.91C5309.06,5512.91 5306.53,5507.76 5305.53,5500.98C5305.26,5498.81 5305.08,5496.54 5305.17,5494.28C5305.17,5489.76 5305.44,5489.76 5306.17,5485.24C5313.67,5442.38 5342.52,5274.18 5352.92,5186.29C5366.84,5068.28 5372.27,4958.59 5372.45,4954.43C5373.63,4932.01 5375.25,4898.28 5375.8,4875.58C5377.51,4811.92 5375.69,4677.74 5375.69,4677.74C5375.62,4676.96 5386.19,4675.78 5386.43,4675.33C5407.19,4673.49 5425.28,4672.47 5434.72,4671.71C5436.35,4671.58 5444.41,4670.38 5451.03,4669.23C5453.12,4668.86 5463.51,4665.8 5463.51,4665.8C5463.51,4665.8 5464.03,4825.89 5461.43,4894.48C5459.98,4931.92 5455.1,5053.27 5438.73,5193.98C5429.78,5270.02 5407.81,5401.78 5396.87,5466.43C5465.05,5490.67 5606.11,5542.12 5679.27,5579.19C5736.6,5608.13 5787.33,5647.38 5798.81,5656.24C5825.85,5676.95 5862.75,5707.15 5930.3,5770.09C6001.01,5835.92 6059.06,5896.78 6104.55,5965.23C6124.17,5994.71 6192.99,6100.78 6252.03,6267.62C6287.57,6368.08 6330.98,6518.46 6357.47,6674C6384.96,6835.05 6409.38,7065.09 6416.34,7288C6424.84,7558.73 6408.47,7790.32 6398.26,7915.74C6384.69,8082.67 6366.52,8241.91 6350.96,8322.66C6337.22,8394.28 6303.76,8474.4 6195.97,8488.23C6176.8,8490.68 6164.23,8490.04 6161.43,8489.95C6090.89,8486.88 6055.45,8436.69 6037.27,8404.32C6018.1,8370.23 6004.54,8330.53 5991.15,8297.25C5956.52,8210.99 5894.12,8079.87 5835.71,7978.14C5764.45,7853.62 5689.04,7726.66 5602.59,7625.83C5558.73,7574.65 5459.98,7465.78 5309.42,7360.43C5221.26,7298.76 5029.73,7198.02 4924.11,7144.04C4909.82,7190.61 4888.03,7258.24 4869.77,7300.2C4841.19,7365.67 4811.8,7442.26 4771.83,7498.96C4757.73,7519.13 4745.97,7531.7 4731.41,7545.35C4681.95,7592.01 4624.98,7622.12 4538.44,7628.91C4528.68,7629.72 4526.96,7629.54 4449.46,7632.16C4497.93,7765 4547.39,7897.47 4595.5,8030.49C4596.31,8032.75 4596.13,8035.38 4596.13,8037.91C4596.22,8045.5 4594.05,8051.47 4593.6,8052.56C4593.24,8053.73 4591.07,8059.7 4586.28,8065.58C4581.39,8071.37 4575.97,8074.62 4574.88,8075.25C4572.71,8076.52 4570.45,8077.61 4568.1,8078.42C4565.84,8079.32 4563.4,8080.41 4560.96,8080.41C4473.79,8081.56 4386.63,8082.38 4299.47,8083.14C4297.72,8073.39 4296.08,8064.36 4294.6,8056.18L4362.12,8043.92C4361.73,8041.7 4361.52,8040.53 4361.52,8040.53L3934.52,8062.23L3903.14,8404.77L3830.8,8498.91L3764.52,8510.93L3706.65,8457.85L3671.56,8325.2L3628.16,8047.77L3189.13,8064.68C3189.13,8064.68 3188.5,8068.01 3187.4,8074.01L3265.27,8090.18C3265.21,8090.45 3265.16,8090.73 3265.1,8091.01Z" style="fill:white;"/>
        <path d="M3265.1,8091.01C3265.16,8090.73 3265.21,8090.45 3265.27,8090.18L3187.4,8074.01C3188.5,8068.01 3189.13,8064.68 3189.13,8064.68L3628.16,8047.77L3671.56,8325.2L3706.65,8457.85L3764.52,8510.93L3830.8,8498.91L3903.14,8404.77L3934.52,8062.23L4361.52,8040.53C4361.52,8040.53 4361.73,8041.7 4362.12,8043.92L4294.6,8056.18C4296.08,8064.36 4297.72,8073.39 4299.47,8083.14C4195.11,8084.06 4090.74,8084.91 3986.38,8086.2C3970.83,8233.41 3955.91,8361.55 3948.59,8404.05C3932.94,8495.56 3852.28,8547.46 3792.78,8545.66C3735.54,8543.94 3657.23,8500.71 3638.42,8398.08C3629.02,8346.35 3610.66,8203.48 3596.1,8084.12C3485.78,8086.17 3375.44,8088.65 3265.1,8091.01Z" style="fill:white;"/>
        <path d="M2653.85,7137.34C2651.05,7137.98 2648.24,7138.97 2645.44,7139.33C2644.08,7139.51 2637.03,7140.42 2628.71,7138.16C2611.62,7133.55 2604.12,7120.8 2602.76,7118.53C2601.31,7116 2600.14,7113.29 2599.14,7110.67C2598.6,7109.13 2569.93,7025.49 2567.4,7018.07C2456.27,6693.8 2362.76,6412.57 2303.72,6212.73C2231.83,5969.66 2153.7,5663.74 2114.18,5509.11C2114,5508.39 2113.1,5504.86 2112.82,5500.43C2112.73,5497.63 2112.91,5494.83 2113.28,5492.02C2113.64,5490.12 2115.18,5479.45 2123.77,5469.78C2125.57,5467.7 2127.66,5465.8 2129.82,5464.08C2132.09,5462.45 2134.53,5460.92 2137.06,5459.65L2145.2,5456.67C2148.09,5456.21 2150.89,5455.58 2153.79,5455.4C2156.59,5455.22 2159.49,5455.4 2162.29,5455.85C2164.19,5456.12 2174.86,5457.75 2184.53,5466.25C2186.61,5468.15 2188.51,5470.14 2190.14,5472.4C2191.86,5474.66 2193.39,5477.01 2194.57,5479.54C2195.84,5482.17 2196.83,5484.97 2197.64,5487.77C2198.73,5491.66 2250.82,5698.2 2305.98,5902.38C2369.46,6137.58 2405.99,6255.41 2437.1,6353.7C2517.3,6607.44 2624.64,6919.6 2680.62,7082.64C2686.4,7099.45 2679.71,7113.11 2678.54,7115.55C2674.83,7123.15 2669.58,7127.85 2668.59,7128.75C2665.33,7131.65 2662.35,7133.36 2661.81,7133.73L2653.85,7137.34Z" style="fill:white;"/>
        <path d="M4878.54,7137.53C4875.91,7136.35 4873.11,7135.44 4870.58,7134C4869.4,7133.28 4863.26,7129.75 4858.01,7122.97C4847.16,7108.95 4848.97,7094.21 4849.24,7091.59C4849.6,7088.69 4850.32,7085.89 4851.14,7083.09C4852.49,7078.57 4934.42,6832.97 5008.93,6598.4C5101.53,6306.59 5134.99,6182.43 5157.05,6099.42C5216.28,5876.25 5275.06,5620.7 5306.26,5485.33C5306.35,5484.61 5307.25,5481.08 5309.06,5477.1C5310.24,5474.48 5311.68,5472.04 5313.31,5469.78C5314.49,5468.15 5320.82,5459.47 5332.75,5454.77C5335.38,5453.77 5338.09,5453.05 5340.8,5452.6C5343.6,5452.05 5346.41,5451.87 5349.21,5451.87C5349.3,5451.87 5357.89,5452.96 5357.89,5452.96C5360.6,5453.95 5363.5,5454.59 5366.12,5455.76C5368.65,5456.94 5371.09,5458.38 5373.44,5460.1C5374.98,5461.19 5383.75,5467.52 5388.36,5479.54C5389.36,5482.17 5390.17,5484.88 5390.63,5487.59C5391.08,5490.4 5391.35,5493.2 5391.26,5496C5391.17,5498.9 5390.72,5501.79 5390.17,5504.59C5389.9,5505.86 5375.43,5568.52 5374.17,5574.04C5308.97,5855.81 5251.91,6087.4 5199.01,6271.14C5121.79,6538.99 4995.73,6920.23 4932.88,7110.12C4927.37,7127.03 4913.71,7133.91 4911.36,7135.08C4903.77,7138.88 4896.8,7139.42 4895.45,7139.51C4891.11,7139.88 4887.67,7139.51 4887.04,7139.42L4878.54,7137.53Z" style="fill:white;"/>
        <path d="M3940.72,8106.63C3937.82,8106.09 3934.93,8105.82 3932.13,8105C3930.86,8104.64 3924.08,8102.65 3917.39,8097.23C3903.64,8086.02 3901.93,8071.28 3901.65,8068.65C3901.29,8065.85 3901.38,8062.86 3901.47,8059.97C3901.83,8053.91 3925.89,7788.51 3938.64,7587.31C3939.63,7571.21 3948.95,7423.82 3955.91,7244.14C3961.16,7109.58 3962.69,7024.58 3964.77,6918.51C3968.93,6706.01 3971.46,6505.62 3965.04,6341.59C3960.43,6222.86 3948.4,5963.51 3917.75,5825.43C3900.21,5746.57 3856.26,5652.17 3819.64,5615.28C3814.39,5610.03 3805.98,5601.98 3788.26,5597.46C3757.15,5589.59 3717.36,5598.36 3698.37,5620.52C3675.86,5646.83 3649.9,5717.1 3629.92,5825.07C3626.3,5844.69 3609.3,5933.4 3596.19,6146.62C3587.33,6292.57 3584.71,6419.26 3584.62,6539.53C3584.35,6777.44 3594.29,6958.39 3594.47,6962.37C3603.51,7141.96 3619.7,7339.27 3634.89,7535.22C3651.35,7748 3681.28,8054.28 3681.28,8055.63C3681.28,8058.53 3681.55,8061.42 3681.28,8064.31C3680.92,8067.11 3680.38,8069.92 3679.47,8072.63C3678.93,8074.53 3675.68,8084.75 3665.73,8092.98C3663.56,8094.7 3661.3,8096.32 3658.86,8097.59C3656.33,8098.95 3653.7,8100.12 3651.08,8100.94C3650.99,8100.94 3642.49,8102.56 3642.49,8102.56C3639.6,8102.56 3636.7,8102.83 3633.81,8102.56C3631.01,8102.2 3628.2,8101.66 3625.58,8100.75C3623.68,8100.21 3613.37,8096.96 3605.14,8087.01C3603.43,8084.93 3601.8,8082.58 3600.53,8080.14C3599.18,8077.7 3598.09,8075.07 3597.28,8072.36C3596.37,8069.56 3595.92,8066.66 3595.56,8063.86C3595.29,8061.87 3587.6,7979.58 3586.88,7972.26C3558.21,7668.06 3550.62,7561.81 3544.29,7481.06C3527.65,7267.29 3511.01,7058.49 3504.23,6868.5C3500.79,6772.65 3493.65,6526.69 3503.41,6279.19C3505.85,6216.16 3516.25,5972.46 3543.38,5819.91C3564.9,5698.38 3590.4,5639.78 3597.18,5624.5C3619.07,5574.85 3640.23,5553.97 3659.49,5540.4C3718.54,5498.71 3810.77,5496.18 3867.83,5542.75C3920.55,5585.89 3967.39,5686.44 3991.18,5765.93C3996.6,5784.19 4003.29,5808.52 4011.16,5855.18C4033.5,5986.12 4044.89,6177.37 4051.31,6342.4C4058.82,6535.55 4053.66,6788.39 4049.05,7012.56C4048.24,7050.72 4044.26,7261.5 4026.89,7555.39C4016.68,7729.28 3996.69,7959.33 3987.29,8067.39C3985.75,8085.11 3974.09,8094.97 3972.1,8096.69C3965.59,8102.11 3958.89,8104.28 3957.63,8104.64C3953.56,8106 3950.03,8106.45 3949.4,8106.45L3940.72,8106.63Z" style="fill:white;"/>
        <path d="M4368.86,8030.44C4374.45,8061.91 4416.48,8305.06 4405.24,8429.91C4393.22,8563.65 4341.4,8700.92 4295.82,8829.15C4250.7,8956.38 4182.88,9099.88 4131.79,9199.44C4091.1,9278.84 4047.06,9357.96 3989.46,9426.14C3929.41,9497.49 3840.8,9623 3771.26,9627.07C3701.72,9631.05 3623.14,9522.99 3572.14,9450.29C3503.59,9352.54 3422.66,9176.93 3359.91,9040.2C3298.51,8906.37 3229.06,8748.3 3195.87,8630.11C3168.74,8533.45 3160.6,8427.56 3160.6,8330.98C3160.6,8249.61 3187.06,8099.32 3194.14,8060.53L3272.01,8076.7C3251.12,8177.07 3206.54,8389.4 3232.13,8530.92C3260.71,8688.71 3406.02,9042.73 3558.21,9299.46C3661.39,9473.8 3731.38,9541.89 3766.56,9559.43C3770.62,9561.51 3774.42,9562.87 3776.77,9563.23C3786.63,9561.33 3839.89,9537.64 3947.05,9374.69C4118.5,9113.81 4304.96,8682.83 4333.44,8506.5C4358.31,8352.41 4318.79,8139.28 4301.34,8042.7L4368.86,8030.44Z" style="fill:white;"/>
        <path d="M4368.86,8030.44L4426.85,8019.91C4448.38,8138.73 4489.61,8366.61 4456.78,8541.68C4421.25,8731.94 4253.23,9120.86 4091.01,9385.81C3973,9578.6 3900.03,9638.29 3863.31,9661.98C3812.67,9694.71 3772.52,9694.89 3739.25,9685.4C3689.42,9671.02 3618.26,9624.09 3510.1,9462.77C3337.66,9205.5 3151.74,8775.16 3109.42,8568.62C3103.18,8537.79 3092.51,8478.11 3098.66,8372.04C3105.81,8248.15 3132.21,8122.28 3147.04,8050.75L3194.14,8060.53C3187.06,8099.32 3160.6,8249.61 3160.6,8330.98C3160.6,8427.56 3168.74,8533.45 3195.87,8630.11C3229.06,8748.3 3298.51,8906.37 3359.91,9040.2C3422.66,9176.93 3503.59,9352.54 3572.14,9450.29C3623.14,9522.99 3701.72,9631.05 3771.26,9627.07C3840.8,9623 3929.41,9497.49 3989.46,9426.14C4047.06,9357.96 4091.1,9278.84 4131.79,9199.44C4182.88,9099.88 4250.7,8956.38 4295.82,8829.15C4341.4,8700.92 4393.22,8563.65 4405.24,8429.91C4416.48,8305.06 4374.45,8061.91 4368.86,8030.44Z" style="fill:white;"/>
        <path d="M3606.59,7590.38C3606.32,7593.28 3606.41,7596.26 3605.87,7599.07C3605.6,7600.42 3604.33,7607.38 3599.63,7614.62C3589.95,7629.45 3575.48,7632.61 3572.95,7633.16C3570.06,7633.79 3567.16,7634.15 3564.27,7634.24L3166.39,7641.11C3148.58,7641.39 3137.64,7630.81 3135.74,7629C3129.68,7623.12 3126.78,7616.7 3126.24,7615.43C3125.16,7612.9 3124.25,7610.19 3123.62,7607.47L3122.53,7598.79C3122.81,7595.9 3122.81,7593.01 3123.26,7590.11C3123.53,7588.85 3124.79,7581.88 3129.5,7574.65C3139.17,7559.82 3153.73,7556.56 3156.26,7556.02C3159.07,7555.39 3161.96,7555.12 3164.85,7555.03C3183.48,7554.39 3202.11,7554.3 3220.74,7554.03L3562.82,7548.06C3580.55,7547.79 3591.58,7558.37 3593.39,7560.27C3599.54,7566.15 3602.34,7572.57 3602.88,7573.74C3604.06,7576.37 3604.96,7578.99 3605.6,7581.79L3606.59,7590.38Z" style="fill:white;"/>
        <path d="M3953.74,7591.2C3954.01,7588.3 3954.01,7585.32 3954.55,7582.52C3954.83,7581.16 3956.27,7574.29 3961.06,7567.14C3971.01,7552.49 3985.57,7549.51 3988.1,7548.97C3990.99,7548.43 3993.89,7548.15 3996.78,7548.06L4388.78,7548.06C4406.6,7548.06 4417.36,7558.91 4419.17,7560.72C4425.23,7566.78 4427.94,7573.2 4428.48,7574.47C4429.57,7577 4430.38,7579.71 4431.01,7582.52L4431.83,7591.2C4431.56,7594.09 4431.56,7596.99 4431.01,7599.79C4430.47,7602.41 4427.49,7616.97 4412.84,7626.83C4410.49,7628.36 4408.05,7629.72 4405.51,7630.81C4402.89,7631.89 4400.18,7632.79 4397.47,7633.34C4394.57,7633.97 4391.68,7634.15 4388.78,7634.24C4370.43,7634.51 4352.07,7634.24 4333.81,7634.24L3996.78,7634.24C3979.06,7634.24 3968.21,7623.48 3966.4,7621.58C3960.34,7615.61 3957.63,7609.1 3957.09,7607.93C3956,7605.3 3955.19,7602.59 3954.55,7599.79L3953.74,7591.2Z" style="fill:white;"/>
        <path d="M1259.28,2249.58C1282.61,2249.67 1372.05,2250.3 1461.66,2314.6C1561.04,2385.94 1617.83,2505.49 1605.8,2631.99C1588.35,2815.92 1428.65,2957.26 1240.29,2947.04C1050.94,2936.82 902.548,2774.78 911.681,2581.72C920.362,2397.97 1071.1,2251.3 1255.94,2249.58L1259.28,2249.58ZM1259.28,2316.49C1240.57,2316.59 1165.78,2317.04 1091.9,2372.02C1013.59,2430.43 969.464,2526.2 979.682,2627.38C994.965,2777.58 1127.53,2891.97 1281.89,2879.67C1434.53,2867.56 1551.9,2733 1539.52,2575.93C1528.12,2431.88 1408.49,2317.94 1262.09,2316.59C1260.73,2316.49 1260.64,2316.59 1259.37,2316.49L1259.28,2316.49Z" style="fill:white;"/>
        <path d="M2511.79,1220.97C2545.97,1221.15 2664.43,1222.51 2786.78,1303.44C2932.46,1399.84 3020.53,1567.76 3007.06,1750.06C2987.71,2012.57 2761.28,2217.2 2490.99,2206.08C2219.62,2195.05 2005.04,1967.72 2015.43,1694.72C2025.56,1433.02 2241.5,1223.5 2507,1220.97L2511.79,1220.97ZM2511.7,1287.98C2482.13,1288.07 2376.24,1289.24 2268.36,1362.94C2145.47,1446.86 2071.41,1590.45 2083.35,1746.53C2100.98,1975.95 2302.09,2153.64 2539.37,2138.72C2773.49,2123.97 2955.7,1923.41 2940.5,1686.4C2926.4,1465.58 2742.02,1290.15 2515.95,1287.98L2511.7,1287.98Z" style="fill:white;"/>
        <path d="M5000.08,1072.33C5020.52,1072.42 5101.36,1072.87 5181.75,1131.65C5269.55,1195.94 5318.56,1302.56 5306.9,1414.33C5289.99,1576.46 5148.56,1700.26 4982.27,1690.67C4814.16,1681.09 4682.86,1536.4 4692.08,1364.86C4700.77,1202.82 4833.96,1073.87 4997.1,1072.33L5000.08,1072.33ZM5000.08,1139.34C4984.35,1139.34 4917.97,1139.52 4853.41,1189.25C4786.67,1240.53 4750.32,1323.36 4760.18,1409.62C4774.82,1537.85 4888.85,1634.7 5020.97,1623.3C5152,1612.09 5252.28,1495.8 5240.71,1360.79C5230.22,1237.72 5127.76,1140.51 5002.43,1139.34L5000.08,1139.34Z" style="fill:white;"/>
        <path d="M4385.44,1937.45C4408.14,1937.54 4495.67,1938.09 4583.29,2001.3C4680.86,2071.56 4736.2,2189.2 4724.09,2313.54C4706.45,2493.4 4550.56,2631.39 4366.81,2621.45C4181.25,2611.41 4035.94,2451.8 4045.52,2262.09C4054.57,2082.41 4201.69,1939.17 4382.09,1937.45L4385.44,1937.45ZM4385.35,2004.37C4367.17,2004.46 4294.02,2004.82 4222.04,2059.08C4145.9,2116.32 4103.31,2210 4113.52,2308.75C4128.81,2455.24 4258.03,2566.47 4408.14,2553.99C4556.26,2541.69 4669.92,2410.57 4657.9,2257.57C4646.77,2116.95 4530.39,2005.82 4388.06,2004.46C4387.88,2004.46 4387.88,2004.46 4385.44,2004.37L4385.35,2004.37Z" style="fill:white;"/>
        <path d="M5984.46,1853.96C6003.36,1854.05 6080.22,1854.32 6156.09,1910.66C6238.29,1971.52 6283.41,2071.89 6271.84,2176.42C6255.02,2327.98 6122.27,2443.09 5966.83,2433.69C5809.57,2424.19 5687.05,2288.82 5695.64,2128.32C5703.87,1976.31 5828.65,1855.41 5981.66,1853.96L5984.46,1853.96ZM5984.37,1920.97C5970.08,1920.97 5907.87,1921.06 5847.92,1968.08C5786.61,2016.1 5754.14,2092.78 5763.91,2171.81C5778.47,2289.37 5883.73,2377.53 6005.08,2366.32C6125.44,2355.2 6217.13,2247.68 6205.65,2123.34C6195.34,2010.76 6101.38,1922.05 5986.54,1920.97L5984.37,1920.97Z" style="fill:white;"/>
    </g>
    <g id="Drills">
        <circle cx="3628.9" cy="1105.26" r="355.249" style="fill:rgb(62,82,144);"/>
    </g>
    <g id="Edge.Cuts">
        <path d="M4544.38,7689.72C4576.65,7632.15 4659.59,7707.02 4792.35,7553.76C4916.18,7410.82 4899.98,7295.82 4966.84,7260.69C5033.69,7225.56 5193.46,7342.99 5193.46,7342.99C5193.46,7342.99 5393.51,7458.65 5470.68,7547.88C5551.74,7641.53 5640.24,7749.07 5640.24,7749.07C5640.24,7749.07 5761.91,7941.03 5848.03,8106.63C5893.37,8223.32 5951.38,8407.02 6039.6,8496.63C6071.29,8528.8 6106.87,8555.45 6147.16,8553.24C6236.25,8548.36 6273.55,8543.12 6321.5,8494.73C6399.1,8383.54 6402.33,8301.85 6418.71,8164.4C6456.55,7846.75 6449.69,7771.51 6460.11,7586.63C6470,7409.06 6471.85,7230.19 6462.85,7052.97C6453.84,6874.88 6433.09,6676.15 6405.72,6520.69C6344.1,6258.41 6326.88,6235.28 6326.88,6235.28C6326.88,6235.28 6278.68,6082.87 6172.85,5935.67C6106.87,5843.89 6026.21,5749.15 5952.13,5682.3C5879.73,5616.93 5714.29,5522.78 5714.29,5522.78L5481.9,5421.65C5481.9,5421.65 5505.71,5183.1 5510.83,5139.4C5522.57,5040.35 5530.08,4938.07 5533.78,4841.19C5535.2,4803.24 5535.38,4749.79 5535.02,4699.74C5710.47,4662.75 6052.48,4599.47 6184.93,4557.6C6343.42,4507.38 6510.04,4438.18 6643.9,4357.05C6775.73,4277.15 6916.17,4163.54 7006.67,4061.35C7100.09,3955.85 7165.52,3841.97 7191.57,3704.44C7217.88,3564.91 7180.47,3360.55 7153.19,3192.99C7124.23,3014.64 7077.41,2778.17 7005.89,2586.67C6933.05,2391.43 6840.64,2172.56 6738.84,1999.87C6643.92,1838.84 6539.06,1692.43 6418.71,1551.07C6298.09,1409.37 6168.85,1278.76 6024.05,1161.16C5869.88,1035.82 5656.52,881.928 5469.24,776.953C5280.38,671.108 4939.55,518.388 4939.55,518.388C4939.55,518.388 4363,353.554 4106.67,327.615C3842.49,300.893 3548.81,297.498 3276.24,330.662C3002.61,364 2722,432.068 2468.14,527.816C2216.06,622.867 1949.19,792.444 1733.65,935.631C1523.86,1074.99 1322.81,1242.72 1153.9,1418.46C987.28,1591.85 841.237,1786.39 718.504,1992.43C589.855,2208.38 457.851,2484.66 377.412,2720.46C301.035,2944.51 254.767,3199.11 234.282,3415.5C226.068,3502.47 230.533,3590.66 246.381,3676.57C270.148,3805.4 319.824,3931.79 400.088,4036.86C478.286,4139.23 586.374,4216.85 695.204,4284.81C837.522,4373.68 989.517,4447.59 1143.83,4513.82C1331.99,4594.68 1964.86,4721.75 1964.86,4721.75C1964.86,4721.75 1979.45,4953.78 1985.72,5028.56C1992.78,5111.42 2013.98,5420.42 2013.98,5420.42C2013.98,5420.42 1826.72,5485.05 1705.99,5557.19C1548.66,5651.19 1278.11,5890.99 1181.25,6138.55C1088.63,6375.22 1009.62,6760.67 985.073,6997.08C963.616,7204.6 968.561,7441.09 976.331,7622.75C982.953,7777.52 1012.09,7945.77 1030.63,8084.35C1038.71,8144.07 1084.93,8441.8 1127.94,8500.82C1191.59,8588.17 1207.7,8577.94 1303.95,8597.79C1486.81,8586.36 1483.39,8550.8 1551.04,8396.48C1603.19,8277.49 1622.48,8239.24 1648.75,8181.41C1692.38,8085.32 1715.03,8061.02 1753.26,7995.74C1821.51,7879.18 1946.75,7715.88 1946.75,7715.88C1946.75,7715.88 2094.48,7548.92 2196.99,7471.89C2262.95,7422.36 2487.64,7224.88 2575.92,7242.87C2669.35,7261.91 2640.39,7384.35 2736.3,7508.02C2812.35,7625.69 2803.14,7628.21 2880.05,7650.5C2887.2,7652.59 3012.59,7663.39 3033.45,7688.59C3054.32,7713.79 3023.12,7750.34 3005.22,7801.71C2949.88,7960.42 2947.43,8000.4 2947.55,8004.56C2929.93,8161.72 3048.27,8096.16 3075.22,8173.56C3108.18,8268.24 3030.12,8444.42 3054.54,8596.44C3086.37,8794.54 3191.62,9038.27 3273.8,9202.91C3402.84,9461.42 3553.26,9620.01 3553.26,9620.01C3586.11,9661.79 3648.15,9748.6 3794.21,9756.81C3942.12,9722.56 4027.06,9576.71 4027.06,9576.71C4027.06,9576.71 4153.5,9397.72 4305.27,9099.09C4408.77,8895.44 4467.47,8758.83 4467.47,8758.83C4467.47,8758.83 4528.05,8614.17 4529.4,8379.1C4530.26,8229.59 4480.02,8185 4494.47,8139.59C4508.24,8096.31 4574.05,8151.98 4616.08,8106.63C4658.02,8061.28 4619.13,7957.12 4598.73,7899.15C4598.73,7899.15 4512.11,7747.28 4544.38,7689.72Z" style="fill:none;stroke:rgb(138,151,255);stroke-width:35.28px;"/>
    </g>
</svg>
