<?xml version="1.0" encoding="UTF-8" standalone="no"?>
<svg
   xmlns:dc="http://purl.org/dc/elements/1.1/"
   xmlns:cc="http://creativecommons.org/ns#"
   xmlns:rdf="http://www.w3.org/1999/02/22-rdf-syntax-ns#"
   xmlns:svg="http://www.w3.org/2000/svg"
   xmlns="http://www.w3.org/2000/svg"
   xmlns:sodipodi="http://sodipodi.sourceforge.net/DTD/sodipodi-0.dtd"
   xmlns:inkscape="http://www.inkscape.org/namespaces/inkscape"
   version="1.1"
   width="4.0150023cm"
   height="4.0150023cm"
   viewBox="0 0 15807.095 15807.096"
   id="svg428"
   sodipodi:docname="back.svg"
   inkscape:version="0.92.4 5da689c313, 2019-01-14">
  <metadata
     id="metadata434">
    <rdf:RDF>
      <cc:Work
         rdf:about="">
        <dc:format>image/svg+xml</dc:format>
        <dc:type
           rdf:resource="http://purl.org/dc/dcmitype/StillImage" />
        <dc:title>SVG Picture created as nibble++-brd.svg date 2019/02/13 09:12:24 </dc:title>
      </cc:Work>
    </rdf:RDF>
  </metadata>
  <defs
     id="defs432" />
  <sodipodi:namedview
     pagecolor="#ffffff"
     bordercolor="#666666"
     borderopacity="1"
     objecttolerance="10"
     gridtolerance="10"
     guidetolerance="10"
     inkscape:pageopacity="0"
     inkscape:pageshadow="2"
     inkscape:window-width="1920"
     inkscape:window-height="1101"
     id="namedview430"
     showgrid="false"
     fit-margin-top="0"
     fit-margin-left="0"
     fit-margin-right="0"
     fit-margin-bottom="0"
     inkscape:zoom="4.8752273"
     inkscape:cx="53.230855"
     inkscape:cy="81.266442"
     inkscape:window-x="1920"
     inkscape:window-y="28"
     inkscape:window-maximized="1"
     inkscape:current-layer="svg428" />
  <title
     id="title2">SVG Picture created as nibble++-brd.svg date 2019/02/13 09:12:24 </title>
  <desc
     id="desc4">Picture generated by PCBNEW </desc>
  <g
     style="fill:#000000;fill-opacity:1;stroke:#000000;stroke-linecap:round;stroke-linejoin:round;stroke-opacity:1"
     id="g6"
     transform="translate(-3151.3528,-1666.5325)" />
  <g
     style="fill:#000000;fill-opacity:0;stroke:#000000;stroke-width:-0.0003937;stroke-linecap:round;stroke-linejoin:round;stroke-opacity:1"
     id="g8"
     transform="translate(-3151.3528,-1666.5325)" />
  <g
     style="fill:#008400;fill-opacity:0;stroke:#008400;stroke-width:-0.0003937;stroke-linecap:round;stroke-linejoin:round;stroke-opacity:1"
     id="g10"
     transform="translate(-3151.3528,-1666.5325)" />
  <g
     style="fill:#008400;fill-opacity:0;stroke:#008400;stroke-width:0;stroke-linecap:round;stroke-linejoin:round;stroke-opacity:1"
     id="g12"
     transform="translate(-3151.3528,-1666.5325)" />
  <g
     style="fill:#008400;fill-opacity:1;stroke:#008400;stroke-width:0;stroke-linecap:round;stroke-linejoin:round;stroke-opacity:1"
     id="g50"
     transform="translate(-3151.3528,-1666.5325)">
    <polyline
       style="fill-rule:evenodd"
       points="5083,11624 5074,11626 5064,11628 5055,11631 5047,11636 5038,11640 5031,11646 5023,11653 5017,11660 5011,11668 5006,11676 5002,11685 4999,11694 4996,11703 4995,11713 4995,11722 4995,12077 4995,12086 4996,12096 4999,12105 5002,12114 5006,12123 5011,12131 5017,12139 5023,12146 5031,12153 5038,12159 5047,12163 5055,12168 5064,12171 5074,12173 5083,12175 5093,12175 5349,12175 5359,12175 5368,12173 5377,12171 5387,12168 5395,12163 5404,12159 5411,12153 5419,12146 5425,12139 5431,12131 5436,12123 5440,12114 5443,12105 5445,12096 5447,12086 5447,12077 5447,11722 5447,11713 5445,11703 5443,11694 5440,11685 5436,11676 5431,11668 5425,11660 5419,11653 5411,11646 5404,11640 5395,11636 5387,11631 5377,11628 5368,11626 5359,11624 5349,11624 5093,11624 5083,11624 "
       id="polyline14" />
    <polyline
       style="fill-rule:evenodd"
       points="5890,11624 5881,11626 5872,11628 5862,11631 5854,11636 5845,11640 5838,11646 5830,11653 5824,11660 5818,11668 5813,11676 5809,11685 5806,11694 5804,11703 5802,11713 5802,11722 5802,12077 5802,12086 5804,12096 5806,12105 5809,12114 5813,12123 5818,12131 5824,12139 5830,12146 5838,12153 5845,12159 5854,12163 5862,12168 5872,12171 5881,12173 5890,12175 5900,12175 6156,12175 6166,12175 6175,12173 6185,12171 6194,12168 6202,12163 6211,12159 6218,12153 6226,12146 6232,12139 6238,12131 6243,12123 6247,12114 6250,12105 6253,12096 6254,12086 6254,12077 6254,11722 6254,11713 6253,11703 6250,11694 6247,11685 6243,11676 6238,11668 6232,11660 6226,11653 6218,11646 6211,11640 6202,11636 6194,11631 6185,11628 6175,11626 6166,11624 6156,11624 5900,11624 5890,11624 "
       id="polyline16" />
    <polyline
       style="fill-rule:evenodd"
       points="5083,12524 5074,12526 5064,12528 5055,12531 5047,12536 5038,12540 5031,12546 5023,12553 5017,12560 5011,12568 5006,12576 5002,12585 4999,12594 4996,12603 4995,12613 4995,12622 4995,12977 4995,12986 4996,12996 4999,13005 5002,13014 5006,13023 5011,13031 5017,13039 5023,13046 5031,13053 5038,13059 5047,13063 5055,13068 5064,13071 5074,13073 5083,13075 5093,13075 5349,13075 5359,13075 5368,13073 5377,13071 5387,13068 5395,13063 5404,13059 5411,13053 5419,13046 5425,13039 5431,13031 5436,13023 5440,13014 5443,13005 5445,12996 5447,12986 5447,12977 5447,12622 5447,12613 5445,12603 5443,12594 5440,12585 5436,12576 5431,12568 5425,12560 5419,12553 5411,12546 5404,12540 5395,12536 5387,12531 5377,12528 5368,12526 5359,12524 5349,12524 5093,12524 5083,12524 "
       id="polyline18" />
    <polyline
       style="fill-rule:evenodd"
       points="5890,12524 5881,12526 5872,12528 5862,12531 5854,12536 5845,12540 5838,12546 5830,12553 5824,12560 5818,12568 5813,12576 5809,12585 5806,12594 5804,12603 5802,12613 5802,12622 5802,12977 5802,12986 5804,12996 5806,13005 5809,13014 5813,13023 5818,13031 5824,13039 5830,13046 5838,13053 5845,13059 5854,13063 5862,13068 5872,13071 5881,13073 5890,13075 5900,13075 6156,13075 6166,13075 6175,13073 6185,13071 6194,13068 6202,13063 6211,13059 6218,13053 6226,13046 6232,13039 6238,13031 6243,13023 6247,13014 6250,13005 6253,12996 6254,12986 6254,12977 6254,12622 6254,12613 6253,12603 6250,12594 6247,12585 6243,12576 6238,12568 6232,12560 6226,12553 6218,12546 6211,12540 6202,12536 6194,12531 6185,12528 6175,12526 6166,12524 6156,12524 5900,12524 5890,12524 "
       id="polyline20" />
    <polyline
       style="fill-rule:evenodd"
       points="5080,13424 5070,13426 5061,13428 5052,13431 5043,13436 5035,13440 5027,13446 5020,13453 5013,13460 5008,13468 5003,13476 4999,13485 4995,13494 4993,13503 4992,13513 4991,13522 4991,13877 4992,13886 4993,13896 4995,13905 4999,13914 5003,13923 5008,13931 5013,13939 5020,13946 5027,13953 5035,13959 5043,13963 5052,13968 5061,13971 5070,13973 5080,13975 5089,13975 5345,13975 5355,13975 5365,13973 5374,13971 5383,13968 5392,13963 5400,13959 5408,13953 5415,13946 5421,13939 5427,13931 5432,13923 5436,13914 5440,13905 5442,13896 5443,13886 5444,13877 5444,13522 5443,13513 5442,13503 5440,13494 5436,13485 5432,13476 5427,13468 5421,13460 5415,13453 5408,13446 5400,13440 5392,13436 5383,13431 5374,13428 5365,13426 5355,13424 5345,13424 5089,13424 5080,13424 "
       id="polyline22" />
    <polyline
       style="fill-rule:evenodd"
       points="5887,13424 5877,13426 5868,13428 5859,13431 5850,13436 5842,13440 5834,13446 5827,13453 5820,13460 5815,13468 5810,13476 5806,13485 5802,13494 5800,13503 5799,13513 5798,13522 5798,13877 5799,13886 5800,13896 5802,13905 5806,13914 5810,13923 5815,13931 5820,13939 5827,13946 5834,13953 5842,13959 5850,13963 5859,13968 5868,13971 5877,13973 5887,13975 5897,13975 6152,13975 6162,13975 6172,13973 6181,13971 6190,13968 6199,13963 6207,13959 6215,13953 6222,13946 6229,13939 6234,13931 6239,13923 6243,13914 6247,13905 6249,13896 6250,13886 6251,13877 6251,13522 6250,13513 6249,13503 6247,13494 6243,13485 6239,13476 6234,13468 6229,13460 6222,13453 6215,13446 6207,13440 6199,13436 6190,13431 6181,13428 6172,13426 6162,13424 6152,13424 5897,13424 5887,13424 "
       id="polyline24" />
    <polyline
       style="fill-rule:evenodd"
       points="7687,14724 7677,14726 7668,14728 7659,14731 7650,14736 7642,14740 7634,14746 7627,14753 7620,14760 7615,14768 7610,14776 7606,14785 7602,14794 7600,14803 7599,14813 7598,14822 7598,15177 7599,15186 7600,15196 7602,15205 7606,15214 7610,15223 7615,15231 7620,15239 7627,15246 7634,15253 7642,15259 7650,15263 7659,15268 7668,15271 7677,15273 7687,15275 7697,15275 7952,15275 7962,15275 7972,15273 7981,15271 7990,15268 7999,15263 8007,15259 8015,15253 8022,15246 8029,15239 8034,15231 8039,15223 8043,15214 8047,15205 8049,15196 8050,15186 8051,15177 8051,14822 8050,14813 8049,14803 8047,14794 8043,14785 8039,14776 8034,14768 8029,14760 8022,14753 8015,14746 8007,14740 7999,14736 7990,14731 7981,14728 7972,14726 7962,14724 7952,14724 7697,14724 7687,14724 "
       id="polyline26" />
    <polyline
       style="fill-rule:evenodd"
       points="8494,14724 8484,14726 8475,14728 8466,14731 8457,14736 8449,14740 8441,14746 8434,14753 8428,14760 8422,14768 8417,14776 8413,14785 8409,14794 8407,14803 8406,14813 8405,14822 8405,15177 8406,15186 8407,15196 8409,15205 8413,15214 8417,15223 8422,15231 8428,15239 8434,15246 8441,15253 8449,15259 8457,15263 8466,15268 8475,15271 8484,15273 8494,15275 8504,15275 8760,15275 8769,15275 8779,15273 8788,15271 8797,15268 8806,15263 8814,15259 8822,15253 8829,15246 8836,15239 8841,15231 8846,15223 8850,15214 8854,15205 8856,15196 8857,15186 8858,15177 8858,14822 8857,14813 8856,14803 8854,14794 8850,14785 8846,14776 8841,14768 8836,14760 8829,14753 8822,14746 8814,14740 8806,14736 8797,14731 8788,14728 8779,14726 8769,14724 8760,14724 8504,14724 8494,14724 "
       id="polyline28" />
    <polyline
       style="fill-rule:evenodd"
       points="7687,13624 7677,13626 7668,13628 7659,13631 7650,13636 7642,13640 7634,13646 7627,13653 7620,13660 7615,13668 7610,13676 7606,13685 7602,13694 7600,13703 7599,13713 7598,13722 7598,14077 7599,14086 7600,14096 7602,14105 7606,14114 7610,14123 7615,14131 7620,14139 7627,14146 7634,14153 7642,14159 7650,14163 7659,14168 7668,14171 7677,14173 7687,14175 7697,14175 7952,14175 7962,14175 7972,14173 7981,14171 7990,14168 7999,14163 8007,14159 8015,14153 8022,14146 8029,14139 8034,14131 8039,14123 8043,14114 8047,14105 8049,14096 8050,14086 8051,14077 8051,13722 8050,13713 8049,13703 8047,13694 8043,13685 8039,13676 8034,13668 8029,13660 8022,13653 8015,13646 8007,13640 7999,13636 7990,13631 7981,13628 7972,13626 7962,13624 7952,13624 7697,13624 7687,13624 "
       id="polyline30" />
    <polyline
       style="fill-rule:evenodd"
       points="8494,13624 8484,13626 8475,13628 8466,13631 8457,13636 8449,13640 8441,13646 8434,13653 8428,13660 8422,13668 8417,13676 8413,13685 8409,13694 8407,13703 8406,13713 8405,13722 8405,14077 8406,14086 8407,14096 8409,14105 8413,14114 8417,14123 8422,14131 8428,14139 8434,14146 8441,14153 8449,14159 8457,14163 8466,14168 8475,14171 8484,14173 8494,14175 8504,14175 8760,14175 8769,14175 8779,14173 8788,14171 8797,14168 8806,14163 8814,14159 8822,14153 8829,14146 8836,14139 8841,14131 8846,14123 8850,14114 8854,14105 8856,14096 8857,14086 8858,14077 8858,13722 8857,13713 8856,13703 8854,13694 8850,13685 8846,13676 8841,13668 8836,13660 8829,13653 8822,13646 8814,13640 8806,13636 8797,13631 8788,13628 8779,13626 8769,13624 8760,13624 8504,13624 8494,13624 "
       id="polyline32" />
    <polyline
       style="fill-rule:evenodd"
       points="13867,15168 13867,14931 13256,14931 13256,15168 13867,15168 "
       id="polyline34" />
    <polyline
       style="fill-rule:evenodd"
       points="13867,14668 13867,14431 13256,14431 13256,14668 13867,14668 "
       id="polyline36" />
    <polyline
       style="fill-rule:evenodd"
       points="13867,14168 13867,13931 13256,13931 13256,14168 13867,14168 "
       id="polyline38" />
    <polyline
       style="fill-rule:evenodd"
       points="13867,13668 13867,13431 13256,13431 13256,13668 13867,13668 "
       id="polyline40" />
    <polyline
       style="fill-rule:evenodd"
       points="15993,13668 15993,13431 15382,13431 15382,13668 15993,13668 "
       id="polyline42" />
    <polyline
       style="fill-rule:evenodd"
       points="15993,14168 15993,13931 15382,13931 15382,14168 15993,14168 "
       id="polyline44" />
    <polyline
       style="fill-rule:evenodd"
       points="15993,14668 15993,14431 15382,14431 15382,14668 15993,14668 "
       id="polyline46" />
    <polyline
       style="fill-rule:evenodd"
       points="15993,15168 15993,14931 15382,14931 15382,15168 15993,15168 "
       id="polyline48" />
  </g>
  <g
     style="fill:#848400;fill-opacity:1;stroke:#848400;stroke-width:0;stroke-linecap:round;stroke-linejoin:round;stroke-opacity:1"
     id="g54"
     transform="translate(-3151.3528,-1666.5325)">
    <circle
       cx="11054.9"
       cy="3270.8701"
       r="984.25201"
       id="circle52" />
  </g>
  <g
     style="fill:#848400;fill-opacity:1;stroke:#848400;stroke-width:39.37009811;stroke-linecap:round;stroke-linejoin:round;stroke-opacity:1"
     id="g56"
     transform="translate(-3151.3528,-1666.5325)" />
  <g
     style="fill:#008400;fill-opacity:1;stroke:#008400;stroke-width:39.37009811;stroke-linecap:round;stroke-linejoin:round;stroke-opacity:1"
     id="g58"
     transform="translate(-3151.3528,-1666.5325)" />
  <g
     style="fill:#008400;fill-opacity:1;stroke:#008400;stroke-width:0;stroke-linecap:round;stroke-linejoin:round;stroke-opacity:1"
     id="g76"
     transform="translate(-3151.3528,-1666.5325)">
    <polyline
       style="fill-rule:evenodd"
       points="4775,8861 4775,10278 5799,10278 5799,8861 4775,8861 "
       id="polyline60" />
    <polyline
       style="fill-rule:evenodd"
       points="16310,8861 16310,10278 17334,10278 17334,8861 16310,8861 "
       id="polyline62" />
    <polyline
       style="fill-rule:evenodd"
       points="12325,16983 12325,16216 11892,16216 11892,16983 12325,16983 "
       id="polyline64" />
    <polyline
       style="fill-rule:evenodd"
       points="11341,16983 11341,16216 10908,16216 10908,16983 11341,16983 "
       id="polyline66" />
    <polyline
       style="fill-rule:evenodd"
       points="10357,16983 10357,16216 9924,16216 9924,16983 10357,16983 "
       id="polyline68" />
    <polyline
       style="fill-rule:evenodd"
       points="10357,14759 10357,13991 9924,13991 9924,14759 10357,14759 "
       id="polyline70" />
    <polyline
       style="fill-rule:evenodd"
       points="12325,14759 12325,13991 11892,13991 11892,14759 12325,14759 "
       id="polyline72" />
    <polyline
       style="fill-rule:evenodd"
       points="11341,14759 11341,13991 10908,13991 10908,14759 11341,14759 "
       id="polyline74" />
  </g>
  <g
     style="fill:#c2c2c2;fill-opacity:1;stroke:#c2c2c2;stroke-width:0;stroke-linecap:round;stroke-linejoin:round;stroke-opacity:1"
     id="g80"
     transform="translate(-3151.3528,-1666.5325)">
    <circle
       cx="7961.9199"
       cy="4951.04"
       r="157.48"
       id="circle78" />
  </g>
  <g
     style="fill:#c2c2c2;fill-opacity:1;stroke:#c2c2c2;stroke-width:39.37009811;stroke-linecap:round;stroke-linejoin:round;stroke-opacity:1"
     id="g82"
     transform="translate(-3151.3528,-1666.5325)" />
  <g
     style="fill:#c2c2c2;fill-opacity:1;stroke:#c2c2c2;stroke-width:0;stroke-linecap:round;stroke-linejoin:round;stroke-opacity:1"
     id="g86"
     transform="translate(-3151.3528,-1666.5325)">
    <circle
       cx="6458.25"
       cy="6303.25"
       r="157.48"
       id="circle84" />
  </g>
  <g
     style="fill:#c2c2c2;fill-opacity:1;stroke:#c2c2c2;stroke-width:39.37009811;stroke-linecap:round;stroke-linejoin:round;stroke-opacity:1"
     id="g88"
     transform="translate(-3151.3528,-1666.5325)" />
  <g
     style="fill:#c2c2c2;fill-opacity:1;stroke:#c2c2c2;stroke-width:0;stroke-linecap:round;stroke-linejoin:round;stroke-opacity:1"
     id="g92"
     transform="translate(-3151.3528,-1666.5325)">
    <circle
       cx="8227.2803"
       cy="5990.1201"
       r="119.055"
       id="circle90" />
  </g>
  <g
     style="fill:#c2c2c2;fill-opacity:1;stroke:#c2c2c2;stroke-width:39.37009811;stroke-linecap:round;stroke-linejoin:round;stroke-opacity:1"
     id="g94"
     transform="translate(-3151.3528,-1666.5325)" />
  <g
     style="fill:#c2c2c2;fill-opacity:1;stroke:#c2c2c2;stroke-width:0;stroke-linecap:round;stroke-linejoin:round;stroke-opacity:1"
     id="g98"
     transform="translate(-3151.3528,-1666.5325)">
    <circle
       cx="6527.9902"
       cy="4813.5498"
       r="119.055"
       id="circle96" />
  </g>
  <g
     style="fill:#c2c2c2;fill-opacity:1;stroke:#c2c2c2;stroke-width:39.37009811;stroke-linecap:round;stroke-linejoin:round;stroke-opacity:1"
     id="g100"
     transform="translate(-3151.3528,-1666.5325)" />
  <g
     style="fill:#c2c2c2;fill-opacity:1;stroke:#c2c2c2;stroke-width:0;stroke-linecap:round;stroke-linejoin:round;stroke-opacity:1"
     id="g104"
     transform="translate(-3151.3528,-1666.5325)">
    <circle
       cx="9575"
       cy="4975"
       r="157.48"
       id="circle102" />
  </g>
  <g
     style="fill:#c2c2c2;fill-opacity:1;stroke:#c2c2c2;stroke-width:39.37009811;stroke-linecap:round;stroke-linejoin:round;stroke-opacity:1"
     id="g106"
     transform="translate(-3151.3528,-1666.5325)" />
  <g
     style="fill:#c2c2c2;fill-opacity:1;stroke:#c2c2c2;stroke-width:0;stroke-linecap:round;stroke-linejoin:round;stroke-opacity:1"
     id="g110"
     transform="translate(-3151.3528,-1666.5325)">
    <circle
       cx="7566.3101"
       cy="5112.2002"
       r="157.48"
       id="circle108" />
  </g>
  <g
     style="fill:#c2c2c2;fill-opacity:1;stroke:#c2c2c2;stroke-width:39.37009811;stroke-linecap:round;stroke-linejoin:round;stroke-opacity:1"
     id="g112"
     transform="translate(-3151.3528,-1666.5325)" />
  <g
     style="fill:#c2c2c2;fill-opacity:1;stroke:#c2c2c2;stroke-width:0;stroke-linecap:round;stroke-linejoin:round;stroke-opacity:1"
     id="g116"
     transform="translate(-3151.3528,-1666.5325)">
    <circle
       cx="7831.1001"
       cy="6322.6001"
       r="157.48"
       id="circle114" />
  </g>
  <g
     style="fill:#c2c2c2;fill-opacity:1;stroke:#c2c2c2;stroke-width:39.37009811;stroke-linecap:round;stroke-linejoin:round;stroke-opacity:1"
     id="g118"
     transform="translate(-3151.3528,-1666.5325)" />
  <g
     style="fill:#c2c2c2;fill-opacity:1;stroke:#c2c2c2;stroke-width:0;stroke-linecap:round;stroke-linejoin:round;stroke-opacity:1"
     id="g122"
     transform="translate(-3151.3528,-1666.5325)">
    <circle
       cx="7061.4199"
       cy="4866.46"
       r="157.48"
       id="circle120" />
  </g>
  <g
     style="fill:#c2c2c2;fill-opacity:1;stroke:#c2c2c2;stroke-width:39.37009811;stroke-linecap:round;stroke-linejoin:round;stroke-opacity:1"
     id="g124"
     transform="translate(-3151.3528,-1666.5325)" />
  <g
     style="fill:#c2c2c2;fill-opacity:1;stroke:#c2c2c2;stroke-width:0;stroke-linecap:round;stroke-linejoin:round;stroke-opacity:1"
     id="g128"
     transform="translate(-3151.3528,-1666.5325)">
    <circle
       cx="6948.5498"
       cy="6296.2202"
       r="157.48"
       id="circle126" />
  </g>
  <g
     style="fill:#c2c2c2;fill-opacity:1;stroke:#c2c2c2;stroke-width:39.37009811;stroke-linecap:round;stroke-linejoin:round;stroke-opacity:1"
     id="g130"
     transform="translate(-3151.3528,-1666.5325)" />
  <g
     style="fill:#c2c2c2;fill-opacity:1;stroke:#c2c2c2;stroke-width:0;stroke-linecap:round;stroke-linejoin:round;stroke-opacity:1"
     id="g134"
     transform="translate(-3151.3528,-1666.5325)">
    <circle
       cx="8750"
       cy="5225"
       r="157.48"
       id="circle132" />
  </g>
  <g
     style="fill:#c2c2c2;fill-opacity:1;stroke:#c2c2c2;stroke-width:39.37009811;stroke-linecap:round;stroke-linejoin:round;stroke-opacity:1"
     id="g136"
     transform="translate(-3151.3528,-1666.5325)" />
  <g
     style="fill:#008400;fill-opacity:1;stroke:#008400;stroke-width:39.37009811;stroke-linecap:round;stroke-linejoin:round;stroke-opacity:1"
     id="g138"
     transform="translate(-3151.3528,-1666.5325)" />
  <g
     style="fill:#008400;fill-opacity:1;stroke:#008400;stroke-width:120;stroke-linecap:round;stroke-linejoin:round;stroke-opacity:1"
     id="g140"
     transform="translate(-3151.3528,-1666.5325)" />
  <g
     style="fill:#008400;fill-opacity:0;stroke:#008400;stroke-width:120;stroke-linecap:round;stroke-linejoin:round;stroke-opacity:1"
     id="g164"
     transform="translate(-3151.3528,-1666.5325)">
    <path
       d="m 6028,11585 v 315"
       id="path142"
       inkscape:connector-curvature="0" />
    <path
       d="m 5919,9570 109,109"
       id="path144"
       inkscape:connector-curvature="0" />
    <path
       d="m 6028,9679 v 1906"
       id="path146"
       inkscape:connector-curvature="0" />
    <path
       d="m 5287,9570 h 632"
       id="path148"
       inkscape:connector-curvature="0" />
    <path
       d="M 5524,12385 H 4995"
       id="path150"
       inkscape:connector-curvature="0" />
    <path
       d="m 4856,12524 v 814"
       id="path152"
       inkscape:connector-curvature="0" />
    <path
       d="m 4972,13454 245,246"
       id="path154"
       inkscape:connector-curvature="0" />
    <path
       d="m 4856,13338 116,116"
       id="path156"
       inkscape:connector-curvature="0" />
    <path
       d="m 4995,12385 -139,139"
       id="path158"
       inkscape:connector-curvature="0" />
    <path
       d="m 5939,12800 -415,-415"
       id="path160"
       inkscape:connector-curvature="0" />
    <path
       d="m 6028,12800 h -89"
       id="path162"
       inkscape:connector-curvature="0" />
  </g>
  <g
     style="fill:#008400;fill-opacity:0;stroke:#008400;stroke-width:98.42520142;stroke-linecap:round;stroke-linejoin:round;stroke-opacity:1"
     id="g334"
     transform="translate(-3151.3528,-1666.5325)">
    <path
       d="m 11125,14857 v 1743"
       id="path166"
       inkscape:connector-curvature="0" />
    <path
       d="m 11125,14375 v 482"
       id="path168"
       inkscape:connector-curvature="0" />
    <path
       d="M 16822,14568 V 9570"
       id="path170"
       inkscape:connector-curvature="0" />
    <path
       d="m 11125,16767 344,344"
       id="path172"
       inkscape:connector-curvature="0" />
    <path
       d="m 12488,17111 1687,-1686"
       id="path174"
       inkscape:connector-curvature="0" />
    <path
       d="m 15966,15425 856,-857"
       id="path176"
       inkscape:connector-curvature="0" />
    <path
       d="m 11125,16600 v 167"
       id="path178"
       inkscape:connector-curvature="0" />
    <path
       d="m 11469,17111 h 1019"
       id="path180"
       inkscape:connector-curvature="0" />
    <path
       d="m 14175,15425 h 1791"
       id="path182"
       inkscape:connector-curvature="0" />
    <path
       d="m 12109,14857 v 1743"
       id="path184"
       inkscape:connector-curvature="0" />
    <path
       d="m 12109,14375 v 482"
       id="path186"
       inkscape:connector-curvature="0" />
    <path
       d="m 12109,14542 v -167"
       id="path188"
       inkscape:connector-curvature="0" />
    <path
       d="m 12616,15050 -507,-508"
       id="path190"
       inkscape:connector-curvature="0" />
    <path
       d="m 13562,15050 h -946"
       id="path192"
       inkscape:connector-curvature="0" />
    <path
       d="m 13562,15050 h -886"
       id="path194"
       inkscape:connector-curvature="0" />
    <path
       d="m 9430,15000 82,81"
       id="path196"
       inkscape:connector-curvature="0" />
    <path
       d="m 8632,15000 h 798"
       id="path198"
       inkscape:connector-curvature="0" />
    <path
       d="m 9512,15081 v -81"
       id="path200"
       inkscape:connector-curvature="0" />
    <path
       d="M 9425,15000 H 8632"
       id="path202"
       inkscape:connector-curvature="0" />
    <path
       d="m 9512,14912 -87,88"
       id="path204"
       inkscape:connector-curvature="0" />
    <path
       d="m 9512,15000 h -87"
       id="path206"
       inkscape:connector-curvature="0" />
    <path
       d="m 9512,14900 v 12"
       id="path208"
       inkscape:connector-curvature="0" />
    <path
       d="m 9512,15000 v -100"
       id="path210"
       inkscape:connector-curvature="0" />
    <path
       d="m 9417,4817 158,158"
       id="path212"
       inkscape:connector-curvature="0" />
    <path
       d="M 4275,10953 V 7479"
       id="path214"
       inkscape:connector-curvature="0" />
    <path
       d="m 5221,11900 -946,-947"
       id="path216"
       inkscape:connector-curvature="0" />
    <path
       d="M 4275,7479 6775,4979"
       id="path218"
       inkscape:connector-curvature="0" />
    <path
       d="M 6775,4979 V 4679"
       id="path220"
       inkscape:connector-curvature="0" />
    <path
       d="m 6775,4679 112,-113"
       id="path222"
       inkscape:connector-curvature="0" />
    <path
       d="m 9166,4566 251,251"
       id="path224"
       inkscape:connector-curvature="0" />
    <path
       d="M 6887,4566 H 9166"
       id="path226"
       inkscape:connector-curvature="0" />
    <path
       d="M 8825,16110 H 7003"
       id="path228"
       inkscape:connector-curvature="0" />
    <path
       d="m 9512,15423 -687,687"
       id="path230"
       inkscape:connector-curvature="0" />
    <path
       d="M 7003,16110 4668,13775"
       id="path232"
       inkscape:connector-curvature="0" />
    <path
       d="M 4668,13775 V 12446"
       id="path234"
       inkscape:connector-curvature="0" />
    <path
       d="m 9512,15081 v 342"
       id="path236"
       inkscape:connector-curvature="0" />
    <path
       d="m 4976,12145 245,-245"
       id="path238"
       inkscape:connector-curvature="0" />
    <path
       d="m 4969,12145 h 7"
       id="path240"
       inkscape:connector-curvature="0" />
    <path
       d="m 4668,12446 301,-301"
       id="path242"
       inkscape:connector-curvature="0" />
    <path
       d="m 14824,13550 h 863"
       id="path244"
       inkscape:connector-curvature="0" />
    <path
       d="m 5801,12396 h 7869"
       id="path246"
       inkscape:connector-curvature="0" />
    <path
       d="m 13670,12396 1154,1154"
       id="path248"
       inkscape:connector-curvature="0" />
    <path
       d="m 5221,11900 h 84"
       id="path250"
       inkscape:connector-curvature="0" />
    <path
       d="m 5305,11900 496,496"
       id="path252"
       inkscape:connector-curvature="0" />
    <path
       d="m 12109,14208 v 167"
       id="path254"
       inkscape:connector-curvature="0" />
    <path
       d="m 11751,13850 358,358"
       id="path256"
       inkscape:connector-curvature="0" />
    <path
       d="m 9721,13850 h 2030"
       id="path258"
       inkscape:connector-curvature="0" />
    <path
       d="m 9512,14060 209,-210"
       id="path260"
       inkscape:connector-curvature="0" />
    <path
       d="m 9512,14900 v -840"
       id="path262"
       inkscape:connector-curvature="0" />
    <path
       d="m 13965,14050 h -403"
       id="path264"
       inkscape:connector-curvature="0" />
    <path
       d="m 14784,14050 h -819"
       id="path266"
       inkscape:connector-curvature="0" />
    <path
       d="m 15687,14550 h -403"
       id="path268"
       inkscape:connector-curvature="0" />
    <path
       d="m 13562,14050 h -187"
       id="path270"
       inkscape:connector-curvature="0" />
    <path
       d="m 7825,13585 v 315"
       id="path272"
       inkscape:connector-curvature="0" />
    <path
       d="M 12585,13260 H 8149"
       id="path274"
       inkscape:connector-curvature="0" />
    <path
       d="m 8149,13260 -324,325"
       id="path276"
       inkscape:connector-curvature="0" />
    <path
       d="m 15284,14550 -500,-500"
       id="path278"
       inkscape:connector-curvature="0" />
    <path
       d="m 13375,14050 -790,-790"
       id="path280"
       inkscape:connector-curvature="0" />
    <path
       d="m 7559,13900 -450,450"
       id="path282"
       inkscape:connector-curvature="0" />
    <path
       d="M 7825,13900 H 7559"
       id="path284"
       inkscape:connector-curvature="0" />
    <path
       d="M 7109,14350 H 5975"
       id="path286"
       inkscape:connector-curvature="0" />
    <path
       d="m 5572,13150 -106,-105"
       id="path288"
       inkscape:connector-curvature="0" />
    <path
       d="m 5572,13947 v -797"
       id="path290"
       inkscape:connector-curvature="0" />
    <path
       d="m 5466,13045 -245,-245"
       id="path292"
       inkscape:connector-curvature="0" />
    <path
       d="m 5975,14350 -403,-403"
       id="path294"
       inkscape:connector-curvature="0" />
    <path
       d="m 13637,13625 -75,-75"
       id="path296"
       inkscape:connector-curvature="0" />
    <path
       d="m 13562,13333 -334,-333"
       id="path298"
       inkscape:connector-curvature="0" />
    <path
       d="m 13562,13550 v -217"
       id="path300"
       inkscape:connector-curvature="0" />
    <path
       d="m 6725,13000 -700,700"
       id="path302"
       inkscape:connector-curvature="0" />
    <path
       d="M 13228,13000 H 6725"
       id="path304"
       inkscape:connector-curvature="0" />
    <path
       d="m 7566,5112 265,264"
       id="path306"
       inkscape:connector-curvature="0" />
    <path
       d="m 7831,5376 v 723"
       id="path308"
       inkscape:connector-curvature="0" />
    <path
       d="m 7831,6099 v 223"
       id="path310"
       inkscape:connector-curvature="0" />
    <path
       d="m 7061,6183 -113,113"
       id="path312"
       inkscape:connector-curvature="0" />
    <path
       d="M 7061,4866 V 6183"
       id="path314"
       inkscape:connector-curvature="0" />
    <path
       d="m 8632,14192 v -292"
       id="path316"
       inkscape:connector-curvature="0" />
    <path
       d="m 7825,15000 807,-808"
       id="path318"
       inkscape:connector-curvature="0" />
    <path
       d="m 9183,13614 -286,286"
       id="path320"
       inkscape:connector-curvature="0" />
    <path
       d="M 8897,13900 H 8632"
       id="path322"
       inkscape:connector-curvature="0" />
    <path
       d="M 12223,13614 H 9183"
       id="path324"
       inkscape:connector-curvature="0" />
    <path
       d="m 13562,14550 h -404"
       id="path326"
       inkscape:connector-curvature="0" />
    <path
       d="m 13158,14550 -935,-936"
       id="path328"
       inkscape:connector-curvature="0" />
    <path
       d="m 10140,14857 v 1743"
       id="path330"
       inkscape:connector-curvature="0" />
    <path
       d="m 10140,14375 v 482"
       id="path332"
       inkscape:connector-curvature="0" />
  </g>
  <g
     style="fill:#008400;fill-opacity:0;stroke:#008400;stroke-width:120;stroke-linecap:round;stroke-linejoin:round;stroke-opacity:1"
     id="g346"
     transform="translate(-3151.3528,-1666.5325)">
    <path
       d="m 8825,5225 h -75"
       id="path336"
       inkscape:connector-curvature="0" />
    <path
       d="M 16375,12775 8825,5225"
       id="path338"
       inkscape:connector-curvature="0" />
    <path
       d="m 16375,13550 v -775"
       id="path340"
       inkscape:connector-curvature="0" />
    <path
       d="m 15687,14050 h 188"
       id="path342"
       inkscape:connector-curvature="0" />
    <path
       d="m 15875,14050 500,-500"
       id="path344"
       inkscape:connector-curvature="0" />
  </g>
  <g
     style="fill:#008400;fill-opacity:1;stroke:#008400;stroke-width:70;stroke-linecap:round;stroke-linejoin:round;stroke-opacity:1"
     id="g350"
     transform="translate(-3151.3528,-1666.5325)">
    <polyline
       style="fill-rule:evenodd"
       points="10608,1833 9922,1903 9245,2034 8583,2225 7940,2474 7321,2779 6732,3137 6178,3547 5661,4004 5188,4506 4761,5047 4384,5625 4060,6233 3791,6868 3580,7525 3427,8197 3336,8881 3305,9570 3316,9975 3382,10661 3510,11339 3697,12003 3942,12647 4244,13267 4505,13701 4505,12454 4504,12446 4505,12438 4505,12438 4507,12414 4517,12384 4532,12355 4552,12330 4558,12325 4848,12035 4853,12029 4878,12009 4880,12008 4880,11789 4165,11074 4159,11069 4138,11044 4123,11016 4114,10985 4112,10961 4112,10961 4111,10953 4112,10945 4112,7487 4111,7479 4112,7471 4112,7471 4114,7447 4123,7416 4138,7388 4159,7363 4165,7358 6612,4911 6612,4687 6611,4679 6612,4671 6612,4671 6614,4647 6623,4616 6638,4588 6659,4563 6665,4558 6767,4456 6772,4450 6797,4430 6825,4415 6856,4405 6879,4403 6879,4403 6887,4402 6895,4403 9158,4403 9166,4402 9174,4403 9174,4403 9198,4405 9229,4415 9257,4430 9282,4450 9287,4456 9527,4696 9527,4696 9536,4706 9548,4703 9601,4703 9654,4714 9703,4734 9747,4764 9785,4802 9815,4846 9835,4895 9846,4948 9846,5001 9835,5054 9815,5103 9785,5147 9747,5185 9703,5215 9654,5235 9601,5246 9548,5246 9495,5235 9446,5215 9402,5185 9364,5147 9334,5103 9314,5054 9303,5001 9303,4948 9306,4936 9296,4927 9296,4927 9099,4729 7296,4729 7301,4737 7322,4787 7332,4839 7332,4893 7322,4945 7301,4994 7272,5039 7234,5077 7224,5083 7224,6175 7225,6183 7222,6215 7214,6241 7219,6269 7219,6322 7209,6375 7188,6424 7159,6469 7121,6506 7077,6536 7027,6557 6975,6567 6921,6567 6869,6557 6820,6536 6775,6506 6737,6469 6708,6424 6687,6375 6677,6322 6677,6269 6687,6217 6708,6167 6737,6123 6775,6085 6820,6055 6869,6035 6898,6029 6898,5085 6890,5094 6884,5100 4437,7546 4437,10886 5064,11512 5093,11510 5349,11510 5390,11514 5430,11526 5467,11545 5499,11572 5526,11604 5545,11641 5558,11681 5562,11722 5562,11926 5697,12061 5697,11991 5723,11965 5963,11965 5963,11972 6093,11972 6093,11965 6333,11965 6359,11991 6359,12185 6355,12206 6347,12225 6342,12233 13662,12233 13670,12232 13678,12233 13678,12233 13702,12235 13733,12245 13761,12260 13786,12280 13791,12286 14891,13387 15277,13387 15287,13368 15302,13351 15319,13336 15339,13326 15360,13319 15382,13317 15993,13317 16015,13319 16036,13326 16056,13336 16073,13351 16088,13368 16098,13388 16105,13409 16107,13431 16107,13571 16201,13478 16201,12846 14968,11614 6359,11614 6359,11808 6333,11835 6093,11835 6093,11545 5963,11545 5963,11835 5723,11835 5697,11808 5697,11614 5701,11593 5709,11574 5720,11557 5735,11542 5752,11531 5771,11523 5791,11519 5937,11519 5963,11545 6093,11545 6119,11519 6265,11519 6285,11523 6304,11531 6321,11542 6336,11557 6347,11574 6355,11593 6359,11614 14968,11614 13015,9661 5904,9661 5904,10289 5899,10309 5892,10328 5880,10345 5865,10360 5848,10371 5829,10379 5809,10383 5378,10383 5352,10357 5352,9635 5222,9635 5222,10357 5195,10383 4765,10383 4744,10379 4725,10371 4708,10360 4693,10345 4682,10328 4674,10309 4670,10289 4670,9661 4696,9635 5222,9635 5352,9635 5877,9635 5904,9661 13015,9661 12205,8851 5904,8851 5904,9478 5877,9505 5352,9505 5352,8782 5222,8782 5222,9505 4696,9505 4670,9478 4670,8851 4674,8830 4682,8811 4693,8794 4708,8779 4725,8768 4744,8760 4765,8756 5195,8756 5222,8782 5352,8782 5378,8756 5809,8756 5829,8760 5848,8768 5865,8779 5880,8794 5892,8811 5899,8830 5904,8851 12205,8851 9650,6295 8102,6295 8102,6349 8091,6401 8071,6451 8041,6495 8003,6533 7959,6562 7910,6583 7857,6593 7804,6593 7751,6583 7702,6562 7658,6533 7620,6495 7590,6451 7570,6401 7559,6349 7559,6295 7570,6243 7590,6194 7620,6149 7658,6111 7668,6105 7668,5444 7604,5381 7593,5383 7539,5383 7487,5372 7437,5352 7393,5322 7355,5285 7325,5240 7305,5191 7295,5138 7295,5085 7305,5033 7325,4983 7355,4939 7393,4901 7437,4871 7487,4851 7539,4840 7593,4840 7645,4851 7694,4871 7739,4901 7776,4939 7806,4983 7827,5033 7837,5085 7837,5138 7835,5150 7940,5256 7946,5261 7967,5286 7982,5314 7991,5345 7994,5368 7994,5368 7994,5376 7994,5384 7994,6091 7994,6091 7994,6105 8003,6111 8041,6149 8071,6194 8091,6243 8102,6295 9650,6295 8836,5482 8829,5485 8776,5496 8723,5496 8670,5485 8621,5465 8577,5435 8539,5397 8509,5353 8489,5304 8478,5251 8478,5198 8489,5145 8509,5096 8539,5052 8577,5014 8621,4984 8670,4964 8723,4953 8776,4953 8829,4964 8878,4984 8922,5014 8960,5052 8990,5096 9010,5145 9015,5169 16491,12646 16498,12651 16503,12658 16520,12678 16536,12708 16546,12740 16549,12775 16548,12783 16548,13541 16549,13550 16548,13558 16548,13558 16546,13584 16536,13616 16532,13624 16520,13646 16513,13654 16498,13673 16491,13678 16107,14063 16107,14168 16105,14190 16098,14211 16088,14231 16073,14248 16056,14263 16036,14273 16015,14280 15993,14282 15382,14282 15360,14280 15339,14273 15319,14263 15302,14248 15287,14231 15277,14211 15270,14190 15268,14168 15268,13931 15270,13909 15277,13888 15287,13868 15302,13851 15319,13836 15339,13826 15360,13819 15382,13817 15861,13817 15896,13782 15382,13782 15360,13780 15339,13773 15319,13763 15302,13748 15287,13731 15277,13712 14832,13712 14824,13713 14816,13712 14816,13712 14792,13710 14761,13701 14733,13686 14708,13665 14703,13659 13603,12559 6359,12559 6359,12708 6333,12735 6093,12735 6093,12727 5963,12727 5963,12735 5723,12735 5697,12708 5697,12521 5685,12512 5680,12506 5442,12267 5430,12273 5390,12285 5349,12289 5093,12289 5059,12286 4831,12514 4831,13708 4900,13777 4912,13765 5152,13765 5152,14029 7070,15947 8757,15947 9349,15355 9349,15162 8972,15162 8972,15177 8968,15218 8956,15258 8936,15295 8910,15327 8878,15354 8841,15373 8801,15385 8760,15389 8504,15389 8462,15385 8422,15373 8385,15354 8353,15327 8327,15295 8307,15258 8295,15218 8291,15177 8291,14822 8295,14781 8304,14750 8165,14889 8165,15177 8161,15218 8149,15258 8129,15295 8103,15327 8071,15354 8034,15373 7994,15385 7952,15389 7697,15389 7655,15385 7615,15373 7578,15354 7546,15327 7520,15295 7500,15258 7488,15218 7484,15177 7484,14822 7488,14781 7500,14741 7520,14704 7546,14672 7578,14645 7615,14626 7655,14614 7697,14610 7952,14610 7981,14612 8360,14233 8353,14227 8327,14195 8307,14158 8295,14118 8291,14077 8291,13722 8295,13681 8307,13641 8327,13604 8353,13572 8385,13545 8422,13526 8462,13514 8504,13510 8760,13510 8801,13514 8841,13526 8878,13545 8910,13572 8936,13604 8945,13621 9062,13505 9067,13498 9092,13478 9120,13463 9151,13453 9175,13451 9175,13451 9183,13450 9191,13451 12215,13451 12223,13450 12231,13451 12231,13451 12254,13453 12285,13463 12314,13478 12314,13478 12314,13478 12324,13487 12338,13498 12343,13504 13183,14344 13193,14336 13213,14326 13234,14319 13256,14317 13867,14317 13889,14319 13910,14326 13930,14336 13947,14351 13962,14368 13972,14388 13979,14409 13981,14431 13981,14668 13979,14690 13972,14711 13962,14731 13947,14748 13930,14763 13910,14773 13889,14780 13867,14782 13256,14782 13234,14780 13213,14773 13193,14763 13176,14748 13161,14731 13151,14713 13150,14712 13150,14712 13126,14710 13095,14701 13067,14686 13042,14665 13037,14659 12440,14062 12440,14643 12683,14887 13151,14887 13161,14868 13176,14851 13193,14836 13213,14826 13234,14819 13256,14817 13867,14817 13889,14819 13910,14826 13930,14836 13947,14851 13962,14868 13972,14888 13979,14909 13981,14931 13981,15168 13979,15190 13972,15211 13962,15231 13947,15248 13930,15263 13910,15273 13889,15280 13867,15282 13256,15282 13234,15280 13213,15273 13193,15263 13176,15248 13161,15231 13151,15212 12624,15212 12616,15213 12608,15212 12608,15212 12584,15210 12553,15201 12525,15186 12500,15165 12495,15159 12272,14936 12272,16101 12325,16101 12348,16104 12369,16110 12389,16121 12406,16135 12420,16152 12431,16172 12437,16193 12440,16216 12440,16929 14054,15315 14059,15309 14084,15288 14112,15273 14143,15264 14166,15262 14167,15262 14175,15261 14182,15262 15335,15262 15333,15261 15315,15249 15301,15235 15289,15217 15281,15198 15277,15178 15277,15135 15304,15109 15622,15109 15622,15122 15752,15122 15752,15109 16052,15109 16239,14921 16098,14921 16098,14964 16071,14990 15752,14990 15752,14853 15622,14853 15622,14990 15304,14990 15277,14964 15277,14921 15281,14901 15289,14882 15301,14864 15315,14850 15333,14838 15352,14830 15372,14826 15596,14826 15622,14853 15752,14853 15779,14826 16003,14826 16023,14830 16042,14838 16060,14850 16074,14864 16086,14882 16094,14901 16098,14921 16239,14921 16659,14501 16659,14431 16107,14431 16107,14668 16105,14690 16098,14711 16088,14731 16073,14748 16056,14763 16036,14773 16015,14780 15993,14782 15382,14782 15360,14780 15339,14773 15319,14763 15302,14748 15287,14731 15277,14713 15276,14712 15276,14712 15252,14710 15221,14701 15193,14686 15168,14665 15163,14659 14716,14212 13972,14212 13962,14231 13947,14248 13930,14263 13910,14273 13889,14280 13867,14282 13256,14282 13234,14280 13213,14273 13193,14263 13176,14248 13161,14231 13151,14211 13144,14190 13142,14168 13142,14048 12517,13423 8217,13423 8083,13556 8103,13572 8129,13604 8149,13641 8161,13681 8165,13722 8165,14077 8161,14118 8149,14158 8129,14195 8103,14227 8071,14254 8034,14273 7994,14285 7952,14289 7697,14289 7655,14285 7615,14273 7578,14254 7546,14227 7520,14195 7511,14178 7230,14459 7225,14465 7200,14486 7171,14501 7141,14510 7117,14512 7117,14512 7109,14513 7101,14512 5982,14512 5975,14513 5967,14512 5966,14512 5943,14510 5912,14501 5884,14486 5859,14465 5854,14459 5471,14077 5454,14080 5309,14080 5282,14054 5282,13765 5290,13765 5290,13635 5282,13635 5282,13345 5152,13345 5152,13635 4912,13635 4886,13608 4886,13414 4890,13393 4898,13374 4909,13357 4924,13342 4941,13331 4960,13323 4981,13319 5126,13319 5152,13345 5282,13345 5309,13319 5409,13319 5409,13218 5378,13187 5349,13189 5093,13189 5052,13185 5012,13173 4975,13154 4943,13127 4916,13095 4896,13058 4884,13018 4880,12977 4880,12622 4884,12581 4896,12541 4916,12504 4943,12472 4975,12445 5012,12426 5052,12414 5093,12410 5349,12410 5390,12414 5430,12426 5467,12445 5499,12472 5526,12504 5545,12541 5558,12581 5562,12622 5562,12910 5681,13029 5688,13035 5693,13041 5693,13041 5697,13046 5697,12891 5723,12865 5963,12865 5963,13154 5937,13180 5791,13180 5771,13176 5752,13168 5735,13157 5735,13158 5735,13386 5746,13372 5778,13345 5815,13326 5855,13314 5897,13310 6152,13310 6181,13312 6603,12891 6359,12891 6359,13085 6355,13106 6347,13125 6336,13142 6321,13157 6304,13168 6285,13176 6265,13180 6119,13180 6093,13154 6093,12865 6333,12865 6359,12891 6603,12891 6604,12890 6609,12884 6634,12863 6662,12848 6693,12839 6716,12837 6717,12837 6725,12836 6732,12837 13220,12837 13228,12836 13236,12837 13236,12837 13260,12839 13291,12848 13319,12863 13344,12884 13349,12890 13671,13212 13677,13217 13682,13223 13682,13223 13698,13242 13713,13270 13722,13301 13724,13317 13867,13317 13889,13319 13910,13326 13930,13336 13947,13351 13962,13368 13972,13388 13979,13409 13981,13431 13981,13668 13979,13690 13972,13711 13962,13731 13947,13748 13930,13763 13910,13773 13889,13780 13867,13782 13679,13782 13668,13785 13637,13788 13605,13785 13594,13782 13337,13782 13373,13817 13867,13817 13889,13819 13910,13826 13930,13836 13947,13851 13962,13868 13972,13887 14776,13887 14784,13886 14792,13887 14792,13887 14816,13889 14847,13898 14875,13913 14885,13921 14892,13928 14900,13934 14905,13940 15309,14344 15319,14336 15339,14326 15360,14319 15382,14317 15993,14317 16015,14319 16036,14326 16056,14336 16073,14351 16088,14368 16098,14388 16105,14409 16107,14431 16659,14431 16659,10393 16310,10393 16288,10390 16267,10384 16247,10373 16230,10359 16215,10342 16205,10322 16198,10301 16196,10278 16196,8861 16198,8839 16205,8817 16215,8797 16230,8780 16247,8766 16267,8755 16288,8749 16310,8747 17334,8747 17356,8749 17378,8755 17397,8766 17415,8780 17429,8797 17440,8817 17446,8839 17448,8861 17448,10278 17446,10301 17440,10322 17429,10342 17415,10359 17397,10373 17378,10384 17356,10390 17334,10393 16985,10393 16985,14552 17051,14478 17464,13925 17826,13338 18134,12722 18386,12080 18580,11418 18715,10742 18789,10056 18801,9367 18753,8679 18643,7998 18473,7330 18245,6679 17959,6051 17619,5452 17227,4884 16786,4354 16300,3865 15772,3421 15401,3162 12152,3162 12152,3379 12110,3591 12027,3790 11907,3970 11754,4123 11575,4243 11375,4326 11163,4368 10946,4368 10734,4326 10534,4243 10354,4123 10202,3970 10081,3790 9999,3591 9956,3379 9956,3162 9999,2950 10081,2750 10202,2570 10354,2418 10534,2297 10734,2215 10946,2172 11163,2172 11375,2215 11575,2297 11754,2418 11907,2570 12027,2750 12110,2950 12152,3162 15401,3162 15207,3026 14609,2683 13982,2395 13333,2163 12666,1989 11985,1876 11298,1824 10608,1833 "
       id="polyline348" />
  </g>
  <g
     style="fill:#ffffff;fill-opacity:1;stroke:#ffffff;stroke-width:70;stroke-linecap:round;stroke-linejoin:round;stroke-opacity:1"
     id="g352"
     transform="translate(-3151.3528,-1666.5325)" />
  <g
     style="fill:#ffffff;fill-opacity:1;stroke:#ffffff;stroke-width:0;stroke-linecap:round;stroke-linejoin:round;stroke-opacity:1"
     id="g356"
     transform="translate(-3151.3528,-1666.5325)">
    <circle
       cx="7961.9199"
       cy="4951.04"
       r="78.740196"
       id="circle354" />
  </g>
  <g
     style="fill:#ffffff;fill-opacity:1;stroke:#ffffff;stroke-width:39.37009811;stroke-linecap:round;stroke-linejoin:round;stroke-opacity:1"
     id="g358"
     transform="translate(-3151.3528,-1666.5325)" />
  <g
     style="fill:#ffffff;fill-opacity:1;stroke:#ffffff;stroke-width:0;stroke-linecap:round;stroke-linejoin:round;stroke-opacity:1"
     id="g362"
     transform="translate(-3151.3528,-1666.5325)">
    <circle
       cx="6458.25"
       cy="6303.25"
       r="78.740196"
       id="circle360" />
  </g>
  <g
     style="fill:#ffffff;fill-opacity:1;stroke:#ffffff;stroke-width:39.37009811;stroke-linecap:round;stroke-linejoin:round;stroke-opacity:1"
     id="g364"
     transform="translate(-3151.3528,-1666.5325)" />
  <g
     style="fill:#ffffff;fill-opacity:1;stroke:#ffffff;stroke-width:0;stroke-linecap:round;stroke-linejoin:round;stroke-opacity:1"
     id="g368"
     transform="translate(-3151.3528,-1666.5325)">
    <circle
       cx="8227.2803"
       cy="5990.1201"
       r="59.055099"
       id="circle366" />
  </g>
  <g
     style="fill:#ffffff;fill-opacity:1;stroke:#ffffff;stroke-width:39.37009811;stroke-linecap:round;stroke-linejoin:round;stroke-opacity:1"
     id="g370"
     transform="translate(-3151.3528,-1666.5325)" />
  <g
     style="fill:#ffffff;fill-opacity:1;stroke:#ffffff;stroke-width:0;stroke-linecap:round;stroke-linejoin:round;stroke-opacity:1"
     id="g374"
     transform="translate(-3151.3528,-1666.5325)">
    <circle
       cx="6527.9902"
       cy="4813.5498"
       r="59.055099"
       id="circle372" />
  </g>
  <g
     style="fill:#ffffff;fill-opacity:1;stroke:#ffffff;stroke-width:39.37009811;stroke-linecap:round;stroke-linejoin:round;stroke-opacity:1"
     id="g376"
     transform="translate(-3151.3528,-1666.5325)" />
  <g
     style="fill:#ffffff;fill-opacity:1;stroke:#ffffff;stroke-width:0;stroke-linecap:round;stroke-linejoin:round;stroke-opacity:1"
     id="g380"
     transform="translate(-3151.3528,-1666.5325)">
    <circle
       cx="9575"
       cy="4975"
       r="78.740196"
       id="circle378" />
  </g>
  <g
     style="fill:#ffffff;fill-opacity:1;stroke:#ffffff;stroke-width:39.37009811;stroke-linecap:round;stroke-linejoin:round;stroke-opacity:1"
     id="g382"
     transform="translate(-3151.3528,-1666.5325)" />
  <g
     style="fill:#ffffff;fill-opacity:1;stroke:#ffffff;stroke-width:0;stroke-linecap:round;stroke-linejoin:round;stroke-opacity:1"
     id="g386"
     transform="translate(-3151.3528,-1666.5325)">
    <circle
       cx="7566.3101"
       cy="5112.2002"
       r="78.740196"
       id="circle384" />
  </g>
  <g
     style="fill:#ffffff;fill-opacity:1;stroke:#ffffff;stroke-width:39.37009811;stroke-linecap:round;stroke-linejoin:round;stroke-opacity:1"
     id="g388"
     transform="translate(-3151.3528,-1666.5325)" />
  <g
     style="fill:#ffffff;fill-opacity:1;stroke:#ffffff;stroke-width:0;stroke-linecap:round;stroke-linejoin:round;stroke-opacity:1"
     id="g392"
     transform="translate(-3151.3528,-1666.5325)">
    <circle
       cx="7831.1001"
       cy="6322.6001"
       r="78.740196"
       id="circle390" />
  </g>
  <g
     style="fill:#ffffff;fill-opacity:1;stroke:#ffffff;stroke-width:39.37009811;stroke-linecap:round;stroke-linejoin:round;stroke-opacity:1"
     id="g394"
     transform="translate(-3151.3528,-1666.5325)" />
  <g
     style="fill:#ffffff;fill-opacity:1;stroke:#ffffff;stroke-width:0;stroke-linecap:round;stroke-linejoin:round;stroke-opacity:1"
     id="g398"
     transform="translate(-3151.3528,-1666.5325)">
    <circle
       cx="7061.4199"
       cy="4866.46"
       r="78.740196"
       id="circle396" />
  </g>
  <g
     style="fill:#ffffff;fill-opacity:1;stroke:#ffffff;stroke-width:39.37009811;stroke-linecap:round;stroke-linejoin:round;stroke-opacity:1"
     id="g400"
     transform="translate(-3151.3528,-1666.5325)" />
  <g
     style="fill:#ffffff;fill-opacity:1;stroke:#ffffff;stroke-width:0;stroke-linecap:round;stroke-linejoin:round;stroke-opacity:1"
     id="g404"
     transform="translate(-3151.3528,-1666.5325)">
    <circle
       cx="6948.5498"
       cy="6296.2202"
       r="78.740196"
       id="circle402" />
  </g>
  <g
     style="fill:#ffffff;fill-opacity:1;stroke:#ffffff;stroke-width:39.37009811;stroke-linecap:round;stroke-linejoin:round;stroke-opacity:1"
     id="g406"
     transform="translate(-3151.3528,-1666.5325)" />
  <g
     style="fill:#ffffff;fill-opacity:1;stroke:#ffffff;stroke-width:0;stroke-linecap:round;stroke-linejoin:round;stroke-opacity:1"
     id="g410"
     transform="translate(-3151.3528,-1666.5325)">
    <circle
       cx="8750"
       cy="5225"
       r="78.740196"
       id="circle408" />
  </g>
  <g
     style="fill:#ffffff;fill-opacity:1;stroke:#ffffff;stroke-width:39.37009811;stroke-linecap:round;stroke-linejoin:round;stroke-opacity:1"
     id="g412"
     transform="translate(-3151.3528,-1666.5325)" />
  <g
     style="fill:#ffffff;fill-opacity:1;stroke:#ffffff;stroke-width:0;stroke-linecap:round;stroke-linejoin:round;stroke-opacity:1"
     id="g416"
     transform="translate(-3151.3528,-1666.5325)">
    <circle
       cx="11054.9"
       cy="3270.8701"
       r="492.12601"
       id="circle414" />
  </g>
  <g
     style="fill:#ffffff;fill-opacity:1;stroke:#ffffff;stroke-width:39.37009811;stroke-linecap:round;stroke-linejoin:round;stroke-opacity:1"
     id="g418"
     transform="translate(-3151.3528,-1666.5325)" />
  <g
     style="fill:#000000;fill-opacity:1;stroke:#000000;stroke-width:39.37009811;stroke-linecap:round;stroke-linejoin:round;stroke-opacity:1"
     id="g420"
     transform="translate(-3151.3528,-1666.5325)" />
  <g
     style="fill:#c2c200;fill-opacity:1;stroke:#c2c200;stroke-width:39.37009811;stroke-linecap:round;stroke-linejoin:round;stroke-opacity:1"
     id="g422"
     transform="translate(-3151.3528,-1666.5325)" />
  <g
     style="fill:#c2c200;fill-opacity:0;stroke:#c2c200;stroke-width:59.05509949;stroke-linecap:round;stroke-linejoin:round;stroke-opacity:1"
     id="g426"
     transform="translate(-3151.3528,-1666.5325)">
    <circle
       cx="11054.9"
       cy="9570.0801"
       r="7874.02"
       id="circle424" />
  </g>
</svg>
