<?xml version="1.0" encoding="UTF-8" standalone="no"?>
<svg
   xmlns:dc="http://purl.org/dc/elements/1.1/"
   xmlns:cc="http://creativecommons.org/ns#"
   xmlns:rdf="http://www.w3.org/1999/02/22-rdf-syntax-ns#"
   xmlns:svg="http://www.w3.org/2000/svg"
   xmlns="http://www.w3.org/2000/svg"
   xmlns:sodipodi="http://sodipodi.sourceforge.net/DTD/sodipodi-0.dtd"
   xmlns:inkscape="http://www.inkscape.org/namespaces/inkscape"
   version="1.1"
   width="4.0150023cm"
   height="4.0150023cm"
   viewBox="0 0 15807.095 15807.096"
   id="svg602"
   sodipodi:docname="front.svg"
   inkscape:version="0.92.4 5da689c313, 2019-01-14">
  <metadata
     id="metadata608">
    <rdf:RDF>
      <cc:Work
         rdf:about="">
        <dc:format>image/svg+xml</dc:format>
        <dc:type
           rdf:resource="http://purl.org/dc/dcmitype/StillImage" />
        <dc:title>SVG Picture created as nibble++-brd.svg date 2019/02/13 09:13:48 </dc:title>
      </cc:Work>
    </rdf:RDF>
  </metadata>
  <defs
     id="defs606" />
  <sodipodi:namedview
     pagecolor="#ffffff"
     bordercolor="#666666"
     borderopacity="1"
     objecttolerance="10"
     gridtolerance="10"
     guidetolerance="10"
     inkscape:pageopacity="0"
     inkscape:pageshadow="2"
     inkscape:window-width="1920"
     inkscape:window-height="1101"
     id="namedview604"
     showgrid="false"
     fit-margin-top="0"
     fit-margin-left="0"
     fit-margin-right="0"
     fit-margin-bottom="0"
     inkscape:zoom="1.2188068"
     inkscape:cx="81.162053"
     inkscape:cy="70.930831"
     inkscape:window-x="1920"
     inkscape:window-y="28"
     inkscape:window-maximized="1"
     inkscape:current-layer="svg602" />
  <title
     id="title2">SVG Picture created as nibble++-brd.svg date 2019/02/13 09:13:48 </title>
  <desc
     id="desc4">Picture generated by PCBNEW </desc>
  <g
     style="fill:#000000;fill-opacity:1;stroke:#000000;stroke-linecap:round;stroke-linejoin:round;stroke-opacity:1"
     id="g6"
     transform="translate(-2391.552,-1666.5325)" />
  <g
     style="fill:#000000;fill-opacity:0;stroke:#000000;stroke-width:-0.0003937;stroke-linecap:round;stroke-linejoin:round;stroke-opacity:1"
     id="g8"
     transform="translate(-2391.552,-1666.5325)" />
  <g
     style="fill:#840000;fill-opacity:0;stroke:#840000;stroke-width:-0.0003937;stroke-linecap:round;stroke-linejoin:round;stroke-opacity:1"
     id="g10"
     transform="translate(-2391.552,-1666.5325)" />
  <g
     style="fill:#840000;fill-opacity:0;stroke:#840000;stroke-width:0;stroke-linecap:round;stroke-linejoin:round;stroke-opacity:1"
     id="g12"
     transform="translate(-2391.552,-1666.5325)" />
  <g
     style="fill:#840000;fill-opacity:1;stroke:#840000;stroke-width:0;stroke-linecap:round;stroke-linejoin:round;stroke-opacity:1"
     id="g26"
     transform="translate(-2391.552,-1666.5325)">
    <polyline
       style="fill-rule:evenodd"
       points="12041,11745 12050,11747 12059,11749 12068,11752 12076,11756 12084,11761 12091,11766 12098,11772 12104,11779 12110,11786 12114,11794 12118,11802 12121,11811 12123,11820 12125,11829 12125,11838 12125,12025 12125,12034 12123,12044 12121,12052 12118,12061 12114,12069 12110,12077 12104,12085 12098,12091 12091,12098 12084,12103 12076,12108 12068,12112 12059,12115 12050,12117 12041,12118 12032,12119 11805,12119 11796,12118 11787,12117 11778,12115 11770,12112 11761,12108 11753,12103 11746,12098 11739,12091 11733,12085 11728,12077 11723,12069 11719,12061 11716,12052 11714,12044 11712,12034 11712,12025 11712,11838 11712,11829 11714,11820 11716,11811 11719,11802 11723,11794 11728,11786 11733,11779 11739,11772 11746,11766 11753,11761 11761,11756 11770,11752 11778,11749 11787,11747 11796,11745 11805,11745 12032,11745 12041,11745 "
       id="polyline14" />
    <polyline
       style="fill-rule:evenodd"
       points="12730,11745 12739,11747 12748,11749 12757,11752 12765,11756 12773,11761 12780,11766 12787,11772 12793,11779 12799,11786 12803,11794 12807,11802 12810,11811 12812,11820 12814,11829 12814,11838 12814,12025 12814,12034 12812,12044 12810,12052 12807,12061 12803,12069 12799,12077 12793,12085 12787,12091 12780,12098 12773,12103 12765,12108 12757,12112 12748,12115 12739,12117 12730,12118 12721,12119 12494,12119 12485,12118 12476,12117 12467,12115 12459,12112 12450,12108 12442,12103 12435,12098 12428,12091 12422,12085 12417,12077 12412,12069 12408,12061 12405,12052 12403,12044 12401,12034 12401,12025 12401,11838 12401,11829 12403,11820 12405,11811 12408,11802 12412,11794 12417,11786 12422,11779 12428,11772 12435,11766 12442,11761 12450,11756 12459,11752 12467,11749 12476,11747 12485,11745 12494,11745 12721,11745 12730,11745 "
       id="polyline16" />
    <polyline
       style="fill-rule:evenodd"
       points="11997,10476 12007,10477 12016,10479 12025,10483 12034,10487 12042,10492 12050,10497 12057,10504 12064,10511 12069,10519 12074,10527 12078,10536 12082,10545 12084,10554 12085,10564 12086,10574 12086,10928 12085,10937 12084,10947 12082,10956 12078,10966 12074,10974 12069,10983 12064,10990 12057,10997 12050,11004 12042,11010 12034,11015 12025,11019 12016,11022 12007,11024 11997,11026 11987,11026 11732,11026 11722,11026 11712,11024 11703,11022 11694,11019 11685,11015 11677,11010 11669,11004 11662,10997 11656,10990 11650,10983 11645,10974 11641,10966 11637,10956 11635,10947 11634,10937 11633,10928 11633,10574 11634,10564 11635,10554 11637,10545 11641,10536 11645,10527 11650,10519 11656,10511 11662,10504 11669,10497 11677,10492 11685,10487 11694,10483 11703,10479 11712,10477 11722,10476 11732,10475 11987,10475 11997,10476 "
       id="polyline18" />
    <polyline
       style="fill-rule:evenodd"
       points="12804,10476 12814,10477 12823,10479 12832,10483 12841,10487 12849,10492 12857,10497 12864,10504 12871,10511 12876,10519 12881,10527 12886,10536 12889,10545 12891,10554 12893,10564 12893,10574 12893,10928 12893,10937 12891,10947 12889,10956 12886,10966 12881,10974 12876,10983 12871,10990 12864,10997 12857,11004 12849,11010 12841,11015 12832,11019 12823,11022 12814,11024 12804,11026 12795,11026 12539,11026 12529,11026 12519,11024 12510,11022 12501,11019 12492,11015 12484,11010 12476,11004 12469,10997 12463,10990 12457,10983 12452,10974 12448,10966 12444,10956 12442,10947 12441,10937 12440,10928 12440,10574 12441,10564 12442,10554 12444,10545 12448,10536 12452,10527 12457,10519 12463,10511 12469,10504 12476,10497 12484,10492 12492,10487 12501,10483 12510,10479 12519,10477 12529,10476 12539,10475 12795,10475 12804,10476 "
       id="polyline20" />
    <polyline
       style="fill-rule:evenodd"
       points="10549,12987 10555,12988 10560,12989 10566,12991 10571,12994 10576,12997 10580,13000 10585,13004 10588,13008 10592,13013 10595,13018 10597,13023 10599,13028 10601,13034 10601,13039 10602,13045 10602,13181 10601,13186 10601,13192 10599,13198 10597,13203 10595,13208 10592,13213 10588,13218 10585,13222 10580,13226 10576,13229 10571,13232 10566,13234 10560,13236 10555,13238 10549,13239 10544,13239 10427,13239 10422,13239 10416,13238 10411,13236 10405,13234 10400,13232 10395,13229 10391,13226 10386,13222 10383,13218 10379,13213 10376,13208 10374,13203 10372,13198 10370,13192 10370,13186 10369,13181 10369,13045 10370,13039 10370,13034 10372,13028 10374,13023 10376,13018 10379,13013 10383,13008 10386,13004 10391,13000 10395,12997 10400,12994 10405,12991 10411,12989 10416,12988 10422,12987 10427,12987 10544,12987 10549,12987 "
       id="polyline22" />
    <polyline
       style="fill-rule:evenodd"
       points="10167,12987 10173,12988 10179,12989 10184,12991 10189,12994 10194,12997 10199,13000 10203,13004 10207,13008 10210,13013 10213,13018 10215,13023 10217,13028 10219,13034 10219,13039 10220,13045 10220,13181 10219,13186 10219,13192 10217,13198 10215,13203 10213,13208 10210,13213 10207,13218 10203,13222 10199,13226 10194,13229 10189,13232 10184,13234 10179,13236 10173,13238 10167,13239 10162,13239 10046,13239 10040,13239 10034,13238 10029,13236 10023,13234 10018,13232 10013,13229 10009,13226 10005,13222 10001,13218 9997,13213 9994,13208 9992,13203 9990,13198 9989,13192 9988,13186 9987,13181 9987,13045 9988,13039 9989,13034 9990,13028 9992,13023 9994,13018 9997,13013 10001,13008 10005,13004 10009,13000 10013,12997 10018,12994 10023,12991 10029,12989 10034,12988 10040,12987 10046,12987 10162,12987 10167,12987 "
       id="polyline24" />
  </g>
  <g
     style="fill:#848400;fill-opacity:1;stroke:#848400;stroke-width:0;stroke-linecap:round;stroke-linejoin:round;stroke-opacity:1"
     id="g30"
     transform="translate(-2391.552,-1666.5325)">
    <circle
       cx="10295.1"
       cy="3270.8701"
       r="984.25201"
       id="circle28" />
  </g>
  <g
     style="fill:#848400;fill-opacity:1;stroke:#848400;stroke-width:39.37009811;stroke-linecap:round;stroke-linejoin:round;stroke-opacity:1"
     id="g32"
     transform="translate(-2391.552,-1666.5325)" />
  <g
     style="fill:#840000;fill-opacity:1;stroke:#840000;stroke-width:39.37009811;stroke-linecap:round;stroke-linejoin:round;stroke-opacity:1"
     id="g34"
     transform="translate(-2391.552,-1666.5325)" />
  <g
     style="fill:#840000;fill-opacity:1;stroke:#840000;stroke-width:0;stroke-linecap:round;stroke-linejoin:round;stroke-opacity:1"
     id="g96"
     transform="translate(-2391.552,-1666.5325)">
    <polyline
       style="fill-rule:evenodd"
       points="12518,12987 12523,12988 12529,12989 12534,12991 12539,12994 12544,12997 12549,13000 12553,13004 12557,13008 12560,13013 12563,13018 12566,13023 12568,13028 12569,13034 12570,13039 12570,13045 12570,13181 12570,13186 12569,13192 12568,13198 12566,13203 12563,13208 12560,13213 12557,13218 12553,13222 12549,13226 12544,13229 12539,13232 12534,13234 12529,13236 12523,13238 12518,13239 12512,13239 12396,13239 12390,13239 12385,13238 12379,13236 12374,13234 12369,13232 12364,13229 12359,13226 12355,13222 12351,13218 12348,13213 12345,13208 12342,13203 12340,13198 12339,13192 12338,13186 12338,13181 12338,13045 12338,13039 12339,13034 12340,13028 12342,13023 12345,13018 12348,13013 12351,13008 12355,13004 12359,13000 12364,12997 12369,12994 12374,12991 12379,12989 12385,12988 12390,12987 12396,12987 12512,12987 12518,12987 "
       id="polyline36" />
    <polyline
       style="fill-rule:evenodd"
       points="12136,12987 12142,12988 12147,12989 12152,12991 12158,12994 12162,12997 12167,13000 12171,13004 12175,13008 12178,13013 12181,13018 12184,13023 12186,13028 12187,13034 12188,13039 12188,13045 12188,13181 12188,13186 12187,13192 12186,13198 12184,13203 12181,13208 12178,13213 12175,13218 12171,13222 12167,13226 12162,13229 12158,13232 12152,13234 12147,13236 12142,13238 12136,13239 12130,13239 12014,13239 12008,13239 12003,13238 11997,13236 11992,13234 11987,13232 11982,13229 11977,13226 11973,13222 11969,13218 11966,13213 11963,13208 11960,13203 11958,13198 11957,13192 11956,13186 11956,13181 11956,13045 11956,13039 11957,13034 11958,13028 11960,13023 11963,13018 11966,13013 11969,13008 11973,13004 11977,13000 11982,12997 11987,12994 11992,12991 11997,12989 12003,12988 12008,12987 12014,12987 12130,12987 12136,12987 "
       id="polyline38" />
    <polyline
       style="fill-rule:evenodd"
       points="10029,10476 10038,10477 10048,10479 10057,10483 10065,10487 10074,10492 10081,10497 10089,10504 10095,10511 10101,10519 10106,10527 10110,10536 10113,10545 10116,10554 10117,10564 10117,10574 10117,10928 10117,10937 10116,10947 10113,10956 10110,10966 10106,10974 10101,10983 10095,10990 10089,10997 10081,11004 10074,11010 10065,11015 10057,11019 10048,11022 10038,11024 10029,11026 10019,11026 9763,11026 9753,11026 9744,11024 9735,11022 9725,11019 9717,11015 9708,11010 9701,11004 9693,10997 9687,10990 9681,10983 9676,10974 9672,10966 9669,10956 9667,10947 9665,10937 9665,10928 9665,10574 9665,10564 9667,10554 9669,10545 9672,10536 9676,10527 9681,10519 9687,10511 9693,10504 9701,10497 9708,10492 9717,10487 9725,10483 9735,10479 9744,10477 9753,10476 9763,10475 10019,10475 10029,10476 "
       id="polyline40" />
    <polyline
       style="fill-rule:evenodd"
       points="10836,10476 10845,10477 10855,10479 10864,10483 10872,10487 10881,10492 10889,10497 10896,10504 10902,10511 10908,10519 10913,10527 10917,10536 10920,10545 10923,10554 10924,10564 10925,10574 10925,10928 10924,10937 10923,10947 10920,10956 10917,10966 10913,10974 10908,10983 10902,10990 10896,10997 10889,11004 10881,11010 10872,11015 10864,11019 10855,11022 10845,11024 10836,11026 10826,11026 10570,11026 10561,11026 10551,11024 10542,11022 10533,11019 10524,11015 10515,11010 10508,11004 10501,10997 10494,10990 10488,10983 10483,10974 10479,10966 10476,10956 10474,10947 10472,10937 10472,10928 10472,10574 10472,10564 10474,10554 10476,10545 10479,10536 10483,10527 10488,10519 10494,10511 10501,10504 10508,10497 10515,10492 10524,10487 10533,10483 10542,10479 10551,10477 10561,10476 10570,10475 10826,10475 10836,10476 "
       id="polyline42" />
    <polyline
       style="fill-rule:evenodd"
       points="10072,11745 10082,11747 10090,11749 10099,11752 10107,11756 10115,11761 10123,11766 10129,11772 10136,11779 10141,11786 10146,11794 10150,11802 10153,11811 10155,11820 10156,11829 10157,11838 10157,12025 10156,12034 10155,12044 10153,12052 10150,12061 10146,12069 10141,12077 10136,12085 10129,12091 10123,12098 10115,12103 10107,12108 10099,12112 10090,12115 10082,12117 10072,12118 10063,12119 9837,12119 9828,12118 9819,12117 9810,12115 9801,12112 9793,12108 9785,12103 9778,12098 9771,12091 9765,12085 9759,12077 9754,12069 9751,12061 9747,12052 9745,12044 9744,12034 9743,12025 9743,11838 9744,11829 9745,11820 9747,11811 9751,11802 9754,11794 9759,11786 9765,11779 9771,11772 9778,11766 9785,11761 9793,11756 9801,11752 9810,11749 9819,11747 9828,11745 9837,11745 10063,11745 10072,11745 "
       id="polyline44" />
    <polyline
       style="fill-rule:evenodd"
       points="10761,11745 10770,11747 10779,11749 10788,11752 10796,11756 10804,11761 10812,11766 10818,11772 10825,11779 10830,11786 10835,11794 10839,11802 10842,11811 10844,11820 10845,11829 10846,11838 10846,12025 10845,12034 10844,12044 10842,12052 10839,12061 10835,12069 10830,12077 10825,12085 10818,12091 10812,12098 10804,12103 10796,12108 10788,12112 10779,12115 10770,12117 10761,12118 10752,12119 10526,12119 10517,12118 10508,12117 10499,12115 10490,12112 10482,12108 10474,12103 10467,12098 10460,12091 10454,12085 10448,12077 10443,12069 10439,12061 10436,12052 10434,12044 10433,12034 10432,12025 10432,11838 10433,11829 10434,11820 10436,11811 10439,11802 10443,11794 10448,11786 10454,11779 10460,11772 10467,11766 10474,11761 10482,11756 10490,11752 10499,11749 10508,11747 10517,11745 10526,11745 10752,11745 10761,11745 "
       id="polyline46" />
    <polyline
       style="fill-rule:evenodd"
       points="10521,14211 10524,14212 10528,14212 10532,14214 10535,14215 10539,14217 10542,14220 10545,14222 10547,14225 10549,14228 10551,14232 10553,14235 10554,14239 10555,14242 10556,14246 10556,14250 10556,14329 10556,14333 10555,14337 10554,14340 10553,14344 10551,14347 10549,14351 10547,14354 10545,14357 10542,14359 10539,14362 10535,14364 10532,14365 10528,14367 10524,14367 10521,14368 10517,14368 10359,14368 10355,14368 10352,14367 10348,14367 10344,14365 10341,14364 10337,14362 10334,14359 10331,14357 10329,14354 10326,14351 10325,14347 10323,14344 10322,14340 10321,14337 10320,14333 10320,14329 10320,14250 10320,14246 10321,14242 10322,14239 10323,14235 10325,14232 10326,14228 10329,14225 10331,14222 10334,14220 10337,14217 10341,14215 10344,14214 10348,14212 10352,14212 10355,14211 10359,14211 10517,14211 10521,14211 "
       id="polyline48" />
    <polyline
       style="fill-rule:evenodd"
       points="10206,14211 10209,14212 10213,14212 10217,14214 10220,14215 10224,14217 10227,14220 10230,14222 10232,14225 10234,14228 10236,14232 10238,14235 10239,14239 10240,14242 10241,14246 10241,14250 10241,14329 10241,14333 10240,14337 10239,14340 10238,14344 10236,14347 10234,14351 10232,14354 10230,14357 10227,14359 10224,14362 10220,14364 10217,14365 10213,14367 10209,14367 10206,14368 10202,14368 10044,14368 10040,14368 10037,14367 10033,14367 10029,14365 10026,14364 10022,14362 10019,14359 10016,14357 10014,14354 10012,14351 10010,14347 10008,14344 10007,14340 10006,14337 10005,14333 10005,14329 10005,14250 10005,14246 10006,14242 10007,14239 10008,14235 10010,14232 10012,14228 10014,14225 10016,14222 10019,14220 10022,14217 10026,14215 10029,14214 10033,14212 10037,14212 10040,14211 10044,14211 10202,14211 10206,14211 "
       id="polyline50" />
    <polyline
       style="fill-rule:evenodd"
       points="10220,15397 10224,15397 10227,15398 10231,15399 10234,15401 10238,15403 10241,15405 10244,15408 10246,15411 10249,15414 10251,15417 10252,15421 10254,15424 10254,15428 10255,15432 10255,15436 10255,15514 10255,15518 10254,15522 10254,15526 10252,15530 10251,15533 10249,15536 10246,15539 10244,15542 10241,15545 10238,15547 10234,15549 10231,15551 10227,15552 10224,15553 10220,15554 10216,15554 10058,15554 10054,15554 10051,15553 10047,15552 10043,15551 10040,15549 10036,15547 10033,15545 10031,15542 10028,15539 10026,15536 10024,15533 10022,15530 10021,15526 10020,15522 10019,15518 10019,15514 10019,15436 10019,15432 10020,15428 10021,15424 10022,15421 10024,15417 10026,15414 10028,15411 10031,15408 10033,15405 10036,15403 10040,15401 10043,15399 10047,15398 10051,15397 10054,15397 10058,15396 10216,15396 10220,15397 "
       id="polyline52" />
    <polyline
       style="fill-rule:evenodd"
       points="10535,15397 10538,15397 10542,15398 10546,15399 10549,15401 10553,15403 10556,15405 10559,15408 10561,15411 10564,15414 10566,15417 10567,15421 10568,15424 10569,15428 10570,15432 10570,15436 10570,15514 10570,15518 10569,15522 10568,15526 10567,15530 10566,15533 10564,15536 10561,15539 10559,15542 10556,15545 10553,15547 10549,15549 10546,15551 10542,15552 10538,15553 10535,15554 10531,15554 10373,15554 10369,15554 10366,15553 10362,15552 10358,15551 10355,15549 10351,15547 10348,15545 10345,15542 10343,15539 10341,15536 10339,15533 10337,15530 10336,15526 10335,15522 10334,15518 10334,15514 10334,15436 10334,15432 10335,15428 10336,15424 10337,15421 10339,15417 10341,15414 10343,15411 10345,15408 10348,15405 10351,15403 10355,15401 10358,15399 10362,15398 10366,15397 10369,15397 10373,15396 10531,15396 10535,15397 "
       id="polyline54" />
    <polyline
       style="fill-rule:evenodd"
       points="12188,14215 12192,14216 12196,14217 12199,14218 12203,14220 12206,14222 12209,14224 12212,14227 12215,14230 12217,14233 12219,14236 12221,14240 12222,14243 12223,14247 12224,14251 12224,14255 12224,14333 12224,14337 12223,14341 12222,14345 12221,14348 12219,14352 12217,14355 12215,14358 12212,14361 12209,14364 12206,14366 12203,14368 12199,14370 12196,14371 12192,14372 12188,14373 12184,14373 12027,14373 12023,14373 12019,14372 12015,14371 12012,14370 12008,14368 12005,14366 12002,14364 11999,14361 11996,14358 11994,14355 11992,14352 11990,14348 11989,14345 11988,14341 11988,14337 11987,14333 11987,14255 11988,14251 11988,14247 11989,14243 11990,14240 11992,14236 11994,14233 11996,14230 11999,14227 12002,14224 12005,14222 12008,14220 12012,14218 12015,14217 12019,14216 12023,14215 12027,14215 12184,14215 12188,14215 "
       id="polyline56" />
    <polyline
       style="fill-rule:evenodd"
       points="12503,14215 12507,14216 12511,14217 12514,14218 12518,14220 12521,14222 12524,14224 12527,14227 12530,14230 12532,14233 12534,14236 12536,14240 12537,14243 12538,14247 12538,14251 12539,14255 12539,14333 12538,14337 12538,14341 12537,14345 12536,14348 12534,14352 12532,14355 12530,14358 12527,14361 12524,14364 12521,14366 12518,14368 12514,14370 12511,14371 12507,14372 12503,14373 12499,14373 12342,14373 12338,14373 12334,14372 12330,14371 12327,14370 12323,14368 12320,14366 12317,14364 12314,14361 12311,14358 12309,14355 12307,14352 12305,14348 12304,14345 12303,14341 12303,14337 12302,14333 12302,14255 12303,14251 12303,14247 12304,14243 12305,14240 12307,14236 12309,14233 12311,14230 12314,14227 12317,14224 12320,14222 12323,14220 12327,14218 12330,14217 12334,14216 12338,14215 12342,14215 12499,14215 12503,14215 "
       id="polyline58" />
    <polyline
       style="fill-rule:evenodd"
       points="12197,15416 12200,15416 12203,15417 12205,15418 12208,15419 12211,15420 12213,15422 12215,15424 12217,15426 12219,15429 12220,15431 12221,15434 12222,15436 12223,15439 12224,15442 12224,15445 12224,15504 12224,15507 12223,15510 12222,15513 12221,15515 12220,15518 12219,15520 12217,15523 12215,15525 12213,15527 12211,15529 12208,15530 12205,15531 12203,15532 12200,15533 12197,15533 12194,15534 12017,15534 12014,15533 12011,15533 12008,15532 12006,15531 12003,15530 12001,15529 11998,15527 11996,15525 11994,15523 11992,15520 11991,15518 11990,15515 11989,15513 11988,15510 11988,15507 11987,15504 11987,15445 11988,15442 11988,15439 11989,15436 11990,15434 11991,15431 11992,15429 11994,15426 11996,15424 11998,15422 12001,15420 12003,15419 12006,15418 12008,15417 12011,15416 12014,15416 12017,15415 12194,15415 12197,15416 "
       id="polyline60" />
    <polyline
       style="fill-rule:evenodd"
       points="12512,15416 12515,15416 12518,15417 12520,15418 12523,15419 12526,15420 12528,15422 12530,15424 12532,15426 12534,15429 12535,15431 12536,15434 12537,15436 12538,15439 12539,15442 12539,15445 12539,15504 12539,15507 12538,15510 12537,15513 12536,15515 12535,15518 12534,15520 12532,15523 12530,15525 12528,15527 12526,15529 12523,15530 12520,15531 12518,15532 12515,15533 12512,15533 12509,15534 12332,15534 12329,15533 12326,15533 12323,15532 12321,15531 12318,15530 12316,15529 12313,15527 12311,15525 12309,15523 12307,15520 12306,15518 12305,15515 12304,15513 12303,15510 12303,15507 12302,15504 12302,15445 12303,15442 12303,15439 12304,15436 12305,15434 12306,15431 12307,15429 12309,15426 12311,15424 12313,15422 12316,15420 12318,15419 12321,15418 12323,15417 12326,15416 12329,15416 12332,15415 12509,15415 12512,15416 "
       id="polyline62" />
    <polyline
       style="fill-rule:evenodd"
       points="11930,7096 11615,7096 11615,6584 11930,6584 11930,7096 "
       id="polyline64" />
    <polyline
       style="fill-rule:evenodd"
       points="12434,7096 12119,7096 12119,6584 12434,6584 12434,7096 "
       id="polyline66" />
    <polyline
       style="fill-rule:evenodd"
       points="12930,7096 12615,7096 12615,6584 12930,6584 12930,7096 "
       id="polyline68" />
    <polyline
       style="fill-rule:evenodd"
       points="13430,7096 13115,7096 13115,6584 13430,6584 13430,7096 "
       id="polyline70" />
    <polyline
       style="fill-rule:evenodd"
       points="13934,7096 13619,7096 13619,6584 13934,6584 13934,7096 "
       id="polyline72" />
    <polyline
       style="fill-rule:evenodd"
       points="14434,7096 14119,7096 14119,6584 14434,6584 14434,7096 "
       id="polyline74" />
    <polyline
       style="fill-rule:evenodd"
       points="14930,7096 14615,7096 14615,6584 14930,6584 14930,7096 "
       id="polyline76" />
    <polyline
       style="fill-rule:evenodd"
       points="15434,7096 15119,7096 15119,6584 15434,6584 15434,7096 "
       id="polyline78" />
    <polyline
       style="fill-rule:evenodd"
       points="15434,4615 15119,4615 15119,4103 15434,4103 15434,4615 "
       id="polyline80" />
    <polyline
       style="fill-rule:evenodd"
       points="14930,4615 14615,4615 14615,4103 14930,4103 14930,4615 "
       id="polyline82" />
    <polyline
       style="fill-rule:evenodd"
       points="14434,4615 14119,4615 14119,4103 14434,4103 14434,4615 "
       id="polyline84" />
    <polyline
       style="fill-rule:evenodd"
       points="13934,4615 13619,4615 13619,4103 13934,4103 13934,4615 "
       id="polyline86" />
    <polyline
       style="fill-rule:evenodd"
       points="13430,4615 13115,4615 13115,4103 13430,4103 13430,4615 "
       id="polyline88" />
    <polyline
       style="fill-rule:evenodd"
       points="12930,4615 12615,4615 12615,4103 12930,4103 12930,4615 "
       id="polyline90" />
    <polyline
       style="fill-rule:evenodd"
       points="12434,4615 12119,4615 12119,4103 12434,4103 12434,4615 "
       id="polyline92" />
    <polyline
       style="fill-rule:evenodd"
       points="11930,4615 11615,4615 11615,4103 11930,4103 11930,4615 "
       id="polyline94" />
  </g>
  <g
     style="fill:#c2c2c2;fill-opacity:1;stroke:#c2c2c2;stroke-width:0;stroke-linecap:round;stroke-linejoin:round;stroke-opacity:1"
     id="g100"
     transform="translate(-2391.552,-1666.5325)">
    <circle
       cx="13388.1"
       cy="4951.04"
       r="157.48"
       id="circle98" />
  </g>
  <g
     style="fill:#c2c2c2;fill-opacity:1;stroke:#c2c2c2;stroke-width:39.37009811;stroke-linecap:round;stroke-linejoin:round;stroke-opacity:1"
     id="g102"
     transform="translate(-2391.552,-1666.5325)" />
  <g
     style="fill:#c2c2c2;fill-opacity:1;stroke:#c2c2c2;stroke-width:0;stroke-linecap:round;stroke-linejoin:round;stroke-opacity:1"
     id="g106"
     transform="translate(-2391.552,-1666.5325)">
    <circle
       cx="14891.8"
       cy="6303.25"
       r="157.48"
       id="circle104" />
  </g>
  <g
     style="fill:#c2c2c2;fill-opacity:1;stroke:#c2c2c2;stroke-width:39.37009811;stroke-linecap:round;stroke-linejoin:round;stroke-opacity:1"
     id="g108"
     transform="translate(-2391.552,-1666.5325)" />
  <g
     style="fill:#c2c2c2;fill-opacity:1;stroke:#c2c2c2;stroke-width:0;stroke-linecap:round;stroke-linejoin:round;stroke-opacity:1"
     id="g112"
     transform="translate(-2391.552,-1666.5325)">
    <circle
       cx="13122.7"
       cy="5990.1201"
       r="119.055"
       id="circle110" />
  </g>
  <g
     style="fill:#c2c2c2;fill-opacity:1;stroke:#c2c2c2;stroke-width:39.37009811;stroke-linecap:round;stroke-linejoin:round;stroke-opacity:1"
     id="g114"
     transform="translate(-2391.552,-1666.5325)" />
  <g
     style="fill:#c2c2c2;fill-opacity:1;stroke:#c2c2c2;stroke-width:0;stroke-linecap:round;stroke-linejoin:round;stroke-opacity:1"
     id="g118"
     transform="translate(-2391.552,-1666.5325)">
    <circle
       cx="14822"
       cy="4813.5498"
       r="119.055"
       id="circle116" />
  </g>
  <g
     style="fill:#c2c2c2;fill-opacity:1;stroke:#c2c2c2;stroke-width:39.37009811;stroke-linecap:round;stroke-linejoin:round;stroke-opacity:1"
     id="g120"
     transform="translate(-2391.552,-1666.5325)" />
  <g
     style="fill:#c2c2c2;fill-opacity:1;stroke:#c2c2c2;stroke-width:0;stroke-linecap:round;stroke-linejoin:round;stroke-opacity:1"
     id="g124"
     transform="translate(-2391.552,-1666.5325)">
    <circle
       cx="11775"
       cy="4975"
       r="157.48"
       id="circle122" />
  </g>
  <g
     style="fill:#c2c2c2;fill-opacity:1;stroke:#c2c2c2;stroke-width:39.37009811;stroke-linecap:round;stroke-linejoin:round;stroke-opacity:1"
     id="g126"
     transform="translate(-2391.552,-1666.5325)" />
  <g
     style="fill:#c2c2c2;fill-opacity:1;stroke:#c2c2c2;stroke-width:0;stroke-linecap:round;stroke-linejoin:round;stroke-opacity:1"
     id="g130"
     transform="translate(-2391.552,-1666.5325)">
    <circle
       cx="13783.7"
       cy="5112.2002"
       r="157.48"
       id="circle128" />
  </g>
  <g
     style="fill:#c2c2c2;fill-opacity:1;stroke:#c2c2c2;stroke-width:39.37009811;stroke-linecap:round;stroke-linejoin:round;stroke-opacity:1"
     id="g132"
     transform="translate(-2391.552,-1666.5325)" />
  <g
     style="fill:#c2c2c2;fill-opacity:1;stroke:#c2c2c2;stroke-width:0;stroke-linecap:round;stroke-linejoin:round;stroke-opacity:1"
     id="g136"
     transform="translate(-2391.552,-1666.5325)">
    <circle
       cx="13518.9"
       cy="6322.6001"
       r="157.48"
       id="circle134" />
  </g>
  <g
     style="fill:#c2c2c2;fill-opacity:1;stroke:#c2c2c2;stroke-width:39.37009811;stroke-linecap:round;stroke-linejoin:round;stroke-opacity:1"
     id="g138"
     transform="translate(-2391.552,-1666.5325)" />
  <g
     style="fill:#c2c2c2;fill-opacity:1;stroke:#c2c2c2;stroke-width:0;stroke-linecap:round;stroke-linejoin:round;stroke-opacity:1"
     id="g142"
     transform="translate(-2391.552,-1666.5325)">
    <circle
       cx="14288.6"
       cy="4866.46"
       r="157.48"
       id="circle140" />
  </g>
  <g
     style="fill:#c2c2c2;fill-opacity:1;stroke:#c2c2c2;stroke-width:39.37009811;stroke-linecap:round;stroke-linejoin:round;stroke-opacity:1"
     id="g144"
     transform="translate(-2391.552,-1666.5325)" />
  <g
     style="fill:#c2c2c2;fill-opacity:1;stroke:#c2c2c2;stroke-width:0;stroke-linecap:round;stroke-linejoin:round;stroke-opacity:1"
     id="g148"
     transform="translate(-2391.552,-1666.5325)">
    <circle
       cx="14401.5"
       cy="6296.2202"
       r="157.48"
       id="circle146" />
  </g>
  <g
     style="fill:#c2c2c2;fill-opacity:1;stroke:#c2c2c2;stroke-width:39.37009811;stroke-linecap:round;stroke-linejoin:round;stroke-opacity:1"
     id="g150"
     transform="translate(-2391.552,-1666.5325)" />
  <g
     style="fill:#c2c2c2;fill-opacity:1;stroke:#c2c2c2;stroke-width:0;stroke-linecap:round;stroke-linejoin:round;stroke-opacity:1"
     id="g154"
     transform="translate(-2391.552,-1666.5325)">
    <circle
       cx="12600"
       cy="5225"
       r="157.48"
       id="circle152" />
  </g>
  <g
     style="fill:#c2c2c2;fill-opacity:1;stroke:#c2c2c2;stroke-width:39.37009811;stroke-linecap:round;stroke-linejoin:round;stroke-opacity:1"
     id="g156"
     transform="translate(-2391.552,-1666.5325)" />
  <g
     style="fill:#840000;fill-opacity:1;stroke:#840000;stroke-width:39.37009811;stroke-linecap:round;stroke-linejoin:round;stroke-opacity:1"
     id="g158"
     transform="translate(-2391.552,-1666.5325)" />
  <g
     style="fill:#840000;fill-opacity:1;stroke:#840000;stroke-width:60;stroke-linecap:round;stroke-linejoin:round;stroke-opacity:1"
     id="g160"
     transform="translate(-2391.552,-1666.5325)" />
  <g
     style="fill:#840000;fill-opacity:0;stroke:#840000;stroke-width:60;stroke-linecap:round;stroke-linejoin:round;stroke-opacity:1"
     id="g196"
     transform="translate(-2391.552,-1666.5325)">
    <path
       d="m 10104,12085 -154,-153"
       id="path162"
       inkscape:connector-curvature="0" />
    <path
       d="m 10169,13178 -65,-65"
       id="path164"
       inkscape:connector-curvature="0" />
    <path
       d="m 13273,4359 v 476"
       id="path166"
       inkscape:connector-curvature="0" />
    <path
       d="m 13273,4835 115,116"
       id="path168"
       inkscape:connector-curvature="0" />
    <path
       d="M 14049,5084 V 4984"
       id="path170"
       inkscape:connector-curvature="0" />
    <path
       d="M 16729,11470 V 6454"
       id="path172"
       inkscape:connector-curvature="0" />
    <path
       d="m 10169,14176 76,-76"
       id="path174"
       inkscape:connector-curvature="0" />
    <path
       d="m 12975,14100 1100,-1100"
       id="path176"
       inkscape:connector-curvature="0" />
    <path
       d="m 14075,13000 h 1125"
       id="path178"
       inkscape:connector-curvature="0" />
    <path
       d="M 16729,6454 15485,5210"
       id="path180"
       inkscape:connector-curvature="0" />
    <path
       d="m 13859,4793 h -314"
       id="path182"
       inkscape:connector-curvature="0" />
    <path
       d="m 14049,4984 -190,-191"
       id="path184"
       inkscape:connector-curvature="0" />
    <path
       d="m 15200,13000 1529,-1530"
       id="path186"
       inkscape:connector-curvature="0" />
    <path
       d="m 14175,5210 -126,-126"
       id="path188"
       inkscape:connector-curvature="0" />
    <path
       d="M 15485,5210 H 14175"
       id="path190"
       inkscape:connector-curvature="0" />
    <path
       d="m 10245,14100 h 2730"
       id="path192"
       inkscape:connector-curvature="0" />
    <path
       d="m 13545,4793 -157,158"
       id="path194"
       inkscape:connector-curvature="0" />
  </g>
  <g
     style="fill:#840000;fill-opacity:0;stroke:#840000;stroke-width:120;stroke-linecap:round;stroke-linejoin:round;stroke-opacity:1"
     id="g204"
     transform="translate(-2391.552,-1666.5325)">
    <path
       d="m 15276,6688 -227,-228"
       id="path198"
       inkscape:connector-curvature="0" />
    <path
       d="m 15049,6460 -158,-157"
       id="path200"
       inkscape:connector-curvature="0" />
    <path
       d="M 15276,6840 V 6688"
       id="path202"
       inkscape:connector-curvature="0" />
  </g>
  <g
     style="fill:#840000;fill-opacity:0;stroke:#840000;stroke-width:60;stroke-linecap:round;stroke-linejoin:round;stroke-opacity:1"
     id="g286"
     transform="translate(-2391.552,-1666.5325)">
    <path
       d="m 10226,14100 -71,71"
       id="path206"
       inkscape:connector-curvature="0" />
    <path
       d="m 10155,14171 v 119"
       id="path208"
       inkscape:connector-curvature="0" />
    <path
       d="m 10245,14100 h -19"
       id="path210"
       inkscape:connector-curvature="0" />
    <path
       d="M 13388,5173 V 4951"
       id="path212"
       inkscape:connector-curvature="0" />
    <path
       d="m 13761,5547 -373,-374"
       id="path214"
       inkscape:connector-curvature="0" />
    <path
       d="M 15295,5547 H 13761"
       id="path216"
       inkscape:connector-curvature="0" />
    <path
       d="M 16392,6643 15295,5547"
       id="path218"
       inkscape:connector-curvature="0" />
    <path
       d="m 10338,12878 h 2788"
       id="path220"
       inkscape:connector-curvature="0" />
    <path
       d="m 13126,12878 929,-928"
       id="path222"
       inkscape:connector-curvature="0" />
    <path
       d="m 10104,13113 234,-235"
       id="path224"
       inkscape:connector-curvature="0" />
    <path
       d="M 16392,10592 V 6643"
       id="path226"
       inkscape:connector-curvature="0" />
    <path
       d="m 14055,11950 h 980"
       id="path228"
       inkscape:connector-curvature="0" />
    <path
       d="m 15035,11950 1357,-1358"
       id="path230"
       inkscape:connector-curvature="0" />
    <path
       d="m 13241,5871 -119,119"
       id="path232"
       inkscape:connector-curvature="0" />
    <path
       d="m 16050,6785 -914,-914"
       id="path234"
       inkscape:connector-curvature="0" />
    <path
       d="m 10246,11636 h 3122"
       id="path236"
       inkscape:connector-curvature="0" />
    <path
       d="m 14055,10950 h 1070"
       id="path238"
       inkscape:connector-curvature="0" />
    <path
       d="m 9950,11932 296,-296"
       id="path240"
       inkscape:connector-curvature="0" />
    <path
       d="M 15136,5871 H 13241"
       id="path242"
       inkscape:connector-curvature="0" />
    <path
       d="m 13368,11636 687,-686"
       id="path244"
       inkscape:connector-curvature="0" />
    <path
       d="m 15125,10950 925,-925"
       id="path246"
       inkscape:connector-curvature="0" />
    <path
       d="M 16050,10025 V 6785"
       id="path248"
       inkscape:connector-curvature="0" />
    <path
       d="m 15450,14075 1618,-1619"
       id="path250"
       inkscape:connector-curvature="0" />
    <path
       d="m 14326,14075 h 1124"
       id="path252"
       inkscape:connector-curvature="0" />
    <path
       d="m 15684,4932 h -744"
       id="path254"
       inkscape:connector-curvature="0" />
    <path
       d="M 17068,12456 V 6316"
       id="path256"
       inkscape:connector-curvature="0" />
    <path
       d="m 14940,4932 -118,-119"
       id="path258"
       inkscape:connector-curvature="0" />
    <path
       d="m 10169,15475 v -118"
       id="path260"
       inkscape:connector-curvature="0" />
    <path
       d="M 17068,6316 15684,4932"
       id="path262"
       inkscape:connector-curvature="0" />
    <path
       d="m 13113,15288 1213,-1213"
       id="path264"
       inkscape:connector-curvature="0" />
    <path
       d="m 10169,15357 69,-69"
       id="path266"
       inkscape:connector-curvature="0" />
    <path
       d="m 10238,15288 h 2875"
       id="path268"
       inkscape:connector-curvature="0" />
    <path
       d="m 15596,6840 h -320"
       id="path270"
       inkscape:connector-curvature="0" />
    <path
       d="m 15700,6943 -104,-103"
       id="path272"
       inkscape:connector-curvature="0" />
    <path
       d="m 13825,9950 h 1100"
       id="path274"
       inkscape:connector-curvature="0" />
    <path
       d="M 15700,9175 V 6943"
       id="path276"
       inkscape:connector-curvature="0" />
    <path
       d="m 9891,10751 384,-385"
       id="path278"
       inkscape:connector-curvature="0" />
    <path
       d="m 10275,10366 h 3133"
       id="path280"
       inkscape:connector-curvature="0" />
    <path
       d="m 13408,10366 417,-416"
       id="path282"
       inkscape:connector-curvature="0" />
    <path
       d="m 14925,9950 775,-775"
       id="path284"
       inkscape:connector-curvature="0" />
  </g>
  <g
     style="fill:#840000;fill-opacity:0;stroke:#840000;stroke-width:98.42520142;stroke-linecap:round;stroke-linejoin:round;stroke-opacity:1"
     id="g298"
     transform="translate(-2391.552,-1666.5325)">
    <path
       d="m 11775,4361 -2,-2"
       id="path288"
       inkscape:connector-curvature="0" />
    <path
       d="M 11775,4975 V 4361"
       id="path290"
       inkscape:connector-curvature="0" />
    <path
       d="m 10698,10751 h 1162"
       id="path292"
       inkscape:connector-curvature="0" />
    <path
       d="m 10639,11932 h 1280"
       id="path294"
       inkscape:connector-curvature="0" />
    <path
       d="m 10486,13113 h 1586"
       id="path296"
       inkscape:connector-curvature="0" />
  </g>
  <g
     style="fill:#840000;fill-opacity:0;stroke:#840000;stroke-width:120;stroke-linecap:round;stroke-linejoin:round;stroke-opacity:1"
     id="g304"
     transform="translate(-2391.552,-1666.5325)">
    <path
       d="m 12133,14290 4,4"
       id="path300"
       inkscape:connector-curvature="0" />
    <path
       d="m 10406,14290 h 1727"
       id="path302"
       inkscape:connector-curvature="0" />
  </g>
  <g
     style="fill:#840000;fill-opacity:0;stroke:#840000;stroke-width:98.42520142;stroke-linecap:round;stroke-linejoin:round;stroke-opacity:1"
     id="g308"
     transform="translate(-2391.552,-1666.5325)">
    <path
       d="m 10421,15475 h 1734"
       id="path306"
       inkscape:connector-curvature="0" />
  </g>
  <g
     style="fill:#840000;fill-opacity:0;stroke:#840000;stroke-width:60;stroke-linecap:round;stroke-linejoin:round;stroke-opacity:1"
     id="g326"
     transform="translate(-2391.552,-1666.5325)">
    <path
       d="m 15581,6554 -80,-79"
       id="path310"
       inkscape:connector-curvature="0" />
    <path
       d="m 15501,6475 h -11"
       id="path312"
       inkscape:connector-curvature="0" />
    <path
       d="m 15490,6475 -445,-445"
       id="path314"
       inkscape:connector-curvature="0" />
    <path
       d="m 13006,6606 -233,234"
       id="path316"
       inkscape:connector-curvature="0" />
    <path
       d="m 13006,6440 v 166"
       id="path318"
       inkscape:connector-curvature="0" />
    <path
       d="m 13417,6030 -411,410"
       id="path320"
       inkscape:connector-curvature="0" />
    <path
       d="M 15045,6030 H 13417"
       id="path322"
       inkscape:connector-curvature="0" />
    <path
       d="m 12667,10751 h 356"
       id="path324"
       inkscape:connector-curvature="0" />
  </g>
  <g
     style="fill:#840000;fill-opacity:0;stroke:#840000;stroke-width:120;stroke-linecap:round;stroke-linejoin:round;stroke-opacity:1"
     id="g338"
     transform="translate(-2391.552,-1666.5325)">
    <path
       d="m 15875,6848 -294,-294"
       id="path328"
       inkscape:connector-curvature="0" />
    <path
       d="M 15875,9250 V 6848"
       id="path330"
       inkscape:connector-curvature="0" />
    <path
       d="m 15000,10125 875,-875"
       id="path332"
       inkscape:connector-curvature="0" />
    <path
       d="m 13925,10125 h 1075"
       id="path334"
       inkscape:connector-curvature="0" />
    <path
       d="m 13298,10751 627,-626"
       id="path336"
       inkscape:connector-curvature="0" />
  </g>
  <g
     style="fill:#840000;fill-opacity:0;stroke:#840000;stroke-width:60;stroke-linecap:round;stroke-linejoin:round;stroke-opacity:1"
     id="g342"
     transform="translate(-2391.552,-1666.5325)">
    <path
       d="m 12667,10751 h 426"
       id="path340"
       inkscape:connector-curvature="0" />
  </g>
  <g
     style="fill:#840000;fill-opacity:0;stroke:#840000;stroke-width:120;stroke-linecap:round;stroke-linejoin:round;stroke-opacity:1"
     id="g346"
     transform="translate(-2391.552,-1666.5325)">
    <path
       d="m 13093,10751 h 205"
       id="path344"
       inkscape:connector-curvature="0" />
  </g>
  <g
     style="fill:#840000;fill-opacity:0;stroke:#840000;stroke-width:98.42520142;stroke-linecap:round;stroke-linejoin:round;stroke-opacity:1"
     id="g352"
     transform="translate(-2391.552,-1666.5325)">
    <path
       d="M 12276,6840 V 6485"
       id="path348"
       inkscape:connector-curvature="0" />
    <path
       d="m 12276,6485 741,-740"
       id="path350"
       inkscape:connector-curvature="0" />
  </g>
  <g
     style="fill:#840000;fill-opacity:0;stroke:#840000;stroke-width:60;stroke-linecap:round;stroke-linejoin:round;stroke-opacity:1"
     id="g362"
     transform="translate(-2391.552,-1666.5325)">
    <path
       d="m 15313,5808 -122,-122"
       id="path354"
       inkscape:connector-curvature="0" />
    <path
       d="m 15313,5809 v -1"
       id="path356"
       inkscape:connector-curvature="0" />
    <path
       d="m 13076,5686 -59,59"
       id="path358"
       inkscape:connector-curvature="0" />
    <path
       d="M 15191,5686 H 13076"
       id="path360"
       inkscape:connector-curvature="0" />
  </g>
  <g
     style="fill:#840000;fill-opacity:0;stroke:#840000;stroke-width:120;stroke-linecap:round;stroke-linejoin:round;stroke-opacity:1"
     id="g378"
     transform="translate(-2391.552,-1666.5325)">
    <path
       d="m 16119,6616 -806,-807"
       id="path364"
       inkscape:connector-curvature="0" />
    <path
       d="m 13312,11932 814,-814"
       id="path366"
       inkscape:connector-curvature="0" />
    <path
       d="m 14126,11118 h 1098"
       id="path368"
       inkscape:connector-curvature="0" />
    <path
       d="m 15224,11118 999,-999"
       id="path370"
       inkscape:connector-curvature="0" />
    <path
       d="M 16223,10119 V 6720"
       id="path372"
       inkscape:connector-curvature="0" />
    <path
       d="m 16223,6720 -104,-104"
       id="path374"
       inkscape:connector-curvature="0" />
    <path
       d="m 13070,11932 h 242"
       id="path376"
       inkscape:connector-curvature="0" />
  </g>
  <g
     style="fill:#840000;fill-opacity:0;stroke:#840000;stroke-width:60;stroke-linecap:round;stroke-linejoin:round;stroke-opacity:1"
     id="g382"
     transform="translate(-2391.552,-1666.5325)">
    <path
       d="m 12608,11932 h 462"
       id="path380"
       inkscape:connector-curvature="0" />
  </g>
  <g
     style="fill:#840000;fill-opacity:0;stroke:#840000;stroke-width:120;stroke-linecap:round;stroke-linejoin:round;stroke-opacity:1"
     id="g390"
     transform="translate(-2391.552,-1666.5325)">
    <path
       d="m 16382,6395 v 0"
       id="path384"
       inkscape:connector-curvature="0" />
    <path
       d="m 16382,6395 v 0"
       id="path386"
       inkscape:connector-curvature="0" />
    <path
       d="m 16382,6395 -995,-995"
       id="path388"
       inkscape:connector-curvature="0" />
  </g>
  <g
     style="fill:#840000;fill-opacity:0;stroke:#840000;stroke-width:60;stroke-linecap:round;stroke-linejoin:round;stroke-opacity:1"
     id="g398"
     transform="translate(-2391.552,-1666.5325)">
    <path
       d="M 15343,5408 H 14080"
       id="path392"
       inkscape:connector-curvature="0" />
    <path
       d="m 13941,5269 -158,-157"
       id="path394"
       inkscape:connector-curvature="0" />
    <path
       d="m 14080,5408 -139,-139"
       id="path396"
       inkscape:connector-curvature="0" />
  </g>
  <g
     style="fill:#840000;fill-opacity:0;stroke:#840000;stroke-width:120;stroke-linecap:round;stroke-linejoin:round;stroke-opacity:1"
     id="g410"
     transform="translate(-2391.552,-1666.5325)">
    <path
       d="m 16561,6574 -179,-179"
       id="path400"
       inkscape:connector-curvature="0" />
    <path
       d="m 13130,13113 994,-995"
       id="path402"
       inkscape:connector-curvature="0" />
    <path
       d="m 15134,12118 1427,-1426"
       id="path404"
       inkscape:connector-curvature="0" />
    <path
       d="m 14124,12118 h 1010"
       id="path406"
       inkscape:connector-curvature="0" />
    <path
       d="M 16561,10692 V 6574"
       id="path408"
       inkscape:connector-curvature="0" />
  </g>
  <g
     style="fill:#840000;fill-opacity:0;stroke:#840000;stroke-width:98.42520142;stroke-linecap:round;stroke-linejoin:round;stroke-opacity:1"
     id="g418"
     transform="translate(-2391.552,-1666.5325)">
    <path
       d="m 13436,6322 h 82"
       id="path412"
       inkscape:connector-curvature="0" />
    <path
       d="m 13273,6485 163,-163"
       id="path414"
       inkscape:connector-curvature="0" />
    <path
       d="M 13273,6840 V 6485"
       id="path416"
       inkscape:connector-curvature="0" />
  </g>
  <g
     style="fill:#840000;fill-opacity:0;stroke:#840000;stroke-width:60;stroke-linecap:round;stroke-linejoin:round;stroke-opacity:1"
     id="g424"
     transform="translate(-2391.552,-1666.5325)">
    <path
       d="m 12454,13113 h 244"
       id="path420"
       inkscape:connector-curvature="0" />
    <path
       d="m 12454,13113 h 319"
       id="path422"
       inkscape:connector-curvature="0" />
  </g>
  <g
     style="fill:#840000;fill-opacity:0;stroke:#840000;stroke-width:120;stroke-linecap:round;stroke-linejoin:round;stroke-opacity:1"
     id="g428"
     transform="translate(-2391.552,-1666.5325)">
    <path
       d="m 12773,13113 h 357"
       id="path426"
       inkscape:connector-curvature="0" />
  </g>
  <g
     style="fill:#840000;fill-opacity:0;stroke:#840000;stroke-width:98.42520142;stroke-linecap:round;stroke-linejoin:round;stroke-opacity:1"
     id="g432"
     transform="translate(-2391.552,-1666.5325)">
    <path
       d="M 14773,6840 V 6597"
       id="path430"
       inkscape:connector-curvature="0" />
  </g>
  <g
     style="fill:#840000;fill-opacity:0;stroke:#840000;stroke-width:120;stroke-linecap:round;stroke-linejoin:round;stroke-opacity:1"
     id="g444"
     transform="translate(-2391.552,-1666.5325)">
    <path
       d="m 13019,14294 1125,-1126"
       id="path434"
       inkscape:connector-curvature="0" />
    <path
       d="m 14144,13168 h 1125"
       id="path436"
       inkscape:connector-curvature="0" />
    <path
       d="m 15269,13168 1631,-1630"
       id="path438"
       inkscape:connector-curvature="0" />
    <path
       d="M 16900,11538 V 6386"
       id="path440"
       inkscape:connector-curvature="0" />
    <path
       d="M 16900,6386 15614,5101"
       id="path442"
       inkscape:connector-curvature="0" />
  </g>
  <g
     style="fill:#840000;fill-opacity:0;stroke:#840000;stroke-width:60;stroke-linecap:round;stroke-linejoin:round;stroke-opacity:1"
     id="g454"
     transform="translate(-2391.552,-1666.5325)">
    <path
       d="m 15614,5101 -30,-30"
       id="path446"
       inkscape:connector-curvature="0" />
    <path
       d="m 14493,5071 -47,-48"
       id="path448"
       inkscape:connector-curvature="0" />
    <path
       d="m 14446,5023 -158,-157"
       id="path450"
       inkscape:connector-curvature="0" />
    <path
       d="M 15584,5071 H 14493"
       id="path452"
       inkscape:connector-curvature="0" />
  </g>
  <g
     style="fill:#840000;fill-opacity:0;stroke:#840000;stroke-width:98.42520142;stroke-linecap:round;stroke-linejoin:round;stroke-opacity:1"
     id="g462"
     transform="translate(-2391.552,-1666.5325)">
    <path
       d="m 14773,6741 -372,-371"
       id="path456"
       inkscape:connector-curvature="0" />
    <path
       d="m 14401,6370 v -74"
       id="path458"
       inkscape:connector-curvature="0" />
    <path
       d="m 14773,6840 v -99"
       id="path460"
       inkscape:connector-curvature="0" />
  </g>
  <g
     style="fill:#840000;fill-opacity:0;stroke:#840000;stroke-width:60;stroke-linecap:round;stroke-linejoin:round;stroke-opacity:1"
     id="g466"
     transform="translate(-2391.552,-1666.5325)">
    <path
       d="m 12421,14294 h 268"
       id="path464"
       inkscape:connector-curvature="0" />
  </g>
  <g
     style="fill:#840000;fill-opacity:0;stroke:#840000;stroke-width:120;stroke-linecap:round;stroke-linejoin:round;stroke-opacity:1"
     id="g470"
     transform="translate(-2391.552,-1666.5325)">
    <path
       d="m 12689,14294 h 330"
       id="path468"
       inkscape:connector-curvature="0" />
  </g>
  <g
     style="fill:#840000;fill-opacity:0;stroke:#840000;stroke-width:60;stroke-linecap:round;stroke-linejoin:round;stroke-opacity:1"
     id="g474"
     transform="translate(-2391.552,-1666.5325)">
    <path
       d="m 12362,15475 h 334"
       id="path472"
       inkscape:connector-curvature="0" />
  </g>
  <g
     style="fill:#840000;fill-opacity:0;stroke:#840000;stroke-width:120;stroke-linecap:round;stroke-linejoin:round;stroke-opacity:1"
     id="g492"
     transform="translate(-2391.552,-1666.5325)">
    <path
       d="m 13199,15475 1226,-1225"
       id="path476"
       inkscape:connector-curvature="0" />
    <path
       d="m 14425,14250 h 875"
       id="path478"
       inkscape:connector-curvature="0" />
    <path
       d="m 15300,14250 h 25"
       id="path480"
       inkscape:connector-curvature="0" />
    <path
       d="M 15513,14250 H 14425"
       id="path482"
       inkscape:connector-curvature="0" />
    <path
       d="m 17237,12526 -1724,1724"
       id="path484"
       inkscape:connector-curvature="0" />
    <path
       d="m 17237,6246 v 6280"
       id="path486"
       inkscape:connector-curvature="0" />
    <path
       d="m 15485,4763 h 269"
       id="path488"
       inkscape:connector-curvature="0" />
    <path
       d="m 15754,4763 1483,1483"
       id="path490"
       inkscape:connector-curvature="0" />
  </g>
  <g
     style="fill:#840000;fill-opacity:0;stroke:#840000;stroke-width:60;stroke-linecap:round;stroke-linejoin:round;stroke-opacity:1"
     id="g502"
     transform="translate(-2391.552,-1666.5325)">
    <path
       d="m 14773,4359 v 65"
       id="path494"
       inkscape:connector-curvature="0" />
    <path
       d="m 15463,4742 22,21"
       id="path496"
       inkscape:connector-curvature="0" />
    <path
       d="m 15090,4742 h 373"
       id="path498"
       inkscape:connector-curvature="0" />
    <path
       d="m 14773,4424 317,318"
       id="path500"
       inkscape:connector-curvature="0" />
  </g>
  <g
     style="fill:#840000;fill-opacity:0;stroke:#840000;stroke-width:120;stroke-linecap:round;stroke-linejoin:round;stroke-opacity:1"
     id="g510"
     transform="translate(-2391.552,-1666.5325)">
    <path
       d="m 12696,15475 h 503"
       id="path504"
       inkscape:connector-curvature="0" />
    <path
       d="m 12600,4532 173,-173"
       id="path506"
       inkscape:connector-curvature="0" />
    <path
       d="M 12600,5225 V 4532"
       id="path508"
       inkscape:connector-curvature="0" />
  </g>
  <g
     style="fill:#840000;fill-opacity:0;stroke:#840000;stroke-width:98.42520142;stroke-linecap:round;stroke-linejoin:round;stroke-opacity:1"
     id="g520"
     transform="translate(-2391.552,-1666.5325)">
    <path
       d="M 12276,4895 V 4714"
       id="path512"
       inkscape:connector-curvature="0" />
    <path
       d="M 12276,4714 V 4359"
       id="path514"
       inkscape:connector-curvature="0" />
    <path
       d="m 11773,5399 503,-504"
       id="path516"
       inkscape:connector-curvature="0" />
    <path
       d="M 11773,6840 V 5399"
       id="path518"
       inkscape:connector-curvature="0" />
  </g>
  <g
     style="fill:#840000;fill-opacity:1;stroke:#840000;stroke-width:70;stroke-linecap:round;stroke-linejoin:round;stroke-opacity:1"
     id="g524"
     transform="translate(-2391.552,-1666.5325)">
    <polyline
       style="fill-rule:evenodd"
       points="10741,1833 11427,1903 12104,2034 12766,2225 13409,2474 14028,2779 14617,3137 15171,3547 15688,4004 16161,4506 16588,5047 16965,5625 17083,5846 15883,4646 15878,4640 15851,4618 15821,4602 15788,4592 15763,4590 15763,4590 15754,4589 15746,4590 15548,4590 15548,4103 15546,4081 15540,4060 15529,4040 15515,4023 15497,4008 15478,3998 15456,3991 15434,3989 15119,3989 15097,3991 15075,3998 15055,4008 15038,4023 15025,4039 15011,4023 14994,4008 14974,3998 14952,3991 14930,3989 14615,3989 14593,3991 14571,3998 14552,4008 14534,4023 14525,4034 14515,4023 14497,4008 14478,3998 14456,3991 14434,3989 14119,3989 14097,3991 14075,3998 14055,4008 14038,4023 14026,4037 14015,4023 13997,4008 13978,3998 13956,3991 13934,3989 13619,3989 13597,3991 13575,3998 13555,4008 13538,4023 13525,4039 13511,4023 13494,4008 13474,3998 13452,3991 13430,3989 13115,3989 13093,3991 13071,3998 13052,4008 13034,4023 13023,4037 13011,4023 12994,4008 12974,3998 12952,3991 12930,3989 12615,3989 12593,3991 12571,3998 12552,4008 12534,4023 12525,4034 12515,4023 12497,4008 12478,3998 12456,3991 12434,3989 12119,3989 12097,3991 12075,3998 12055,4008 12038,4023 12024,4040 12019,4048 12012,4037 11997,4022 11980,4010 11961,4002 11940,3998 11864,3998 11838,4025 11838,4294 11845,4294 11845,4424 11838,4424 11838,4694 11864,4720 11940,4720 11961,4716 11980,4708 11997,4697 12012,4682 12019,4670 12024,4679 12038,4696 12055,4710 12075,4721 12097,4727 12114,4729 12114,4827 11663,5278 11657,5283 11652,5289 11652,5289 11636,5308 11621,5336 11612,5367 11609,5399 11610,5407 11610,6470 11593,6472 11571,6478 11552,6489 11534,6503 11520,6520 11509,6540 11503,6561 11501,6584 11501,7096 11503,7118 11509,7139 11520,7159 11534,7176 11552,7191 11571,7201 11593,7208 11615,7210 11930,7210 11952,7208 11974,7201 11994,7191 12011,7176 12025,7160 12038,7176 12055,7191 12075,7201 12097,7208 12119,7210 12434,7210 12456,7208 12478,7201 12497,7191 12515,7176 12525,7165 12534,7176 12552,7191 12571,7201 12593,7208 12615,7210 12930,7210 12952,7208 12974,7201 12994,7191 13011,7176 13023,7162 13034,7176 13052,7191 13071,7201 13093,7208 13115,7210 13430,7210 13452,7208 13474,7201 13494,7191 13511,7176 13525,7160 13538,7176 13555,7191 13575,7201 13597,7208 13619,7210 13934,7210 13956,7208 13978,7201 13997,7191 14015,7176 14026,7162 14038,7176 14055,7191 14075,7201 14097,7208 14119,7210 14434,7210 14456,7208 14478,7201 14497,7191 14515,7176 14525,7165 14534,7176 14552,7191 14571,7201 14593,7208 14615,7210 14930,7210 14952,7208 14974,7201 14994,7191 15011,7176 15025,7160 15038,7176 15055,7191 15075,7201 15097,7208 15119,7210 15434,7210 15456,7208 15478,7201 15497,7191 15515,7176 15529,7159 15540,7139 15546,7118 15548,7096 15548,6995 15556,7003 15556,9115 14865,9806 13832,9806 13824,9805 13817,9806 13817,9806 13796,9808 13769,9816 13744,9829 13722,9847 13718,9853 13348,10223 10282,10223 10275,10222 10268,10223 10268,10223 10247,10225 10220,10233 10195,10246 10173,10264 10169,10270 10071,10368 10060,10365 10019,10361 9763,10361 9722,10365 9682,10377 9645,10397 9613,10423 9586,10455 9567,10492 9554,10532 9550,10574 9550,10928 9554,10969 9567,11009 9586,11046 9613,11078 9645,11105 9682,11124 9722,11136 9763,11141 10019,11141 10060,11136 10100,11124 10137,11105 10169,11078 10196,11046 10216,11009 10228,10969 10232,10928 10232,10613 10335,10510 10368,10510 10362,10532 10357,10574 10357,10928 10362,10969 10374,11009 10393,11046 10420,11078 10452,11105 10489,11124 10529,11136 10570,11141 10826,11141 10868,11136 10907,11124 10944,11105 10976,11078 11003,11046 11023,11009 11035,10969 11039,10928 11039,10914 11519,10914 11519,10928 11523,10969 11535,11009 11555,11046 11581,11078 11613,11105 11650,11124 11690,11136 11732,11141 11987,11141 12029,11136 12069,11124 12106,11105 12138,11078 12164,11046 12184,11009 12196,10969 12200,10928 12200,10574 12196,10532 12189,10510 12337,10510 12330,10532 12326,10574 12326,10928 12330,10969 12342,11009 12362,11046 12388,11078 12420,11105 12457,11124 12497,11136 12539,11141 12795,11141 12836,11136 12876,11124 12913,11105 12945,11078 12971,11046 12991,11009 13003,10969 13007,10928 13007,10902 13027,10912 13059,10922 13085,10924 13290,10924 13298,10925 13307,10924 13307,10924 13332,10922 13365,10912 13395,10896 13422,10874 13427,10867 13996,10298 14991,10298 15000,10299 15008,10298 15008,10298 15034,10296 15066,10286 15096,10270 15123,10248 15128,10241 15906,9464 15906,9965 15065,10806 14062,10806 14054,10805 14047,10806 14047,10806 14026,10808 13999,10816 13974,10829 13952,10847 13948,10853 13308,11492 10253,11492 10246,11492 10239,11492 10239,11492 10218,11494 10191,11503 10166,11516 10144,11534 10139,11539 10048,11630 9837,11630 9796,11634 9757,11646 9721,11666 9690,11691 9664,11723 9645,11759 9633,11798 9629,11838 9629,12025 9633,12066 9645,12105 9664,12141 9690,12172 9721,12198 9757,12217 9796,12229 9837,12233 10063,12233 10100,12229 10104,12230 10132,12227 10159,12219 10184,12205 10206,12187 10224,12166 10237,12141 10238,12136 10255,12105 10267,12066 10271,12025 10271,11838 10269,11816 10305,11780 10328,11780 10322,11798 10318,11838 10318,12025 10322,12066 10334,12105 10353,12141 10379,12172 10410,12198 10446,12217 10485,12229 10526,12233 10752,12233 10793,12229 10832,12217 10868,12198 10899,12172 10925,12141 10944,12105 10947,12095 11610,12095 11613,12105 11633,12141 11658,12172 11690,12198 11726,12217 11765,12229 11805,12233 12032,12233 12072,12229 12111,12217 12147,12198 12179,12172 12205,12141 12224,12105 12236,12066 12240,12025 12240,11838 12236,11798 12230,11780 12296,11780 12291,11798 12287,11838 12287,12025 12291,12066 12302,12105 12322,12141 12347,12172 12379,12198 12415,12217 12454,12229 12494,12233 12721,12233 12761,12229 12800,12217 12836,12198 12868,12172 12894,12141 12913,12105 12922,12076 12971,12076 12973,12077 13003,12093 13035,12103 13061,12106 13304,12106 13312,12106 13321,12106 13321,12106 13346,12103 13379,12093 13409,12077 13436,12055 13441,12049 14198,11292 15216,11292 15224,11293 15233,11292 15233,11292 15258,11289 15291,11280 15321,11263 15348,11242 15353,11235 16248,10340 16248,10532 14975,11806 14062,11806 14055,11805 14047,11806 14047,11806 14026,11808 13999,11816 13974,11829 13960,11841 13952,11847 13948,11853 13066,12734 10345,12734 10338,12734 10331,12734 10331,12734 10310,12736 10283,12745 10258,12758 10236,12776 10232,12782 10141,12873 10046,12873 10012,12876 9980,12886 9950,12902 9924,12923 9902,12949 9886,12979 9877,13011 9873,13045 9873,13181 9877,13214 9886,13247 9902,13277 9924,13303 9950,13324 9980,13340 10012,13350 10046,13353 10162,13353 10195,13350 10228,13340 10257,13324 10284,13303 10295,13289 10306,13303 10332,13324 10361,13340 10394,13350 10427,13353 10544,13353 10577,13350 10610,13340 10639,13324 10665,13303 10687,13277 10687,13276 11870,13276 11871,13277 11892,13303 11918,13324 11948,13340 11980,13350 12014,13353 12130,13353 12164,13350 12196,13340 12226,13324 12252,13303 12263,13289 12274,13303 12300,13324 12330,13340 12362,13350 12396,13353 12512,13353 12546,13350 12578,13340 12608,13324 12634,13303 12655,13277 12666,13257 12674,13257 12676,13258 12706,13274 12739,13284 12764,13287 13121,13287 13130,13287 13138,13287 13138,13287 13164,13284 13197,13274 13227,13258 13253,13236 13259,13230 14196,12292 15126,12292 15134,12293 15143,12292 15143,12292 15168,12289 15201,12280 15231,12263 15258,12242 15263,12235 16586,10913 16586,11410 15140,12856 14082,12856 14075,12855 14067,12856 14067,12856 14046,12858 14019,12866 13994,12879 13978,12893 13978,12893 13972,12897 13968,12903 12915,13956 10252,13956 10245,13955 10238,13956 10233,13956 10226,13955 10219,13956 10219,13956 10198,13958 10171,13966 10146,13979 10124,13997 10120,14003 10058,14065 10052,14069 10048,14075 10048,14075 10045,14078 10034,14091 10031,14098 10014,14099 9985,14108 9959,14122 9936,14141 9917,14165 9902,14191 9894,14220 9891,14250 9891,14329 9894,14359 9902,14388 9917,14414 9936,14438 9959,14457 9985,14471 10014,14480 10044,14483 10202,14483 10232,14480 10261,14471 10280,14460 10300,14471 10329,14480 10359,14483 10517,14483 10547,14480 10576,14471 10590,14463 11945,14463 11968,14475 11997,14484 12027,14487 12184,14487 12214,14484 12243,14475 12263,14465 12283,14475 12312,14484 12342,14487 12499,14487 12529,14484 12558,14475 12585,14461 12604,14445 12622,14455 12655,14465 12680,14468 13010,14468 13019,14469 13027,14468 13027,14468 13053,14465 13085,14455 13116,14439 13142,14417 13148,14411 14216,13342 15261,13342 15269,13343 15278,13342 15278,13342 15303,13339 15336,13330 15366,13313 15393,13292 15398,13285 16925,11759 16925,12396 15390,13931 14333,13931 14326,13930 14319,13931 14319,13931 14298,13933 14270,13941 14245,13954 14229,13968 14224,13972 14219,13978 13053,15144 10245,15144 10238,15143 10231,15144 10231,15144 10210,15146 10183,15154 10158,15168 10136,15185 10131,15191 10072,15250 10066,15255 10062,15260 10062,15260 10049,15277 10045,15283 10028,15285 10000,15294 9973,15308 9950,15327 9931,15350 9916,15377 9908,15406 9905,15436 9905,15514 9908,15544 9916,15573 9931,15600 9950,15623 9973,15642 10000,15656 10028,15665 10058,15668 10216,15668 10246,15665 10275,15656 10295,15646 10315,15656 10343,15665 10373,15668 10531,15668 10561,15665 10590,15656 10616,15642 10621,15638 11966,15638 11989,15645 12017,15648 12194,15648 12222,15645 12249,15637 12263,15629 12277,15637 12304,15645 12332,15648 12509,15648 12537,15645 12564,15637 12589,15624 12595,15619 12597,15619 12599,15620 12629,15636 12662,15646 12688,15649 13190,15649 13199,15650 13207,15649 13207,15649 13233,15646 13266,15636 13296,15620 13322,15599 13328,15592 14496,14423 15505,14423 15513,14424 15522,14423 15522,14423 15547,14421 15580,14411 15610,14395 15637,14373 15642,14366 17354,12655 17360,12649 17372,12635 17382,12623 17394,12600 17398,12592 17408,12560 17411,12534 17411,12534 17412,12526 17411,12517 17411,6520 17558,6868 17769,7525 17922,8197 18013,8881 18044,9570 18033,9975 17967,10661 17839,11339 17652,12003 17407,12647 17105,13267 16749,13858 16343,14415 15888,14933 15389,15409 14850,15839 14274,16219 13667,16547 13034,16819 12379,17034 11707,17189 11024,17285 10335,17319 9646,17292 8962,17204 8289,17055 7631,16847 6995,16582 6385,16260 5805,15886 5262,15462 4758,14992 4298,14478 3885,13925 3523,13338 3215,12722 2963,12080 2769,11418 2634,10742 2560,10056 2548,9367 2596,8679 2706,7998 2876,7330 3104,6679 3390,6051 3730,5452 4122,4884 4483,4451 11510,4451 11510,4626 11514,4646 11522,4665 11533,4682 11548,4697 11565,4708 11584,4716 11605,4720 11681,4720 11708,4694 11708,4424 11536,4424 11510,4451 4483,4451 4563,4354 5049,3865 5577,3421 5948,3162 9197,3162 9197,3379 9239,3591 9322,3790 9442,3970 9595,4123 9774,4243 9974,4326 10186,4368 10403,4368 10615,4326 10815,4243 10995,4123 11025,4093 11510,4093 11510,4268 11536,4294 11708,4294 11708,4025 11681,3998 11605,3998 11584,4002 11565,4010 11548,4022 11533,4037 11522,4054 11514,4073 11510,4093 11025,4093 11147,3970 11268,3790 11350,3591 11393,3379 11393,3162 11350,2950 11268,2750 11147,2570 10995,2418 10815,2297 10615,2215 10403,2172 10186,2172 9974,2215 9774,2297 9595,2418 9442,2570 9322,2750 9239,2950 9197,3162 5948,3162 6142,3026 6740,2683 7367,2395 8016,2163 8683,1989 9364,1876 10051,1824 10741,1833 "
       id="polyline522" />
  </g>
  <g
     style="fill:#ffffff;fill-opacity:1;stroke:#ffffff;stroke-width:70;stroke-linecap:round;stroke-linejoin:round;stroke-opacity:1"
     id="g526"
     transform="translate(-2391.552,-1666.5325)" />
  <g
     style="fill:#ffffff;fill-opacity:1;stroke:#ffffff;stroke-width:0;stroke-linecap:round;stroke-linejoin:round;stroke-opacity:1"
     id="g530"
     transform="translate(-2391.552,-1666.5325)">
    <circle
       cx="13388.1"
       cy="4951.04"
       r="78.740196"
       id="circle528" />
  </g>
  <g
     style="fill:#ffffff;fill-opacity:1;stroke:#ffffff;stroke-width:39.37009811;stroke-linecap:round;stroke-linejoin:round;stroke-opacity:1"
     id="g532"
     transform="translate(-2391.552,-1666.5325)" />
  <g
     style="fill:#ffffff;fill-opacity:1;stroke:#ffffff;stroke-width:0;stroke-linecap:round;stroke-linejoin:round;stroke-opacity:1"
     id="g536"
     transform="translate(-2391.552,-1666.5325)">
    <circle
       cx="14891.8"
       cy="6303.25"
       r="78.740196"
       id="circle534" />
  </g>
  <g
     style="fill:#ffffff;fill-opacity:1;stroke:#ffffff;stroke-width:39.37009811;stroke-linecap:round;stroke-linejoin:round;stroke-opacity:1"
     id="g538"
     transform="translate(-2391.552,-1666.5325)" />
  <g
     style="fill:#ffffff;fill-opacity:1;stroke:#ffffff;stroke-width:0;stroke-linecap:round;stroke-linejoin:round;stroke-opacity:1"
     id="g542"
     transform="translate(-2391.552,-1666.5325)">
    <circle
       cx="13122.7"
       cy="5990.1201"
       r="59.055099"
       id="circle540" />
  </g>
  <g
     style="fill:#ffffff;fill-opacity:1;stroke:#ffffff;stroke-width:39.37009811;stroke-linecap:round;stroke-linejoin:round;stroke-opacity:1"
     id="g544"
     transform="translate(-2391.552,-1666.5325)" />
  <g
     style="fill:#ffffff;fill-opacity:1;stroke:#ffffff;stroke-width:0;stroke-linecap:round;stroke-linejoin:round;stroke-opacity:1"
     id="g548"
     transform="translate(-2391.552,-1666.5325)">
    <circle
       cx="14822"
       cy="4813.5498"
       r="59.055099"
       id="circle546" />
  </g>
  <g
     style="fill:#ffffff;fill-opacity:1;stroke:#ffffff;stroke-width:39.37009811;stroke-linecap:round;stroke-linejoin:round;stroke-opacity:1"
     id="g550"
     transform="translate(-2391.552,-1666.5325)" />
  <g
     style="fill:#ffffff;fill-opacity:1;stroke:#ffffff;stroke-width:0;stroke-linecap:round;stroke-linejoin:round;stroke-opacity:1"
     id="g554"
     transform="translate(-2391.552,-1666.5325)">
    <circle
       cx="11775"
       cy="4975"
       r="78.740196"
       id="circle552" />
  </g>
  <g
     style="fill:#ffffff;fill-opacity:1;stroke:#ffffff;stroke-width:39.37009811;stroke-linecap:round;stroke-linejoin:round;stroke-opacity:1"
     id="g556"
     transform="translate(-2391.552,-1666.5325)" />
  <g
     style="fill:#ffffff;fill-opacity:1;stroke:#ffffff;stroke-width:0;stroke-linecap:round;stroke-linejoin:round;stroke-opacity:1"
     id="g560"
     transform="translate(-2391.552,-1666.5325)">
    <circle
       cx="13783.7"
       cy="5112.2002"
       r="78.740196"
       id="circle558" />
  </g>
  <g
     style="fill:#ffffff;fill-opacity:1;stroke:#ffffff;stroke-width:39.37009811;stroke-linecap:round;stroke-linejoin:round;stroke-opacity:1"
     id="g562"
     transform="translate(-2391.552,-1666.5325)" />
  <g
     style="fill:#ffffff;fill-opacity:1;stroke:#ffffff;stroke-width:0;stroke-linecap:round;stroke-linejoin:round;stroke-opacity:1"
     id="g566"
     transform="translate(-2391.552,-1666.5325)">
    <circle
       cx="13518.9"
       cy="6322.6001"
       r="78.740196"
       id="circle564" />
  </g>
  <g
     style="fill:#ffffff;fill-opacity:1;stroke:#ffffff;stroke-width:39.37009811;stroke-linecap:round;stroke-linejoin:round;stroke-opacity:1"
     id="g568"
     transform="translate(-2391.552,-1666.5325)" />
  <g
     style="fill:#ffffff;fill-opacity:1;stroke:#ffffff;stroke-width:0;stroke-linecap:round;stroke-linejoin:round;stroke-opacity:1"
     id="g572"
     transform="translate(-2391.552,-1666.5325)">
    <circle
       cx="14288.6"
       cy="4866.46"
       r="78.740196"
       id="circle570" />
  </g>
  <g
     style="fill:#ffffff;fill-opacity:1;stroke:#ffffff;stroke-width:39.37009811;stroke-linecap:round;stroke-linejoin:round;stroke-opacity:1"
     id="g574"
     transform="translate(-2391.552,-1666.5325)" />
  <g
     style="fill:#ffffff;fill-opacity:1;stroke:#ffffff;stroke-width:0;stroke-linecap:round;stroke-linejoin:round;stroke-opacity:1"
     id="g578"
     transform="translate(-2391.552,-1666.5325)">
    <circle
       cx="14401.5"
       cy="6296.2202"
       r="78.740196"
       id="circle576" />
  </g>
  <g
     style="fill:#ffffff;fill-opacity:1;stroke:#ffffff;stroke-width:39.37009811;stroke-linecap:round;stroke-linejoin:round;stroke-opacity:1"
     id="g580"
     transform="translate(-2391.552,-1666.5325)" />
  <g
     style="fill:#ffffff;fill-opacity:1;stroke:#ffffff;stroke-width:0;stroke-linecap:round;stroke-linejoin:round;stroke-opacity:1"
     id="g584"
     transform="translate(-2391.552,-1666.5325)">
    <circle
       cx="12600"
       cy="5225"
       r="78.740196"
       id="circle582" />
  </g>
  <g
     style="fill:#ffffff;fill-opacity:1;stroke:#ffffff;stroke-width:39.37009811;stroke-linecap:round;stroke-linejoin:round;stroke-opacity:1"
     id="g586"
     transform="translate(-2391.552,-1666.5325)" />
  <g
     style="fill:#ffffff;fill-opacity:1;stroke:#ffffff;stroke-width:0;stroke-linecap:round;stroke-linejoin:round;stroke-opacity:1"
     id="g590"
     transform="translate(-2391.552,-1666.5325)">
    <circle
       cx="10295.1"
       cy="3270.8701"
       r="492.12601"
       id="circle588" />
  </g>
  <g
     style="fill:#ffffff;fill-opacity:1;stroke:#ffffff;stroke-width:39.37009811;stroke-linecap:round;stroke-linejoin:round;stroke-opacity:1"
     id="g592"
     transform="translate(-2391.552,-1666.5325)" />
  <g
     style="fill:#000000;fill-opacity:1;stroke:#000000;stroke-width:39.37009811;stroke-linecap:round;stroke-linejoin:round;stroke-opacity:1"
     id="g594"
     transform="translate(-2391.552,-1666.5325)" />
  <g
     style="fill:#c2c200;fill-opacity:1;stroke:#c2c200;stroke-width:39.37009811;stroke-linecap:round;stroke-linejoin:round;stroke-opacity:1"
     id="g596"
     transform="translate(-2391.552,-1666.5325)" />
  <g
     style="fill:#c2c200;fill-opacity:0;stroke:#c2c200;stroke-width:59.05509949;stroke-linecap:round;stroke-linejoin:round;stroke-opacity:1"
     id="g600"
     transform="translate(-2391.552,-1666.5325)">
    <circle
       cx="10295.1"
       cy="9570.0801"
       r="7874.02"
       id="circle598" />
  </g>
</svg>
