<?xml version="1.0" encoding="UTF-8" standalone="no"?>
<!-- Created with Inkscape (http://www.inkscape.org/) -->

<svg
   xmlns:dc="http://purl.org/dc/elements/1.1/"
   xmlns:cc="http://creativecommons.org/ns#"
   xmlns:rdf="http://www.w3.org/1999/02/22-rdf-syntax-ns#"
   xmlns:svg="http://www.w3.org/2000/svg"
   xmlns="http://www.w3.org/2000/svg"
   xmlns:sodipodi="http://sodipodi.sourceforge.net/DTD/sodipodi-0.dtd"
   xmlns:inkscape="http://www.inkscape.org/namespaces/inkscape"
   width="136.12813mm"
   height="130.34059mm"
   viewBox="0 0 136.12813 130.34059"
   version="1.1"
   id="svg4037"
   inkscape:version="0.92.4 5da689c313, 2019-01-14"
   sodipodi:docname="kitchen-head_only_stroke.svg">
  <defs
     id="defs4031" />
  <sodipodi:namedview
     id="base"
     pagecolor="#ffffff"
     bordercolor="#666666"
     borderopacity="1.0"
     inkscape:pageopacity="0.0"
     inkscape:pageshadow="2"
     inkscape:zoom="0.98994949"
     inkscape:cx="22.548362"
     inkscape:cy="203.04004"
     inkscape:document-units="mm"
     inkscape:current-layer="layer1"
     showgrid="false"
     fit-margin-top="0"
     fit-margin-left="0"
     fit-margin-right="0"
     fit-margin-bottom="0"
     inkscape:window-width="1920"
     inkscape:window-height="981"
     inkscape:window-x="0"
     inkscape:window-y="28"
     inkscape:window-maximized="1" />
  <metadata
     id="metadata4034">
    <rdf:RDF>
      <cc:Work
         rdf:about="">
        <dc:format>image/svg+xml</dc:format>
        <dc:type
           rdf:resource="http://purl.org/dc/dcmitype/StillImage" />
        <dc:title></dc:title>
      </cc:Work>
    </rdf:RDF>
  </metadata>
  <g
     inkscape:label="Layer 1"
     inkscape:groupmode="layer"
     id="layer1"
     transform="translate(-13.57879,-14.115414)">
    <g
       transform="translate(3.0238052,-13.607006)"
       id="g4015">
      <path
         id="path4555"
         d="m 117.63682,143.84173 c -0.63251,0 -1.12447,0.15899 -1.12447,0.85989 0,0.7009 0.47486,0.85163 1.12447,0.85163 h 0.27286 v 7.25124 h -0.0992 c -0.61543,0 -1.13275,0.15073 -1.13275,0.85162 0,0.64962 0.48313,0.8599 1.13275,0.8599 h 1.90996 c 0.63251,0 1.14928,-0.159 1.14928,-0.8599 0,-0.70089 -0.49967,-0.85162 -1.14928,-0.85162 h -0.0992 v -3.13366 c 0.97442,-0.94023 1.34627,-1.14102 2.14974,-1.14102 1.33341,0 1.50482,0.61263 1.50482,1.34772 v 2.92696 h -0.0992 c -0.61543,0 -1.14929,0.13363 -1.14929,0.85162 0,0.68381 0.53386,0.8599 1.14929,0.8599 h 1.91823 c 0.63252,0 1.12448,-0.17609 1.12448,-0.8599 0,-0.6838 -0.45778,-0.85162 -1.12448,-0.85162 h -0.10755 v -3.1502 c 0,-1.7095 -1.21409,-2.836 -3.02617,-2.836 -0.88895,0 -1.65611,0.3409 -2.33991,1.0418 v -4.01836 z m -93.819594,0.0165 v 1.80248 h 2.01745 v -1.80248 z m 67.80775,0 v 1.80248 h 2.01744 v -1.80248 z m 7.91269,0.55397 c -0.71799,0 -0.85163,0.52615 -0.85163,1.12448 v 1.50482 h -0.60358 c -0.6667,0 -1.12448,0.15073 -1.12448,0.85163 0,0.6838 0.49197,0.85989 1.12448,0.85989 h 0.60358 v 3.6711 c 0,1.45308 1.20963,2.36471 3.158474,2.36471 1.29922,0 3.93568,-0.5866 3.93568,-1.6123 0,-0.47866 -0.35699,-0.86817 -0.81856,-0.86817 -0.59832,0 -1.15175,0.76895 -3.10059,0.76895 -1.26503,0 -1.46347,-0.32604 -1.46347,-0.97565 v -3.34864 h 3.09232 c 0.63252,0 1.12447,-0.17609 1.12447,-0.85989 0,-0.7009 -0.47486,-0.85163 -1.12447,-0.85163 h -3.09232 v -1.50482 c 0,-0.6667 -0.159,-1.12448 -0.859904,-1.12448 z m -87.72591,0.1323 c -0.59833,3e-5 -1.12448,0.12484 -1.12448,0.85992 0,0.7009 0.49196,0.85163 1.12448,0.85163 h 0.25632 v 6.54844 h -0.25632 c -0.63252,0 -1.12448,0.15073 -1.12448,0.85162 0,0.359 0.16716,0.8599 1.12448,0.8599 h 5.04362 c 2.01722,0 3.37344,-1.09566 3.37344,-2.73678 0,-1.077 -0.5799,-1.86505 -1.81074,-2.48047 0.75218,-0.58124 1.07487,-1.1484 1.07487,-1.93477 0,-1.62403 -1.41689,-2.81946 -3.34864,-2.81946 z m 67.0388,0 c -0.6667,0 -1.12448,0.15899 -1.12448,0.85989 0,0.7009 0.49197,0.85163 1.12448,0.85163 h 0.25632 v 6.54844 h -0.25632 c -0.63251,0 -1.12448,0.15073 -1.12448,0.85162 0,0.359 0.16716,0.8599 1.12448,0.8599 h 2.56315 c 0.66671,0 1.13275,-0.21028 1.13275,-0.8599 0,-0.71799 -0.53441,-0.85162 -1.13275,-0.85162 h -0.59531 v -1.85209 l 1.02526,-0.86816 c 1.0428,0.3248 2.13175,1.98718 2.93522,4.43177 h 1.88516 c 0.66671,0 1.12448,-0.21028 1.12448,-0.8599 0,-0.71799 -0.52615,-0.85162 -1.12448,-0.85162 h -0.5457 c -0.78637,-1.96594 -1.85108,-3.38864 -2.89388,-3.93568 l 3.00963,-2.61276 c 0.7009,0 1.05833,-0.28749 1.05833,-0.85163 0,-0.6838 -0.45777,-0.85989 -1.12447,-0.85989 h -1.71153 c -0.6667,0 -1.12448,0.24391 -1.12448,0.87643 0,0.39319 0.17017,0.63219 0.52917,0.76894 l -3.04271,2.61276 v -2.54661 h 0.59531 c 0.63252,0 1.13275,-0.15073 1.13275,-0.85163 0,-0.71799 -0.53441,-0.85989 -1.13275,-0.85989 z m -65.07096,1.71152 h 2.27376 c 1.07699,0 1.72806,0.4076 1.72806,1.09141 0,0.78637 -0.83621,1.31464 -2.06706,1.31464 h -1.93476 z m 21.90254,0.56224 c -0.94023,0 -1.52762,0.25542 -2.34818,1.0418 v -0.81856 h -1.60404 c -0.6667,0 -1.14101,0.23621 -1.14101,0.85163 0,0.54704 0.37509,0.8428 1.0418,0.85989 v 4.05144 h -0.10749 c -0.61542,0 -1.12448,0.15073 -1.12448,0.85162 0,0.64962 0.45777,0.8599 1.12448,0.8599 h 1.91823 c 0.59833,0 1.12448,-0.159 1.12448,-0.8599 0,-0.71799 -0.52615,-0.85162 -1.12448,-0.85162 h -0.10749 v -3.11713 c 0.80346,-0.87184 1.3551,-1.15755 2.14147,-1.15755 1.0599,0 1.53789,0.39431 1.53789,1.23197 v 3.04271 c -0.6667,0 -1.04179,0.30459 -1.04179,0.85162 0,0.56414 0.37174,0.8599 1.14101,0.8599 h 1.52136 c 0.63251,0 1.13274,-0.17609 1.13274,-0.8599 0,-0.54703 -0.37509,-0.85162 -1.04179,-0.85162 v -3.11713 c 0,-1.88045 -1.3332,-2.86907 -3.04271,-2.86907 z m 9.22734,0 c -0.85475,0 -2.11465,0.22201 -2.93522,0.51263 -0.3419,0.11967 -0.51263,0.36034 -0.51263,0.71934 0,0.49575 0.35643,0.86816 0.83509,0.86816 0.54704,0 1.43153,-0.38861 2.66237,-0.38861 1.09408,0 1.59577,0.25386 1.59577,0.83509 v 0.39688 c -0.7009,-0.11967 -1.23063,-0.17363 -1.77767,-0.17363 -2.56426,0 -4.14238,1.39834 -4.14238,2.88561 0,1.26503 1.38337,2.3151 3.07578,2.3151 1.0086,0 2.0237,-0.24235 2.84427,-0.66972 v 0.39687 h 2.00091 c 0.63252,0 1.12448,-0.17609 1.12448,-0.8599 0,-0.6838 -0.45777,-0.85162 -1.12448,-0.85162 h -0.27285 v -3.45612 c 0,-1.58984 -1.27074,-2.53008 -3.37344,-2.53008 z m 66.426954,0 c -2.58135,0 -4.37389,1.71432 -4.37389,4.15892 0,1.65822 0.9217,3.81165 4.59714,3.81165 2.56426,0 4.13411,-0.85398 4.13411,-1.7942 0,-0.47867 -0.39006,-0.87644 -0.85163,-0.87644 -0.70089,0 -0.53409,0.95912 -3.16673,0.95912 -2.00012,0 -3.00963,-0.69833 -3.00963,-2.10013 0,-1.45308 1.0466,-2.4474 2.67063,-2.4474 0.75218,0 1.36627,0.15643 1.81075,0.42995 0.61542,0.44447 0.20514,1.4304 1.26503,1.4304 0.71799,0 0.85163,-0.52615 0.85163,-1.12447 v -1.31465 c 0,-0.78638 -0.25442,-1.13275 -0.81855,-1.13275 -0.359,0 -0.54235,0.15363 -0.64492,0.51263 -0.66671,-0.3419 -1.48952,-0.51263 -2.46394,-0.51263 z m 20.17448,0 c -2.49588,0 -4.40696,1.74528 -4.40696,4.00182 0,2.32494 1.86472,3.96875 4.51445,3.96875 0.73509,0 4.32428,-0.20838 4.32428,-1.42213 0,-0.47866 -0.36525,-0.85163 -0.82682,-0.85163 -0.6667,0 -1.75879,0.56224 -3.34863,0.56224 -1.50437,0 -2.40974,-0.47911 -2.80293,-1.50482 h 6.97838 v -0.66973 c 0,-2.35911 -1.8846,-4.0845 -4.43177,-4.0845 z m 10.95541,0 c -0.94023,0 -1.52762,0.25542 -2.34818,1.0418 v -0.81856 h -1.60404 c -0.6667,0 -1.14928,0.23621 -1.14928,0.85163 0,0.54704 0.38336,0.8428 1.05006,0.85989 v 4.05144 h -0.10748 c -0.61543,0 -1.12448,0.15073 -1.12448,0.85162 0,0.64962 0.45777,0.8599 1.12448,0.8599 h 1.91823 c 0.59833,0 1.12448,-0.159 1.12448,-0.8599 0,-0.71799 -0.52615,-0.85162 -1.12448,-0.85162 h -0.10749 v -3.11713 c 0.80347,-0.87184 1.35509,-1.15755 2.14147,-1.15755 1.05989,0 1.53789,0.39431 1.53789,1.23197 v 3.04271 c -0.66671,0 -1.0418,0.30459 -1.0418,0.85162 0,0.56414 0.37174,0.8599 1.14102,0.8599 h 1.52135 c 0.63252,0 1.13275,-0.17609 1.13275,-0.8599 0,-0.54703 -0.37509,-0.85162 -1.0418,-0.85162 v -3.11713 c 0,-1.88045 -1.3332,-2.86907 -3.0427,-2.86907 z m -85.022204,0.0165 c -0.83766,0 -1.48494,0.28894 -2.85254,1.31464 v -1.10794 h -2.31511 c -0.75218,0 -1.12447,0.32168 -1.12447,0.85163 0,0.64961 0.45777,0.85989 1.12447,0.85989 h 0.60358 v 4.05144 h -0.99218 c -0.66671,0 -1.13275,0.15073 -1.13275,0.85162 0,0.64962 0.48314,0.8599 1.13275,0.8599 h 5.07669 c 0.63252,0 1.14102,-0.17609 1.14102,-0.8599 0,-0.70089 -0.49141,-0.85162 -1.14102,-0.85162 h -2.37298 v -2.51354 c 1.62403,-1.33342 2.27242,-1.7446 2.81946,-1.7446 0.56414,0 0.76705,0.61185 1.33119,0.61185 0.46157,0 0.85163,-0.3895 0.85163,-0.86817 0,-0.78637 -1.2608,-1.4552 -2.14974,-1.4552 z m -34.41237,0.2067 c -0.63253,0 -1.14929,0.11654 -1.14929,0.85163 0,0.6838 0.51676,0.85989 1.14929,0.85989 h 1.33118 v 4.05144 h -2.08359 c -0.66671,0 -1.13275,0.15073 -1.13275,0.85162 0,0.359 0.17543,0.8599 1.13275,0.8599 h 5.87871 c 0.66671,0 1.12448,-0.21028 1.12448,-0.8599 0,-0.71799 -0.52615,-0.85162 -1.12448,-0.85162 h -2.08359 v -5.76296 z m 38.67877,0 c -0.63251,0 -1.12448,0.2533 -1.12448,0.85163 0,0.47866 0.30515,0.79152 0.8351,0.85989 l 2.94349,5.70508 -0.94258,1.76114 h -1.71153 c -0.63251,0 -1.12448,0.15899 -1.12448,0.85989 0,0.32481 0.18984,0.85163 0.95912,0.85163 h 0.16536 3.67937 c 0.61542,0 1.12447,-0.16783 1.12447,-0.85163 0,-0.7009 -0.47486,-0.85989 -1.12447,-0.85989 h -0.0909 l 3.93567,-7.46622 c 0.56414,-0.0513 0.89297,-0.36414 0.89297,-0.85989 0,-0.7009 -0.48314,-0.85163 -1.13275,-0.85163 h -1.57096 c -0.6667,0 -1.14928,0.23621 -1.14928,0.85163 0,0.54704 0.39878,0.85989 1.09967,0.85989 l -2.05052,3.81166 -1.9513,-3.81166 c 0.64961,-0.0171 1.00872,-0.32995 1.00872,-0.85989 0,-0.7009 -0.48314,-0.85163 -1.13275,-0.85163 z m 29.12898,0 c -0.63253,0 -1.14929,0.11654 -1.14929,0.85163 0,0.6838 0.51676,0.85989 1.14929,0.85989 h 1.33118 v 4.05144 h -2.08359 c -0.66671,0 -1.13275,0.15073 -1.13275,0.85162 0,0.359 0.17543,0.8599 1.13275,0.8599 h 5.87871 c 0.6667,0 1.12448,-0.21028 1.12448,-0.8599 0,-0.71799 -0.52615,-0.85162 -1.12448,-0.85162 h -2.0836 v -5.76296 z m 40.687954,1.48828 c 1.24794,0 2.24002,0.59766 2.51354,1.53789 h -5.02708 c 0.25642,-0.92313 1.2656,-1.53789 2.51354,-1.53789 z m -117.747854,1.84389 h 2.30684 c 1.45308,0 2.43085,0.59878 2.43085,1.50482 0,0.61542 -0.58213,0.92604 -1.74459,0.92604 h -2.9931 z m 30.8901,0.78548 c 0.58123,0 1.21789,0.0705 1.9017,0.19017 v 0.85163 c -0.94023,0.58123 -1.89634,0.87643 -2.81947,0.87643 -0.73509,0 -1.30638,-0.29364 -1.30638,-0.66973 0,-0.64961 1.06169,-1.2485 2.22415,-1.2485 z"
         style="font-style:normal;font-variant:normal;font-weight:bold;font-stretch:normal;font-size:54.54985428px;line-height:125%;font-family:FreeMono;-inkscape-font-specification:'FreeMono Bold';letter-spacing:0px;word-spacing:0px;fill:none;fill-opacity:1;stroke:#000000;stroke-width:0.26458332;stroke-opacity:1"
         inkscape:connector-curvature="0" />
      <path
         id="path3016"
         d="m 62.454656,136.73932 c -0.31004,0 -0.55397,0.0781 -0.55397,0.42168 0,0.34356 0.23555,0.41341 0.55397,0.41341 h 0.1323 v 3.55534 h -0.1323 c -0.3268,0 -0.55397,0.0781 -0.55397,0.42168 0,0.27652 0.18528,0.42168 0.55397,0.42168 h 0.97566 v -1.3808 l 0.14882,-0.11575 0.8599,0.76067 c -0.10056,0.10894 -0.13229,0.19688 -0.13229,0.3142 0,0.27652 0.18527,0.42168 0.55397,0.42168 h 0.99219 c 0.30166,0 0.55397,-0.0781 0.55397,-0.42168 0,-0.34356 -0.23556,-0.42168 -0.55397,-0.42168 h -0.28112 l -1.33946,-1.18236 0.99219,-0.80202 h 0.23151 c 0.30166,0 0.55397,-0.0865 0.55397,-0.42168 0,-0.33518 -0.21879,-0.41341 -0.55397,-0.41341 h -0.94258 c -0.30166,0 -0.55397,0.0615 -0.55397,0.41341 0,0.11732 0.0317,0.19688 0.13229,0.3142 l -0.66145,0.52916 v -2.82773 z m 62.871624,0 c -0.31005,0 -0.55397,0.0781 -0.55397,0.42168 0,0.34356 0.23554,0.41341 0.55397,0.41341 h 0.13229 v 3.55534 h -0.13229 c -0.32681,0 -0.55397,0.0781 -0.55397,0.42168 0,0.33518 0.24392,0.42168 0.55397,0.42168 h 0.97565 v -0.29766 c 0.43573,0.30166 0.77065,0.41341 1.26504,0.41341 1.25692,0 2.05879,-0.8537 2.05879,-1.94303 0,-1.08096 -0.77662,-1.95957 -2.06706,-1.95957 -0.50277,0 -0.89645,0.13677 -1.25677,0.42168 v -1.86862 z m -77.861924,0.34726 c -0.3268,0 -0.55397,0.0699 -0.55397,0.41341 0,0.24301 0.1617,0.39654 0.43822,0.42168 v 3.20808 h -0.0496 c -0.3268,0 -0.55397,0.0781 -0.55397,0.42168 0,0.33518 0.24393,0.42168 0.55397,0.42168 h 1.01699 c 0.31005,0 0.5457,-0.0865 0.5457,-0.42168 0,-0.35194 -0.25242,-0.42168 -0.5457,-0.42168 h -0.13229 v -1.18236 h 1.79421 v 1.18236 h -0.12403 c -0.31004,0 -0.55397,0.0781 -0.55397,0.42168 0,0.31842 0.23555,0.42168 0.55397,0.42168 h 1.01699 c 0.31005,0 0.55398,-0.0865 0.55398,-0.42168 0,-0.35194 -0.26069,-0.42168 -0.55398,-0.42168 h -0.0496 v -3.20808 c 0.27653,-0.0251 0.42995,-0.17867 0.42995,-0.42168 0,-0.33517 -0.22717,-0.41341 -0.55397,-0.41341 h -0.84336 c -0.3268,0 -0.55397,0.0699 -0.55397,0.41341 0,0.34356 0.24393,0.42168 0.55397,0.42168 h 0.12403 v 1.19063 h -1.79421 v -1.19063 h 0.13229 c 0.31005,0 0.5457,-0.0781 0.5457,-0.42168 0,-0.35194 -0.25242,-0.41341 -0.5457,-0.41341 z m 47.88959,0 c -0.3268,0 -0.55397,0.0699 -0.55397,0.41341 0,0.34356 0.24393,0.42168 0.55397,0.42168 h 0.13229 v 3.20808 h -0.13229 c -0.31004,0 -0.55397,0.0781 -0.55397,0.42168 0,0.17597 0.0847,0.42168 0.55397,0.42168 h 1.25677 c 0.3268,0 0.55397,-0.10326 0.55397,-0.42168 0,-0.33518 -0.22717,-0.42168 -0.55397,-0.42168 h -0.28939 v -1.01699 h 0.80202 c 0.35194,0.12569 1.12719,1.04754 1.54616,1.86035 h 0.66146 c 0.3268,0 0.55397,-0.10326 0.55397,-0.42168 0,-0.33518 -0.22717,-0.42168 -0.55397,-0.42168 h -0.10749 c -0.35194,-0.56143 -0.6645,-0.94629 -1.05833,-1.28985 0.6117,-0.33518 0.90123,-0.73713 0.90123,-1.26504 0,-0.87984 -0.75448,-1.48828 -1.84381,-1.48828 z m 0.96738,0.83509 h 0.93431 c 0.53629,0 0.92604,0.26807 0.92604,0.62839 0,0.41898 -0.51982,0.71934 -1.2237,0.71934 h -0.63665 z m 10.674284,0.26459 c -1.12285,0 -1.9761,0.8451 -1.9761,1.95957 0,1.10609 0.85325,1.94303 1.9761,1.94303 0.43574,0 0.7969,-0.12851 1.18236,-0.41341 v 0.46302 c 0,0.43574 -0.30785,0.66973 -0.78548,0.66973 h -0.91777 c -0.32681,0 -0.55397,0.0781 -0.55397,0.42168 0,0.31842 0.22716,0.41341 0.55397,0.41341 h 0.94257 c 0.91337,0 1.59577,-0.61659 1.59577,-1.50482 v -2.9931 h 0.14056 c 0.31004,0 0.55397,-0.0781 0.55397,-0.42168 0,-0.33518 -0.22717,-0.41341 -0.55397,-0.41341 h -0.97565 v 0.29766 c -0.3268,-0.27652 -0.72986,-0.42168 -1.18236,-0.42168 z m 35.17305,0 c -1.12285,0 -1.97611,0.8451 -1.97611,1.95957 0,1.10609 0.85326,1.94303 1.97611,1.94303 0.43574,0 0.7969,-0.12851 1.18236,-0.41341 v 0.46302 c 0,0.43574 -0.30785,0.66973 -0.78548,0.66973 h -0.91778 c -0.3268,0 -0.55397,0.0781 -0.55397,0.42168 0,0.31842 0.22717,0.41341 0.55397,0.41341 h 0.94258 c 0.91337,0 1.59577,-0.61659 1.59577,-1.50482 v -2.9931 h 0.13229 c 0.31004,0 0.55397,-0.0781 0.55397,-0.42168 0,-0.33518 -0.22717,-0.41341 -0.55397,-0.41341 h -0.96738 v 0.29766 c -0.32681,-0.27652 -0.72987,-0.42168 -1.18236,-0.42168 z m -88.147594,0.008 c -0.41898,0 -1.03646,0.11387 -1.43867,0.25632 -0.16759,0.0587 -0.24805,0.17129 -0.24805,0.34726 0,0.24301 0.17052,0.42995 0.40515,0.42995 0.26814,0 0.70305,-0.19017 1.30638,-0.19017 0.53628,0 0.78548,0.12024 0.78548,0.40515 v 0.19843 c -0.34356,-0.0587 -0.60829,-0.0827 -0.87644,-0.0827 -1.25692,0 -2.02571,0.68485 -2.02571,1.41387 0,0.62008 0.67525,1.13275 1.50482,1.13275 0.49439,0 0.99511,-0.12125 1.39733,-0.33073 v 0.19843 h 0.97565 c 0.31004,0 0.55397,-0.0865 0.55397,-0.42168 0,-0.33518 -0.22717,-0.42168 -0.55397,-0.42168 h -0.13229 v -1.69498 c 0,-0.7793 -0.62298,-1.24024 -1.65365,-1.24024 z m 5.17591,0 c -1.2653,0 -2.14147,0.84399 -2.14147,2.04226 0,0.81281 0.44737,1.86862 2.24896,1.86862 1.25692,0 2.03398,-0.42383 2.03398,-0.88471 0,-0.23462 -0.19543,-0.42167 -0.42168,-0.42167 -0.34356,0 -0.25571,0.46302 -1.54616,0.46302 -0.9804,0 -1.48001,-0.33814 -1.48001,-1.02526 0,-0.71226 0.51033,-1.1989 1.30638,-1.1989 0.3687,0 0.6751,0.0726 0.89297,0.20671 0.30166,0.21786 0.10059,0.7028 0.62012,0.7028 0.35194,0 0.41341,-0.26069 0.41341,-0.55397 v -0.64493 c 0,-0.38546 -0.12035,-0.55397 -0.39688,-0.55397 -0.17597,0 -0.27218,0.0803 -0.32246,0.25632 -0.3268,-0.16759 -0.72953,-0.25632 -1.20716,-0.25632 z m 9.94668,0 c -1.00554,0 -1.71979,0.47893 -1.71979,1.14929 0,0.66198 0.48878,0.99878 1.66191,1.12448 0.25139,0.0251 1.05834,0.0863 1.05834,0.43821 0,0.19273 -0.43936,0.35554 -0.97565,0.35554 -0.4525,0 -0.80706,-0.1046 -1.05007,-0.32246 -0.0754,-0.25139 -0.21208,-0.37208 -0.42995,-0.37208 -0.35193,0 -0.42994,0.2522 -0.42994,0.56224 v 0.28112 c 0,0.29329 0.0696,0.55398 0.42994,0.55398 0.10894,0 0.18068,-0.0321 0.27285,-0.10749 0.33518,0.15921 0.76261,0.24805 1.24024,0.24805 1.08095,0 1.86862,-0.49524 1.86862,-1.18236 0,-0.38546 -0.21835,-0.74974 -0.58705,-0.95085 -0.71225,-0.40221 -2.14147,-0.25946 -2.14147,-0.64492 0,-0.15083 0.40774,-0.28939 0.83509,-0.28939 1.1061,0 0.82049,0.57878 1.29812,0.57878 0.34356,0 0.41341,-0.23555 0.41341,-0.55397 v -0.3142 c 0,-0.38546 -0.12046,-0.55397 -0.38861,-0.55397 -0.12569,0 -0.20582,0.064 -0.27285,0.22325 -0.3268,-0.15084 -0.67255,-0.22325 -1.08314,-0.22325 z m 5.27513,0 c -0.51953,0 -0.87098,0.13589 -1.28157,0.48783 v -0.37207 h -0.97565 c -0.31005,0 -0.55398,0.0699 -0.55398,0.41341 0,0.34356 0.23555,0.42168 0.55398,0.42168 h 0.13229 v 3.66282 h -0.13229 c -0.31005,0 -0.55398,0.0781 -0.55398,0.42168 0,0.34356 0.24393,0.41342 0.55398,0.41342 h 1.4552 c 0.30167,0 0.55398,-0.0782 0.55398,-0.41342 0,-0.34356 -0.2188,-0.42168 -0.55398,-0.42168 h -0.47955 v -1.38906 c 0.43573,0.33518 0.80372,0.46302 1.29811,0.46302 1.16475,0 2.02571,-0.75526 2.02571,-1.78593 0,-1.08096 -0.86912,-1.9017 -2.04225,-1.9017 z m 4.72943,0 c -0.41898,0 -1.04473,0.11387 -1.44694,0.25632 -0.16759,0.0587 -0.24805,0.17129 -0.24805,0.34726 0,0.24301 0.17879,0.42995 0.41341,0.42995 0.26815,0 0.70306,-0.19017 1.30638,-0.19017 0.53629,0 0.77722,0.12024 0.77722,0.40515 v 0.19843 c -0.34356,-0.0587 -0.60002,-0.0827 -0.86817,-0.0827 -1.25692,0 -2.03398,0.68485 -2.03398,1.41387 0,0.62008 0.68351,1.13275 1.51308,1.13275 0.49439,0 0.98685,-0.12125 1.38907,-0.33073 v 0.19843 h 0.98392 c 0.31004,0 0.55397,-0.0865 0.55397,-0.42168 0,-0.33518 -0.22717,-0.42168 -0.55397,-0.42168 h -0.14056 v -1.69498 c 0,-0.7793 -0.6147,-1.24024 -1.64538,-1.24024 z m 5.17591,0 c -1.2653,0 -2.14974,0.84399 -2.14974,2.04226 0,0.81281 0.45563,1.86862 2.25723,1.86862 1.25692,0 2.02571,-0.42383 2.02571,-0.88471 0,-0.23462 -0.19543,-0.42167 -0.42168,-0.42167 -0.34355,0 -0.25571,0.46302 -1.54615,0.46302 -0.98041,0 -1.47175,-0.33814 -1.47175,-1.02526 0,-0.71226 0.51033,-1.1989 1.30638,-1.1989 0.3687,0 0.66684,0.0726 0.8847,0.20671 0.30166,0.21786 0.10059,0.7028 0.62012,0.7028 0.35194,0 0.42168,-0.26069 0.42168,-0.55397 v -0.64493 c 0,-0.38546 -0.12862,-0.55397 -0.40515,-0.55397 -0.17596,0 -0.26391,0.0803 -0.31419,0.25632 -0.3268,-0.16759 -0.72953,-0.25632 -1.20716,-0.25632 z m 4.86172,0 c -1.22341,0 -2.15801,0.86175 -2.15801,1.96784 0,1.13961 0.90879,1.94304 2.20762,1.94304 0.36032,0 2.12493,-0.0996 2.12493,-0.69454 0,-0.23462 -0.17889,-0.42168 -0.40514,-0.42168 -0.3268,0 -0.86608,0.27286 -1.64538,0.27286 -0.73739,0 -1.17979,-0.23311 -1.37252,-0.73588 h 3.42304 v -0.32246 c 0,-1.15637 -0.926,-2.00918 -2.17454,-2.00918 z m 12.972854,0 c -1.22341,0 -2.166284,0.86175 -2.166284,1.96784 0,1.13961 0.917074,1.94304 2.215894,1.94304 0.36032,0 2.11667,-0.0996 2.11667,-0.69454 0,-0.23462 -0.17063,-0.42168 -0.39688,-0.42168 -0.3268,0 -0.86609,0.27286 -1.64538,0.27286 -0.73739,0 -1.17979,-0.23311 -1.37252,-0.73588 h 3.41478 v -0.32246 c 0,-1.15637 -0.91774,-2.00918 -2.16628,-2.00918 z m 10.0459,0 c -1.22341,0 -2.15801,0.86175 -2.15801,1.96784 0,1.13961 0.90879,1.94304 2.20762,1.94304 0.36032,0 2.12493,-0.0996 2.12493,-0.69454 0,-0.23462 -0.1789,-0.42168 -0.40514,-0.42168 -0.3268,0 -0.86609,0.27286 -1.64538,0.27286 -0.7374,0 -1.1798,-0.23311 -1.37252,-0.73588 h 3.42304 v -0.32246 c 0,-1.15637 -0.926,-2.00918 -2.17454,-2.00918 z m 5.36608,0 c -0.46087,0 -0.7388,0.12717 -1.14102,0.51263 v -0.39687 h -0.79375 c -0.3268,0 -0.56224,0.11175 -0.56224,0.41341 0,0.26814 0.18583,0.4133 0.51263,0.42168 v 1.98437 h -0.0496 c -0.30166,0 -0.55397,0.0781 -0.55397,0.42168 0,0.31843 0.22717,0.42168 0.55397,0.42168 h 0.94258 c 0.29328,0 0.55397,-0.0781 0.55397,-0.42168 0,-0.35193 -0.26069,-0.42168 -0.55397,-0.42168 h -0.0496 v -1.52135 c 0.39384,-0.42735 0.65634,-0.57051 1.0418,-0.57051 0.51953,0 0.75241,0.19299 0.75241,0.60358 v 1.48828 c -0.3268,0 -0.50436,0.15354 -0.50436,0.42168 0,0.27653 0.18516,0.42168 0.56224,0.42168 h 0.74414 c 0.31004,0 0.55397,-0.0865 0.55397,-0.42168 0,-0.26814 -0.18583,-0.42168 -0.51263,-0.42168 v -1.52135 c 0,-0.92174 -0.6586,-1.41387 -1.49655,-1.41387 z m 4.74596,0 c -1.00554,0 -1.72806,0.47893 -1.72806,1.14929 0,0.66198 0.49705,0.99878 1.67018,1.12448 0.25139,0.0251 1.05007,0.0863 1.05007,0.43821 0,0.19273 -0.43937,0.35554 -0.97565,0.35554 -0.4525,0 -0.80706,-0.1046 -1.05007,-0.32246 -0.0754,-0.25139 -0.21208,-0.37208 -0.42994,-0.37208 -0.35194,0 -0.42168,0.2522 -0.42168,0.56224 v 0.28112 c 0,0.29329 0.0614,0.55398 0.42168,0.55398 0.10893,0 0.18067,-0.0321 0.27285,-0.10749 0.33518,0.15921 0.7626,0.24805 1.24023,0.24805 1.08095,0 1.86862,-0.49524 1.86862,-1.18236 0,-0.38546 -0.21834,-0.74974 -0.58704,-0.95085 -0.71226,-0.40221 -2.14147,-0.25946 -2.14147,-0.64492 0,-0.15083 0.40773,-0.28939 0.83509,-0.28939 1.10609,0 0.82048,0.57878 1.29811,0.57878 0.34356,0 0.41341,-0.23555 0.41341,-0.55397 v -0.3142 c 0,-0.38546 -0.12046,-0.55397 -0.38861,-0.55397 -0.12569,0 -0.20581,0.064 -0.27285,0.22325 -0.3268,-0.15084 -0.66427,-0.22325 -1.07487,-0.22325 z m 16.30495,0.008 c -0.4106,0 -0.73524,0.15042 -1.4056,0.65319 v -0.54571 h -1.12448 c -0.3687,0 -0.55397,0.15365 -0.55397,0.41342 0,0.31842 0.22717,0.42168 0.55397,0.42168 h 0.28939 v 1.98437 h -0.48783 c -0.3268,0 -0.55397,0.0781 -0.55397,0.42168 0,0.31842 0.23555,0.42168 0.55397,0.42168 h 2.48874 c 0.31005,0 0.56224,-0.0865 0.56224,-0.42168 0,-0.34356 -0.24382,-0.42168 -0.56224,-0.42168 h -1.16582 v -1.23197 c 0.79605,-0.6536 1.12092,-0.85162 1.38906,-0.85162 0.27653,0 0.37667,0.29765 0.65319,0.29765 0.22625,0 0.41341,-0.18705 0.41341,-0.42168 0,-0.38546 -0.61433,-0.71933 -1.05006,-0.71933 z m -8.0946,0.10748 c -0.3268,0 -0.55397,0.0699 -0.55397,0.41342 0,0.243 0.1865,0.42168 0.46302,0.42168 h 0.22325 v 1.51308 c 0,0.92175 0.65022,1.42214 1.49654,1.42214 0.46088,0 0.73031,-0.1188 1.14929,-0.51263 v 0.40514 h 0.79375 c 0.29328,0 0.55397,-0.0781 0.55397,-0.42168 0,-0.26814 -0.18583,-0.42168 -0.51263,-0.42168 v -2.81947 h -1.13275 c -0.31004,0 -0.55397,0.0699 -0.55397,0.41342 0,0.15921 0.0942,0.42168 0.47129,0.42168 h 0.0827 0.29766 v 1.52135 c -0.43574,0.46087 -0.64763,0.57051 -1.0666,0.57051 -0.50277,0 -0.73588,-0.19299 -0.73588,-0.60358 v -2.32338 z m -23.51484,0.71934 c 0.6536,0 1.16582,0.49602 1.16582,1.12448 0,0.60333 -0.52898,1.09141 -1.16582,1.09141 -0.63684,0 -1.15755,-0.48786 -1.15755,-1.10795 0,-0.6117 0.52071,-1.10794 1.15755,-1.10794 z m 20.53828,0 c 0.74578,0 1.24024,0.48786 1.24024,1.10794 0,0.64522 -0.51122,1.10795 -1.24024,1.10795 -0.73739,0 -1.2485,-0.45423 -1.2485,-1.11621 0,-0.60333 0.46921,-1.09968 1.2485,-1.09968 z m 14.63477,0 c 0.65359,0 1.16582,0.49602 1.16582,1.12448 0,0.60333 -0.52898,1.09141 -1.16582,1.09141 -0.63684,0 -1.15756,-0.48786 -1.15756,-1.10795 0,-0.6117 0.52072,-1.10794 1.15756,-1.10794 z m -67.799484,0.008 c 0.74577,0 1.24023,0.43064 1.24023,1.00045 0,0.58656 -0.5196,1.00873 -1.24023,1.00873 -0.7374,0 -1.2485,-0.42205 -1.2485,-1.017 0,-0.55305 0.48596,-0.99218 1.2485,-0.99218 z m 14.8084,0 c 0.6117,0 1.09789,0.29153 1.23196,0.7524 h -2.46393 c 0.12569,-0.45249 0.62026,-0.7524 1.23197,-0.7524 z m 12.972854,0 c 0.6117,0 1.09789,0.29153 1.23197,0.7524 H 100.935 c 0.1257,-0.45249 0.62026,-0.7524 1.23197,-0.7524 z m 10.0459,0 c 0.6117,0 1.09789,0.29153 1.23196,0.7524 h -2.46393 c 0.12569,-0.45249 0.62026,-0.7524 1.23197,-0.7524 z m -58.307554,1.28984 c 0.2849,0 0.59913,0.0323 0.93431,0.091 v 0.42168 c -0.46088,0.2849 -0.93657,0.42168 -1.38907,0.42168 -0.36032,0 -0.63665,-0.13811 -0.63665,-0.32246 0,-0.31842 0.5216,-0.61185 1.09141,-0.61185 z m 25.12714,0 c 0.28491,0 0.59086,0.0323 0.92605,0.091 v 0.42168 c -0.46088,0.2849 -0.9283,0.42168 -1.3808,0.42168 -0.36032,0 -0.63665,-0.13811 -0.63665,-0.32246 0,-0.31842 0.52159,-0.61185 1.0914,-0.61185 z"
         style="font-style:normal;font-variant:normal;font-weight:bold;font-stretch:normal;font-size:23.90202141px;line-height:125%;font-family:FreeMono;-inkscape-font-specification:'FreeMono Bold';letter-spacing:0px;word-spacing:0px;fill:none;fill-opacity:1;stroke:#000000;stroke-width:0.26458332;stroke-opacity:1"
         inkscape:connector-curvature="0" />
      <path
         id="path3021"
         d="m 60.139556,27.85501 c -11.03279,0.008 -19.97353,6.15675 -19.96777,13.74179 0.005,6.3967 6.3511,11.80427 14.98203,13.21263 1.79965,0.29366 2.81597,0.27803 3.88607,0.33073 0.2251,0.0112 0.41488,0.24381 0.40514,0.44649 -0.01,0.20267 -0.22138,0.42461 -0.44649,0.41341 -1.601,-0.0797 -1.80043,-0.0695 -2.99309,-0.1819 v 4.04316 l -2.02572,0.008 c -0.7855,0.003 -1.46676,0.62964 -1.42214,1.41387 l 1.67019,29.35221 c 0.0446,0.78423 0.63862,1.35804 1.42213,1.41387 13.81655,0.9844 27.80434,1.0429 41.96953,-0.0331 0.78324,-0.0595 1.37057,-0.62956 1.41387,-1.41387 l 1.620574,-29.35221 c 0.0433,-0.7843 -0.62838,-1.41387 -1.413864,-1.41387 h -1.62058 l -0.008,-5.21725 c -0.48247,0.0557 -1.0595,0.0831 -1.86035,0.0827 -0.23184,-1.2e-4 -0.44848,-0.2308 -0.44648,-0.43822 0.002,-0.20741 0.22296,-0.42631 0.45475,-0.42168 0.88354,0.0177 1.46875,0.0126 1.93477,-0.0992 6.285854,-1.50863 10.743974,-5.4975 10.740474,-10.12035 -0.005,-5.97609 -7.4665,-10.81355 -16.660484,-10.80658 -4.82129,0.004 -9.1648,1.34168 -12.20391,3.47266 0.57953,0.78419 1.07141,1.38189 1.62057,1.78593 0.55964,0.41175 1.18514,0.64625 2.15801,0.69454 0.22511,0.0112 0.41489,0.2438 0.40515,0.44648 -0.01,0.20268 -0.22139,0.42459 -0.44649,0.41341 -1.10107,-0.0547 -1.97141,-0.31187 -2.6293,-0.85989 -0.80242,-0.66843 -1.20266,-0.93519 -1.90996,-2.15801 -2.9501,-5.10032 -10.14068,-8.76248 -18.62833,-8.75604 z m 7.63984,38.86894 2.95176,0.0331 c 0.67261,0.008 1.20544,0.55107 1.19889,1.2237 l -0.17363,18.23144 c -0.007,0.67263 -0.55935,1.21527 -1.23196,1.20717 l -2.94349,-0.0331 c -0.67261,-0.008 -1.20544,-0.55108 -1.1989,-1.2237 l 0.17364,-18.23145 c 0.007,-0.67262 0.55108,-1.21526 1.22369,-1.20716 z m 15.53601,0.1571 c 3.73963,0.0372 6.72819,4.61009 6.67246,10.21953 -0.0557,5.60944 -3.123,10.12439 -6.86263,10.08724 -3.73963,-0.0371 -6.7282,-4.61009 -6.67246,-10.21953 0.0557,-5.60945 3.123,-10.1244 6.86263,-10.08724 z"
         style="fill:none;fill-opacity:1;fill-rule:nonzero;stroke:#000000;stroke-width:0.26458332;stroke-opacity:1"
         inkscape:connector-curvature="0" />
      <path
         inkscape:connector-curvature="0"
         id="use3078"
         d="m 24.346396,85.42669 c -1.13828,0.0329 -2.53981,0.45601 -2.9931,1.56269 l -2.74506,6.69727 c -0.68473,1.67174 1.12144,3.60638 2.06706,3.99355 l 28.94707,11.84837 c 0.31712,-0.31612 0.75726,-0.51734 1.24024,-0.52916 1.00009,-0.0245 1.83586,0.78582 1.86035,1.78593 0.12215,0.0538 0.252,0.11475 0.35553,0.1571 0.94573,0.3869 2.01912,-0.0713 2.40606,-1.01699 l 1.16582,-2.85254 13.49375,5.52318 4.05143,-1.77767 -16.32975,-6.689 1.16582,-2.85254 c 0.38693,-0.94571 -0.0619,-2.03013 -1.00873,-2.41432 L 57.667356,98.722 c -0.32252,0.3791 -0.80271,0.62351 -1.33945,0.63665 -1.0001,0.0245 -1.8648,-0.86261 -1.84382,-1.9513 -9.97603,-4.13299 -19.84307,-8.12403 -28.86439,-11.80703 -0.29376,-0.11993 -0.75591,-0.18857 -1.2733,-0.17363 z m -0.0662,3.3817 c 0.55985,-0.0103 1.13659,0.0532 1.57923,0.23151 9.37773,3.77874 18.23033,7.44041 27.59108,11.26133 0.27109,0.11958 0.40018,0.49701 0.29765,0.74414 -0.10253,0.24713 -0.46155,0.42616 -0.73587,0.31419 L 25.528696,90.14784 h -0.008 c -1.15579,-0.46896 -2.0949,-0.20783 -2.62929,0.47129 -0.20193,0.25662 -0.62923,0.32403 -0.85163,0.14056 -0.22241,-0.18346 -0.24068,-0.62316 -0.0248,-0.86816 0.6813,-0.77321 1.53477,-1.06975 2.26549,-1.08314 z m -0.89297,5.45703 c 0.0761,-0.005 0.15119,0.008 0.23151,0.0413 9.35548,3.82122 18.22687,7.46418 27.58281,11.2944 0.27925,0.11432 0.42497,0.4998 0.32247,0.75241 -0.10251,0.25262 -0.47319,0.42856 -0.75241,0.31419 L 23.238396,95.38986 c -0.31494,-0.12899 -0.4464,-0.49986 -0.34726,-0.76068 0.0708,-0.18633 0.26791,-0.34986 0.49609,-0.3638 z m 66.74942,23.0849 -4.32429,1.66191 26.574094,10.88099 c 0.20352,0.87882 2.56124,2.4591 4.24987,3.23288 1.06508,0.48806 2.17458,0.88461 3.25768,1.33119 0.74292,-1.83694 1.49368,-3.67475 2.24896,-5.50664 -1.0868,-0.43755 -2.1406,-0.94468 -3.24941,-1.32292 -1.41113,-0.48136 -4.15632,-1.13287 -5.30821,-0.678 z"
         style="fill:none;fill-opacity:1;fill-rule:nonzero;stroke:#000000;stroke-width:0.26458332;stroke-opacity:1" />
      <path
         sodipodi:nodetypes="sssccssccasssssscssccssccssccsssscsscscscsscssssacssssss"
         inkscape:connector-curvature="0"
         id="path3858"
         d="m 97.321426,95.72414 -2.43846,1.06874 c -0.50104,0.21949 -0.72824,0.79288 -0.51021,1.29456 l 0.65912,1.51661 -2.64064,3.79812 c -11.72155,5.46698 -24.52793,11.52047 -36.7777,17.29072 -0.92439,0.43543 -1.35651,1.49484 -0.94523,2.43022 l 0.77873,1.77115 c -1.04971,0.50126 -2.09649,1.00336 -3.14204,1.48272 -0.34987,-1.45095 -1.30924,-2.62493 -2.52777,-3.26484 -1.45789,-0.76562 -3.13962,-0.82677 -4.93257,-0.27242 -0.45035,0.13924 -0.92477,0.32223 -1.38901,0.55858 -0.46425,0.23636 -0.9149,0.52759 -1.32115,0.88069 -0.8125,0.70619 -1.45904,1.77831 -1.2994,3.02589 0.13634,1.06545 0.61041,2.12312 1.56125,2.78337 0.95083,0.66026 2.28341,0.83004 3.87362,0.40809 1.34508,-0.35691 2.64654,-0.80324 3.92137,-1.30755 -0.0724,0.11719 -0.10308,0.23779 -0.18929,0.35273 -0.57729,0.76972 -1.46336,1.45117 -2.40594,1.91108 -3.85112,1.87908 -7.91238,3.87876 -11.97666,5.46647 l 0.6324,1.60035 c 4.15835,-1.62447 8.25126,-3.64227 12.09799,-5.5192 1.15494,-0.56353 2.24635,-1.38105 3.02977,-2.42561 0.51302,-0.68404 0.87279,-1.48711 1.01511,-2.35241 1.26247,-0.56434 2.50385,-1.15215 3.7411,-1.74308 l 0.52168,1.17967 c 0.41329,0.9345 1.47574,1.35382 2.41835,0.9594 12.40006,-5.18854 25.63331,-10.75041 37.68169,-15.23143 l 4.571854,0.64556 0.66668,1.51332 c 0.22053,0.5006 0.79356,0.7298 1.29456,0.51021 l 2.43846,-1.06875 c 0.50104,-0.21948 0.73651,-0.79646 0.51779,-1.29785 l -2.41664,-5.53992 30.84426,-13.47697 c 0.60527,-0.26449 0.88068,-0.96072 0.6174,-1.56652 l -0.50422,-1.16021 7.69022,-3.36019 c 0.5202,-0.22723 1.80532,-1.28352 1.57809,-1.80373 -0.22627,-0.52062 -1.87951,-0.29327 -2.39969,-0.066 l -7.6902,3.36018 -0.50423,-1.16021 c -0.26328,-0.6058 -0.96877,-0.87841 -1.57411,-0.6141 l -30.83996,13.46607 -2.424234,-5.53662 c -0.21949,-0.50105 -0.80114,-0.7265 -1.30214,-0.50691 z m -52.52056,28.96473 c 0.18702,-0.0768 0.37769,-0.15084 0.55916,-0.20695 1.43028,-0.44221 2.57527,-0.41585 3.64224,0.16606 0.86795,0.47338 1.54671,1.27173 1.71789,2.41779 -1.60877,0.68846 -3.22543,1.32356 -4.89398,1.7663 -1.26842,0.33656 -1.99792,0.16661 -2.45442,-0.15038 -0.4565,-0.317 -0.73602,-0.87042 -0.82888,-1.5961 -0.0747,-0.5837 0.16955,-1.03599 0.71431,-1.50947 0.27238,-0.23674 0.62146,-0.44993 0.98583,-0.63579 0.18218,-0.0929 0.37082,-0.17466 0.55786,-0.25145 z"
         style="fill:none;fill-opacity:1;fill-rule:nonzero;stroke:#000000;stroke-width:0.26458332;stroke-opacity:1" />
    </g>
  </g>
</svg>
