<?xml version="1.0" encoding="UTF-8" standalone="no"?>
<svg
   xmlns:dc="http://purl.org/dc/elements/1.1/"
   xmlns:cc="http://creativecommons.org/ns#"
   xmlns:rdf="http://www.w3.org/1999/02/22-rdf-syntax-ns#"
   xmlns:svg="http://www.w3.org/2000/svg"
   xmlns="http://www.w3.org/2000/svg"
   xmlns:sodipodi="http://sodipodi.sourceforge.net/DTD/sodipodi-0.dtd"
   xmlns:inkscape="http://www.inkscape.org/namespaces/inkscape"
   height="174.19838mm"
   version="1.1"
   viewBox="0 -10 141.95208 174.19838"
   width="141.95209mm"
   id="svg17"
   sodipodi:docname="UniversalBox.svg"
   inkscape:version="0.92.4 5da689c313, 2019-01-14">
  <metadata
     id="metadata23">
    <rdf:RDF>
      <cc:Work
         rdf:about="">
        <dc:format>image/svg+xml</dc:format>
        <dc:type
           rdf:resource="http://purl.org/dc/dcmitype/StillImage" />
        <dc:title></dc:title>
      </cc:Work>
    </rdf:RDF>
  </metadata>
  <defs
     id="defs21" />
  <sodipodi:namedview
     pagecolor="#ffffff"
     bordercolor="#666666"
     borderopacity="1"
     objecttolerance="10"
     gridtolerance="10"
     guidetolerance="10"
     inkscape:pageopacity="0"
     inkscape:pageshadow="2"
     inkscape:window-width="1920"
     inkscape:window-height="981"
     id="namedview19"
     showgrid="false"
     fit-margin-top="0"
     fit-margin-left="0"
     fit-margin-right="0"
     fit-margin-bottom="0"
     inkscape:zoom="1.4717642"
     inkscape:cx="139.18725"
     inkscape:cy="331.56543"
     inkscape:window-x="0"
     inkscape:window-y="28"
     inkscape:window-maximized="1"
     inkscape:current-layer="svg17" />
  <!--
UniversalBox - 
Created with Boxes.py (https://festi.info/boxes.py)
Creation date: 2019-08-12 16:08:30
Command line (remove spaces beteen dashes): boxes UniversalBox - -FingerJoint_angle=90.0 - -FingerJoint_surroundingspaces=2.0 - -FingerJoint_edge_width=1.0 - -FingerJoint_finger=2.0 - -FingerJoint_play=0.0 - -FingerJoint_space=2.0 - -FingerJoint_width=1.0 - -Stackable_angle=60 - -Stackable_height=2.0 - -Stackable_holedistance=1.0 - -Stackable_width=4.0 - -Hinge_grip_percentage=0 - -Hinge_outset=0 - -Hinge_pinwidth=0.5 - -Hinge_style=outset - -Hinge_axle=2 - -Hinge_grip_length=0 - -Hinge_hingestrength=1 - -CabinetHinge_bore=3.2 - -CabinetHinge_eyes_per_hinge=5 - -CabinetHinge_hinges=2 - -CabinetHinge_style=inside - -CabinetHinge_eye=1.5 - -CabinetHinge_play=0.05 - -CabinetHinge_spacing=2.0 - -Lid_angle=90.0 - -Lid_second_pin=0 - -Lid_second_pin=1 - -Lid_spring=both - -Lid_surroundingspaces=2.0 - -Lid_edge_width=1.0 - -Lid_finger=3.0 - -Lid_play=0.05 - -Lid_space=2.0 - -Lid_width=1.0 - -Click_angle=5 - -Click_bottom_radius=0.1 - -Click_depth=3.0 - -RoundedTriangleEdge_height=150.0 - -RoundedTriangleEdge_r_hole=2.0 - -RoundedTriangleEdge_radius=30.0 - -RoundedTriangleEdge_outset=1 - -Flex_stretch=1.05 - -Flex_connection=1.0 - -Flex_distance=0.5 - -Flex_width=5.0 - -top_edge=e - -bottom_edge=F - -x=64 - -y=64 - -h=27 - -lid=flat - -thickness=3.0 - -format=svg - -tabs=0.0 - -debug=0 - -reference=0 - -burn=0.15
Url: http://localhost:8008/UniversalBox?FingerJoint_angle=90.0&FingerJoint_surroundingspaces=2.0&FingerJoint_edge_width=1.0&FingerJoint_finger=2.0&FingerJoint_play=0.0&FingerJoint_space=2.0&FingerJoint_width=1.0&Stackable_angle=60&Stackable_height=2.0&Stackable_holedistance=1.0&Stackable_width=4.0&Hinge_grip_percentage=0&Hinge_outset=0&Hinge_pinwidth=0.5&Hinge_style=outset&Hinge_axle=2&Hinge_grip_length=0&Hinge_hingestrength=1&CabinetHinge_bore=3.2&CabinetHinge_eyes_per_hinge=5&CabinetHinge_hinges=2&CabinetHinge_style=inside&CabinetHinge_eye=1.5&CabinetHinge_play=0.05&CabinetHinge_spacing=2.0&Lid_angle=90.0&Lid_second_pin=0&Lid_second_pin=1&Lid_spring=both&Lid_surroundingspaces=2.0&Lid_edge_width=1.0&Lid_finger=3.0&Lid_play=0.05&Lid_space=2.0&Lid_width=1.0&Click_angle=5&Click_bottom_radius=0.1&Click_depth=3.0&RoundedTriangleEdge_height=150.0&RoundedTriangleEdge_r_hole=2.0&RoundedTriangleEdge_radius=30.0&RoundedTriangleEdge_outset=1&Flex_stretch=1.05&Flex_connection=1.0&Flex_distance=0.5&Flex_width=5.0&top_edge=e&bottom_edge=F&x=64&y=64&h=27&lid=flat&thickness=3.0&format=svg&tabs=0.0&debug=0&reference=0&burn=0.15&render=1
SettingsUrl: http://localhost:8008/UniversalBox?FingerJoint_angle=90.0&FingerJoint_surroundingspaces=2.0&FingerJoint_edge_width=1.0&FingerJoint_finger=2.0&FingerJoint_play=0.0&FingerJoint_space=2.0&FingerJoint_width=1.0&Stackable_angle=60&Stackable_height=2.0&Stackable_holedistance=1.0&Stackable_width=4.0&Hinge_grip_percentage=0&Hinge_outset=0&Hinge_pinwidth=0.5&Hinge_style=outset&Hinge_axle=2&Hinge_grip_length=0&Hinge_hingestrength=1&CabinetHinge_bore=3.2&CabinetHinge_eyes_per_hinge=5&CabinetHinge_hinges=2&CabinetHinge_style=inside&CabinetHinge_eye=1.5&CabinetHinge_play=0.05&CabinetHinge_spacing=2.0&Lid_angle=90.0&Lid_second_pin=0&Lid_second_pin=1&Lid_spring=both&Lid_surroundingspaces=2.0&Lid_edge_width=1.0&Lid_finger=3.0&Lid_play=0.05&Lid_space=2.0&Lid_width=1.0&Click_angle=5&Click_bottom_radius=0.1&Click_depth=3.0&RoundedTriangleEdge_height=150.0&RoundedTriangleEdge_r_hole=2.0&RoundedTriangleEdge_radius=30.0&RoundedTriangleEdge_outset=1&Flex_stretch=1.05&Flex_connection=1.0&Flex_distance=0.5&Flex_width=5.0&top_edge=e&bottom_edge=F&x=64&y=64&h=27&lid=flat&thickness=3.0&format=svg&tabs=0.0&debug=0&reference=0&burn=0.15
-->
  <path
     inkscape:connector-curvature="0"
     id="path12"
     style="fill:none;stroke:#ff0000;stroke-width:0.30000001;stroke-linecap:butt;stroke-linejoin:miter;stroke-miterlimit:10;stroke-opacity:1"
     d="m 132.75543,128.52707 v -11 c 0,-0.082 -0.0664,-0.14844 -0.14844,-0.14844 h -3 c 0.082,0 0.14844,0.0664 0.14844,0.14844 v -6 c 0,0.082 -0.0664,0.14844 -0.14844,0.14844 h 3 c 0.082,0 0.14844,-0.0664 0.14844,-0.14844 v -6 m 0,0 c 0,-0.082 -0.0664,-0.14844 -0.14844,-0.14844 h -3 c 0.082,0 0.14844,0.0664 0.14844,0.14844 v -5.999997 c 0,0.082 -0.0664,0.14844 -0.14844,0.14844 h 3 c 0.082,0 0.14844,-0.0664 0.14844,-0.14844 v -6.000004 m 0,0 c 0,-0.082 -0.0664,-0.14844 -0.14844,-0.14844 h -3 c 0.082,0 0.14844,0.0664 0.14844,0.14844 v -6 c 0,0.082 -0.0664,0.14844 -0.14844,0.14844 h 3 c 0.082,0 0.14844,-0.0664 0.14844,-0.14844 v -6 m 0,0 c 0,-0.082 -0.0664,-0.14844 -0.14844,-0.14844 h -3 c 0.082,0 0.14844,0.0664 0.14844,0.14844 v -6 c 0,0.082 -0.0664,0.14844 -0.14844,0.14844 h 3 c 0.082,0 0.14844,-0.0664 0.14844,-0.14844 v -11 m 0,0 c 0,-0.082 -0.0664,-0.14844 -0.14844,-0.14844 h -3 m 0,0 h -10.5 m 0,0 c 0.082,0 0.14844,0.0664 0.14844,0.14844 v -3 c 0,-0.082 -0.0664,-0.14844 -0.14844,-0.14844 h -6 c -0.082,0 -0.14844,0.0664 -0.14844,0.14844 v 3 c 0,-0.082 0.0664,-0.14844 0.14844,-0.14844 h -10.5 m 0,0 c -0.082,0 -0.14844,0.0664 -0.14844,0.14844 v 0 m 0,0 v 64.000001 m 0,0 c 0,0.082 0.0664,0.14844 0.14844,0.14844 v 0 m 0,0 h 10.5 m 0,0 c -0.082,0 -0.14844,-0.0664 -0.14844,-0.14844 v 3 c 0,0.082 0.0664,0.14844 0.14844,0.14844 h 6 c 0.082,0 0.14844,-0.0664 0.14844,-0.14844 v -3 c 0,0.082 -0.0664,0.14844 -0.14844,0.14844 h 10.5 m 0,0 h 3 c 0.082,0 0.14844,-0.0664 0.14844,-0.14844 v 0" />
  <path
     inkscape:connector-curvature="0"
     id="path14"
     style="fill:none;stroke:#ff0000;stroke-width:0.30000001;stroke-linecap:butt;stroke-linejoin:miter;stroke-miterlimit:10;stroke-opacity:1"
     d="m 101.40021,128.52707 v -11 c 0,-0.082 -0.0664,-0.14844 -0.14844,-0.14844 h -2.999997 c 0.082,0 0.14844,0.0664 0.14844,0.14844 v -6 c 0,0.082 -0.0664,0.14844 -0.14844,0.14844 h 2.999997 c 0.082,0 0.14844,-0.0664 0.14844,-0.14844 v -6 m 0,0 c 0,-0.082 -0.0664,-0.14844 -0.14844,-0.14844 h -2.999997 c 0.082,0 0.14844,0.0664 0.14844,0.14844 v -6.000001 c 0,0.082 -0.0664,0.14844 -0.14844,0.14844 h 2.999997 c 0.082,0 0.14844,-0.0664 0.14844,-0.14844 v -6 m 0,0 c 0,-0.082 -0.0664,-0.14844 -0.14844,-0.14844 h -2.999997 c 0.082,0 0.14844,0.0664 0.14844,0.14844 v -6 c 0,0.082 -0.0664,0.14844 -0.14844,0.14844 h 2.999997 c 0.082,0 0.14844,-0.0664 0.14844,-0.14844 v -6 m 0,0 c 0,-0.082 -0.0664,-0.14844 -0.14844,-0.14844 h -2.999997 c 0.082,0 0.14844,0.0664 0.14844,0.14844 v -6 c 0,0.082 -0.0664,0.14844 -0.14844,0.14844 h 2.999997 c 0.082,0 0.14844,-0.0664 0.14844,-0.14844 v -11 m 0,0 c 0,-0.082 -0.0664,-0.14844 -0.14844,-0.14844 h -2.999997 m 0,0 h -10.5 m 0,0 c 0.082,0 0.14844,0.0664 0.14844,0.14844 v -3 c 0,-0.082 -0.0664,-0.14844 -0.14844,-0.14844 h -6 c -0.082,0 -0.14844,0.0664 -0.14844,0.14844 v 3 c 0,-0.082 0.0664,-0.14844 0.14844,-0.14844 H 71.251776 m 0,0 c -0.082,0 -0.14844,0.0664 -0.14844,0.14844 v 0 m 0,0 v 64.000001 m 0,0 c 0,0.082 0.0664,0.14844 0.14844,0.14844 v 0 m 0,0 h 10.499997 m 0,0 c -0.082,0 -0.14844,-0.0664 -0.14844,-0.14844 v 3 c 0,0.082 0.0664,0.14844 0.14844,0.14844 h 6 c 0.082,0 0.14844,-0.0664 0.14844,-0.14844 v -3 c 0,0.082 -0.0664,0.14844 -0.14844,0.14844 h 10.5 m 0,0 h 2.999997 c 0.082,0 0.14844,-0.0664 0.14844,-0.14844 v 0" />
  <g
     id="g1245">
    <path
       d="m 69.099238,60.446875 h 64.000002 3 c 0.082,0 0.14844,-0.06641 0.14844,-0.148438 v -3 m 0,0 v -64 -3 c 0,-0.08203 -0.0664,-0.148437 -0.14844,-0.148437 h -3 m 0,0 H 69.099238 m 0,0 h -3 c -0.08203,0 -0.148438,0.06641 -0.148438,0.148437 v 3 m 0,0 v 64 m 0,0 v 3 c 0,0.08203 0.06641,0.148438 0.148438,0.148438 h 3"
       style="fill:none;stroke:#ff0000;stroke-width:0.30000001;stroke-linecap:butt;stroke-linejoin:miter;stroke-miterlimit:10;stroke-opacity:1"
       id="path10"
       inkscape:connector-curvature="0" />
    <g
       style="fill:none;stroke:#ff0000;stroke-width:0.29999998;stroke-miterlimit:10;stroke-dasharray:none;stroke-opacity:1"
       id="g4655"
       transform="translate(34.099239,-41.701563)">
      <circle
         style="fill:none;fill-opacity:1;fill-rule:nonzero;stroke:#ff0000;stroke-width:0.29999998;stroke-miterlimit:10;stroke-dasharray:none;stroke-opacity:1"
         id="path923"
         cx="67"
         cy="67"
         r="0.39603269" />
      <circle
         r="0.39603269"
         cy="67"
         cx="52"
         id="circle4628"
         style="fill:none;fill-opacity:1;fill-rule:nonzero;stroke:#ff0000;stroke-width:0.29999998;stroke-miterlimit:10;stroke-dasharray:none;stroke-opacity:1" />
      <circle
         r="0.39603269"
         cy="67"
         cx="82"
         id="circle4630"
         style="fill:none;fill-opacity:1;fill-rule:nonzero;stroke:#ff0000;stroke-width:0.29999998;stroke-miterlimit:10;stroke-dasharray:none;stroke-opacity:1" />
      <circle
         r="0.39603269"
         cy="82"
         cx="67"
         id="circle4634"
         style="fill:none;fill-opacity:1;fill-rule:nonzero;stroke:#ff0000;stroke-width:0.29999998;stroke-miterlimit:10;stroke-dasharray:none;stroke-opacity:1" />
      <circle
         style="fill:none;fill-opacity:1;fill-rule:nonzero;stroke:#ff0000;stroke-width:0.29999998;stroke-miterlimit:10;stroke-dasharray:none;stroke-opacity:1"
         id="circle4636"
         cx="52"
         cy="82"
         r="0.39603269" />
      <circle
         style="fill:none;fill-opacity:1;fill-rule:nonzero;stroke:#ff0000;stroke-width:0.29999998;stroke-miterlimit:10;stroke-dasharray:none;stroke-opacity:1"
         id="circle4638"
         cx="82"
         cy="82"
         r="0.39603269" />
      <circle
         r="0.39603269"
         cy="52"
         cx="67"
         id="circle4640"
         style="fill:none;fill-opacity:1;fill-rule:nonzero;stroke:#ff0000;stroke-width:0.29999998;stroke-miterlimit:10;stroke-dasharray:none;stroke-opacity:1" />
      <circle
         style="fill:none;fill-opacity:1;fill-rule:nonzero;stroke:#ff0000;stroke-width:0.29999998;stroke-miterlimit:10;stroke-dasharray:none;stroke-opacity:1"
         id="circle4642"
         cx="52"
         cy="52"
         r="0.39603269" />
      <circle
         style="fill:none;fill-opacity:1;fill-rule:nonzero;stroke:#ff0000;stroke-width:0.29999998;stroke-miterlimit:10;stroke-dasharray:none;stroke-opacity:1"
         id="circle4644"
         cx="82"
         cy="52"
         r="0.39603269" />
      <circle
         r="0.39603269"
         cy="82"
         cx="74.5"
         id="circle4679"
         style="fill:none;fill-opacity:1;fill-rule:nonzero;stroke:#ff0000;stroke-width:0.29999998;stroke-miterlimit:10;stroke-dasharray:none;stroke-opacity:1" />
    </g>
  </g>
  <g
     id="g1231">
    <path
       d="M 0.29843801,60.446875 H 64.298438 c 0.08203,0 0.148438,-0.06641 0.148438,-0.148438 v 0 m 0,0 -10e-7,-64 c 0,-0.08203 -0.06641,-0.148437 -0.148437,-0.148437 v 0 m 0,0 H 0.29843801 m 0,0 c -0.08203,0 -0.148438,0.06641 -0.148438,0.148437 v 0 m 0,0 v 64 m 0,0 c 0,0.08203 0.066407,0.148438 0.148438,0.148438 v 0"
       style="fill:none;stroke:#ff0000;stroke-width:0.30000001;stroke-linecap:butt;stroke-linejoin:miter;stroke-miterlimit:10;stroke-opacity:1"
       id="path8"
       inkscape:connector-curvature="0" />
    <g
       transform="translate(-9.849962,-19.850025)"
       style="fill:none;stroke:#ff0000;stroke-width:0.29999998;stroke-miterlimit:4.5999999;stroke-dasharray:none;stroke-opacity:1"
       id="g939">
      <ellipse
         ry="2.3761961"
         rx="2.3761964"
         style="fill:none;fill-opacity:1;fill-rule:nonzero;stroke:#ff0000;stroke-width:0.29999998;stroke-miterlimit:4.5999999;stroke-dasharray:none;stroke-opacity:1"
         id="circle4638-6"
         cx="42.148399"
         cy="48.14846" />
      <ellipse
         cy="48.14846"
         cx="27.148399"
         id="ellipse4732"
         style="fill:none;fill-opacity:1;fill-rule:nonzero;stroke:#ff0000;stroke-width:0.29999998;stroke-miterlimit:4.5999999;stroke-dasharray:none;stroke-opacity:1"
         rx="2.3761964"
         ry="2.3761961" />
      <ellipse
         cy="48.14846"
         cx="57.148399"
         id="ellipse4734"
         style="fill:none;fill-opacity:1;fill-rule:nonzero;stroke:#ff0000;stroke-width:0.29999998;stroke-miterlimit:4.5999999;stroke-dasharray:none;stroke-opacity:1"
         rx="2.3761964"
         ry="2.3761961" />
      <ellipse
         cy="63.14846"
         cx="42.148399"
         id="ellipse4736"
         style="fill:none;fill-opacity:1;fill-rule:nonzero;stroke:#ff0000;stroke-width:0.29999998;stroke-miterlimit:4.5999999;stroke-dasharray:none;stroke-opacity:1"
         rx="2.3761964"
         ry="2.3761961" />
      <ellipse
         ry="2.3761961"
         rx="2.3761964"
         style="fill:none;fill-opacity:1;fill-rule:nonzero;stroke:#ff0000;stroke-width:0.29999998;stroke-miterlimit:4.5999999;stroke-dasharray:none;stroke-opacity:1"
         id="ellipse4738"
         cx="27.148399"
         cy="63.14846" />
      <ellipse
         ry="2.3761961"
         rx="2.3761964"
         style="fill:none;fill-opacity:1;fill-rule:nonzero;stroke:#ff0000;stroke-width:0.29999998;stroke-miterlimit:4.5999999;stroke-dasharray:none;stroke-opacity:1"
         id="ellipse4740"
         cx="57.148399"
         cy="63.14846" />
      <ellipse
         cy="33.14846"
         cx="42.148399"
         id="ellipse4742"
         style="fill:none;fill-opacity:1;fill-rule:nonzero;stroke:#ff0000;stroke-width:0.29999998;stroke-miterlimit:4.5999999;stroke-dasharray:none;stroke-opacity:1"
         rx="2.3761964"
         ry="2.3761961" />
      <ellipse
         ry="2.3761961"
         rx="2.3761964"
         style="fill:none;fill-opacity:1;fill-rule:nonzero;stroke:#ff0000;stroke-width:0.29999998;stroke-miterlimit:4.5999999;stroke-dasharray:none;stroke-opacity:1"
         id="ellipse4744"
         cx="27.148399"
         cy="33.14846" />
      <ellipse
         ry="2.3761961"
         rx="2.3761964"
         style="fill:none;fill-opacity:1;fill-rule:nonzero;stroke:#ff0000;stroke-width:0.29999998;stroke-miterlimit:4.5999999;stroke-dasharray:none;stroke-opacity:1"
         id="ellipse4746"
         cx="57.148399"
         cy="33.14846" />
      <circle
         style="opacity:1;fill:none;fill-opacity:1;fill-rule:nonzero;stroke:#ff0000;stroke-width:0.29999998;stroke-miterlimit:4.5999999;stroke-dasharray:none;stroke-opacity:1"
         id="path908"
         cx="49.648399"
         cy="63.14846"
         r="1.3983051" />
    </g>
  </g>
  <g
     id="g1257">
    <path
       d="m 3.298438,164.04838 h 11 c 0.08203,0 0.148438,-0.0664 0.148438,-0.14844 v -3 c 0,0.082 -0.06641,0.14844 -0.148438,0.14844 h 6 c -0.08203,0 -0.148438,-0.0664 -0.148438,-0.14844 v 3 c 0,0.082 0.06641,0.14844 0.148438,0.14844 h 6 m 0,0 c 0.08203,0 0.148438,-0.0664 0.148438,-0.14844 v -3 c 0,0.082 -0.06641,0.14844 -0.148438,0.14844 h 6 c -0.08203,0 -0.148438,-0.0664 -0.148438,-0.14844 l 1e-6,3 c 0,0.082 0.06641,0.14844 0.148437,0.14844 h 6 m 0,0 c 0.08203,0 0.148438,-0.0664 0.148438,-0.14844 l -1e-6,-3 c 0,0.082 -0.06641,0.14844 -0.148437,0.14844 h 6 c -0.08203,0 -0.148438,-0.0664 -0.148438,-0.14844 v 3 c 0,0.082 0.06641,0.14844 0.148438,0.14844 h 6 m 0,0 c 0.08203,0 0.148438,-0.0664 0.148438,-0.14844 l -1e-6,-3 c 0,0.082 -0.06641,0.14844 -0.148437,0.14844 h 6 c -0.08203,0 -0.148438,-0.0664 -0.148438,-0.14844 v 3 c 0,0.082 0.06641,0.14844 0.148438,0.14844 h 11 m 0,0 h 3 c 0.08203,0 0.148438,-0.0664 0.148438,-0.14844 v -3 m 0,0 v -10.5 m 0,0 c 0,-0.082 -0.06641,-0.14844 -0.148438,-0.14844 h -3 c 0.08203,0 0.148438,0.0664 0.148438,0.14844 l -10e-7,-6 c 0,0.082 -0.06641,0.14844 -0.148437,0.14844 h 3 c 0.08203,0 0.148437,-0.0664 0.148437,-0.14844 v -10.5 m 0,0 c 0,-0.082 -0.06641,-0.14844 -0.148437,-0.14844 h -3 m 0,0 h -64 m 0,0 H 0.29843801 c -0.08203,0 -0.148438,0.0664 -0.148438,0.14844 v 0 m 0,0 v 10.5 m 0,0 c 0,0.082 0.066407,0.14844 0.148438,0.14844 H 3.298438 c -0.08203,0 -0.148438,-0.0664 -0.148438,-0.14844 v 6 c 0,-0.082 0.06641,-0.14844 0.148438,-0.14844 H 0.29843801 c -0.08203,0 -0.148438,0.0664 -0.148438,0.14844 v 10.5 m 0,0 v 3 c 0,0.082 0.066407,0.14844 0.148438,0.14844 H 3.298438"
       style="fill:none;stroke:#ff0000;stroke-width:0.30000001;stroke-linecap:butt;stroke-linejoin:miter;stroke-miterlimit:10;stroke-opacity:1"
       id="path4"
       inkscape:connector-curvature="0" />
    <circle
       r="2.9542625"
       cy="147.48689"
       cx="35.298439"
       id="path4663"
       style="fill:none;fill-opacity:1;fill-rule:nonzero;stroke:#ff0000;stroke-width:0.29999998;stroke-miterlimit:4;stroke-dasharray:none;stroke-opacity:1" />
  </g>
  <g
     id="g1265">
    <path
       d="m 74.653647,164.04838 h 11 c 0.08203,0 0.148438,-0.0664 0.148438,-0.14844 l -1e-6,-3 c 0,0.082 -0.06641,0.14844 -0.148437,0.14844 h 6 c -0.08203,0 -0.148438,-0.0664 -0.148438,-0.14844 v 3 c 0,0.082 0.06641,0.14844 0.148438,0.14844 h 6 m 0,0 c 0.08203,0 0.148438,-0.0664 0.148438,-0.14844 v -3 c 0,0.082 -0.06641,0.14844 -0.148438,0.14844 h 6.000003 c -0.082,0 -0.14844,-0.0664 -0.14844,-0.14844 v 3 c 0,0.082 0.0664,0.14844 0.14844,0.14844 h 6 m 0,0 c 0.082,0 0.14844,-0.0664 0.14844,-0.14844 v -3 c 0,0.082 -0.0664,0.14844 -0.14844,0.14844 h 6 c -0.082,0 -0.14844,-0.0664 -0.14844,-0.14844 v 3 c 0,0.082 0.0664,0.14844 0.14844,0.14844 h 6 m 0,0 c 0.082,0 0.14844,-0.0664 0.14844,-0.14844 v -3 c 0,0.082 -0.0664,0.14844 -0.14844,0.14844 h 6 c -0.082,0 -0.14844,-0.0664 -0.14844,-0.14844 v 3 c 0,0.082 0.0664,0.14844 0.14844,0.14844 h 11 m 0,0 h 3 c 0.082,0 0.14843,-0.0664 0.14843,-0.14844 v -3 m 0,0 v -10.5 m 0,0 c 0,-0.082 -0.0664,-0.14844 -0.14843,-0.14844 h -3 c 0.082,0 0.14843,0.0664 0.14843,0.14844 v -6 c 0,0.082 -0.0664,0.14844 -0.14843,0.14844 h 3 c 0.082,0 0.14843,-0.0664 0.14843,-0.14844 v -10.5 m 0,0 c 0,-0.082 -0.0664,-0.14844 -0.14843,-0.14844 h -3 m 0,0 H 74.653647 m 0,0 h -3 c -0.08203,0 -0.148438,0.0664 -0.148438,0.14844 v 0 m 0,0 v 10.5 m 0,0 c 0,0.082 0.06641,0.14844 0.148438,0.14844 h 3 c -0.08203,0 -0.148438,-0.0664 -0.148438,-0.14844 v 6 c 0,-0.082 0.06641,-0.14844 0.148438,-0.14844 h -3 c -0.08203,0 -0.148438,0.0664 -0.148438,0.14844 v 10.5 m 0,0 v 3 c 0,0.082 0.06641,0.14844 0.148438,0.14844 h 3"
       style="fill:none;stroke:#ff0000;stroke-width:0.30000001;stroke-linecap:butt;stroke-linejoin:miter;stroke-miterlimit:10;stroke-opacity:1"
       id="path2"
       inkscape:connector-curvature="0" />
    <g
       transform="translate(71.355209,-31.8008)"
       id="g1164">
      <path
         inkscape:connector-curvature="0"
         style="font-style:normal;font-variant:normal;font-weight:bold;font-stretch:normal;font-size:54.54985428px;line-height:125%;font-family:FreeMono;-inkscape-font-specification:'FreeMono Bold';letter-spacing:0px;word-spacing:0px;fill:none;fill-opacity:1;stroke:#00ff00;stroke-width:0.04010154;stroke-opacity:1"
         d="m 41.212163,187.01034 c -0.09587,0 -0.17043,0.0241 -0.17043,0.13033 0,0.10623 0.07197,0.12907 0.17043,0.12907 h 0.04136 v 1.09904 h -0.01504 c -0.09328,0 -0.171685,0.0228 -0.171685,0.12907 0,0.0985 0.07323,0.13033 0.171685,0.13033 h 0.289483 c 0.09587,0 0.174191,-0.0241 0.174191,-0.13033 0,-0.10623 -0.07573,-0.12907 -0.174191,-0.12907 h -0.01503 v -0.47496 c 0.147688,-0.1425 0.204047,-0.17294 0.325825,-0.17294 0.202098,0 0.228078,0.0929 0.228078,0.20427 v 0.44363 h -0.01503 c -0.09328,0 -0.174192,0.0203 -0.174192,0.12907 0,0.10364 0.08091,0.13033 0.174192,0.13033 h 0.290736 c 0.09587,0 0.170432,-0.0267 0.170432,-0.13033 0,-0.10364 -0.06938,-0.12907 -0.170432,-0.12907 h -0.0163 v -0.47746 c 0,-0.2591 -0.184013,-0.42984 -0.458661,-0.42984 -0.134733,0 -0.251008,0.0517 -0.354648,0.1579 v -0.60904 z m -14.219757,0.002 v 0.27319 h 0.305775 v -0.27319 z m 10.277274,0 v 0.27319 h 0.305773 v -0.27319 z m 1.199286,0.084 c -0.108822,0 -0.129077,0.0797 -0.129077,0.17043 v 0.22808 h -0.09148 c -0.101049,0 -0.170432,0.0228 -0.170432,0.12908 0,0.10364 0.07456,0.13033 0.170432,0.13033 h 0.09148 v 0.5564 c 0,0.22024 0.183338,0.35841 0.478714,0.35841 0.196916,0 0.596511,-0.0889 0.596511,-0.24437 0,-0.0725 -0.05411,-0.13158 -0.124065,-0.13158 -0.09068,0 -0.174565,0.11655 -0.469941,0.11655 -0.191734,0 -0.22181,-0.0494 -0.22181,-0.14788 v -0.50753 h 0.468687 c 0.09587,0 0.17043,-0.0267 0.17043,-0.13033 0,-0.10624 -0.07197,-0.12908 -0.17043,-0.12908 h -0.468687 v -0.22808 c 0,-0.10105 -0.0241,-0.17043 -0.130332,-0.17043 z m -13.296168,0.02 c -0.09069,1e-5 -0.170431,0.0189 -0.170431,0.13033 0,0.10624 0.07456,0.12908 0.170431,0.12908 h 0.03885 v 0.99252 h -0.03885 c -0.09587,0 -0.170431,0.0228 -0.170431,0.12907 0,0.0544 0.02534,0.13033 0.170431,0.13033 h 0.764436 c 0.30574,0 0.511295,-0.16606 0.511295,-0.4148 0,-0.16323 -0.08789,-0.28267 -0.274444,-0.37595 0.114004,-0.0881 0.162912,-0.17406 0.162912,-0.29324 0,-0.24615 -0.214751,-0.42733 -0.507536,-0.42733 z m 10.160729,0 c -0.101048,0 -0.170432,0.0241 -0.170432,0.13033 0,0.10623 0.07457,0.12908 0.170432,0.12908 h 0.03885 v 0.99251 h -0.03885 c -0.09587,0 -0.170432,0.0228 -0.170432,0.12908 0,0.0544 0.02534,0.13033 0.170432,0.13033 h 0.388483 c 0.10105,0 0.171686,-0.0319 0.171686,-0.13033 0,-0.10883 -0.081,-0.12908 -0.171686,-0.12908 h -0.09023 v -0.28071 l 0.155394,-0.13158 c 0.158052,0.0492 0.323098,0.30118 0.444876,0.6717 h 0.285724 c 0.10105,0 0.170432,-0.0319 0.170432,-0.13033 0,-0.10883 -0.07975,-0.12908 -0.170432,-0.12908 h -0.08271 c -0.119186,-0.29797 -0.280559,-0.5136 -0.43861,-0.59651 l 0.456154,-0.396 c 0.106232,0 0.160405,-0.0436 0.160405,-0.12908 0,-0.10364 -0.06938,-0.13033 -0.17043,-0.13033 h -0.259408 c -0.101048,0 -0.170431,0.037 -0.170431,0.13284 0,0.0596 0.02579,0.0958 0.0802,0.11654 l -0.461168,0.396 v -0.38597 h 0.09023 c 0.09587,0 0.171686,-0.0229 0.171686,-0.12908 0,-0.10882 -0.081,-0.13033 -0.171686,-0.13033 z m -9.862473,0.25941 h 0.344622 c 0.163234,0 0.261913,0.0618 0.261913,0.16542 0,0.11918 -0.12674,0.19925 -0.313293,0.19925 h -0.293242 z m 3.319656,0.0852 c -0.142506,0 -0.231534,0.0387 -0.355902,0.1579 v -0.12406 h -0.243116 c -0.101048,0 -0.172937,0.0358 -0.172937,0.12908 0,0.0829 0.05685,0.12773 0.1579,0.13033 v 0.61405 h -0.01629 c -0.09328,0 -0.170432,0.0228 -0.170432,0.12908 0,0.0985 0.06938,0.13033 0.170432,0.13033 H 28.4511 c 0.09069,0 0.170432,-0.0241 0.170432,-0.13033 0,-0.10883 -0.07975,-0.12908 -0.170432,-0.12908 h -0.01629 v -0.47245 c 0.121777,-0.13214 0.205386,-0.17544 0.324572,-0.17544 0.160644,0 0.23309,0.0598 0.23309,0.18672 v 0.46117 c -0.101048,0 -0.157899,0.0462 -0.157899,0.12908 0,0.0855 0.05634,0.13033 0.172937,0.13033 h 0.230585 c 0.09587,0 0.171684,-0.0267 0.171684,-0.13033 0,-0.0829 -0.05685,-0.12908 -0.157899,-0.12908 v -0.47245 c 0,-0.28501 -0.202066,-0.43485 -0.461168,-0.43485 z m 1.398541,0 c -0.12955,0 -0.320507,0.0336 -0.444877,0.0777 -0.05182,0.0181 -0.0777,0.0546 -0.0777,0.10903 0,0.0751 0.05402,0.13158 0.12657,0.13158 0.08291,0 0.21697,-0.0589 0.403522,-0.0589 0.165824,0 0.241863,0.0385 0.241863,0.12657 v 0.0601 c -0.106232,-0.0181 -0.186521,-0.0263 -0.269433,-0.0263 -0.388652,0 -0.627839,0.21194 -0.627839,0.43735 0,0.19174 0.20967,0.35089 0.46618,0.35089 0.152869,0 0.306722,-0.0367 0.431092,-0.1015 v 0.0601 H 30.7419 c 0.09587,0 0.170432,-0.0267 0.170432,-0.13033 0,-0.10364 -0.06938,-0.12908 -0.170432,-0.12908 h -0.04135 v -0.52383 c 0,-0.24096 -0.1926,-0.38347 -0.511295,-0.38347 z m 10.067994,0 c -0.391242,0 -0.662928,0.25983 -0.662928,0.63035 0,0.25133 0.139697,0.57771 0.696765,0.57771 0.388651,0 0.626586,-0.12943 0.626586,-0.27194 0,-0.0726 -0.05912,-0.13283 -0.129078,-0.13283 -0.10623,0 -0.08095,0.14537 -0.479965,0.14537 -0.303148,0 -0.456154,-0.10585 -0.456154,-0.31831 0,-0.22024 0.158628,-0.37094 0.404774,-0.37094 0.114004,0 0.207078,0.0237 0.274446,0.0652 0.09328,0.0674 0.03109,0.21679 0.191734,0.21679 0.108822,0 0.129077,-0.0797 0.129077,-0.17043 v -0.19925 c 0,-0.11919 -0.03856,-0.17169 -0.124063,-0.17169 -0.05441,0 -0.0822,0.0233 -0.09775,0.0777 -0.10105,-0.0518 -0.225759,-0.0777 -0.373447,-0.0777 z m 3.057743,0 c -0.378288,0 -0.667941,0.26453 -0.667941,0.60654 0,0.35238 0.282626,0.60152 0.684232,0.60152 0.111414,0 0.655409,-0.0316 0.655409,-0.21554 0,-0.0726 -0.05536,-0.12908 -0.125317,-0.12908 -0.101048,0 -0.26657,0.0852 -0.507534,0.0852 -0.22801,0 -0.365232,-0.0726 -0.424826,-0.22808 h 1.057677 V 188.08 c 0,-0.35756 -0.285639,-0.61907 -0.6717,-0.61907 z m 1.660455,0 c -0.142506,0 -0.231533,0.0387 -0.355902,0.1579 v -0.12406 h -0.243116 c -0.101048,0 -0.17419,0.0358 -0.17419,0.12908 0,0.0829 0.0581,0.12773 0.159152,0.13033 v 0.61405 h -0.01629 c -0.09328,0 -0.170432,0.0228 -0.170432,0.12908 0,0.0985 0.06938,0.13033 0.170432,0.13033 h 0.290736 c 0.09069,0 0.170432,-0.0241 0.170432,-0.13033 0,-0.10883 -0.07975,-0.12908 -0.170432,-0.12908 h -0.01629 v -0.47245 c 0.121778,-0.13214 0.205385,-0.17544 0.324572,-0.17544 0.160642,0 0.23309,0.0598 0.23309,0.18672 v 0.46117 c -0.10105,0 -0.1579,0.0462 -0.1579,0.12908 0,0.0855 0.05634,0.13033 0.172939,0.13033 h 0.230583 c 0.09587,0 0.171685,-0.0267 0.171685,-0.13033 0,-0.0829 -0.05685,-0.12908 -0.1579,-0.12908 v -0.47245 c 0,-0.28501 -0.202067,-0.43485 -0.461167,-0.43485 z m -12.886381,0.002 c -0.12696,0 -0.225065,0.0438 -0.432345,0.19926 v -0.16793 h -0.350889 c -0.114004,0 -0.17043,0.0488 -0.17043,0.12908 0,0.0985 0.06938,0.13033 0.17043,0.13033 h 0.09148 v 0.61406 H 31.24693 c -0.10105,0 -0.171685,0.0228 -0.171685,0.12907 0,0.0985 0.07323,0.13033 0.171685,0.13033 h 0.769448 c 0.09587,0 0.172938,-0.0267 0.172938,-0.13033 0,-0.10623 -0.07448,-0.12907 -0.172938,-0.12907 h -0.359661 v -0.38097 c 0.246146,-0.2021 0.344419,-0.26442 0.427331,-0.26442 0.0855,0 0.116258,0.0927 0.201762,0.0927 0.06996,0 0.129077,-0.059 0.129077,-0.13159 0,-0.11918 -0.191093,-0.22056 -0.325825,-0.22056 z m -5.215707,0.0313 c -0.09587,0 -0.174192,0.0177 -0.174192,0.12908 0,0.10364 0.07832,0.13033 0.174192,0.13033 h 0.20176 v 0.61406 h -0.315799 c -0.10105,0 -0.171685,0.0228 -0.171685,0.12907 0,0.0544 0.02659,0.13033 0.171685,0.13033 h 0.891006 c 0.10105,0 0.170432,-0.0319 0.170432,-0.13033 0,-0.10882 -0.07975,-0.12907 -0.170432,-0.12907 h -0.315799 v -0.87347 z m 5.862344,0 c -0.09587,0 -0.170432,0.0384 -0.170432,0.12908 0,0.0726 0.04625,0.11997 0.126572,0.13033 l 0.446129,0.86469 -0.142862,0.26693 h -0.259407 c -0.09587,0 -0.170432,0.0241 -0.170432,0.13032 0,0.0492 0.02877,0.12908 0.145369,0.12908 h 0.02506 0.557663 c 0.09328,0 0.17043,-0.0254 0.17043,-0.12908 0,-0.10623 -0.07197,-0.13032 -0.17043,-0.13032 h -0.01378 l 0.596509,-1.13162 c 0.0855,-0.008 0.135343,-0.0552 0.135343,-0.13033 0,-0.10623 -0.07323,-0.12908 -0.171685,-0.12908 h -0.238103 c -0.101048,0 -0.17419,0.0358 -0.17419,0.12908 0,0.0829 0.06044,0.13033 0.166671,0.13033 l -0.310787,0.57771 -0.295748,-0.57771 c 0.09846,-0.003 0.152886,-0.05 0.152886,-0.13033 0,-0.10623 -0.07323,-0.12908 -0.171685,-0.12908 z m 4.41493,0 c -0.09587,0 -0.174192,0.0177 -0.174192,0.12908 0,0.10364 0.07832,0.13033 0.174192,0.13033 h 0.20176 v 0.61406 H 37.03659 c -0.10105,0 -0.171685,0.0228 -0.171685,0.12907 0,0.0544 0.02659,0.13033 0.171685,0.13033 h 0.891006 c 0.101049,0 0.170432,-0.0319 0.170432,-0.13033 0,-0.10882 -0.07975,-0.12907 -0.170432,-0.12907 h -0.3158 v -0.87347 z m 6.166865,0.22557 c 0.189144,0 0.339509,0.0906 0.380965,0.23309 H 42.93653 c 0.03886,-0.13991 0.191821,-0.23309 0.380964,-0.23309 z m -17.84644,0.27947 h 0.349636 c 0.220236,0 0.368431,0.0908 0.368431,0.22808 0,0.0933 -0.08823,0.14036 -0.264418,0.14036 h -0.453649 z m 4.681855,0.11905 c 0.08809,0 0.184589,0.0107 0.288231,0.0288 v 0.12907 c -0.142506,0.0881 -0.287419,0.13284 -0.427333,0.13284 -0.111414,0 -0.198001,-0.0445 -0.198001,-0.10151 0,-0.0985 0.160914,-0.18923 0.337103,-0.18923 z"
         id="path4555" />
      <path
         inkscape:connector-curvature="0"
         style="fill:none;fill-opacity:1;fill-rule:nonzero;stroke:#00ff00;stroke-width:0.04010154;stroke-opacity:1"
         d="m 32.497596,169.43082 c -1.672183,10e-4 -3.027286,0.93315 -3.026413,2.08277 7.58e-4,0.96952 0.962604,1.78912 2.27075,2.00258 0.272764,0.0445 0.426802,0.0421 0.588992,0.0501 0.03412,0.002 0.06288,0.037 0.06141,0.0677 -0.0015,0.0307 -0.03355,0.0644 -0.06767,0.0627 -0.242656,-0.0121 -0.272882,-0.0105 -0.453648,-0.0276 v 0.6128 l -0.307028,0.001 c -0.119054,4.5e-4 -0.222309,0.0954 -0.215546,0.21429 l 0.253142,4.44876 c 0.0068,0.11887 0.09679,0.20584 0.215545,0.2143 2.094104,0.1492 4.214162,0.15806 6.361107,-0.005 0.118712,-0.009 0.20773,-0.0954 0.214293,-0.21429 l 0.245622,-4.44877 c 0.0066,-0.11887 -0.09524,-0.21429 -0.214292,-0.21429 h -0.24563 l -0.0012,-0.79075 c -0.07313,0.008 -0.160583,0.0126 -0.281964,0.0125 -0.03514,-2e-5 -0.06797,-0.035 -0.06767,-0.0664 3.03e-4,-0.0314 0.03379,-0.0646 0.06892,-0.0639 0.133914,0.003 0.222611,0.002 0.293243,-0.015 0.952715,-0.22866 1.62841,-0.83323 1.627879,-1.53389 -7.58e-4,-0.90577 -1.131659,-1.63896 -2.525144,-1.6379 -0.730738,6.1e-4 -1.389062,0.20335 -1.849684,0.52633 0.08784,0.11886 0.162388,0.20945 0.245621,0.27069 0.08482,0.0624 0.179626,0.0979 0.327079,0.10526 0.03412,0.002 0.06288,0.037 0.06141,0.0677 -0.0015,0.0307 -0.03355,0.0644 -0.06767,0.0627 -0.166884,-0.008 -0.298797,-0.0473 -0.39851,-0.13033 -0.121618,-0.10131 -0.182281,-0.14174 -0.289483,-0.32707 -0.447131,-0.77303 -1.536971,-1.32809 -2.8234,-1.32711 z m 1.157932,5.89117 0.447383,0.005 c 0.101944,0.001 0.182702,0.0835 0.18171,0.18547 l -0.02632,2.76325 c -0.0011,0.10195 -0.08478,0.18419 -0.186722,0.18297 l -0.446129,-0.005 c -0.101944,-0.001 -0.182703,-0.0835 -0.181711,-0.18547 l 0.02632,-2.76325 c 0.0011,-0.10194 0.08353,-0.18419 0.185469,-0.18296 z m 2.354713,0.0238 c 0.566797,0.006 1.019758,0.69873 1.011311,1.54892 -0.0084,0.8502 -0.473337,1.5345 -1.040134,1.52887 -0.566796,-0.006 -1.019759,-0.69873 -1.01131,-1.54892 0.0084,-0.8502 0.473337,-1.5345 1.040133,-1.52887 z"
         id="path3021" />
      <path
         style="fill:none;fill-opacity:1;fill-rule:nonzero;stroke:#00ff00;stroke-width:0.04010154;stroke-opacity:1"
         d="m 27.07261,178.15667 c -0.172523,0.005 -0.384946,0.0691 -0.453649,0.23685 l -0.416055,1.01507 c -0.103781,0.25337 0.169971,0.5466 0.313294,0.60528 l 4.387359,1.7958 c 0.04806,-0.0479 0.114774,-0.0784 0.187977,-0.0802 0.151579,-0.004 0.278252,0.11911 0.281964,0.27069 0.01851,0.008 0.03819,0.0174 0.05389,0.0238 0.143339,0.0586 0.306028,-0.0108 0.364674,-0.15414 l 0.176697,-0.43235 2.045179,0.83712 0.614055,-0.26943 -2.475017,-1.01382 0.176697,-0.43234 c 0.05865,-0.14334 -0.0094,-0.3077 -0.152888,-0.36593 l -0.05389,-0.0213 c -0.04888,0.0575 -0.121662,0.0945 -0.203013,0.0965 -0.15158,0.004 -0.282638,-0.13074 -0.279458,-0.29575 -1.512016,-0.62641 -3.007513,-1.23131 -4.374829,-1.78953 -0.04452,-0.0182 -0.114569,-0.0286 -0.192987,-0.0263 z m -0.01003,0.51254 c 0.08485,-0.002 0.172267,0.008 0.239356,0.0351 1.421335,0.57273 2.763078,1.12771 4.181839,1.70682 0.04109,0.0181 0.06065,0.0753 0.04511,0.11279 -0.01554,0.0375 -0.06995,0.0646 -0.111532,0.0476 l -4.165547,-1.6993 h -0.0012 c -0.175177,-0.0711 -0.317513,-0.0315 -0.398508,0.0714 -0.03061,0.0389 -0.09537,0.0491 -0.129077,0.0213 -0.03371,-0.0278 -0.03648,-0.0944 -0.0038,-0.13158 0.103262,-0.11719 0.232618,-0.16214 0.343369,-0.16417 z m -0.135343,0.8271 c 0.01153,-7.6e-4 0.02291,0.001 0.03509,0.006 1.417962,0.57916 2.762554,1.13131 4.180586,1.71183 0.04232,0.0173 0.06441,0.0757 0.04888,0.11404 -0.01554,0.0383 -0.07172,0.065 -0.114039,0.0476 l -4.173068,-1.70933 c -0.04773,-0.0196 -0.06766,-0.0758 -0.05263,-0.11529 0.01073,-0.0282 0.0406,-0.053 0.07519,-0.0551 z m 10.116869,3.49886 -0.655411,0.25189 4.0277,1.64917 c 0.03085,0.1332 0.388194,0.37271 0.644131,0.48999 0.161429,0.074 0.32959,0.13408 0.49375,0.20176 0.112601,-0.27841 0.226389,-0.55696 0.340863,-0.83461 -0.16472,-0.0663 -0.32444,-0.14318 -0.492496,-0.20051 -0.213878,-0.073 -0.629952,-0.1717 -0.804538,-0.10276 z"
         id="use3078"
         inkscape:connector-curvature="0" />
      <path
         style="fill:none;fill-opacity:1;fill-rule:nonzero;stroke:#00ff00;stroke-width:0.04010154;stroke-opacity:1"
         d="m 38.133062,179.7174 -0.369585,0.16198 c -0.07594,0.0333 -0.110375,0.12017 -0.07733,0.19621 l 0.0999,0.22987 -0.400228,0.57566 c -1.776576,0.8286 -3.717573,1.7461 -5.574209,2.62066 -0.140105,0.066 -0.205599,0.22657 -0.143263,0.36834 l 0.118028,0.26844 c -0.159099,0.076 -0.317754,0.15208 -0.476223,0.22473 -0.05303,-0.21991 -0.198435,-0.39784 -0.383121,-0.49483 -0.220965,-0.11604 -0.475856,-0.12531 -0.747605,-0.0413 -0.06826,0.0211 -0.140162,0.0488 -0.210525,0.0847 -0.07036,0.0358 -0.138667,0.08 -0.20024,0.13348 -0.123146,0.10704 -0.221139,0.26953 -0.196943,0.45862 0.02066,0.16148 0.09252,0.32179 0.236631,0.42186 0.144112,0.10007 0.346084,0.12581 0.587104,0.0618 0.203867,-0.0541 0.401123,-0.12174 0.594342,-0.19818 -0.01097,0.0178 -0.01562,0.0361 -0.02869,0.0535 -0.0875,0.11666 -0.221794,0.21994 -0.364656,0.28965 -0.583695,0.2848 -1.199239,0.58788 -1.815242,0.82852 l 0.09585,0.24256 c 0.63026,-0.24621 1.250601,-0.55204 1.833631,-0.83652 0.175048,-0.0854 0.340467,-0.20931 0.459206,-0.36763 0.07776,-0.10368 0.132285,-0.2254 0.153855,-0.35655 0.191346,-0.0855 0.379496,-0.17462 0.56702,-0.26419 l 0.07907,0.1788 c 0.06264,0.14164 0.223671,0.20519 0.366537,0.14541 1.879414,-0.7864 3.88511,-1.62938 5.711221,-2.30855 l 0.692933,0.0978 0.101045,0.22936 c 0.03343,0.0759 0.120276,0.11061 0.19621,0.0773 l 0.369585,-0.16198 c 0.07594,-0.0333 0.111629,-0.12072 0.07848,-0.19671 l -0.366278,-0.83966 4.674907,-2.04263 c 0.09174,-0.0401 0.13348,-0.14562 0.09358,-0.23743 l -0.07642,-0.17585 1.165567,-0.50929 c 0.07884,-0.0344 0.273623,-0.19453 0.239183,-0.27338 -0.03429,-0.0789 -0.284867,-0.0445 -0.363708,-0.01 l -1.165565,0.50928 -0.07642,-0.17584 c -0.0399,-0.0918 -0.146832,-0.13314 -0.23858,-0.0931 l -4.674255,2.04098 -0.367429,-0.83915 c -0.03327,-0.076 -0.121425,-0.11012 -0.197359,-0.0768 z m -7.960273,4.39003 c 0.02835,-0.0116 0.05724,-0.0229 0.08475,-0.0314 0.216781,-0.067 0.390321,-0.063 0.552036,0.0252 0.131551,0.0718 0.234427,0.19275 0.260372,0.36645 -0.243833,0.10435 -0.488862,0.2006 -0.741756,0.26771 -0.192248,0.051 -0.302814,0.0252 -0.372004,-0.0228 -0.06919,-0.0481 -0.111554,-0.13193 -0.125629,-0.24192 -0.01132,-0.0885 0.0257,-0.15702 0.108265,-0.22878 0.04128,-0.0359 0.09419,-0.0682 0.149417,-0.0964 0.02761,-0.0141 0.0562,-0.0265 0.08455,-0.0381 z"
         id="path3858"
         inkscape:connector-curvature="0"
         sodipodi:nodetypes="sssccssccasssssscssccssccssccsssscsscscscsscssssacssssss" />
    </g>
  </g>
  <path
     inkscape:connector-curvature="0"
     d=""
     style="fill:none;stroke:#00ff00;stroke-width:0.09788429;stroke-opacity:1"
     id="path6069" />
  <path
     inkscape:connector-curvature="0"
     d=""
     style="fill:none;stroke:#00ff00;stroke-width:0.09788429;stroke-opacity:1"
     id="path6077" />
  <g
     id="g1217">
    <path
       d="m 3.298438,129.24768 h 11 c -0.08203,0 -0.148438,-0.0664 -0.148438,-0.14844 v 3 c 0,0.082 0.06641,0.14844 0.148438,0.14844 h 6 c 0.08203,0 0.148438,-0.0664 0.148438,-0.14844 v -3 c 0,0.082 -0.06641,0.14844 -0.148438,0.14844 h 6 m 0,0 c -0.08203,0 -0.148438,-0.0664 -0.148438,-0.14844 v 3 c 0,0.082 0.06641,0.14844 0.148438,0.14844 h 6 c 0.08203,0 0.148437,-0.0664 0.148437,-0.14844 v -3 c 0,0.082 -0.06641,0.14844 -0.148437,0.14844 h 6 m 0,0 c -0.08203,0 -0.148438,-0.0664 -0.148438,-0.14844 v 3 c 0,0.082 0.06641,0.14844 0.148438,0.14844 h 6 c 0.08203,0 0.148438,-0.0664 0.148438,-0.14844 v -3 c 0,0.082 -0.06641,0.14844 -0.148438,0.14844 h 6 m 0,0 c -0.08203,0 -0.148438,-0.0664 -0.148438,-0.14844 v 3 c 0,0.082 0.06641,0.14844 0.148438,0.14844 h 6 c 0.08203,0 0.148438,-0.0664 0.148438,-0.14844 v -3 c 0,0.082 -0.06641,0.14844 -0.148438,0.14844 h 11 m 0,0 c 0.08203,0 0.148438,-0.0664 0.148438,-0.14844 v 0 m 0,0 v -11 m 0,0 c 0,0.082 -0.06641,0.14844 -0.148438,0.14844 h 3 c 0.08203,0 0.148438,-0.0664 0.148438,-0.14844 v -6 c 0,-0.082 -0.06641,-0.14844 -0.148438,-0.14844 h -3 c 0.08203,0 0.148438,0.0664 0.148438,0.14844 v -6 m 0,0 c 0,0.082 -0.06641,0.14844 -0.148438,0.14844 h 3 c 0.08203,0 0.148438,-0.0664 0.148438,-0.14844 v -6 c 0,-0.082 -0.06641,-0.148435 -0.148438,-0.148435 h -3 c 0.08203,0 0.148438,0.06641 0.148438,0.148435 v -6.000005 m 0,0 c 0,0.082 -0.06641,0.14844 -0.148438,0.14844 h 3 c 0.08203,0 0.148438,-0.0664 0.148438,-0.14844 l -10e-7,-6 c 0,-0.082 -0.06641,-0.14843 -0.148437,-0.14843 h -3 c 0.08203,0 0.148437,0.0664 0.148437,0.14843 v -6 m 0,0 c 0,0.082 -0.06641,0.14844 -0.148437,0.14844 h 3 c 0.08203,0 0.148437,-0.0664 0.148437,-0.14844 v -5.999998 c 0,-0.08203 -0.06641,-0.148437 -0.148437,-0.148437 h -3 c 0.08203,0 0.148437,0.06641 0.148437,0.148437 v -11 m 0,0 c 0,-0.08203 -0.06641,-0.148437 -0.148437,-0.148437 v 0 m 0,0 h -11 m 0,0 c 0.08203,0 0.148437,0.06641 0.148437,0.148437 v -3 c 0,-0.08203 -0.06641,-0.148437 -0.148437,-0.148437 h -6 c -0.08203,0 -0.148438,0.06641 -0.148438,0.148437 v 3 c 0,-0.08203 0.06641,-0.148437 0.148438,-0.148437 h -6 m 0,0 c 0.08203,0 0.148437,0.06641 0.148437,0.148437 v -3 c 0,-0.08203 -0.06641,-0.148437 -0.148437,-0.148437 h -6 c -0.08203,0 -0.148438,0.06641 -0.148438,0.148437 v 3 c 0,-0.08203 0.06641,-0.148437 0.148438,-0.148437 h -6 m 0,0 c 0.08203,0 0.148437,0.06641 0.148437,0.148437 v -3 c 0,-0.08203 -0.06641,-0.148437 -0.148437,-0.148437 h -6 c -0.08203,0 -0.148438,0.06641 -0.148438,0.148437 v 3 c 0,-0.08203 0.06641,-0.148437 0.148438,-0.148437 h -6 m 0,0 c 0.08203,0 0.148437,0.06641 0.148437,0.148437 v -3 c 0,-0.08203 -0.06641,-0.148437 -0.148437,-0.148437 h -6 c -0.08203,0 -0.148438,0.06641 -0.148438,0.148437 v 3 c 0,-0.08203 0.06641,-0.148437 0.148438,-0.148437 h -11 m 0,0 C 3.216408,64.9508 3.15,65.01721 3.15,65.099237 v 0 m 0,0 v 11 m 0,0 C 3.15,76.017207 3.21641,75.9508 3.298438,75.9508 H 0.29843801 c -0.08203,0 -0.148438,0.06641 -0.148438,0.148437 v 5.999998 c 0,0.082 0.066407,0.14844 0.148438,0.14844 H 3.298438 c -0.08203,0 -0.148438,-0.0664 -0.148438,-0.14844 v 6 m 0,0 c 0,-0.082 0.06641,-0.14843 0.148438,-0.14843 H 0.29843801 c -0.08203,0 -0.148438,0.0664 -0.148438,0.14843 v 6 c 0,0.082 0.066407,0.14844 0.148438,0.14844 H 3.298438 c -0.08203,0 -0.148438,-0.0664 -0.148438,-0.14844 v 6.000005 m 0,0 c 0,-0.082 0.06641,-0.148435 0.148438,-0.148435 H 0.29843801 c -0.08203,0 -0.148438,0.06641 -0.148438,0.148435 v 6 c 0,0.082 0.066407,0.14844 0.148438,0.14844 H 3.298438 c -0.08203,0 -0.148438,-0.0664 -0.148438,-0.14844 v 6 m 0,0 c 0,-0.082 0.06641,-0.14844 0.148438,-0.14844 H 0.29843801 c -0.08203,0 -0.148438,0.0664 -0.148438,0.14844 v 6 c 0,0.082 0.066407,0.14844 0.148438,0.14844 H 3.298438 c -0.08203,0 -0.148438,-0.0664 -0.148438,-0.14844 v 11 m 0,0 c 0,0.082 0.06641,0.14844 0.148438,0.14844 v 0"
       style="fill:none;stroke:#ff0000;stroke-width:0.30000001;stroke-linecap:butt;stroke-linejoin:miter;stroke-miterlimit:10;stroke-opacity:1"
       id="path6"
       inkscape:connector-curvature="0" />
    <g
       transform="matrix(1.6727771,0,0,1.6727771,-70.597118,-105.62459)"
       id="g1153">
      <path
         inkscape:connector-curvature="0"
         d="m 46.892309,133.80587 v 2.05557 m 0,0 h 1.174612"
         style="fill:none;stroke:#00ff00;stroke-width:0.09788429;stroke-opacity:1"
         id="path6071" />
      <path
         inkscape:connector-curvature="0"
         d="m 48.556342,133.80587 v 2.05557 m 0,-2.05557 h 1.272496 m -1.272496,0.97884 h 0.783075 m -0.783075,1.07673 h 1.272496"
         style="fill:none;stroke:#00ff00;stroke-width:0.09788429;stroke-opacity:1"
         id="path6073" />
      <path
         inkscape:connector-curvature="0"
         d="m 50.416143,133.80587 v 2.05557 m 0,-2.05557 h 0.68519 l 0.293653,0.0979 0.195768,0.19577 0.09789,0.19577 0.09788,0.29365 v 0.48942 l -0.09788,0.29366 -0.09789,0.19577 -0.195768,0.19576 -0.293653,0.0979 h -0.68519"
         style="fill:none;stroke:#00ff00;stroke-width:0.09788429;stroke-opacity:1"
         id="path6075" />
      <path
         inkscape:connector-curvature="0"
         d="m 55.408242,134.29529 -0.09788,-0.19577 -0.195769,-0.19577 -0.195768,-0.0979 h -0.391537 l -0.195769,0.0979 -0.195768,0.19577 -0.09789,0.19577 -0.09788,0.29365 v 0.48942 l 0.09788,0.29366 0.09789,0.19577 0.195768,0.19576 0.195769,0.0979 h 0.391537 l 0.195768,-0.0979 0.195769,-0.19576 0.09788,-0.19577"
         style="fill:none;stroke:#00ff00;stroke-width:0.09788429;stroke-opacity:1"
         id="path6079" />
      <path
         inkscape:connector-curvature="0"
         d="m 56.093433,134.49106 v 0.97884 l 0.09788,0.29365 0.195768,0.0979 h 0.293653 l 0.195769,-0.0979 0.293653,-0.29365 m 0,-0.97884 v 1.37038"
         style="fill:none;stroke:#00ff00;stroke-width:0.09788429;stroke-opacity:1"
         id="path6081" />
      <path
         inkscape:connector-curvature="0"
         d="m 57.953233,133.80587 v 2.05557 m 0,-1.07673 0.195769,-0.19577 0.195768,-0.0979 h 0.293653 l 0.195769,0.0979 0.195768,0.19577 0.09788,0.29365 v 0.19577 l -0.09788,0.29366 -0.195768,0.19576 -0.195769,0.0979 H 58.34477 l -0.195768,-0.0979 -0.195769,-0.19576"
         style="fill:none;stroke:#00ff00;stroke-width:0.09788429;stroke-opacity:1"
         id="path6083" />
      <path
         inkscape:connector-curvature="0"
         d="m 59.715151,135.07836 h 1.174612 v -0.19576 l -0.09789,-0.19577 -0.09788,-0.0979 -0.195768,-0.0979 h -0.293653 l -0.195769,0.0979 -0.195768,0.19577 -0.09788,0.29365 v 0.19577 l 0.09788,0.29366 0.195768,0.19576 0.195769,0.0979 h 0.293653 l 0.195768,-0.0979 0.195769,-0.19576"
         style="fill:none;stroke:#00ff00;stroke-width:0.09788429;stroke-opacity:1"
         id="path6085" />
    </g>
    <g
       inkscape:label="Hershey Text"
       transform="matrix(0.0612713,0,0,0.0612713,7.608216,123.4178)"
       id="g6276"
       style="stroke:#00ff00;stroke-opacity:1">
      <path
         inkscape:connector-curvature="0"
         d="M 8,-7 7,-9 5,-11 3,-12 h -4 l -2,1 -2,2 -1,2 -1,3 v 5 l 1,3 1,2 2,2 2,1 H 3 L 5,8 7,6 8,4"
         style="fill:none;stroke:#00ff00;stroke-opacity:1"
         transform="translate(10)"
         id="path6218" />
      <path
         inkscape:connector-curvature="0"
         d="M 8,-7 7,-9 5,-11 3,-12 h -4 l -2,1 -2,2 -1,2 -1,3 v 5 l 1,3 1,2 2,2 2,1 H 3 L 5,8 7,6 8,4"
         style="fill:none;stroke:#00ff00;stroke-opacity:1"
         transform="translate(31)"
         id="path6220" />
      <path
         inkscape:connector-curvature="0"
         d="M -9,0 H 9"
         style="fill:none;stroke:#00ff00;stroke-opacity:1"
         transform="translate(55)"
         id="path6222" />
      <path
         inkscape:connector-curvature="0"
         d="M -7,-12 V 9 m 0,-21 h 9 l 3,1 1,1 1,2 v 2 l -1,2 -1,1 -3,1 m -9,0 h 9 l 3,1 1,1 1,2 V 5 L 6,7 5,8 2,9 h -9"
         style="fill:none;stroke:#00ff00;stroke-opacity:1"
         transform="translate(79)"
         id="path6224" />
      <path
         inkscape:connector-curvature="0"
         d="M -8,-12 0,-2 V 9 M 8,-12 0,-2"
         style="fill:none;stroke:#00ff00;stroke-opacity:1"
         transform="translate(98)"
         id="path6226" />
      <path
         inkscape:connector-curvature="0"
         d="M -9,0 H 9"
         style="fill:none;stroke:#00ff00;stroke-opacity:1"
         transform="translate(120)"
         id="path6228" />
      <path
         inkscape:connector-curvature="0"
         d="m 7,-9 -2,-2 -3,-1 h -4 l -3,1 -2,2 v 2 l 1,2 1,1 2,1 6,2 2,1 1,1 1,2 V 6 L 5,8 2,9 H -2 L -5,8 -7,6"
         style="fill:none;stroke:#00ff00;stroke-opacity:1"
         transform="translate(143)"
         id="path6230" />
      <path
         inkscape:connector-curvature="0"
         d="M 0,-12 -8,9 M 0,-12 8,9 M -5,2 H 5"
         style="fill:none;stroke:#00ff00;stroke-opacity:1"
         transform="translate(162)"
         id="path6232" />
      <path
         inkscape:connector-curvature="0"
         d=""
         style="fill:none;stroke:#00ff00;stroke-opacity:1"
         transform="translate(179)"
         id="path6234" />
      <path
         inkscape:connector-curvature="0"
         d="M 3,-12 -7,2 H 8 M 3,-12 V 9"
         style="fill:none;stroke:#00ff00;stroke-opacity:1"
         transform="translate(197)"
         id="path6236" />
      <path
         inkscape:connector-curvature="0"
         d="M 0,4 -1,5 0,6 1,5 0,4"
         style="fill:none;stroke:#00ff00;stroke-opacity:1"
         transform="translate(211)"
         id="path6238" />
      <path
         inkscape:connector-curvature="0"
         d="m -1,-12 -3,1 -2,3 -1,5 v 3 l 1,5 2,3 3,1 H 1 L 4,8 6,5 7,0 V -3 L 6,-8 4,-11 1,-12 h -2"
         style="fill:none;stroke:#00ff00;stroke-opacity:1"
         transform="translate(225)"
         id="path6240" />
      <path
         inkscape:connector-curvature="0"
         d=""
         style="fill:none;stroke:#00ff00;stroke-opacity:1"
         transform="translate(243)"
         id="path6242" />
      <path
         inkscape:connector-curvature="0"
         d="M -9,0 H 9"
         style="fill:none;stroke:#00ff00;stroke-opacity:1"
         transform="translate(264)"
         id="path6244" />
      <path
         inkscape:connector-curvature="0"
         d=""
         style="fill:none;stroke:#00ff00;stroke-opacity:1"
         transform="translate(285)"
         id="path6246" />
      <path
         inkscape:connector-curvature="0"
         d="M -7,-12 V 9 m 0,-21 h 9 l 3,1 1,1 1,2 v 2 l -1,2 -1,1 -3,1 m -9,0 h 9 l 3,1 1,1 1,2 V 5 L 6,7 5,8 2,9 h -9"
         style="fill:none;stroke:#00ff00;stroke-opacity:1"
         transform="translate(304)"
         id="path6248" />
      <path
         inkscape:connector-curvature="0"
         d="m -1,-12 1,1 1,-1 -1,-1 -1,1 m 1,7 V 9"
         style="fill:none;stroke:#00ff00;stroke-opacity:1"
         transform="translate(318)"
         id="path6250" />
      <path
         inkscape:connector-curvature="0"
         d="M -5,-5 V 9 m 0,-10 3,-3 2,-1 h 3 l 2,1 1,3 V 9"
         style="fill:none;stroke:#00ff00;stroke-opacity:1"
         transform="translate(331)"
         id="path6252" />
      <path
         inkscape:connector-curvature="0"
         d="M 6,-5 V 9 M 6,-2 4,-4 2,-5 h -3 l -2,1 -2,2 -1,3 v 2 l 1,3 2,2 2,1 H 2 L 4,8 6,6"
         style="fill:none;stroke:#00ff00;stroke-opacity:1"
         transform="translate(350)"
         id="path6254" />
      <path
         inkscape:connector-curvature="0"
         d="M -3,-5 V 9 m 0,-8 1,-3 2,-2 2,-1 h 3"
         style="fill:none;stroke:#00ff00;stroke-opacity:1"
         transform="translate(367)"
         id="path6256" />
      <path
         inkscape:connector-curvature="0"
         d="M -6,-5 0,9 M 6,-5 0,9 l -2,4 -2,2 -2,1 h -1"
         style="fill:none;stroke:#00ff00;stroke-opacity:1"
         transform="translate(381)"
         id="path6258" />
      <path
         inkscape:connector-curvature="0"
         d=""
         style="fill:none;stroke:#00ff00;stroke-opacity:1"
         transform="translate(397)"
         id="path6260" />
      <path
         inkscape:connector-curvature="0"
         d="M -7,-12 V 9 M 7,-12 -7,2 m 5,-5 9,12"
         style="fill:none;stroke:#00ff00;stroke-opacity:1"
         transform="translate(416)"
         id="path6262" />
      <path
         inkscape:connector-curvature="0"
         d="m -1,-12 1,1 1,-1 -1,-1 -1,1 m 1,7 V 9"
         style="fill:none;stroke:#00ff00;stroke-opacity:1"
         transform="translate(430)"
         id="path6264" />
      <path
         inkscape:connector-curvature="0"
         d="M 0,-12 V 5 L 1,8 3,9 H 5 M -3,-5 h 7"
         style="fill:none;stroke:#00ff00;stroke-opacity:1"
         transform="translate(439)"
         id="path6266" />
      <path
         inkscape:connector-curvature="0"
         d="M 6,-2 4,-4 2,-5 h -3 l -2,1 -2,2 -1,3 v 2 l 1,3 2,2 2,1 H 2 L 4,8 6,6"
         style="fill:none;stroke:#00ff00;stroke-opacity:1"
         transform="translate(455)"
         id="path6268" />
      <path
         inkscape:connector-curvature="0"
         d="M -5,-12 V 9 m 0,-10 3,-3 2,-1 h 3 l 2,1 1,3 V 9"
         style="fill:none;stroke:#00ff00;stroke-opacity:1"
         transform="translate(473)"
         id="path6270" />
      <path
         inkscape:connector-curvature="0"
         d="M -6,1 H 6 V -1 L 5,-3 4,-4 2,-5 h -3 l -2,1 -2,2 -1,3 v 2 l 1,3 2,2 2,1 H 2 L 4,8 6,6"
         style="fill:none;stroke:#00ff00;stroke-opacity:1"
         transform="translate(492)"
         id="path6272" />
      <path
         inkscape:connector-curvature="0"
         d="M -5,-5 V 9 m 0,-10 3,-3 2,-1 h 3 l 2,1 1,3 V 9"
         style="fill:none;stroke:#00ff00;stroke-opacity:1"
         transform="translate(510)"
         id="path6274" />
    </g>
  </g>
</svg>
